<?xml version="1.0" encoding="UTF-8" standalone="no"?>
<!-- Created with Inkscape (http://www.inkscape.org/) -->

<svg
   xmlns:dc="http://purl.org/dc/elements/1.1/"
   xmlns:cc="http://creativecommons.org/ns#"
   xmlns:rdf="http://www.w3.org/1999/02/22-rdf-syntax-ns#"
   xmlns:svg="http://www.w3.org/2000/svg"
   xmlns="http://www.w3.org/2000/svg"
   xmlns:sodipodi="http://sodipodi.sourceforge.net/DTD/sodipodi-0.dtd"
   xmlns:inkscape="http://www.inkscape.org/namespaces/inkscape"
   width="256"
   height="256"
   viewBox="0 0 67.733333 67.733333"
   version="1.1"
   id="svg1232"
   inkscape:version="0.92.4 (33fec40, 2019-01-16)"
   sodipodi:docname="favicon.svg"
   inkscape:export-filename="/home/v/Documents/Nine99/html5up-multiverse/site/images/favi.png"
   inkscape:export-xdpi="96"
   inkscape:export-ydpi="96">
  <defs
     id="defs1226" />
  <sodipodi:namedview
     id="base"
     pagecolor="#ffffff"
     bordercolor="#666666"
     borderopacity="1.0"
     inkscape:pageopacity="0.0"
     inkscape:pageshadow="2"
     inkscape:zoom="1.979899"
     inkscape:cx="212.24134"
     inkscape:cy="96.354488"
     inkscape:document-units="mm"
     inkscape:current-layer="layer1"
     showgrid="false"
     units="px"
     inkscape:window-width="1853"
     inkscape:window-height="1025"
     inkscape:window-x="67"
     inkscape:window-y="27"
     inkscape:window-maximized="1" />
  <metadata
     id="metadata1229">
    <rdf:RDF>
      <cc:Work
         rdf:about="">
        <dc:format>image/svg+xml</dc:format>
        <dc:type
           rdf:resource="http://purl.org/dc/dcmitype/StillImage" />
        <dc:title></dc:title>
      </cc:Work>
    </rdf:RDF>
  </metadata>
  <g
     inkscape:label="Layer 1"
     inkscape:groupmode="layer"
     id="layer1"
     transform="translate(0,-229.26667)">
    <g
       id="g2030"
       transform="matrix(3.5349185,0,0,3.5349185,228.64961,-956.93376)">
      <path
         style="font-style:normal;font-variant:normal;font-weight:normal;font-stretch:normal;font-size:13.11866856px;line-height:1.25;font-family:Audiowide;-inkscape-font-specification:'Audiowide, Normal';font-variant-ligatures:normal;font-variant-caps:normal;font-variant-numeric:normal;font-feature-settings:normal;text-align:start;letter-spacing:0px;word-spacing:0px;writing-mode:lr-tb;text-anchor:start;fill:#999999;fill-opacity:1;stroke:none;stroke-width:0.32796672"
         d="m -61.21704,341.21318 c -0.28612,0 -0.5421,0.0359 -0.76843,0.10852 -0.22633,0.0726 -0.42694,0.17123 -0.60203,0.29507 -0.17082,0.11957 -0.31851,0.25799 -0.44235,0.416 -0.12384,0.158 -0.22389,0.32462 -0.30076,0.49971 -0.0769,0.17081 -0.13468,0.34619 -0.17311,0.52555 -0.0342,0.17508 -0.0512,0.33926 -0.0512,0.49299 v 0.74931 c 0,0.28612 0.0364,0.54261 0.10903,0.76894 0.0726,0.22634 0.16827,0.42695 0.28784,0.60203 0.12384,0.17509 0.26471,0.32471 0.42271,0.44856 0.15801,0.11957 0.3227,0.21961 0.49351,0.30075 0.17509,0.0769 0.34995,0.13468 0.52504,0.17312 0.17508,0.0342 0.3417,0.0512 0.49971,0.0512 h 4.41988 v 0.67283 c 0,0.21778 -0.034,0.41209 -0.10232,0.5829 -0.0683,0.16655 -0.16644,0.30935 -0.29455,0.42892 -0.12384,0.1153 -0.27347,0.20711 -0.44855,0.27543 -0.17082,0.0683 -0.36074,0.11108 -0.57,0.12816 h -4.15736 -1.17203 v 1.67794 h 5.32939 v -0.0124 c 0.20499,0 0.42453,-0.0233 0.6594,-0.0703 0.23487,-0.047 0.46562,-0.12178 0.69194,-0.22427 0.23061,-0.10676 0.45066,-0.23939 0.65991,-0.39739 0.20925,-0.16228 0.39287,-0.35658 0.55087,-0.58291 0.16228,-0.2306 0.29053,-0.49534 0.38448,-0.79427 0.0982,-0.29893 0.14727,-0.63603 0.14727,-1.01182 v -3.01739 c 0,-0.3758 -0.0491,-0.7129 -0.14727,-1.01183 -0.094,-0.29892 -0.2222,-0.56173 -0.38448,-0.78806 -0.158,-0.2306 -0.34162,-0.42684 -0.55087,-0.58911 -0.20925,-0.16228 -0.4293,-0.29491 -0.65991,-0.3974 -0.22632,-0.10676 -0.45707,-0.1835 -0.69194,-0.23047 -0.23487,-0.047 -0.45441,-0.0703 -0.6594,-0.0703 z m 0,1.66553 h 3.00446 c 0.20072,0 0.38626,0.034 0.55708,0.10232 0.17509,0.0641 0.32471,0.15779 0.44855,0.28164 0.12811,0.12384 0.22816,0.27346 0.30076,0.44855 0.0726,0.17508 0.10903,0.37132 0.10903,0.58911 v 0.66662 h -4.40696 c -0.22633,0 -0.39733,-0.0559 -0.51263,-0.16691 -0.1153,-0.1153 -0.1726,-0.28192 -0.1726,-0.49971 v -0.74931 c 0,-0.19217 0.0597,-0.35248 0.17931,-0.48059 0.12385,-0.12811 0.28802,-0.19172 0.493,-0.19172 z"
         id="path1896"
         inkscape:connector-curvature="0" />
      <path
         style="font-style:normal;font-variant:normal;font-weight:normal;font-stretch:normal;font-size:13.11866856px;line-height:1.25;font-family:Audiowide;-inkscape-font-specification:'Audiowide, Normal';font-variant-ligatures:normal;font-variant-caps:normal;font-variant-numeric:normal;font-feature-settings:normal;text-align:start;letter-spacing:0px;word-spacing:0px;writing-mode:lr-tb;text-anchor:start;fill:#999999;fill-opacity:1;stroke:none;stroke-width:0.32796672"
         d="m -52.18452,341.21318 c -0.28612,0 -0.5421,0.0359 -0.76843,0.10852 -0.22633,0.0726 -0.42746,0.17123 -0.60255,0.29507 -0.17082,0.11957 -0.31799,0.25799 -0.44183,0.416 -0.12384,0.158 -0.22389,0.32462 -0.30076,0.49971 -0.0769,0.17081 -0.13467,0.34619 -0.17311,0.52555 -0.0342,0.17508 -0.0512,0.33926 -0.0512,0.49299 v 0.74931 c 0,0.28612 0.0359,0.54261 0.10852,0.76894 0.0726,0.22634 0.16878,0.42695 0.28835,0.60203 0.12384,0.17509 0.26471,0.3247 0.42271,0.44856 0.15802,0.11956 0.3227,0.21961 0.49351,0.30075 0.1751,0.0769 0.34995,0.13468 0.52504,0.17312 0.17508,0.0342 0.3417,0.0512 0.49971,0.0512 h 4.41988 v 0.67283 c 0,0.21777 -0.034,0.41209 -0.10231,0.5829 -0.0683,0.16655 -0.16645,0.30935 -0.29456,0.42892 -0.12385,0.1153 -0.27346,0.20712 -0.44855,0.27543 -0.17081,0.0683 -0.36076,0.11108 -0.56999,0.12816 h -2.49546 -1.66191 -1.19476 v 1.67794 h 2.85667 v -0.0124 h 2.49546 c 0.20496,0 0.42451,-0.0233 0.65939,-0.0703 0.23487,-0.047 0.46562,-0.12178 0.69195,-0.22427 0.2306,-0.10676 0.45065,-0.23939 0.6599,-0.39739 0.20925,-0.16228 0.39287,-0.35658 0.55087,-0.58291 0.16228,-0.2306 0.29053,-0.49534 0.38447,-0.79427 0.0982,-0.29893 0.14728,-0.63603 0.14728,-1.01182 v -3.01739 c 0,-0.3758 -0.0491,-0.7129 -0.14728,-1.01183 -0.094,-0.29892 -0.22219,-0.56173 -0.38447,-0.78806 -0.158,-0.2306 -0.34162,-0.42684 -0.55087,-0.58911 -0.20925,-0.16228 -0.4293,-0.2949 -0.6599,-0.3974 -0.22633,-0.10676 -0.45708,-0.1835 -0.69195,-0.23047 -0.23488,-0.047 -0.45443,-0.0703 -0.65939,-0.0703 z m 0,1.66553 h 3.00447 c 0.2007,0 0.38625,0.034 0.55707,0.10232 0.17508,0.0641 0.32471,0.15778 0.44855,0.28164 0.12811,0.12383 0.22816,0.27346 0.30076,0.44855 0.0726,0.17508 0.10903,0.37132 0.10903,0.58911 v 0.66662 h -4.40696 c -0.22634,0 -0.39733,-0.0559 -0.51263,-0.16691 -0.11531,-0.1153 -0.1726,-0.28192 -0.1726,-0.49971 v -0.74931 c 0,-0.19217 0.0597,-0.35248 0.17931,-0.48059 0.12386,-0.12811 0.28802,-0.19172 0.493,-0.19172 z"
         id="path1898"
         inkscape:connector-curvature="0" />
      <path
         inkscape:connector-curvature="0"
         id="path1880"
         d="m -61.4029,341.08384 c -0.28612,0 -0.5421,0.0359 -0.76843,0.10852 -0.22633,0.0726 -0.42694,0.17123 -0.60203,0.29507 -0.17082,0.11957 -0.31851,0.25799 -0.44235,0.416 -0.12384,0.158 -0.22389,0.32462 -0.30076,0.49971 -0.0769,0.17081 -0.13468,0.34619 -0.17311,0.52555 -0.0342,0.17508 -0.0512,0.33926 -0.0512,0.49299 v 0.74931 c 0,0.28612 0.0364,0.54261 0.10903,0.76894 0.0726,0.22634 0.16827,0.42695 0.28784,0.60203 0.12384,0.17509 0.26471,0.32471 0.42271,0.44856 0.15801,0.11957 0.3227,0.21961 0.49351,0.30075 0.17509,0.0769 0.34995,0.13468 0.52504,0.17312 0.17508,0.0342 0.3417,0.0512 0.49971,0.0512 h 4.41988 v 0.67283 c 0,0.21778 -0.034,0.41209 -0.10232,0.5829 -0.0683,0.16655 -0.16644,0.30935 -0.29455,0.42892 -0.12384,0.1153 -0.27347,0.20711 -0.44855,0.27543 -0.17082,0.0683 -0.36074,0.11108 -0.57,0.12816 h -4.15736 -1.17203 v 1.67794 h 5.32939 v -0.0124 c 0.20499,0 0.42453,-0.0233 0.6594,-0.0703 0.23487,-0.047 0.46562,-0.12178 0.69194,-0.22427 0.23061,-0.10676 0.45066,-0.23939 0.65991,-0.39739 0.20925,-0.16228 0.39287,-0.35658 0.55087,-0.58291 0.16228,-0.2306 0.29053,-0.49534 0.38448,-0.79427 0.0982,-0.29893 0.14727,-0.63603 0.14727,-1.01182 v -3.01739 c 0,-0.3758 -0.0491,-0.7129 -0.14727,-1.01183 -0.094,-0.29892 -0.2222,-0.56173 -0.38448,-0.78806 -0.158,-0.2306 -0.34162,-0.42684 -0.55087,-0.58911 -0.20925,-0.16228 -0.4293,-0.29491 -0.65991,-0.3974 -0.22632,-0.10676 -0.45707,-0.1835 -0.69194,-0.23047 -0.23487,-0.047 -0.45441,-0.0703 -0.6594,-0.0703 z m 0,1.66553 h 3.00446 c 0.20072,0 0.38626,0.034 0.55708,0.10232 0.17509,0.0641 0.32471,0.15779 0.44855,0.28164 0.12811,0.12384 0.22816,0.27346 0.30076,0.44855 0.0726,0.17508 0.10903,0.37132 0.10903,0.58911 v 0.66662 h -4.40696 c -0.22633,0 -0.39733,-0.0559 -0.51263,-0.16691 -0.1153,-0.1153 -0.1726,-0.28192 -0.1726,-0.49971 v -0.74931 c 0,-0.19217 0.0597,-0.35248 0.17931,-0.48059 0.12385,-0.12811 0.28802,-0.19172 0.493,-0.19172 z"
         style="font-style:normal;font-variant:normal;font-weight:normal;font-stretch:normal;font-size:13.11866856px;line-height:1.25;font-family:Audiowide;-inkscape-font-specification:'Audiowide, Normal';font-variant-ligatures:normal;font-variant-caps:normal;font-variant-numeric:normal;font-feature-settings:normal;text-align:start;letter-spacing:0px;word-spacing:0px;writing-mode:lr-tb;text-anchor:start;fill:#ffffff;fill-opacity:1;stroke:none;stroke-width:0.32796672" />
      <path
         inkscape:connector-curvature="0"
         id="path1882"
         d="m -52.37038,341.08384 c -0.28612,0 -0.5421,0.0359 -0.76843,0.10852 -0.22633,0.0726 -0.42746,0.17123 -0.60255,0.29507 -0.17082,0.11957 -0.31799,0.25799 -0.44183,0.416 -0.12384,0.158 -0.22389,0.32462 -0.30076,0.49971 -0.0769,0.17081 -0.13467,0.34619 -0.17311,0.52555 -0.0342,0.17508 -0.0512,0.33926 -0.0512,0.49299 v 0.74931 c 0,0.28612 0.0359,0.54261 0.10852,0.76894 0.0726,0.22634 0.16878,0.42695 0.28835,0.60203 0.12384,0.17509 0.26471,0.3247 0.42271,0.44856 0.15802,0.11956 0.3227,0.21961 0.49351,0.30075 0.1751,0.0769 0.34995,0.13468 0.52504,0.17312 0.17508,0.0342 0.3417,0.0512 0.49971,0.0512 h 4.41988 v 0.67283 c 0,0.21777 -0.034,0.41209 -0.10231,0.5829 -0.0683,0.16655 -0.16645,0.30935 -0.29456,0.42892 -0.12385,0.1153 -0.27346,0.20712 -0.44855,0.27543 -0.17081,0.0683 -0.36076,0.11108 -0.56999,0.12816 h -2.49546 -1.66191 -1.19476 v 1.67794 h 2.85667 v -0.0124 h 2.49546 c 0.20496,0 0.42451,-0.0233 0.65939,-0.0703 0.23487,-0.047 0.46562,-0.12178 0.69195,-0.22427 0.2306,-0.10676 0.45065,-0.23939 0.6599,-0.39739 0.20925,-0.16228 0.39287,-0.35658 0.55087,-0.58291 0.16228,-0.2306 0.29053,-0.49534 0.38447,-0.79427 0.0982,-0.29893 0.14728,-0.63603 0.14728,-1.01182 v -3.01739 c 0,-0.3758 -0.0491,-0.7129 -0.14728,-1.01183 -0.094,-0.29892 -0.22219,-0.56173 -0.38447,-0.78806 -0.158,-0.2306 -0.34162,-0.42684 -0.55087,-0.58911 -0.20925,-0.16228 -0.4293,-0.2949 -0.6599,-0.3974 -0.22633,-0.10676 -0.45708,-0.1835 -0.69195,-0.23047 -0.23488,-0.047 -0.45443,-0.0703 -0.65939,-0.0703 z m 0,1.66553 h 3.00447 c 0.2007,0 0.38625,0.034 0.55707,0.10232 0.17508,0.0641 0.32471,0.15778 0.44855,0.28164 0.12811,0.12383 0.22816,0.27346 0.30076,0.44855 0.0726,0.17508 0.10903,0.37132 0.10903,0.58911 v 0.66662 h -4.40696 c -0.22634,0 -0.39733,-0.0559 -0.51263,-0.16691 -0.11531,-0.1153 -0.1726,-0.28192 -0.1726,-0.49971 v -0.74931 c 0,-0.19217 0.0597,-0.35248 0.17931,-0.48059 0.12386,-0.12811 0.28802,-0.19172 0.493,-0.19172 z"
         style="font-style:normal;font-variant:normal;font-weight:normal;font-stretch:normal;font-size:13.11866856px;line-height:1.25;font-family:Audiowide;-inkscape-font-specification:'Audiowide, Normal';font-variant-ligatures:normal;font-variant-caps:normal;font-variant-numeric:normal;font-feature-settings:normal;text-align:start;letter-spacing:0px;word-spacing:0px;writing-mode:lr-tb;text-anchor:start;fill:#ffffff;fill-opacity:1;stroke:none;stroke-width:0.32796672" />
      <path
         style="font-style:normal;font-variant:normal;font-weight:normal;font-stretch:normal;font-size:13.11866856px;line-height:1.25;font-family:Audiowide;-inkscape-font-specification:'Audiowide, Normal';font-variant-ligatures:normal;font-variant-caps:normal;font-variant-numeric:normal;font-feature-settings:normal;text-align:start;letter-spacing:0px;word-spacing:0px;writing-mode:lr-tb;text-anchor:start;fill:#0066ff;fill-opacity:1;stroke:none;stroke-width:0.32796672"
         d="m -61.59916,340.7413 c -0.28612,0 -0.5421,0.0359 -0.76843,0.10852 -0.22633,0.0726 -0.42694,0.17123 -0.60203,0.29507 -0.17082,0.11957 -0.31851,0.25799 -0.44235,0.416 -0.12384,0.158 -0.22389,0.32462 -0.30076,0.49971 -0.0769,0.17081 -0.13468,0.34619 -0.17311,0.52555 -0.0342,0.17508 -0.0512,0.33926 -0.0512,0.49299 v 0.74931 c 0,0.28612 0.0364,0.54261 0.10903,0.76894 0.0726,0.22634 0.16827,0.42695 0.28784,0.60203 0.12384,0.17509 0.26471,0.32471 0.42271,0.44856 0.15801,0.11957 0.3227,0.21961 0.49351,0.30075 0.17509,0.0769 0.34995,0.13468 0.52504,0.17312 0.17508,0.0342 0.3417,0.0512 0.49971,0.0512 h 4.41988 v 0.67283 c 0,0.21778 -0.034,0.41209 -0.10232,0.5829 -0.0683,0.16655 -0.16644,0.30935 -0.29455,0.42892 -0.12384,0.1153 -0.27347,0.20711 -0.44855,0.27543 -0.17082,0.0683 -0.36074,0.11108 -0.57,0.12816 h -4.15736 -1.17203 v 1.67794 h 5.32939 v -0.0124 c 0.20499,0 0.42453,-0.0233 0.6594,-0.0703 0.23487,-0.047 0.46562,-0.12178 0.69194,-0.22427 0.23061,-0.10676 0.45066,-0.23939 0.65991,-0.39739 0.20925,-0.16228 0.39287,-0.35658 0.55087,-0.58291 0.16228,-0.2306 0.29053,-0.49534 0.38448,-0.79427 0.0982,-0.29893 0.14727,-0.63603 0.14727,-1.01182 v -3.01739 c 0,-0.3758 -0.0491,-0.7129 -0.14727,-1.01183 -0.094,-0.29892 -0.2222,-0.56173 -0.38448,-0.78806 -0.158,-0.2306 -0.34162,-0.42684 -0.55087,-0.58911 -0.20925,-0.16228 -0.4293,-0.29491 -0.65991,-0.3974 -0.22632,-0.10676 -0.45707,-0.1835 -0.69194,-0.23047 -0.23487,-0.047 -0.45441,-0.0703 -0.6594,-0.0703 z m 0,1.66553 h 3.00446 c 0.20072,0 0.38626,0.034 0.55708,0.10232 0.17509,0.0641 0.32471,0.15779 0.44855,0.28164 0.12811,0.12384 0.22816,0.27346 0.30076,0.44855 0.0726,0.17508 0.10903,0.37132 0.10903,0.58911 v 0.66662 h -4.40696 c -0.22633,0 -0.39733,-0.0559 -0.51263,-0.16691 -0.1153,-0.1153 -0.1726,-0.28192 -0.1726,-0.49971 v -0.74931 c 0,-0.19217 0.0597,-0.35248 0.17931,-0.48059 0.12385,-0.12811 0.28802,-0.19172 0.493,-0.19172 z"
         id="path1816"
         inkscape:connector-curvature="0" />
      <path
         style="font-style:normal;font-variant:normal;font-weight:normal;font-stretch:normal;font-size:13.11866856px;line-height:1.25;font-family:Audiowide;-inkscape-font-specification:'Audiowide, Normal';font-variant-ligatures:normal;font-variant-caps:normal;font-variant-numeric:normal;font-feature-settings:normal;text-align:start;letter-spacing:0px;word-spacing:0px;writing-mode:lr-tb;text-anchor:start;fill:#0066ff;fill-opacity:1;stroke:none;stroke-width:0.32796672"
         d="m -52.56664,340.7413 c -0.28612,0 -0.5421,0.0359 -0.76843,0.10852 -0.22633,0.0726 -0.42746,0.17123 -0.60255,0.29507 -0.17082,0.11957 -0.31799,0.25799 -0.44183,0.416 -0.12384,0.158 -0.22389,0.32462 -0.30076,0.49971 -0.0769,0.17081 -0.13467,0.34619 -0.17311,0.52555 -0.0342,0.17508 -0.0512,0.33926 -0.0512,0.49299 v 0.74931 c 0,0.28612 0.0359,0.54261 0.10852,0.76894 0.0726,0.22634 0.16878,0.42695 0.28835,0.60203 0.12384,0.17509 0.26471,0.3247 0.42271,0.44856 0.15802,0.11956 0.3227,0.21961 0.49351,0.30075 0.1751,0.0769 0.34995,0.13468 0.52504,0.17312 0.17508,0.0342 0.3417,0.0512 0.49971,0.0512 h 4.41988 v 0.67283 c 0,0.21777 -0.034,0.41209 -0.10231,0.5829 -0.0683,0.16655 -0.16645,0.30935 -0.29456,0.42892 -0.12385,0.1153 -0.27346,0.20712 -0.44855,0.27543 -0.17081,0.0683 -0.36076,0.11108 -0.56999,0.12816 h -2.49546 -1.66191 -1.19476 v 1.67794 h 2.85667 v -0.0124 h 2.49546 c 0.20496,0 0.42451,-0.0233 0.65939,-0.0703 0.23487,-0.047 0.46562,-0.12178 0.69195,-0.22427 0.2306,-0.10676 0.45065,-0.23939 0.6599,-0.39739 0.20925,-0.16228 0.39287,-0.35658 0.55087,-0.58291 0.16228,-0.2306 0.29053,-0.49534 0.38447,-0.79427 0.0982,-0.29893 0.14728,-0.63603 0.14728,-1.01182 v -3.01739 c 0,-0.3758 -0.0491,-0.7129 -0.14728,-1.01183 -0.094,-0.29892 -0.22219,-0.56173 -0.38447,-0.78806 -0.158,-0.2306 -0.34162,-0.42684 -0.55087,-0.58911 -0.20925,-0.16228 -0.4293,-0.2949 -0.6599,-0.3974 -0.22633,-0.10676 -0.45708,-0.1835 -0.69195,-0.23047 -0.23488,-0.047 -0.45443,-0.0703 -0.65939,-0.0703 z m 0,1.66553 h 3.00447 c 0.2007,0 0.38625,0.034 0.55707,0.10232 0.17508,0.0641 0.32471,0.15778 0.44855,0.28164 0.12811,0.12383 0.22816,0.27346 0.30076,0.44855 0.0726,0.17508 0.10903,0.37132 0.10903,0.58911 v 0.66662 h -4.40696 c -0.22634,0 -0.39733,-0.0559 -0.51263,-0.16691 -0.11531,-0.1153 -0.1726,-0.28192 -0.1726,-0.49971 v -0.74931 c 0,-0.19217 0.0597,-0.35248 0.17931,-0.48059 0.12386,-0.12811 0.28802,-0.19172 0.493,-0.19172 z"
         id="path1818"
         inkscape:connector-curvature="0" />
    </g>
  </g>
</svg>
