<?xml version="1.0" encoding="UTF-8" standalone="no"?>
<!-- Created with Inkscape (http://www.inkscape.org/) -->

<svg
   xmlns:dc="http://purl.org/dc/elements/1.1/"
   xmlns:cc="http://creativecommons.org/ns#"
   xmlns:rdf="http://www.w3.org/1999/02/22-rdf-syntax-ns#"
   xmlns:svg="http://www.w3.org/2000/svg"
   xmlns="http://www.w3.org/2000/svg"
   xmlns:sodipodi="http://sodipodi.sourceforge.net/DTD/sodipodi-0.dtd"
   xmlns:inkscape="http://www.inkscape.org/namespaces/inkscape"
   width="44mm"
   height="9mm"
   viewBox="0 0 44 9"
   version="1.1"
   id="svg1946"
   inkscape:version="0.92.4 (5da689c313, 2019-01-14)"
   sodipodi:docname="logo.svg">
  <defs
     id="defs1940" />
  <sodipodi:namedview
     id="base"
     pagecolor="#ffffff"
     bordercolor="#666666"
     borderopacity="1.0"
     inkscape:pageopacity="0.0"
     inkscape:pageshadow="2"
     inkscape:zoom="5.6"
     inkscape:cx="92.41901"
     inkscape:cy="46.107316"
     inkscape:document-units="mm"
     inkscape:current-layer="layer1"
     showgrid="false"
     inkscape:window-width="1850"
     inkscape:window-height="1016"
     inkscape:window-x="70"
     inkscape:window-y="27"
     inkscape:window-maximized="1" />
  <metadata
     id="metadata1943">
    <rdf:RDF>
      <cc:Work
         rdf:about="">
        <dc:format>image/svg+xml</dc:format>
        <dc:type
           rdf:resource="http://purl.org/dc/dcmitype/StillImage" />
        <dc:title></dc:title>
      </cc:Work>
    </rdf:RDF>
  </metadata>
  <g
     inkscape:label="Layer 1"
     inkscape:groupmode="layer"
     id="layer1"
     transform="translate(0,-288)">
    <g
       style="fill:#999999"
       transform="matrix(0.84747427,0,0,0.84747427,-99.647204,117.37154)"
       id="g1906">
      <path
         style="font-style:normal;font-variant:normal;font-weight:normal;font-stretch:normal;font-size:13.11866856px;line-height:1.25;font-family:Audiowide;-inkscape-font-specification:'Audiowide, Normal';font-variant-ligatures:normal;font-variant-caps:normal;font-variant-numeric:normal;font-feature-settings:normal;text-align:start;letter-spacing:0px;word-spacing:0px;writing-mode:lr-tb;text-anchor:start;fill:#999999;fill-opacity:1;stroke:none;stroke-width:0.32796672"
         d="m 120.39381,202.23387 c -0.12331,-0.007 -0.24427,0.0135 -0.36277,0.0615 -0.14947,0.0683 -0.27334,0.17275 -0.37155,0.31367 -0.0939,0.13666 -0.14108,0.29066 -0.14108,0.46147 v 8.47442 h 1.66553 v -6.46988 l 6.08542,6.35464 c 0.0811,0.0854 0.17294,0.14709 0.27543,0.18552 0.10676,0.0384 0.21119,0.0579 0.31368,0.0579 0.1153,0 0.22462,-0.0214 0.32711,-0.0641 0.10249,-0.0427 0.18992,-0.10052 0.26252,-0.17311 0.0769,-0.0769 0.13661,-0.16623 0.17931,-0.26872 0.047,-0.10249 0.0703,-0.21374 0.0703,-0.33331 v -8.47442 h -1.66553 v 6.46937 l -6.0849,-6.34793 c -0.11957,-0.12384 -0.26288,-0.20059 -0.42943,-0.23048 -0.0416,-0.009 -0.0829,-0.0141 -0.12402,-0.0165 z"
         id="path1892"
         inkscape:connector-curvature="0" />
      <path
         style="font-style:normal;font-variant:normal;font-weight:normal;font-stretch:normal;font-size:13.11866856px;line-height:1.25;font-family:Audiowide;-inkscape-font-specification:'Audiowide, Normal';font-variant-ligatures:normal;font-variant-caps:normal;font-variant-numeric:normal;font-feature-settings:normal;text-align:start;letter-spacing:0px;word-spacing:0px;writing-mode:lr-tb;text-anchor:start;fill:#999999;fill-opacity:1;stroke:none;stroke-width:0.32796672"
         d="m 133.0354,202.23387 c -0.12331,-0.007 -0.24426,0.0135 -0.36277,0.0615 -0.14946,0.0683 -0.27333,0.17275 -0.37155,0.31367 -0.094,0.13666 -0.14056,0.29066 -0.14056,0.46147 v 8.47442 h 1.66553 v -6.46988 l 6.0849,6.35464 c 0.0811,0.0854 0.17295,0.14709 0.27543,0.18552 0.10676,0.0384 0.21171,0.0579 0.3142,0.0579 0.1153,0 0.2241,-0.0214 0.32659,-0.0641 0.10249,-0.0427 0.18992,-0.10052 0.26252,-0.17311 0.0769,-0.0769 0.13661,-0.16623 0.17932,-0.26872 0.047,-0.10249 0.0708,-0.21374 0.0708,-0.33331 v -8.47442 h -1.66553 v 6.46937 l -6.08542,-6.34793 c -0.11957,-0.12384 -0.26288,-0.20059 -0.42943,-0.23048 -0.0416,-0.009 -0.0829,-0.0141 -0.12402,-0.0165 z"
         id="path1894"
         inkscape:connector-curvature="0" />
      <path
         style="font-style:normal;font-variant:normal;font-weight:normal;font-stretch:normal;font-size:13.11866856px;line-height:1.25;font-family:Audiowide;-inkscape-font-specification:'Audiowide, Normal';font-variant-ligatures:normal;font-variant-caps:normal;font-variant-numeric:normal;font-feature-settings:normal;text-align:start;letter-spacing:0px;word-spacing:0px;writing-mode:lr-tb;text-anchor:start;fill:#999999;fill-opacity:1;stroke:none;stroke-width:0.32796672"
         d="m 153.52407,202.35945 c -0.28612,0 -0.5421,0.0359 -0.76843,0.10852 -0.22633,0.0726 -0.42694,0.17123 -0.60203,0.29507 -0.17082,0.11957 -0.31851,0.25799 -0.44235,0.416 -0.12384,0.158 -0.22389,0.32462 -0.30076,0.49971 -0.0769,0.17081 -0.13468,0.34619 -0.17311,0.52555 -0.0342,0.17508 -0.0512,0.33926 -0.0512,0.49299 v 0.74931 c 0,0.28612 0.0364,0.54261 0.10903,0.76894 0.0726,0.22634 0.16827,0.42695 0.28784,0.60203 0.12384,0.17509 0.26471,0.32471 0.42271,0.44856 0.15801,0.11957 0.3227,0.21961 0.49351,0.30075 0.17509,0.0769 0.34995,0.13468 0.52504,0.17312 0.17508,0.0342 0.3417,0.0512 0.49971,0.0512 h 4.41988 v 0.67283 c 0,0.21778 -0.034,0.41209 -0.10232,0.5829 -0.0683,0.16655 -0.16644,0.30935 -0.29455,0.42892 -0.12384,0.1153 -0.27347,0.20711 -0.44855,0.27543 -0.17082,0.0683 -0.36074,0.11108 -0.57,0.12816 h -4.15736 -1.17203 v 1.67794 h 5.32939 v -0.0124 c 0.20499,0 0.42453,-0.0233 0.6594,-0.0703 0.23487,-0.047 0.46562,-0.12178 0.69194,-0.22427 0.23061,-0.10676 0.45066,-0.23939 0.65991,-0.39739 0.20925,-0.16228 0.39287,-0.35658 0.55087,-0.58291 0.16228,-0.2306 0.29053,-0.49534 0.38448,-0.79427 0.0982,-0.29893 0.14727,-0.63603 0.14727,-1.01182 v -3.01739 c 0,-0.3758 -0.0491,-0.7129 -0.14727,-1.01183 -0.094,-0.29892 -0.2222,-0.56173 -0.38448,-0.78806 -0.158,-0.2306 -0.34162,-0.42684 -0.55087,-0.58911 -0.20925,-0.16228 -0.4293,-0.29491 -0.65991,-0.3974 -0.22632,-0.10676 -0.45707,-0.1835 -0.69194,-0.23047 -0.23487,-0.047 -0.45441,-0.0703 -0.6594,-0.0703 z m 0,1.66553 h 3.00446 c 0.20072,0 0.38626,0.034 0.55708,0.10232 0.17509,0.0641 0.32471,0.15779 0.44855,0.28164 0.12811,0.12384 0.22816,0.27346 0.30076,0.44855 0.0726,0.17508 0.10903,0.37132 0.10903,0.58911 v 0.66662 h -4.40696 c -0.22633,0 -0.39733,-0.0559 -0.51263,-0.16691 -0.1153,-0.1153 -0.1726,-0.28192 -0.1726,-0.49971 v -0.74931 c 0,-0.19217 0.0597,-0.35248 0.17931,-0.48059 0.12385,-0.12811 0.28802,-0.19172 0.493,-0.19172 z"
         id="path1896"
         inkscape:connector-curvature="0" />
      <path
         style="font-style:normal;font-variant:normal;font-weight:normal;font-stretch:normal;font-size:13.11866856px;line-height:1.25;font-family:Audiowide;-inkscape-font-specification:'Audiowide, Normal';font-variant-ligatures:normal;font-variant-caps:normal;font-variant-numeric:normal;font-feature-settings:normal;text-align:start;letter-spacing:0px;word-spacing:0px;writing-mode:lr-tb;text-anchor:start;fill:#999999;fill-opacity:1;stroke:none;stroke-width:0.32796672"
         d="m 162.55659,202.35945 c -0.28612,0 -0.5421,0.0359 -0.76843,0.10852 -0.22633,0.0726 -0.42746,0.17123 -0.60255,0.29507 -0.17082,0.11957 -0.31799,0.25799 -0.44183,0.416 -0.12384,0.158 -0.22389,0.32462 -0.30076,0.49971 -0.0769,0.17081 -0.13467,0.34619 -0.17311,0.52555 -0.0342,0.17508 -0.0512,0.33926 -0.0512,0.49299 v 0.74931 c 0,0.28612 0.0359,0.54261 0.10852,0.76894 0.0726,0.22634 0.16878,0.42695 0.28835,0.60203 0.12384,0.17509 0.26471,0.3247 0.42271,0.44856 0.15802,0.11956 0.3227,0.21961 0.49351,0.30075 0.1751,0.0769 0.34995,0.13468 0.52504,0.17312 0.17508,0.0342 0.3417,0.0512 0.49971,0.0512 h 4.41988 v 0.67283 c 0,0.21777 -0.034,0.41209 -0.10231,0.5829 -0.0683,0.16655 -0.16645,0.30935 -0.29456,0.42892 -0.12385,0.1153 -0.27346,0.20712 -0.44855,0.27543 -0.17081,0.0683 -0.36076,0.11108 -0.56999,0.12816 h -2.49546 -1.66191 -1.19476 v 1.67794 h 2.85667 v -0.0124 h 2.49546 c 0.20496,0 0.42451,-0.0233 0.65939,-0.0703 0.23487,-0.047 0.46562,-0.12178 0.69195,-0.22427 0.2306,-0.10676 0.45065,-0.23939 0.6599,-0.39739 0.20925,-0.16228 0.39287,-0.35658 0.55087,-0.58291 0.16228,-0.2306 0.29053,-0.49534 0.38447,-0.79427 0.0982,-0.29893 0.14728,-0.63603 0.14728,-1.01182 v -3.01739 c 0,-0.3758 -0.0491,-0.7129 -0.14728,-1.01183 -0.094,-0.29892 -0.22219,-0.56173 -0.38447,-0.78806 -0.158,-0.2306 -0.34162,-0.42684 -0.55087,-0.58911 -0.20925,-0.16228 -0.4293,-0.2949 -0.6599,-0.3974 -0.22633,-0.10676 -0.45708,-0.1835 -0.69195,-0.23047 -0.23488,-0.047 -0.45443,-0.0703 -0.65939,-0.0703 z m 0,1.66553 h 3.00447 c 0.2007,0 0.38625,0.034 0.55707,0.10232 0.17508,0.0641 0.32471,0.15778 0.44855,0.28164 0.12811,0.12383 0.22816,0.27346 0.30076,0.44855 0.0726,0.17508 0.10903,0.37132 0.10903,0.58911 v 0.66662 h -4.40696 c -0.22634,0 -0.39733,-0.0559 -0.51263,-0.16691 -0.11531,-0.1153 -0.1726,-0.28192 -0.1726,-0.49971 v -0.74931 c 0,-0.19217 0.0597,-0.35248 0.17931,-0.48059 0.12386,-0.12811 0.28802,-0.19172 0.493,-0.19172 z"
         id="path1898"
         inkscape:connector-curvature="0" />
      <path
         style="font-style:normal;font-variant:normal;font-weight:normal;font-stretch:normal;font-size:13.11866856px;line-height:1.25;font-family:Audiowide;-inkscape-font-specification:'Audiowide, Normal';font-variant-ligatures:normal;font-variant-caps:normal;font-variant-numeric:normal;font-feature-settings:normal;text-align:start;letter-spacing:0px;word-spacing:0px;writing-mode:lr-tb;text-anchor:start;fill:#999999;fill-opacity:1;stroke:none;stroke-width:0.32796672"
         d="m 129.59324,202.35945 v 9.18548 h 1.66553 v -9.18548 z"
         id="path1900"
         inkscape:connector-curvature="0" />
      <path
         inkscape:connector-curvature="0"
         id="path1902"
         transform="matrix(0.26458333,0,0,0.26458333,0,87)"
         d="m 546.19922,436.00391 c -0.8716,0 -1.82448,0.15231 -2.85742,0.45898 -1.03299,0.30652 -1.99316,0.80792 -2.88086,1.50195 -0.87152,0.71018 -1.60596,1.62269 -2.20313,2.73633 -0.24869,0.48343 -0.43209,1.0229 -0.57422,1.59766 l 8.48047,0.006 c 0.0293,-5.5e-4 0.0542,-0.006 0.084,-0.006 h 22.66015 v -6.29492 z"
         style="font-style:normal;font-variant:normal;font-weight:normal;font-stretch:normal;font-size:13.11866856px;line-height:1.25;font-family:Audiowide;-inkscape-font-specification:'Audiowide, Normal';font-variant-ligatures:normal;font-variant-caps:normal;font-variant-numeric:normal;font-feature-settings:normal;text-align:start;letter-spacing:0px;word-spacing:0px;writing-mode:lr-tb;text-anchor:start;fill:#999999;fill-opacity:1;stroke:none;stroke-width:1.23955929" />
      <path
         inkscape:connector-curvature="0"
         id="path1904"
         transform="matrix(0.26458333,0,0,0.26458333,0,87)"
         d="m 537.38672,450.18555 v 17.36328 c 0,0.43578 0.0808,0.84896 0.24219,1.23633 0.16138,0.38736 0.3799,0.72498 0.65429,1.01562 0.29065,0.29065 0.62826,0.51639 1.01563,0.67774 0.38736,0.16138 0.80785,0.24218 1.25976,0.24218 h 28.34961 v -6.29492 h -25.22656 v -7.89258 h 24.98242 v -6.34179 h -22.19922 -2.7832 v -0.002 z"
         style="font-style:normal;font-variant:normal;font-weight:normal;font-stretch:normal;font-size:13.11866856px;line-height:1.25;font-family:Audiowide;-inkscape-font-specification:'Audiowide, Normal';font-variant-ligatures:normal;font-variant-caps:normal;font-variant-numeric:normal;font-feature-settings:normal;text-align:start;letter-spacing:0px;word-spacing:0px;writing-mode:lr-tb;text-anchor:start;fill:#999999;fill-opacity:1;stroke:none;stroke-width:1.23955929" />
    </g>
    <g
       id="g1890"
       transform="matrix(0.84747427,0,0,0.84747427,-99.804716,117.26194)"
       style="fill:#ffffff">
      <path
         inkscape:connector-curvature="0"
         id="path1876"
         d="m 120.39381,202.23387 c -0.12331,-0.007 -0.24427,0.0135 -0.36277,0.0615 -0.14947,0.0683 -0.27334,0.17275 -0.37155,0.31367 -0.0939,0.13666 -0.14108,0.29066 -0.14108,0.46147 v 8.47442 h 1.66553 v -6.46988 l 6.08542,6.35464 c 0.0811,0.0854 0.17294,0.14709 0.27543,0.18552 0.10676,0.0384 0.21119,0.0579 0.31368,0.0579 0.1153,0 0.22462,-0.0214 0.32711,-0.0641 0.10249,-0.0427 0.18992,-0.10052 0.26252,-0.17311 0.0769,-0.0769 0.13661,-0.16623 0.17931,-0.26872 0.047,-0.10249 0.0703,-0.21374 0.0703,-0.33331 v -8.47442 h -1.66553 v 6.46937 l -6.0849,-6.34793 c -0.11957,-0.12384 -0.26288,-0.20059 -0.42943,-0.23048 -0.0416,-0.009 -0.0829,-0.0141 -0.12402,-0.0165 z"
         style="font-style:normal;font-variant:normal;font-weight:normal;font-stretch:normal;font-size:13.11866856px;line-height:1.25;font-family:Audiowide;-inkscape-font-specification:'Audiowide, Normal';font-variant-ligatures:normal;font-variant-caps:normal;font-variant-numeric:normal;font-feature-settings:normal;text-align:start;letter-spacing:0px;word-spacing:0px;writing-mode:lr-tb;text-anchor:start;fill:#ffffff;fill-opacity:1;stroke:none;stroke-width:0.32796672" />
      <path
         inkscape:connector-curvature="0"
         id="path1878"
         d="m 133.0354,202.23387 c -0.12331,-0.007 -0.24426,0.0135 -0.36277,0.0615 -0.14946,0.0683 -0.27333,0.17275 -0.37155,0.31367 -0.094,0.13666 -0.14056,0.29066 -0.14056,0.46147 v 8.47442 h 1.66553 v -6.46988 l 6.0849,6.35464 c 0.0811,0.0854 0.17295,0.14709 0.27543,0.18552 0.10676,0.0384 0.21171,0.0579 0.3142,0.0579 0.1153,0 0.2241,-0.0214 0.32659,-0.0641 0.10249,-0.0427 0.18992,-0.10052 0.26252,-0.17311 0.0769,-0.0769 0.13661,-0.16623 0.17932,-0.26872 0.047,-0.10249 0.0708,-0.21374 0.0708,-0.33331 v -8.47442 h -1.66553 v 6.46937 l -6.08542,-6.34793 c -0.11957,-0.12384 -0.26288,-0.20059 -0.42943,-0.23048 -0.0416,-0.009 -0.0829,-0.0141 -0.12402,-0.0165 z"
         style="font-style:normal;font-variant:normal;font-weight:normal;font-stretch:normal;font-size:13.11866856px;line-height:1.25;font-family:Audiowide;-inkscape-font-specification:'Audiowide, Normal';font-variant-ligatures:normal;font-variant-caps:normal;font-variant-numeric:normal;font-feature-settings:normal;text-align:start;letter-spacing:0px;word-spacing:0px;writing-mode:lr-tb;text-anchor:start;fill:#ffffff;fill-opacity:1;stroke:none;stroke-width:0.32796672" />
      <path
         inkscape:connector-curvature="0"
         id="path1880"
         d="m 153.52407,202.35945 c -0.28612,0 -0.5421,0.0359 -0.76843,0.10852 -0.22633,0.0726 -0.42694,0.17123 -0.60203,0.29507 -0.17082,0.11957 -0.31851,0.25799 -0.44235,0.416 -0.12384,0.158 -0.22389,0.32462 -0.30076,0.49971 -0.0769,0.17081 -0.13468,0.34619 -0.17311,0.52555 -0.0342,0.17508 -0.0512,0.33926 -0.0512,0.49299 v 0.74931 c 0,0.28612 0.0364,0.54261 0.10903,0.76894 0.0726,0.22634 0.16827,0.42695 0.28784,0.60203 0.12384,0.17509 0.26471,0.32471 0.42271,0.44856 0.15801,0.11957 0.3227,0.21961 0.49351,0.30075 0.17509,0.0769 0.34995,0.13468 0.52504,0.17312 0.17508,0.0342 0.3417,0.0512 0.49971,0.0512 h 4.41988 v 0.67283 c 0,0.21778 -0.034,0.41209 -0.10232,0.5829 -0.0683,0.16655 -0.16644,0.30935 -0.29455,0.42892 -0.12384,0.1153 -0.27347,0.20711 -0.44855,0.27543 -0.17082,0.0683 -0.36074,0.11108 -0.57,0.12816 h -4.15736 -1.17203 v 1.67794 h 5.32939 v -0.0124 c 0.20499,0 0.42453,-0.0233 0.6594,-0.0703 0.23487,-0.047 0.46562,-0.12178 0.69194,-0.22427 0.23061,-0.10676 0.45066,-0.23939 0.65991,-0.39739 0.20925,-0.16228 0.39287,-0.35658 0.55087,-0.58291 0.16228,-0.2306 0.29053,-0.49534 0.38448,-0.79427 0.0982,-0.29893 0.14727,-0.63603 0.14727,-1.01182 v -3.01739 c 0,-0.3758 -0.0491,-0.7129 -0.14727,-1.01183 -0.094,-0.29892 -0.2222,-0.56173 -0.38448,-0.78806 -0.158,-0.2306 -0.34162,-0.42684 -0.55087,-0.58911 -0.20925,-0.16228 -0.4293,-0.29491 -0.65991,-0.3974 -0.22632,-0.10676 -0.45707,-0.1835 -0.69194,-0.23047 -0.23487,-0.047 -0.45441,-0.0703 -0.6594,-0.0703 z m 0,1.66553 h 3.00446 c 0.20072,0 0.38626,0.034 0.55708,0.10232 0.17509,0.0641 0.32471,0.15779 0.44855,0.28164 0.12811,0.12384 0.22816,0.27346 0.30076,0.44855 0.0726,0.17508 0.10903,0.37132 0.10903,0.58911 v 0.66662 h -4.40696 c -0.22633,0 -0.39733,-0.0559 -0.51263,-0.16691 -0.1153,-0.1153 -0.1726,-0.28192 -0.1726,-0.49971 v -0.74931 c 0,-0.19217 0.0597,-0.35248 0.17931,-0.48059 0.12385,-0.12811 0.28802,-0.19172 0.493,-0.19172 z"
         style="font-style:normal;font-variant:normal;font-weight:normal;font-stretch:normal;font-size:13.11866856px;line-height:1.25;font-family:Audiowide;-inkscape-font-specification:'Audiowide, Normal';font-variant-ligatures:normal;font-variant-caps:normal;font-variant-numeric:normal;font-feature-settings:normal;text-align:start;letter-spacing:0px;word-spacing:0px;writing-mode:lr-tb;text-anchor:start;fill:#ffffff;fill-opacity:1;stroke:none;stroke-width:0.32796672" />
      <path
         inkscape:connector-curvature="0"
         id="path1882"
         d="m 162.55659,202.35945 c -0.28612,0 -0.5421,0.0359 -0.76843,0.10852 -0.22633,0.0726 -0.42746,0.17123 -0.60255,0.29507 -0.17082,0.11957 -0.31799,0.25799 -0.44183,0.416 -0.12384,0.158 -0.22389,0.32462 -0.30076,0.49971 -0.0769,0.17081 -0.13467,0.34619 -0.17311,0.52555 -0.0342,0.17508 -0.0512,0.33926 -0.0512,0.49299 v 0.74931 c 0,0.28612 0.0359,0.54261 0.10852,0.76894 0.0726,0.22634 0.16878,0.42695 0.28835,0.60203 0.12384,0.17509 0.26471,0.3247 0.42271,0.44856 0.15802,0.11956 0.3227,0.21961 0.49351,0.30075 0.1751,0.0769 0.34995,0.13468 0.52504,0.17312 0.17508,0.0342 0.3417,0.0512 0.49971,0.0512 h 4.41988 v 0.67283 c 0,0.21777 -0.034,0.41209 -0.10231,0.5829 -0.0683,0.16655 -0.16645,0.30935 -0.29456,0.42892 -0.12385,0.1153 -0.27346,0.20712 -0.44855,0.27543 -0.17081,0.0683 -0.36076,0.11108 -0.56999,0.12816 h -2.49546 -1.66191 -1.19476 v 1.67794 h 2.85667 v -0.0124 h 2.49546 c 0.20496,0 0.42451,-0.0233 0.65939,-0.0703 0.23487,-0.047 0.46562,-0.12178 0.69195,-0.22427 0.2306,-0.10676 0.45065,-0.23939 0.6599,-0.39739 0.20925,-0.16228 0.39287,-0.35658 0.55087,-0.58291 0.16228,-0.2306 0.29053,-0.49534 0.38447,-0.79427 0.0982,-0.29893 0.14728,-0.63603 0.14728,-1.01182 v -3.01739 c 0,-0.3758 -0.0491,-0.7129 -0.14728,-1.01183 -0.094,-0.29892 -0.22219,-0.56173 -0.38447,-0.78806 -0.158,-0.2306 -0.34162,-0.42684 -0.55087,-0.58911 -0.20925,-0.16228 -0.4293,-0.2949 -0.6599,-0.3974 -0.22633,-0.10676 -0.45708,-0.1835 -0.69195,-0.23047 -0.23488,-0.047 -0.45443,-0.0703 -0.65939,-0.0703 z m 0,1.66553 h 3.00447 c 0.2007,0 0.38625,0.034 0.55707,0.10232 0.17508,0.0641 0.32471,0.15778 0.44855,0.28164 0.12811,0.12383 0.22816,0.27346 0.30076,0.44855 0.0726,0.17508 0.10903,0.37132 0.10903,0.58911 v 0.66662 h -4.40696 c -0.22634,0 -0.39733,-0.0559 -0.51263,-0.16691 -0.11531,-0.1153 -0.1726,-0.28192 -0.1726,-0.49971 v -0.74931 c 0,-0.19217 0.0597,-0.35248 0.17931,-0.48059 0.12386,-0.12811 0.28802,-0.19172 0.493,-0.19172 z"
         style="font-style:normal;font-variant:normal;font-weight:normal;font-stretch:normal;font-size:13.11866856px;line-height:1.25;font-family:Audiowide;-inkscape-font-specification:'Audiowide, Normal';font-variant-ligatures:normal;font-variant-caps:normal;font-variant-numeric:normal;font-feature-settings:normal;text-align:start;letter-spacing:0px;word-spacing:0px;writing-mode:lr-tb;text-anchor:start;fill:#ffffff;fill-opacity:1;stroke:none;stroke-width:0.32796672" />
      <path
         inkscape:connector-curvature="0"
         id="path1884"
         d="m 129.59324,202.35945 v 9.18548 h 1.66553 v -9.18548 z"
         style="font-style:normal;font-variant:normal;font-weight:normal;font-stretch:normal;font-size:13.11866856px;line-height:1.25;font-family:Audiowide;-inkscape-font-specification:'Audiowide, Normal';font-variant-ligatures:normal;font-variant-caps:normal;font-variant-numeric:normal;font-feature-settings:normal;text-align:start;letter-spacing:0px;word-spacing:0px;writing-mode:lr-tb;text-anchor:start;fill:#ffffff;fill-opacity:1;stroke:none;stroke-width:0.32796672" />
      <path
         style="font-style:normal;font-variant:normal;font-weight:normal;font-stretch:normal;font-size:13.11866856px;line-height:1.25;font-family:Audiowide;-inkscape-font-specification:'Audiowide, Normal';font-variant-ligatures:normal;font-variant-caps:normal;font-variant-numeric:normal;font-feature-settings:normal;text-align:start;letter-spacing:0px;word-spacing:0px;writing-mode:lr-tb;text-anchor:start;fill:#ffffff;fill-opacity:1;stroke:none;stroke-width:1.23955929"
         d="m 546.19922,436.00391 c -0.8716,0 -1.82448,0.15231 -2.85742,0.45898 -1.03299,0.30652 -1.99316,0.80792 -2.88086,1.50195 -0.87152,0.71018 -1.60596,1.62269 -2.20313,2.73633 -0.24869,0.48343 -0.43209,1.0229 -0.57422,1.59766 l 8.48047,0.006 c 0.0293,-5.5e-4 0.0542,-0.006 0.084,-0.006 h 22.66015 v -6.29492 z"
         transform="matrix(0.26458333,0,0,0.26458333,0,87)"
         id="path1886"
         inkscape:connector-curvature="0" />
      <path
         style="font-style:normal;font-variant:normal;font-weight:normal;font-stretch:normal;font-size:13.11866856px;line-height:1.25;font-family:Audiowide;-inkscape-font-specification:'Audiowide, Normal';font-variant-ligatures:normal;font-variant-caps:normal;font-variant-numeric:normal;font-feature-settings:normal;text-align:start;letter-spacing:0px;word-spacing:0px;writing-mode:lr-tb;text-anchor:start;fill:#ffffff;fill-opacity:1;stroke:none;stroke-width:1.23955929"
         d="m 537.38672,450.18555 v 17.36328 c 0,0.43578 0.0808,0.84896 0.24219,1.23633 0.16138,0.38736 0.3799,0.72498 0.65429,1.01562 0.29065,0.29065 0.62826,0.51639 1.01563,0.67774 0.38736,0.16138 0.80785,0.24218 1.25976,0.24218 h 28.34961 v -6.29492 h -25.22656 v -7.89258 h 24.98242 v -6.34179 h -22.19922 -2.7832 v -0.002 z"
         transform="matrix(0.26458333,0,0,0.26458333,0,87)"
         id="path1888"
         inkscape:connector-curvature="0" />
    </g>
    <path
       inkscape:connector-curvature="0"
       id="path1806"
       d="m 2.0596157,288.35964 c -0.104502,-0.006 -0.2070125,0.0114 -0.3074382,0.0521 -0.126672,0.0579 -0.2316486,0.1464 -0.3148791,0.26583 -0.079578,0.11581 -0.1195616,0.24632 -0.1195616,0.39108 v 7.18185 h 1.4114938 v -5.48305 l 5.1572367,5.38539 c 0.06873,0.0724 0.146562,0.12465 0.23342,0.15722 0.09048,0.0326 0.178978,0.0491 0.265836,0.0491 0.09771,0 0.190359,-0.0181 0.277217,-0.0543 0.08686,-0.0362 0.160952,-0.0852 0.222479,-0.14671 0.06517,-0.0652 0.115773,-0.14087 0.151961,-0.22773 0.03983,-0.0869 0.05958,-0.18114 0.05958,-0.28247 v -7.18186 h -1.411494 v 5.48263 l -5.156799,-5.37974 c -0.1013325,-0.10495 -0.222784,-0.16999 -0.3639308,-0.19532 -0.035255,-0.008 -0.070256,-0.0119 -0.1051038,-0.014 z"
       style="font-style:normal;font-variant:normal;font-weight:normal;font-stretch:normal;font-size:13.11866856px;line-height:1.25;font-family:Audiowide;-inkscape-font-specification:'Audiowide, Normal';font-variant-ligatures:normal;font-variant-caps:normal;font-variant-numeric:normal;font-feature-settings:normal;text-align:start;letter-spacing:0px;word-spacing:0px;writing-mode:lr-tb;text-anchor:start;fill:#999999;fill-opacity:1;stroke:none;stroke-width:0.27794334" />
    <path
       inkscape:connector-curvature="0"
       id="path1808"
       d="m 12.773038,288.35964 c -0.104502,-0.006 -0.207004,0.0114 -0.307438,0.0521 -0.126664,0.0579 -0.231641,0.1464 -0.31488,0.26583 -0.07966,0.11581 -0.119121,0.24632 -0.119121,0.39108 v 7.18185 h 1.411494 v -5.48305 l 5.156796,5.38539 c 0.06873,0.0724 0.146571,0.12465 0.23342,0.15722 0.09048,0.0326 0.179419,0.0491 0.266277,0.0491 0.09771,0 0.189919,-0.0181 0.276776,-0.0543 0.08686,-0.0362 0.160953,-0.0852 0.222479,-0.14671 0.06517,-0.0652 0.115774,-0.14087 0.151969,-0.22773 0.03983,-0.0869 0.06,-0.18114 0.06,-0.28247 v -7.18186 h -1.411494 v 5.48263 l -5.157237,-5.37971 c -0.101333,-0.10495 -0.222784,-0.16999 -0.363931,-0.19532 -0.03526,-0.008 -0.07026,-0.0119 -0.105104,-0.014 z"
       style="font-style:normal;font-variant:normal;font-weight:normal;font-stretch:normal;font-size:13.11866856px;line-height:1.25;font-family:Audiowide;-inkscape-font-specification:'Audiowide, Normal';font-variant-ligatures:normal;font-variant-caps:normal;font-variant-numeric:normal;font-feature-settings:normal;text-align:start;letter-spacing:0px;word-spacing:0px;writing-mode:lr-tb;text-anchor:start;fill:#999999;fill-opacity:1;stroke:none;stroke-width:0.27794334" />
    <path
       inkscape:connector-curvature="0"
       id="path1816"
       d="m 30.136658,288.46606 c -0.242479,0 -0.459415,0.0304 -0.651224,0.092 -0.191809,0.0615 -0.361821,0.14512 -0.510205,0.25007 -0.144766,0.10133 -0.269929,0.21864 -0.37488,0.35255 -0.104952,0.1339 -0.189741,0.2751 -0.254887,0.42349 -0.06517,0.14475 -0.114138,0.29338 -0.146706,0.44539 -0.02898,0.14837 -0.04339,0.28751 -0.04339,0.41779 v 0.63502 c 0,0.24248 0.03085,0.45985 0.0924,0.65166 0.06153,0.19182 0.142605,0.36183 0.243937,0.51021 0.104952,0.14838 0.224335,0.27518 0.358236,0.38014 0.13391,0.10133 0.27348,0.18611 0.418237,0.25488 0.148385,0.0652 0.296574,0.11414 0.444958,0.14671 0.148376,0.029 0.289582,0.0434 0.423492,0.0434 h 3.745734 v 0.57021 c 0,0.18456 -0.02881,0.34923 -0.08671,0.49399 -0.05788,0.14115 -0.141054,0.26217 -0.249624,0.3635 -0.104951,0.0977 -0.231759,0.17552 -0.380135,0.23342 -0.144765,0.0579 -0.305717,0.0941 -0.48306,0.10861 H 29.159575 28.16631 v 1.42201 h 4.516521 v -0.0105 c 0.173724,0 0.359778,-0.0197 0.558825,-0.0596 0.199046,-0.0398 0.394601,-0.10321 0.586401,-0.19007 0.195436,-0.0905 0.381923,-0.20287 0.559257,-0.33677 0.177334,-0.13753 0.332947,-0.3022 0.466848,-0.494 0.137528,-0.19543 0.246217,-0.41979 0.325837,-0.67313 0.08322,-0.25333 0.124807,-0.53902 0.124807,-0.85749 v -2.55716 c 0,-0.31848 -0.04161,-0.60416 -0.124807,-0.8575 -0.07966,-0.25333 -0.188309,-0.47605 -0.325837,-0.66786 -0.133901,-0.19543 -0.289514,-0.36174 -0.466848,-0.49926 -0.177334,-0.13752 -0.363821,-0.24992 -0.559257,-0.33678 -0.1918,-0.0905 -0.387355,-0.15551 -0.586401,-0.19532 -0.199047,-0.0398 -0.385101,-0.0596 -0.558825,-0.0596 z m 0,1.4115 h 2.546203 c 0.170105,0 0.327345,0.0288 0.472111,0.0867 0.148384,0.0543 0.275183,0.13372 0.380135,0.23868 0.108569,0.10496 0.193359,0.23175 0.254886,0.38014 0.06153,0.14837 0.0924,0.31468 0.0924,0.49925 v 0.56495 h -3.734785 c -0.191809,0 -0.336727,-0.0474 -0.434441,-0.14145 -0.09771,-0.0977 -0.146274,-0.23892 -0.146274,-0.4235 v -0.63502 c 0,-0.16286 0.05059,-0.29871 0.151961,-0.40728 0.104959,-0.10857 0.244089,-0.16248 0.417804,-0.16248 z"
       style="font-style:normal;font-variant:normal;font-weight:normal;font-stretch:normal;font-size:13.11866856px;line-height:1.25;font-family:Audiowide;-inkscape-font-specification:'Audiowide, Normal';font-variant-ligatures:normal;font-variant-caps:normal;font-variant-numeric:normal;font-feature-settings:normal;text-align:start;letter-spacing:0px;word-spacing:0px;writing-mode:lr-tb;text-anchor:start;fill:#0083ff;fill-opacity:1;stroke:none;stroke-width:0.27794334" />
    <path
       inkscape:connector-curvature="0"
       id="path1818"
       d="m 37.791487,288.46606 c -0.24248,0 -0.459416,0.0304 -0.651225,0.092 -0.191809,0.0615 -0.362261,0.14512 -0.510646,0.25007 -0.144765,0.10133 -0.269488,0.21864 -0.374439,0.35255 -0.104951,0.1339 -0.189741,0.2751 -0.254886,0.42349 -0.06517,0.14475 -0.11413,0.29338 -0.146707,0.44539 -0.02898,0.14837 -0.04339,0.28751 -0.04339,0.41779 v 0.63502 c 0,0.24248 0.03042,0.45985 0.09197,0.65166 0.06153,0.19182 0.143036,0.36183 0.244369,0.51021 0.104951,0.14838 0.224335,0.27517 0.358236,0.38014 0.133917,0.10132 0.27348,0.18611 0.418237,0.25488 0.148392,0.0652 0.296573,0.11414 0.444958,0.14671 0.148375,0.029 0.289581,0.0434 0.423491,0.0434 h 3.745734 v 0.57021 c 0,0.18455 -0.02881,0.34923 -0.08671,0.49399 -0.05788,0.14115 -0.141062,0.26217 -0.249632,0.3635 -0.104959,0.0977 -0.23175,0.17553 -0.380134,0.23342 -0.144757,0.0579 -0.305735,0.0941 -0.483052,0.10861 h -2.114838 -1.408426 -1.012529 v 1.42201 h 2.420955 v -0.0105 h 2.114838 c 0.173698,0 0.359761,-0.0197 0.558816,-0.0596 0.199046,-0.0398 0.394601,-0.10321 0.58641,-0.19007 0.195427,-0.0905 0.381914,-0.20287 0.559248,-0.33677 0.177334,-0.13753 0.332947,-0.3022 0.466848,-0.494 0.137528,-0.19543 0.246217,-0.41979 0.325829,-0.67313 0.08322,-0.25333 0.124816,-0.53902 0.124816,-0.85749 v -2.55716 c 0,-0.31848 -0.04161,-0.60416 -0.124816,-0.8575 -0.07966,-0.25333 -0.188301,-0.47605 -0.325829,-0.66786 -0.133901,-0.19543 -0.289514,-0.36174 -0.466848,-0.49926 -0.177334,-0.13752 -0.363821,-0.24992 -0.559248,-0.33678 -0.191809,-0.0905 -0.387364,-0.15551 -0.58641,-0.19532 -0.199055,-0.0398 -0.385118,-0.0596 -0.558816,-0.0596 z m 0,1.4115 h 2.546211 c 0.170088,0 0.327337,0.0288 0.472102,0.0867 0.148376,0.0543 0.275184,0.13372 0.380135,0.23868 0.10857,0.10495 0.19336,0.23175 0.254886,0.38014 0.06153,0.14837 0.0924,0.31468 0.0924,0.49925 v 0.56495 h -3.734785 c -0.191817,0 -0.336727,-0.0474 -0.434441,-0.14145 -0.09772,-0.0977 -0.146274,-0.23892 -0.146274,-0.4235 v -0.63502 c 0,-0.16286 0.05059,-0.29871 0.151961,-0.40728 0.104968,-0.10857 0.24409,-0.16248 0.417805,-0.16248 z"
       style="font-style:normal;font-variant:normal;font-weight:normal;font-stretch:normal;font-size:13.11866856px;line-height:1.25;font-family:Audiowide;-inkscape-font-specification:'Audiowide, Normal';font-variant-ligatures:normal;font-variant-caps:normal;font-variant-numeric:normal;font-feature-settings:normal;text-align:start;letter-spacing:0px;word-spacing:0px;writing-mode:lr-tb;text-anchor:start;fill:#0083ff;fill-opacity:1;stroke:none;stroke-width:0.27794334" />
    <path
       inkscape:connector-curvature="0"
       id="path1810"
       d="m 9.8558963,288.46606 v 7.78446 H 11.26739 v -7.78446 z"
       style="font-style:normal;font-variant:normal;font-weight:normal;font-stretch:normal;font-size:13.11866856px;line-height:1.25;font-family:Audiowide;-inkscape-font-specification:'Audiowide, Normal';font-variant-ligatures:normal;font-variant-caps:normal;font-variant-numeric:normal;font-feature-settings:normal;text-align:start;letter-spacing:0px;word-spacing:0px;writing-mode:lr-tb;text-anchor:start;fill:#999999;fill-opacity:1;stroke:none;stroke-width:0.27794334" />
    <path
       style="font-style:normal;font-variant:normal;font-weight:normal;font-stretch:normal;font-size:13.11866856px;line-height:1.25;font-family:Audiowide;-inkscape-font-specification:'Audiowide, Normal';font-variant-ligatures:normal;font-variant-caps:normal;font-variant-numeric:normal;font-feature-settings:normal;text-align:start;letter-spacing:0px;word-spacing:0px;writing-mode:lr-tb;text-anchor:start;fill:#0083ff;fill-opacity:1;stroke:none;stroke-width:0.27794334"
       d="m 22.50188,288.466 c -0.195436,0 -0.409099,0.0342 -0.640712,0.10291 -0.231625,0.0687 -0.446922,0.18116 -0.645969,0.33678 -0.195418,0.15924 -0.3601,0.36385 -0.494002,0.61356 -0.05576,0.1084 -0.09689,0.22936 -0.128756,0.35824 l 1.901555,0.002 c 0.0066,-1.2e-4 0.01215,-0.002 0.01883,-0.002 h 5.081031 V 288.466 Z"
       id="path1845"
       inkscape:connector-curvature="0" />
    <path
       style="font-style:normal;font-variant:normal;font-weight:normal;font-stretch:normal;font-size:13.11866856px;line-height:1.25;font-family:Audiowide;-inkscape-font-specification:'Audiowide, Normal';font-variant-ligatures:normal;font-variant-caps:normal;font-variant-numeric:normal;font-feature-settings:normal;text-align:start;letter-spacing:0px;word-spacing:0px;writing-mode:lr-tb;text-anchor:start;fill:#999999;fill-opacity:1;stroke:none;stroke-width:0.27794334"
       d="m 20.525875,291.64591 v 3.89333 c 0,0.0977 0.01812,0.19036 0.05431,0.27721 0.03619,0.0869 0.08518,0.16257 0.14671,0.22773 0.06517,0.0652 0.140874,0.11579 0.227732,0.15197 0.08686,0.0362 0.181143,0.0543 0.282473,0.0543 h 6.356764 v -1.41149 h -5.65649 v -1.76974 h 5.601748 v -1.422 h -4.977678 -0.62407 v -4.5e-4 z"
       id="path1812"
       inkscape:connector-curvature="0" />
  </g>
</svg>
