<?xml version="1.0" encoding="UTF-8" standalone="no"?>
<!-- Created with Inkscape (http://www.inkscape.org/) -->

<svg
   xmlns:dc="http://purl.org/dc/elements/1.1/"
   xmlns:cc="http://creativecommons.org/ns#"
   xmlns:rdf="http://www.w3.org/1999/02/22-rdf-syntax-ns#"
   xmlns:svg="http://www.w3.org/2000/svg"
   xmlns="http://www.w3.org/2000/svg"
   xmlns:sodipodi="http://sodipodi.sourceforge.net/DTD/sodipodi-0.dtd"
   xmlns:inkscape="http://www.inkscape.org/namespaces/inkscape"
   width="297mm"
   height="210mm"
   viewBox="0 0 297 210"
   version="1.1"
   id="svg1057"
   inkscape:version="0.92.4 (5da689c313, 2019-01-14)"
   sodipodi:docname="drawing.svg">
  <defs
     id="defs1051" />
  <sodipodi:namedview
     id="base"
     pagecolor="#ffffff"
     bordercolor="#666666"
     borderopacity="1.0"
     inkscape:pageopacity="0.0"
     inkscape:pageshadow="2"
     inkscape:zoom="3.959798"
     inkscape:cx="484.88409"
     inkscape:cy="329.38324"
     inkscape:document-units="mm"
     inkscape:current-layer="layer1"
     showgrid="false"
     inkscape:window-width="1850"
     inkscape:window-height="1016"
     inkscape:window-x="70"
     inkscape:window-y="27"
     inkscape:window-maximized="1" />
  <metadata
     id="metadata1054">
    <rdf:RDF>
      <cc:Work
         rdf:about="">
        <dc:format>image/svg+xml</dc:format>
        <dc:type
           rdf:resource="http://purl.org/dc/dcmitype/StillImage" />
        <dc:title></dc:title>
      </cc:Work>
    </rdf:RDF>
  </metadata>
  <g
     inkscape:label="Layer 1"
     inkscape:groupmode="layer"
     id="layer1"
     transform="translate(0,-87)">
    <g
       style="fill:#999999"
       transform="translate(0.38211966,0.47187667)"
       id="g1906">
      <path
         style="font-style:normal;font-variant:normal;font-weight:normal;font-stretch:normal;font-size:13.11866856px;line-height:1.25;font-family:Audiowide;-inkscape-font-specification:'Audiowide, Normal';font-variant-ligatures:normal;font-variant-caps:normal;font-variant-numeric:normal;font-feature-settings:normal;text-align:start;letter-spacing:0px;word-spacing:0px;writing-mode:lr-tb;text-anchor:start;fill:#999999;fill-opacity:1;stroke:none;stroke-width:0.32796672"
         d="m 120.39381,202.23387 c -0.12331,-0.007 -0.24427,0.0135 -0.36277,0.0615 -0.14947,0.0683 -0.27334,0.17275 -0.37155,0.31367 -0.0939,0.13666 -0.14108,0.29066 -0.14108,0.46147 v 8.47442 h 1.66553 v -6.46988 l 6.08542,6.35464 c 0.0811,0.0854 0.17294,0.14709 0.27543,0.18552 0.10676,0.0384 0.21119,0.0579 0.31368,0.0579 0.1153,0 0.22462,-0.0214 0.32711,-0.0641 0.10249,-0.0427 0.18992,-0.10052 0.26252,-0.17311 0.0769,-0.0769 0.13661,-0.16623 0.17931,-0.26872 0.047,-0.10249 0.0703,-0.21374 0.0703,-0.33331 v -8.47442 h -1.66553 v 6.46937 l -6.0849,-6.34793 c -0.11957,-0.12384 -0.26288,-0.20059 -0.42943,-0.23048 -0.0416,-0.009 -0.0829,-0.0141 -0.12402,-0.0165 z"
         id="path1892"
         inkscape:connector-curvature="0" />
      <path
         style="font-style:normal;font-variant:normal;font-weight:normal;font-stretch:normal;font-size:13.11866856px;line-height:1.25;font-family:Audiowide;-inkscape-font-specification:'Audiowide, Normal';font-variant-ligatures:normal;font-variant-caps:normal;font-variant-numeric:normal;font-feature-settings:normal;text-align:start;letter-spacing:0px;word-spacing:0px;writing-mode:lr-tb;text-anchor:start;fill:#999999;fill-opacity:1;stroke:none;stroke-width:0.32796672"
         d="m 133.0354,202.23387 c -0.12331,-0.007 -0.24426,0.0135 -0.36277,0.0615 -0.14946,0.0683 -0.27333,0.17275 -0.37155,0.31367 -0.094,0.13666 -0.14056,0.29066 -0.14056,0.46147 v 8.47442 h 1.66553 v -6.46988 l 6.0849,6.35464 c 0.0811,0.0854 0.17295,0.14709 0.27543,0.18552 0.10676,0.0384 0.21171,0.0579 0.3142,0.0579 0.1153,0 0.2241,-0.0214 0.32659,-0.0641 0.10249,-0.0427 0.18992,-0.10052 0.26252,-0.17311 0.0769,-0.0769 0.13661,-0.16623 0.17932,-0.26872 0.047,-0.10249 0.0708,-0.21374 0.0708,-0.33331 v -8.47442 h -1.66553 v 6.46937 l -6.08542,-6.34793 c -0.11957,-0.12384 -0.26288,-0.20059 -0.42943,-0.23048 -0.0416,-0.009 -0.0829,-0.0141 -0.12402,-0.0165 z"
         id="path1894"
         inkscape:connector-curvature="0" />
      <path
         style="font-style:normal;font-variant:normal;font-weight:normal;font-stretch:normal;font-size:13.11866856px;line-height:1.25;font-family:Audiowide;-inkscape-font-specification:'Audiowide, Normal';font-variant-ligatures:normal;font-variant-caps:normal;font-variant-numeric:normal;font-feature-settings:normal;text-align:start;letter-spacing:0px;word-spacing:0px;writing-mode:lr-tb;text-anchor:start;fill:#999999;fill-opacity:1;stroke:none;stroke-width:0.32796672"
         d="m 153.52407,202.35945 c -0.28612,0 -0.5421,0.0359 -0.76843,0.10852 -0.22633,0.0726 -0.42694,0.17123 -0.60203,0.29507 -0.17082,0.11957 -0.31851,0.25799 -0.44235,0.416 -0.12384,0.158 -0.22389,0.32462 -0.30076,0.49971 -0.0769,0.17081 -0.13468,0.34619 -0.17311,0.52555 -0.0342,0.17508 -0.0512,0.33926 -0.0512,0.49299 v 0.74931 c 0,0.28612 0.0364,0.54261 0.10903,0.76894 0.0726,0.22634 0.16827,0.42695 0.28784,0.60203 0.12384,0.17509 0.26471,0.32471 0.42271,0.44856 0.15801,0.11957 0.3227,0.21961 0.49351,0.30075 0.17509,0.0769 0.34995,0.13468 0.52504,0.17312 0.17508,0.0342 0.3417,0.0512 0.49971,0.0512 h 4.41988 v 0.67283 c 0,0.21778 -0.034,0.41209 -0.10232,0.5829 -0.0683,0.16655 -0.16644,0.30935 -0.29455,0.42892 -0.12384,0.1153 -0.27347,0.20711 -0.44855,0.27543 -0.17082,0.0683 -0.36074,0.11108 -0.57,0.12816 h -4.15736 -1.17203 v 1.67794 h 5.32939 v -0.0124 c 0.20499,0 0.42453,-0.0233 0.6594,-0.0703 0.23487,-0.047 0.46562,-0.12178 0.69194,-0.22427 0.23061,-0.10676 0.45066,-0.23939 0.65991,-0.39739 0.20925,-0.16228 0.39287,-0.35658 0.55087,-0.58291 0.16228,-0.2306 0.29053,-0.49534 0.38448,-0.79427 0.0982,-0.29893 0.14727,-0.63603 0.14727,-1.01182 v -3.01739 c 0,-0.3758 -0.0491,-0.7129 -0.14727,-1.01183 -0.094,-0.29892 -0.2222,-0.56173 -0.38448,-0.78806 -0.158,-0.2306 -0.34162,-0.42684 -0.55087,-0.58911 -0.20925,-0.16228 -0.4293,-0.29491 -0.65991,-0.3974 -0.22632,-0.10676 -0.45707,-0.1835 -0.69194,-0.23047 -0.23487,-0.047 -0.45441,-0.0703 -0.6594,-0.0703 z m 0,1.66553 h 3.00446 c 0.20072,0 0.38626,0.034 0.55708,0.10232 0.17509,0.0641 0.32471,0.15779 0.44855,0.28164 0.12811,0.12384 0.22816,0.27346 0.30076,0.44855 0.0726,0.17508 0.10903,0.37132 0.10903,0.58911 v 0.66662 h -4.40696 c -0.22633,0 -0.39733,-0.0559 -0.51263,-0.16691 -0.1153,-0.1153 -0.1726,-0.28192 -0.1726,-0.49971 v -0.74931 c 0,-0.19217 0.0597,-0.35248 0.17931,-0.48059 0.12385,-0.12811 0.28802,-0.19172 0.493,-0.19172 z"
         id="path1896"
         inkscape:connector-curvature="0" />
      <path
         style="font-style:normal;font-variant:normal;font-weight:normal;font-stretch:normal;font-size:13.11866856px;line-height:1.25;font-family:Audiowide;-inkscape-font-specification:'Audiowide, Normal';font-variant-ligatures:normal;font-variant-caps:normal;font-variant-numeric:normal;font-feature-settings:normal;text-align:start;letter-spacing:0px;word-spacing:0px;writing-mode:lr-tb;text-anchor:start;fill:#999999;fill-opacity:1;stroke:none;stroke-width:0.32796672"
         d="m 162.55659,202.35945 c -0.28612,0 -0.5421,0.0359 -0.76843,0.10852 -0.22633,0.0726 -0.42746,0.17123 -0.60255,0.29507 -0.17082,0.11957 -0.31799,0.25799 -0.44183,0.416 -0.12384,0.158 -0.22389,0.32462 -0.30076,0.49971 -0.0769,0.17081 -0.13467,0.34619 -0.17311,0.52555 -0.0342,0.17508 -0.0512,0.33926 -0.0512,0.49299 v 0.74931 c 0,0.28612 0.0359,0.54261 0.10852,0.76894 0.0726,0.22634 0.16878,0.42695 0.28835,0.60203 0.12384,0.17509 0.26471,0.3247 0.42271,0.44856 0.15802,0.11956 0.3227,0.21961 0.49351,0.30075 0.1751,0.0769 0.34995,0.13468 0.52504,0.17312 0.17508,0.0342 0.3417,0.0512 0.49971,0.0512 h 4.41988 v 0.67283 c 0,0.21777 -0.034,0.41209 -0.10231,0.5829 -0.0683,0.16655 -0.16645,0.30935 -0.29456,0.42892 -0.12385,0.1153 -0.27346,0.20712 -0.44855,0.27543 -0.17081,0.0683 -0.36076,0.11108 -0.56999,0.12816 h -2.49546 -1.66191 -1.19476 v 1.67794 h 2.85667 v -0.0124 h 2.49546 c 0.20496,0 0.42451,-0.0233 0.65939,-0.0703 0.23487,-0.047 0.46562,-0.12178 0.69195,-0.22427 0.2306,-0.10676 0.45065,-0.23939 0.6599,-0.39739 0.20925,-0.16228 0.39287,-0.35658 0.55087,-0.58291 0.16228,-0.2306 0.29053,-0.49534 0.38447,-0.79427 0.0982,-0.29893 0.14728,-0.63603 0.14728,-1.01182 v -3.01739 c 0,-0.3758 -0.0491,-0.7129 -0.14728,-1.01183 -0.094,-0.29892 -0.22219,-0.56173 -0.38447,-0.78806 -0.158,-0.2306 -0.34162,-0.42684 -0.55087,-0.58911 -0.20925,-0.16228 -0.4293,-0.2949 -0.6599,-0.3974 -0.22633,-0.10676 -0.45708,-0.1835 -0.69195,-0.23047 -0.23488,-0.047 -0.45443,-0.0703 -0.65939,-0.0703 z m 0,1.66553 h 3.00447 c 0.2007,0 0.38625,0.034 0.55707,0.10232 0.17508,0.0641 0.32471,0.15778 0.44855,0.28164 0.12811,0.12383 0.22816,0.27346 0.30076,0.44855 0.0726,0.17508 0.10903,0.37132 0.10903,0.58911 v 0.66662 h -4.40696 c -0.22634,0 -0.39733,-0.0559 -0.51263,-0.16691 -0.11531,-0.1153 -0.1726,-0.28192 -0.1726,-0.49971 v -0.74931 c 0,-0.19217 0.0597,-0.35248 0.17931,-0.48059 0.12386,-0.12811 0.28802,-0.19172 0.493,-0.19172 z"
         id="path1898"
         inkscape:connector-curvature="0" />
      <path
         style="font-style:normal;font-variant:normal;font-weight:normal;font-stretch:normal;font-size:13.11866856px;line-height:1.25;font-family:Audiowide;-inkscape-font-specification:'Audiowide, Normal';font-variant-ligatures:normal;font-variant-caps:normal;font-variant-numeric:normal;font-feature-settings:normal;text-align:start;letter-spacing:0px;word-spacing:0px;writing-mode:lr-tb;text-anchor:start;fill:#999999;fill-opacity:1;stroke:none;stroke-width:0.32796672"
         d="m 129.59324,202.35945 v 9.18548 h 1.66553 v -9.18548 z"
         id="path1900"
         inkscape:connector-curvature="0" />
      <path
         inkscape:connector-curvature="0"
         id="path1902"
         transform="matrix(0.26458333,0,0,0.26458333,0,87)"
         d="m 546.19922,436.00391 c -0.8716,0 -1.82448,0.15231 -2.85742,0.45898 -1.03299,0.30652 -1.99316,0.80792 -2.88086,1.50195 -0.87152,0.71018 -1.60596,1.62269 -2.20313,2.73633 -0.24869,0.48343 -0.43209,1.0229 -0.57422,1.59766 l 8.48047,0.006 c 0.0293,-5.5e-4 0.0542,-0.006 0.084,-0.006 h 22.66015 v -6.29492 z"
         style="font-style:normal;font-variant:normal;font-weight:normal;font-stretch:normal;font-size:13.11866856px;line-height:1.25;font-family:Audiowide;-inkscape-font-specification:'Audiowide, Normal';font-variant-ligatures:normal;font-variant-caps:normal;font-variant-numeric:normal;font-feature-settings:normal;text-align:start;letter-spacing:0px;word-spacing:0px;writing-mode:lr-tb;text-anchor:start;fill:#999999;fill-opacity:1;stroke:none;stroke-width:1.23955929" />
      <path
         inkscape:connector-curvature="0"
         id="path1904"
         transform="matrix(0.26458333,0,0,0.26458333,0,87)"
         d="m 537.38672,450.18555 v 17.36328 c 0,0.43578 0.0808,0.84896 0.24219,1.23633 0.16138,0.38736 0.3799,0.72498 0.65429,1.01562 0.29065,0.29065 0.62826,0.51639 1.01563,0.67774 0.38736,0.16138 0.80785,0.24218 1.25976,0.24218 h 28.34961 v -6.29492 h -25.22656 v -7.89258 h 24.98242 v -6.34179 h -22.19922 -2.7832 v -0.002 z"
         style="font-style:normal;font-variant:normal;font-weight:normal;font-stretch:normal;font-size:13.11866856px;line-height:1.25;font-family:Audiowide;-inkscape-font-specification:'Audiowide, Normal';font-variant-ligatures:normal;font-variant-caps:normal;font-variant-numeric:normal;font-feature-settings:normal;text-align:start;letter-spacing:0px;word-spacing:0px;writing-mode:lr-tb;text-anchor:start;fill:#999999;fill-opacity:1;stroke:none;stroke-width:1.23955929" />
    </g>
    <g
       id="g1890"
       transform="translate(0.19625836,0.34254092)"
       style="fill:#ffffff">
      <path
         inkscape:connector-curvature="0"
         id="path1876"
         d="m 120.39381,202.23387 c -0.12331,-0.007 -0.24427,0.0135 -0.36277,0.0615 -0.14947,0.0683 -0.27334,0.17275 -0.37155,0.31367 -0.0939,0.13666 -0.14108,0.29066 -0.14108,0.46147 v 8.47442 h 1.66553 v -6.46988 l 6.08542,6.35464 c 0.0811,0.0854 0.17294,0.14709 0.27543,0.18552 0.10676,0.0384 0.21119,0.0579 0.31368,0.0579 0.1153,0 0.22462,-0.0214 0.32711,-0.0641 0.10249,-0.0427 0.18992,-0.10052 0.26252,-0.17311 0.0769,-0.0769 0.13661,-0.16623 0.17931,-0.26872 0.047,-0.10249 0.0703,-0.21374 0.0703,-0.33331 v -8.47442 h -1.66553 v 6.46937 l -6.0849,-6.34793 c -0.11957,-0.12384 -0.26288,-0.20059 -0.42943,-0.23048 -0.0416,-0.009 -0.0829,-0.0141 -0.12402,-0.0165 z"
         style="font-style:normal;font-variant:normal;font-weight:normal;font-stretch:normal;font-size:13.11866856px;line-height:1.25;font-family:Audiowide;-inkscape-font-specification:'Audiowide, Normal';font-variant-ligatures:normal;font-variant-caps:normal;font-variant-numeric:normal;font-feature-settings:normal;text-align:start;letter-spacing:0px;word-spacing:0px;writing-mode:lr-tb;text-anchor:start;fill:#ffffff;fill-opacity:1;stroke:none;stroke-width:0.32796672" />
      <path
         inkscape:connector-curvature="0"
         id="path1878"
         d="m 133.0354,202.23387 c -0.12331,-0.007 -0.24426,0.0135 -0.36277,0.0615 -0.14946,0.0683 -0.27333,0.17275 -0.37155,0.31367 -0.094,0.13666 -0.14056,0.29066 -0.14056,0.46147 v 8.47442 h 1.66553 v -6.46988 l 6.0849,6.35464 c 0.0811,0.0854 0.17295,0.14709 0.27543,0.18552 0.10676,0.0384 0.21171,0.0579 0.3142,0.0579 0.1153,0 0.2241,-0.0214 0.32659,-0.0641 0.10249,-0.0427 0.18992,-0.10052 0.26252,-0.17311 0.0769,-0.0769 0.13661,-0.16623 0.17932,-0.26872 0.047,-0.10249 0.0708,-0.21374 0.0708,-0.33331 v -8.47442 h -1.66553 v 6.46937 l -6.08542,-6.34793 c -0.11957,-0.12384 -0.26288,-0.20059 -0.42943,-0.23048 -0.0416,-0.009 -0.0829,-0.0141 -0.12402,-0.0165 z"
         style="font-style:normal;font-variant:normal;font-weight:normal;font-stretch:normal;font-size:13.11866856px;line-height:1.25;font-family:Audiowide;-inkscape-font-specification:'Audiowide, Normal';font-variant-ligatures:normal;font-variant-caps:normal;font-variant-numeric:normal;font-feature-settings:normal;text-align:start;letter-spacing:0px;word-spacing:0px;writing-mode:lr-tb;text-anchor:start;fill:#ffffff;fill-opacity:1;stroke:none;stroke-width:0.32796672" />
      <path
         inkscape:connector-curvature="0"
         id="path1880"
         d="m 153.52407,202.35945 c -0.28612,0 -0.5421,0.0359 -0.76843,0.10852 -0.22633,0.0726 -0.42694,0.17123 -0.60203,0.29507 -0.17082,0.11957 -0.31851,0.25799 -0.44235,0.416 -0.12384,0.158 -0.22389,0.32462 -0.30076,0.49971 -0.0769,0.17081 -0.13468,0.34619 -0.17311,0.52555 -0.0342,0.17508 -0.0512,0.33926 -0.0512,0.49299 v 0.74931 c 0,0.28612 0.0364,0.54261 0.10903,0.76894 0.0726,0.22634 0.16827,0.42695 0.28784,0.60203 0.12384,0.17509 0.26471,0.32471 0.42271,0.44856 0.15801,0.11957 0.3227,0.21961 0.49351,0.30075 0.17509,0.0769 0.34995,0.13468 0.52504,0.17312 0.17508,0.0342 0.3417,0.0512 0.49971,0.0512 h 4.41988 v 0.67283 c 0,0.21778 -0.034,0.41209 -0.10232,0.5829 -0.0683,0.16655 -0.16644,0.30935 -0.29455,0.42892 -0.12384,0.1153 -0.27347,0.20711 -0.44855,0.27543 -0.17082,0.0683 -0.36074,0.11108 -0.57,0.12816 h -4.15736 -1.17203 v 1.67794 h 5.32939 v -0.0124 c 0.20499,0 0.42453,-0.0233 0.6594,-0.0703 0.23487,-0.047 0.46562,-0.12178 0.69194,-0.22427 0.23061,-0.10676 0.45066,-0.23939 0.65991,-0.39739 0.20925,-0.16228 0.39287,-0.35658 0.55087,-0.58291 0.16228,-0.2306 0.29053,-0.49534 0.38448,-0.79427 0.0982,-0.29893 0.14727,-0.63603 0.14727,-1.01182 v -3.01739 c 0,-0.3758 -0.0491,-0.7129 -0.14727,-1.01183 -0.094,-0.29892 -0.2222,-0.56173 -0.38448,-0.78806 -0.158,-0.2306 -0.34162,-0.42684 -0.55087,-0.58911 -0.20925,-0.16228 -0.4293,-0.29491 -0.65991,-0.3974 -0.22632,-0.10676 -0.45707,-0.1835 -0.69194,-0.23047 -0.23487,-0.047 -0.45441,-0.0703 -0.6594,-0.0703 z m 0,1.66553 h 3.00446 c 0.20072,0 0.38626,0.034 0.55708,0.10232 0.17509,0.0641 0.32471,0.15779 0.44855,0.28164 0.12811,0.12384 0.22816,0.27346 0.30076,0.44855 0.0726,0.17508 0.10903,0.37132 0.10903,0.58911 v 0.66662 h -4.40696 c -0.22633,0 -0.39733,-0.0559 -0.51263,-0.16691 -0.1153,-0.1153 -0.1726,-0.28192 -0.1726,-0.49971 v -0.74931 c 0,-0.19217 0.0597,-0.35248 0.17931,-0.48059 0.12385,-0.12811 0.28802,-0.19172 0.493,-0.19172 z"
         style="font-style:normal;font-variant:normal;font-weight:normal;font-stretch:normal;font-size:13.11866856px;line-height:1.25;font-family:Audiowide;-inkscape-font-specification:'Audiowide, Normal';font-variant-ligatures:normal;font-variant-caps:normal;font-variant-numeric:normal;font-feature-settings:normal;text-align:start;letter-spacing:0px;word-spacing:0px;writing-mode:lr-tb;text-anchor:start;fill:#ffffff;fill-opacity:1;stroke:none;stroke-width:0.32796672" />
      <path
         inkscape:connector-curvature="0"
         id="path1882"
         d="m 162.55659,202.35945 c -0.28612,0 -0.5421,0.0359 -0.76843,0.10852 -0.22633,0.0726 -0.42746,0.17123 -0.60255,0.29507 -0.17082,0.11957 -0.31799,0.25799 -0.44183,0.416 -0.12384,0.158 -0.22389,0.32462 -0.30076,0.49971 -0.0769,0.17081 -0.13467,0.34619 -0.17311,0.52555 -0.0342,0.17508 -0.0512,0.33926 -0.0512,0.49299 v 0.74931 c 0,0.28612 0.0359,0.54261 0.10852,0.76894 0.0726,0.22634 0.16878,0.42695 0.28835,0.60203 0.12384,0.17509 0.26471,0.3247 0.42271,0.44856 0.15802,0.11956 0.3227,0.21961 0.49351,0.30075 0.1751,0.0769 0.34995,0.13468 0.52504,0.17312 0.17508,0.0342 0.3417,0.0512 0.49971,0.0512 h 4.41988 v 0.67283 c 0,0.21777 -0.034,0.41209 -0.10231,0.5829 -0.0683,0.16655 -0.16645,0.30935 -0.29456,0.42892 -0.12385,0.1153 -0.27346,0.20712 -0.44855,0.27543 -0.17081,0.0683 -0.36076,0.11108 -0.56999,0.12816 h -2.49546 -1.66191 -1.19476 v 1.67794 h 2.85667 v -0.0124 h 2.49546 c 0.20496,0 0.42451,-0.0233 0.65939,-0.0703 0.23487,-0.047 0.46562,-0.12178 0.69195,-0.22427 0.2306,-0.10676 0.45065,-0.23939 0.6599,-0.39739 0.20925,-0.16228 0.39287,-0.35658 0.55087,-0.58291 0.16228,-0.2306 0.29053,-0.49534 0.38447,-0.79427 0.0982,-0.29893 0.14728,-0.63603 0.14728,-1.01182 v -3.01739 c 0,-0.3758 -0.0491,-0.7129 -0.14728,-1.01183 -0.094,-0.29892 -0.22219,-0.56173 -0.38447,-0.78806 -0.158,-0.2306 -0.34162,-0.42684 -0.55087,-0.58911 -0.20925,-0.16228 -0.4293,-0.2949 -0.6599,-0.3974 -0.22633,-0.10676 -0.45708,-0.1835 -0.69195,-0.23047 -0.23488,-0.047 -0.45443,-0.0703 -0.65939,-0.0703 z m 0,1.66553 h 3.00447 c 0.2007,0 0.38625,0.034 0.55707,0.10232 0.17508,0.0641 0.32471,0.15778 0.44855,0.28164 0.12811,0.12383 0.22816,0.27346 0.30076,0.44855 0.0726,0.17508 0.10903,0.37132 0.10903,0.58911 v 0.66662 h -4.40696 c -0.22634,0 -0.39733,-0.0559 -0.51263,-0.16691 -0.11531,-0.1153 -0.1726,-0.28192 -0.1726,-0.49971 v -0.74931 c 0,-0.19217 0.0597,-0.35248 0.17931,-0.48059 0.12386,-0.12811 0.28802,-0.19172 0.493,-0.19172 z"
         style="font-style:normal;font-variant:normal;font-weight:normal;font-stretch:normal;font-size:13.11866856px;line-height:1.25;font-family:Audiowide;-inkscape-font-specification:'Audiowide, Normal';font-variant-ligatures:normal;font-variant-caps:normal;font-variant-numeric:normal;font-feature-settings:normal;text-align:start;letter-spacing:0px;word-spacing:0px;writing-mode:lr-tb;text-anchor:start;fill:#ffffff;fill-opacity:1;stroke:none;stroke-width:0.32796672" />
      <path
         inkscape:connector-curvature="0"
         id="path1884"
         d="m 129.59324,202.35945 v 9.18548 h 1.66553 v -9.18548 z"
         style="font-style:normal;font-variant:normal;font-weight:normal;font-stretch:normal;font-size:13.11866856px;line-height:1.25;font-family:Audiowide;-inkscape-font-specification:'Audiowide, Normal';font-variant-ligatures:normal;font-variant-caps:normal;font-variant-numeric:normal;font-feature-settings:normal;text-align:start;letter-spacing:0px;word-spacing:0px;writing-mode:lr-tb;text-anchor:start;fill:#ffffff;fill-opacity:1;stroke:none;stroke-width:0.32796672" />
      <path
         style="font-style:normal;font-variant:normal;font-weight:normal;font-stretch:normal;font-size:13.11866856px;line-height:1.25;font-family:Audiowide;-inkscape-font-specification:'Audiowide, Normal';font-variant-ligatures:normal;font-variant-caps:normal;font-variant-numeric:normal;font-feature-settings:normal;text-align:start;letter-spacing:0px;word-spacing:0px;writing-mode:lr-tb;text-anchor:start;fill:#ffffff;fill-opacity:1;stroke:none;stroke-width:1.23955929"
         d="m 546.19922,436.00391 c -0.8716,0 -1.82448,0.15231 -2.85742,0.45898 -1.03299,0.30652 -1.99316,0.80792 -2.88086,1.50195 -0.87152,0.71018 -1.60596,1.62269 -2.20313,2.73633 -0.24869,0.48343 -0.43209,1.0229 -0.57422,1.59766 l 8.48047,0.006 c 0.0293,-5.5e-4 0.0542,-0.006 0.084,-0.006 h 22.66015 v -6.29492 z"
         transform="matrix(0.26458333,0,0,0.26458333,0,87)"
         id="path1886"
         inkscape:connector-curvature="0" />
      <path
         style="font-style:normal;font-variant:normal;font-weight:normal;font-stretch:normal;font-size:13.11866856px;line-height:1.25;font-family:Audiowide;-inkscape-font-specification:'Audiowide, Normal';font-variant-ligatures:normal;font-variant-caps:normal;font-variant-numeric:normal;font-feature-settings:normal;text-align:start;letter-spacing:0px;word-spacing:0px;writing-mode:lr-tb;text-anchor:start;fill:#ffffff;fill-opacity:1;stroke:none;stroke-width:1.23955929"
         d="m 537.38672,450.18555 v 17.36328 c 0,0.43578 0.0808,0.84896 0.24219,1.23633 0.16138,0.38736 0.3799,0.72498 0.65429,1.01562 0.29065,0.29065 0.62826,0.51639 1.01563,0.67774 0.38736,0.16138 0.80785,0.24218 1.25976,0.24218 h 28.34961 v -6.29492 h -25.22656 v -7.89258 h 24.98242 v -6.34179 h -22.19922 -2.7832 v -0.002 z"
         transform="matrix(0.26458333,0,0,0.26458333,0,87)"
         id="path1888"
         inkscape:connector-curvature="0" />
    </g>
    <text
       xml:space="preserve"
       style="font-style:normal;font-variant:normal;font-weight:normal;font-stretch:normal;font-size:10.58333302px;line-height:1.25;font-family:Arizonia;-inkscape-font-specification:'Arizonia, Normal';font-variant-ligatures:normal;font-variant-caps:normal;font-variant-numeric:normal;font-feature-settings:normal;text-align:start;letter-spacing:0px;word-spacing:0px;writing-mode:lr-tb;text-anchor:start;fill:#000000;fill-opacity:1;stroke:none;stroke-width:0.26458332"
       x="-131.63553"
       y="171.39046"
       id="text1604"><tspan
         sodipodi:role="line"
         id="tspan1602"
         x="-131.63553"
         y="171.39046"
         style="font-style:normal;font-variant:normal;font-weight:normal;font-stretch:normal;font-size:10.58333302px;font-family:Arizonia;-inkscape-font-specification:'Arizonia, Normal';font-variant-ligatures:normal;font-variant-caps:normal;font-variant-numeric:normal;font-feature-settings:normal;text-align:start;writing-mode:lr-tb;text-anchor:start;stroke-width:0.26458332">nine99</tspan></text>
    <path
       style="font-style:normal;font-variant:normal;font-weight:normal;font-stretch:normal;font-size:19.65671539px;line-height:1.25;font-family:Damion;-inkscape-font-specification:'Damion, Normal';font-variant-ligatures:normal;font-variant-caps:normal;font-variant-numeric:normal;font-feature-settings:normal;text-align:start;letter-spacing:0px;word-spacing:0px;writing-mode:lr-tb;text-anchor:start;fill:#000000;fill-opacity:1;stroke:none;stroke-width:0.49141788"
       d="m 228.27134,168.97309 c -0.22396,0 -0.41913,0.0419 -0.5855,0.12506 -0.15996,0.0832 -0.29429,0.1888 -0.40307,0.31678 -0.10878,0.12797 -0.19201,0.27204 -0.2496,0.43201 -0.0512,0.15357 -0.077,0.30397 -0.077,0.45114 0.0192,0.20475 0.10875,0.3707 0.26872,0.49867 0.15997,0.12158 0.43837,0.18242 0.83509,0.18242 0.21116,0 0.39369,-0.0414 0.54725,-0.12454 0.15357,-0.0832 0.27816,-0.18538 0.37414,-0.30696 0.096,-0.12797 0.16657,-0.26572 0.21136,-0.41289 0.0512,-0.14717 0.077,-0.2815 0.077,-0.40308 0,-0.21755 -0.074,-0.39666 -0.22118,-0.53743 -0.14717,-0.14717 -0.40609,-0.22118 -0.77721,-0.22118 z"
       id="path1796"
       inkscape:connector-curvature="0" />
    <path
       style="font-style:normal;font-variant:normal;font-weight:normal;font-stretch:normal;font-size:19.65671539px;line-height:1.25;font-family:Damion;-inkscape-font-specification:'Damion, Normal';font-variant-ligatures:normal;font-variant-caps:normal;font-variant-numeric:normal;font-feature-settings:normal;text-align:start;letter-spacing:0px;word-spacing:0px;writing-mode:lr-tb;text-anchor:start;fill:#000000;fill-opacity:1;stroke:none;stroke-width:0.44455525"
       d="m 250.77929,163.24797 c -0.39747,0.0389 -0.78868,0.14156 -1.17364,0.30744 -0.37922,0.16536 -0.73623,0.38112 -1.07066,0.64676 -0.33499,0.2599 -0.64245,0.56057 -0.92283,0.90233 -0.27463,0.34118 -0.50593,0.70999 -0.69366,1.10657 -0.1877,0.39661 -0.3242,0.81136 -0.40946,1.24437 -0.0858,0.42728 -0.10728,0.85989 -0.0641,1.29771 0.0337,0.33984 0.10866,0.62621 0.22468,0.85908 0.11539,0.22708 0.2614,0.41044 0.43804,0.55009 0.17608,0.13385 0.37429,0.22802 0.59483,0.28189 0.22572,0.0476 0.46219,0.0588 0.70988,0.0343 0.34561,-0.0341 0.69924,-0.1096 1.05994,-0.22669 0.36016,-0.12278 0.70564,-0.27587 1.03649,-0.45975 -0.12007,0.19798 -0.27668,0.44041 -0.46944,0.72699 -0.187,0.28601 -0.4263,0.6003 -0.71821,0.94318 -0.28614,0.34232 -0.63412,0.70804 -1.04357,1.09743 -0.40373,0.38881 -0.87658,0.78456 -1.41855,1.18702 -0.13547,0.10061 -0.22633,0.21134 -0.27255,0.33222 -0.0464,0.12093 -0.0646,0.23022 -0.055,0.32813 0.0174,0.17861 0.10212,0.32733 0.25352,0.44617 0.15133,0.11885 0.31653,0.16984 0.49509,0.15221 0.046,-0.005 0.0945,-0.0115 0.14561,-0.0237 0.0514,-0.0104 0.0977,-0.0416 0.13933,-0.0922 1.03377,-0.78252 1.91619,-1.59695 2.64709,-2.44268 0.73144,-0.83993 1.33092,-1.66095 1.79853,-2.46324 0.46762,-0.8023 0.81157,-1.56313 1.0314,-2.2828 0.21985,-0.71967 0.3322,-1.34754 0.33752,-1.8832 -9.3e-4,-0.0639 -0.005,-0.12724 -0.0104,-0.19066 -9.2e-4,-0.0639 -0.005,-0.12771 -0.0115,-0.19101 -0.0345,-0.35141 -0.12114,-0.6685 -0.25964,-0.95149 -0.139,-0.28875 -0.31984,-0.52974 -0.54249,-0.72297 -0.22265,-0.19326 -0.48359,-0.33609 -0.78356,-0.42863 -0.29996,-0.0927 -0.63148,-0.12092 -0.99441,-0.0851 z m -0.19023,1.51915 c 0.3341,-0.0332 0.60811,0.0361 0.82274,0.20679 0.21403,0.16501 0.3358,0.39459 0.3648,0.68839 0.002,0.0288 9.2e-4,0.0551 -9.3e-4,0.0786 l 0.006,0.0607 c 2.2e-4,0.59326 -0.14461,1.27652 -0.43478,2.04967 -0.19204,0.176 -0.39416,0.3384 -0.6063,0.48729 -0.20697,0.14256 -0.41508,0.2706 -0.62491,0.38435 -0.2046,0.10752 -0.40551,0.19716 -0.602,0.26891 -0.19706,0.066 -0.37886,0.10694 -0.54588,0.1235 -0.24775,0.0236 -0.45343,-0.0248 -0.61685,-0.14819 -0.16398,-0.12922 -0.26164,-0.35231 -0.29291,-0.66915 -0.0203,-0.21899 -0.004,-0.45338 0.0528,-0.70325 0.0562,-0.25566 0.14189,-0.50835 0.25685,-0.75817 0.11431,-0.25558 0.25289,-0.50198 0.41563,-0.73904 0.16793,-0.24342 0.34755,-0.45892 0.53845,-0.64642 0.19667,-0.1881 0.40225,-0.34197 0.61725,-0.46208 0.21442,-0.1259 0.43147,-0.19992 0.65037,-0.22149 z"
       id="path1794"
       inkscape:connector-curvature="0" />
    <path
       style="font-style:normal;font-variant:normal;font-weight:normal;font-stretch:normal;font-size:19.65671539px;line-height:1.25;font-family:Damion;-inkscape-font-specification:'Damion, Normal';font-variant-ligatures:normal;font-variant-caps:normal;font-variant-numeric:normal;font-feature-settings:normal;text-align:start;letter-spacing:0px;word-spacing:0px;writing-mode:lr-tb;text-anchor:start;fill:#000000;fill-opacity:1;stroke:none;stroke-width:0.49141788"
       d="m 242.99801,170.93308 c -0.5055,0 -0.9825,0.0735 -1.4304,0.22066 -0.44151,0.14717 -0.84793,0.34234 -1.21905,0.58549 -0.37112,0.24315 -0.70695,0.52498 -1.00769,0.84491 -0.29434,0.31354 -0.54403,0.63673 -0.74879,0.96945 -0.20476,0.33273 -0.36148,0.66514 -0.47026,0.99788 -0.0815,0.24437 -0.1325,0.47472 -0.15296,0.69039 -0.0102,0.007 -0.0192,0.0134 -0.0294,0.0202 -0.33274,0.21115 -0.68121,0.41265 -1.04594,0.60461 -0.35832,0.19196 -0.71022,0.35158 -1.05574,0.47956 -0.0832,0.0576 -0.15378,0.0931 -0.21136,0.10593 -0.0576,0.006 -0.10869,0.009 -0.15348,0.009 -0.0704,0 -0.12149,-0.019 -0.15348,-0.0574 -0.032,-0.0384 -0.0481,-0.0832 -0.0481,-0.13435 0,-0.13437 0.0414,-0.25264 0.12454,-0.35502 0.064,-0.11518 0.15064,-0.25925 0.25942,-0.43202 0.11517,-0.17916 0.23976,-0.37433 0.37413,-0.58549 0.13438,-0.21116 0.26871,-0.43504 0.40308,-0.67179 0.14077,-0.24315 0.26588,-0.48943 0.37465,-0.73898 0.11518,-0.24955 0.20764,-0.49924 0.27802,-0.74879 0.0704,-0.24954 0.10594,-0.4895 0.10594,-0.71985 0,-0.39032 -0.11536,-0.6653 -0.34572,-0.82527 -0.22395,-0.16637 -0.50526,-0.2496 -0.84439,-0.2496 -0.30074,0 -0.62102,0.0477 -0.96015,0.14366 -0.33273,0.096 -0.65881,0.22109 -0.97875,0.37465 -0.31353,0.14717 -0.60168,0.31654 -0.86403,0.5085 -0.26234,0.18556 -0.46384,0.36809 -0.60461,0.54726 0.0512,-0.10878 0.0862,-0.2115 0.10542,-0.30748 0.0192,-0.096 0.0289,-0.18554 0.0289,-0.26872 0,-0.21755 -0.0608,-0.3806 -0.18242,-0.48937 -0.12158,-0.11518 -0.25881,-0.1726 -0.41238,-0.1726 -0.18556,0 -0.37441,0.0672 -0.56637,0.20154 -0.19196,0.13437 -0.3521,0.33928 -0.48008,0.61443 -0.10238,0.22395 -0.23329,0.49552 -0.39325,0.81545 -0.15997,0.31994 -0.32985,0.6626 -0.50902,1.02733 -0.042,0.0871 -0.0858,0.17823 -0.12816,0.26613 -0.0532,0.0295 -0.10642,0.0672 -0.15967,0.11783 -0.096,0.11517 -0.21767,0.24608 -0.36484,0.39325 -0.14077,0.14717 -0.29749,0.30099 -0.47026,0.46096 -0.16636,0.15996 -0.34547,0.31959 -0.53743,0.47955 -0.19196,0.15357 -0.38714,0.29133 -0.58549,0.4129 -0.19836,0.12157 -0.39644,0.22087 -0.5948,0.29765 -0.19196,0.0768 -0.37791,0.11524 -0.55707,0.11524 -0.15997,0 -0.28456,-0.0258 -0.37414,-0.077 -0.0832,-0.0576 -0.12506,-0.17295 -0.12506,-0.34571 0,-0.15997 0.0292,-0.33566 0.0868,-0.52762 0.064,-0.19196 0.13747,-0.38713 0.22066,-0.58549 0.0896,-0.19836 0.18204,-0.39063 0.27802,-0.57619 0.096,-0.19196 0.18263,-0.36765 0.25941,-0.52762 0.064,-0.13437 0.11851,-0.24974 0.1633,-0.34571 l 0.13436,-0.28784 0.16278,-0.32608 c 0.0576,-0.11518 0.13159,-0.25635 0.22118,-0.42271 0.032,-0.0576 0.051,-0.11501 0.0574,-0.1726 0.0128,-0.0576 0.0225,-0.11501 0.0289,-0.1726 0,-0.24315 -0.0896,-0.44175 -0.26872,-0.59531 -0.17277,-0.15997 -0.3811,-0.23978 -0.62425,-0.23978 -0.14717,0 -0.29073,0.0385 -0.4315,0.11524 -0.14077,0.0768 -0.26588,0.20479 -0.37466,0.38395 -0.11517,0.23675 -0.2237,0.46064 -0.32607,0.6718 -0.0896,0.17916 -0.17624,0.35485 -0.25942,0.52761 -0.0768,0.17277 -0.13079,0.30077 -0.16278,0.38396 -0.0896,0.22395 -0.19862,0.461 -0.3266,0.71055 -0.12797,0.24315 -0.24966,0.49865 -0.36483,0.76739 -0.007,0.0156 -0.0124,0.0319 -0.0191,0.0476 -0.17358,0.124 -0.35431,0.24901 -0.54726,0.37517 -0.33273,0.21115 -0.6812,0.41265 -1.04593,0.60461 -0.35832,0.19196 -0.71022,0.35158 -1.05575,0.47956 -0.0832,0.0576 -0.15376,0.0931 -0.21135,0.10593 -0.0576,0.006 -0.10869,0.009 -0.15348,0.009 -0.0704,0 -0.12149,-0.019 -0.15348,-0.0574 -0.032,-0.0384 -0.0481,-0.0832 -0.0481,-0.13435 0,-0.13437 0.0419,-0.25264 0.12506,-0.35502 0.064,-0.11518 0.15012,-0.25925 0.2589,-0.43202 0.11517,-0.17916 0.23976,-0.37433 0.37413,-0.58549 0.13437,-0.21116 0.26871,-0.43504 0.40308,-0.67179 0.14077,-0.24315 0.26588,-0.48943 0.37465,-0.73898 0.11518,-0.24955 0.20764,-0.49924 0.27802,-0.74879 0.0704,-0.24954 0.10594,-0.4895 0.10594,-0.71985 0,-0.39032 -0.11537,-0.6653 -0.34571,-0.82527 -0.22396,-0.16637 -0.50527,-0.2496 -0.8444,-0.2496 -0.30074,0 -0.62102,0.0477 -0.96015,0.14366 -0.33273,0.096 -0.65882,0.22109 -0.97875,0.37465 -0.31353,0.14717 -0.60168,0.31654 -0.86403,0.5085 -0.26234,0.18556 -0.46384,0.36809 -0.60461,0.54726 0.0512,-0.10878 0.0862,-0.2115 0.10542,-0.30748 0.0192,-0.096 0.0289,-0.18554 0.0289,-0.26872 -1e-5,-0.21755 -0.0609,-0.3806 -0.18242,-0.48937 -0.12158,-0.11518 -0.25881,-0.1726 -0.41238,-0.1726 -0.18556,0 -0.37441,0.0672 -0.56637,0.20154 -0.19196,0.13437 -0.3521,0.33928 -0.48008,0.61443 -0.10238,0.22395 -0.23329,0.49552 -0.39326,0.81545 -0.15996,0.31994 -0.32985,0.6626 -0.50901,1.02733 -0.17276,0.35833 -0.34845,0.72287 -0.52762,1.09399 -0.17276,0.36472 -0.32948,0.70688 -0.47025,1.02681 -0.14077,0.31993 -0.25613,0.60176 -0.34571,0.84491 -0.0896,0.24315 -0.13436,0.41884 -0.13436,0.52762 0,0.20475 0.0637,0.37754 0.19172,0.51831 0.12797,0.14077 0.30418,0.21136 0.52813,0.21136 0.21755,0 0.39666,-0.0706 0.53743,-0.21136 0.14717,-0.13437 0.2786,-0.30374 0.39378,-0.5085 0.11517,-0.21115 0.2237,-0.43504 0.32608,-0.67179 0.10877,-0.24315 0.22704,-0.47045 0.35501,-0.68161 0.20476,-0.31354 0.44181,-0.66885 0.71056,-1.06557 0.26874,-0.39672 0.5627,-0.771 0.88263,-1.12293 0.31993,-0.35832 0.6626,-0.65912 1.02733,-0.90227 0.37112,-0.24315 0.76147,-0.36432 1.17098,-0.36432 0.10878,0 0.18859,0.035 0.23978,0.10542 0.0576,0.064 0.0863,0.1438 0.0863,0.23978 0,0.10878 -0.0414,0.24943 -0.12454,0.4222 -0.0832,0.17276 -0.1888,0.37136 -0.31678,0.59531 -0.12157,0.21756 -0.2559,0.45119 -0.40307,0.70073 -0.14717,0.24315 -0.28783,0.48943 -0.4222,0.73898 -0.12797,0.24954 -0.24043,0.49292 -0.33641,0.72967 -0.0896,0.23675 -0.14068,0.45431 -0.15348,0.65267 -0.006,0.0512 -0.0127,0.0989 -0.0191,0.14366 v 0.12506 c 0,0.33913 0.0769,0.60437 0.23048,0.79633 0.15996,0.18556 0.40966,0.27854 0.74879,0.27854 0.11517,0 0.23976,-0.0127 0.37414,-0.0382 0.14077,-0.0256 0.29458,-0.0641 0.46095,-0.11524 0.4863,-0.14077 0.90826,-0.29117 1.26659,-0.45114 0.36472,-0.16636 0.70397,-0.34257 1.01751,-0.52813 0.20721,-0.12433 0.40907,-0.25613 0.60823,-0.39119 0.0196,0.50301 0.1645,0.88072 0.4377,1.13016 0.30074,0.26235 0.71057,0.39378 1.22886,0.39378 0.36473,0 0.72637,-0.0706 1.08469,-0.21136 0.35833,-0.14077 0.71313,-0.3262 1.06505,-0.55655 0.23473,-0.1551 0.46391,-0.32905 0.6904,-0.5116 -0.003,0.007 -0.006,0.0153 -0.009,0.0222 -0.0896,0.24315 -0.13435,0.41884 -0.13435,0.52762 0,0.20475 0.0637,0.37754 0.19172,0.51831 0.12797,0.14077 0.30418,0.21136 0.52813,0.21136 0.21755,0 0.39666,-0.0706 0.53744,-0.21136 0.14716,-0.13437 0.27859,-0.30374 0.39377,-0.5085 0.11518,-0.21115 0.2237,-0.43504 0.32608,-0.67179 0.10878,-0.24315 0.22704,-0.47045 0.35502,-0.68161 0.20475,-0.31354 0.4418,-0.66885 0.71054,-1.06557 0.26875,-0.39672 0.5627,-0.771 0.88264,-1.12293 0.31993,-0.35832 0.6626,-0.65912 1.02733,-0.90227 0.37112,-0.24315 0.76147,-0.36432 1.17098,-0.36432 0.10878,0 0.18859,0.035 0.23978,0.10542 0.0576,0.064 0.0863,0.1438 0.0863,0.23978 0,0.10878 -0.0414,0.24943 -0.12454,0.4222 -0.0832,0.17276 -0.1888,0.37136 -0.31677,0.59531 -0.12158,0.21756 -0.25591,0.45119 -0.40308,0.70073 -0.14717,0.24315 -0.28834,0.48943 -0.42271,0.73898 -0.12798,0.24954 -0.23992,0.49292 -0.3359,0.72967 -0.0896,0.23675 -0.14068,0.45431 -0.15348,0.65267 -0.006,0.0512 -0.0127,0.0989 -0.0191,0.14366 v 0.12506 c 0,0.33913 0.0769,0.60437 0.23048,0.79633 0.15996,0.18556 0.40966,0.27854 0.74879,0.27854 0.11517,0 0.23976,-0.0127 0.37414,-0.0382 0.14077,-0.0256 0.29407,-0.0641 0.46043,-0.11524 0.4863,-0.14077 0.90878,-0.29117 1.26711,-0.45114 0.36472,-0.16636 0.70397,-0.34257 1.01751,-0.52813 0.23322,-0.13993 0.45962,-0.28933 0.68264,-0.44287 0.10623,0.28313 0.24812,0.53742 0.43047,0.75965 0.21115,0.24954 0.46427,0.44814 0.75861,0.59531 0.30074,0.14717 0.64289,0.22066 1.02681,0.22066 0.44791,0 0.902,-0.0608 1.36271,-0.18242 0.4607,-0.11518 0.90267,-0.26216 1.32498,-0.44132 0.42871,-0.17916 0.83171,-0.37434 1.20923,-0.58549 0.38392,-0.21756 0.71975,-0.42247 1.00769,-0.61443 0.28794,-0.19196 0.52157,-0.35843 0.70073,-0.4992 0.18556,-0.14077 0.29409,-0.2269 0.32608,-0.2589 0.0832,-0.10238 0.13138,-0.19193 0.14418,-0.26871 0.0128,-0.0832 0.0191,-0.15377 0.0191,-0.21136 0,-0.0384 -0.006,-0.0832 -0.0191,-0.13436 -0.0128,-0.0576 -0.0386,-0.10869 -0.077,-0.15348 -0.032,-0.0512 -0.0734,-0.0931 -0.12454,-0.12506 -0.0512,-0.0384 -0.11545,-0.0574 -0.19224,-0.0574 -0.0384,0 -0.0832,0.003 -0.13436,0.009 -0.0448,0.006 -0.0959,0.0288 -0.15347,0.0672 -0.0576,0.0256 -0.17244,0.0899 -0.3452,0.19223 -0.16637,0.10238 -0.37761,0.22407 -0.63356,0.36484 -0.24954,0.14077 -0.53137,0.29117 -0.84491,0.45113 -0.31353,0.15357 -0.63672,0.29713 -0.96945,0.4315 -0.32633,0.13437 -0.65874,0.24683 -0.99787,0.33641 -0.33273,0.0832 -0.64617,0.12454 -0.94051,0.12454 -0.27514,0 -0.49613,-0.0511 -0.66249,-0.15348 -0.16637,-0.10877 -0.26566,-0.25627 -0.29766,-0.44183 0.87022,-0.31993 1.5935,-0.63628 2.16938,-0.94981 0.58228,-0.31994 1.04612,-0.63047 1.39164,-0.93121 0.34553,-0.30714 0.58891,-0.60793 0.72968,-0.90227 0.14077,-0.29434 0.21084,-0.57565 0.21084,-0.8444 0,-0.4543 -0.13091,-0.80962 -0.39326,-1.06556 -0.26235,-0.25595 -0.65902,-0.38396 -1.19011,-0.38396 z m -0.51831,1.31517 h 0.0863 c 0.0256,0 0.0543,0.003 0.0863,0.009 0.0768,0.0128 0.14395,0.0483 0.20153,0.10594 0.064,0.0576 0.0961,0.13398 0.0961,0.22996 0,0.11517 -0.0545,0.25292 -0.1633,0.41289 -0.10877,0.15357 -0.30737,0.32003 -0.59531,0.49919 -0.064,0.0384 -0.17593,0.11189 -0.33589,0.22066 -0.15357,0.10878 -0.33559,0.23047 -0.54674,0.36484 -0.21116,0.13437 -0.43846,0.27503 -0.68161,0.4222 -0.1829,0.11369 -0.36063,0.21493 -0.53589,0.30954 0.0688,-0.16951 0.10387,-0.32741 0.10387,-0.47284 0,-0.0285 -0.008,-0.0517 -0.0108,-0.078 0.0581,-0.12187 0.12101,-0.2456 0.19327,-0.37311 0.10878,-0.19836 0.23046,-0.39643 0.36484,-0.59479 0.14076,-0.19836 0.29749,-0.37457 0.47025,-0.52814 0.17916,-0.15996 0.37434,-0.28797 0.58549,-0.38395 0.21116,-0.096 0.43847,-0.14366 0.68162,-0.14366 z"
       id="path1786"
       inkscape:connector-curvature="0" />
    <text
       xml:space="preserve"
       style="font-style:normal;font-variant:normal;font-weight:normal;font-stretch:normal;font-size:10.58333302px;line-height:1.25;font-family:'Days One';-inkscape-font-specification:'Days One, Normal';font-variant-ligatures:normal;font-variant-caps:normal;font-variant-numeric:normal;font-feature-settings:normal;text-align:start;letter-spacing:0px;word-spacing:0px;writing-mode:lr-tb;text-anchor:start;fill:#000000;fill-opacity:1;stroke:none;stroke-width:0.26458332"
       x="-134.28136"
       y="195.58093"
       id="text1612"><tspan
         sodipodi:role="line"
         id="tspan1610"
         x="-134.28136"
         y="195.58093"
         style="font-style:normal;font-variant:normal;font-weight:normal;font-stretch:normal;font-size:10.58333302px;font-family:'Days One';-inkscape-font-specification:'Days One, Normal';font-variant-ligatures:normal;font-variant-caps:normal;font-variant-numeric:normal;font-feature-settings:normal;text-align:start;writing-mode:lr-tb;text-anchor:start;stroke-width:0.26458332">nine99</tspan></text>
    <text
       xml:space="preserve"
       style="font-style:normal;font-variant:normal;font-weight:normal;font-stretch:normal;font-size:10.58333302px;line-height:1.25;font-family:'Euphoria Script';-inkscape-font-specification:'Euphoria Script, Normal';font-variant-ligatures:normal;font-variant-caps:normal;font-variant-numeric:normal;font-feature-settings:normal;text-align:start;letter-spacing:0px;word-spacing:0px;writing-mode:lr-tb;text-anchor:start;fill:#000000;fill-opacity:1;stroke:none;stroke-width:0.26458332"
       x="-134.28136"
       y="221.37781"
       id="text1620"><tspan
         sodipodi:role="line"
         id="tspan1618"
         x="-134.28136"
         y="221.37781"
         style="font-style:normal;font-variant:normal;font-weight:normal;font-stretch:normal;font-size:10.58333302px;font-family:'Euphoria Script';-inkscape-font-specification:'Euphoria Script, Normal';font-variant-ligatures:normal;font-variant-caps:normal;font-variant-numeric:normal;font-feature-settings:normal;text-align:start;writing-mode:lr-tb;text-anchor:start;stroke-width:0.26458332">nine99</tspan></text>
    <text
       id="text1624"
       y="231.96114"
       x="-134.47035"
       style="font-style:normal;font-variant:normal;font-weight:normal;font-stretch:normal;font-size:10.58333302px;line-height:1.25;font-family:'Fugaz One';-inkscape-font-specification:'Fugaz One, Normal';font-variant-ligatures:normal;font-variant-caps:normal;font-variant-numeric:normal;font-feature-settings:normal;text-align:start;letter-spacing:0px;word-spacing:0px;writing-mode:lr-tb;text-anchor:start;fill:#000000;fill-opacity:1;stroke:none;stroke-width:0.26458332"
       xml:space="preserve"><tspan
         style="font-style:normal;font-variant:normal;font-weight:normal;font-stretch:normal;font-size:10.58333302px;font-family:'Fugaz One';-inkscape-font-specification:'Fugaz One, Normal';font-variant-ligatures:normal;font-variant-caps:normal;font-variant-numeric:normal;font-feature-settings:normal;text-align:start;writing-mode:lr-tb;text-anchor:start;stroke-width:0.26458332"
         y="231.96114"
         x="-134.47035"
         id="tspan1622"
         sodipodi:role="line">nine99</tspan></text>
    <text
       xml:space="preserve"
       style="font-style:normal;font-variant:normal;font-weight:normal;font-stretch:normal;font-size:10.58333302px;line-height:1.25;font-family:'Grand Hotel';-inkscape-font-specification:'Grand Hotel, Normal';font-variant-ligatures:normal;font-variant-caps:normal;font-variant-numeric:normal;font-feature-settings:normal;text-align:start;letter-spacing:0px;word-spacing:0px;writing-mode:lr-tb;text-anchor:start;fill:#000000;fill-opacity:1;stroke:none;stroke-width:0.26458332"
       x="-134.47035"
       y="243.77289"
       id="text1628"><tspan
         sodipodi:role="line"
         id="tspan1626"
         x="-134.47035"
         y="243.77289"
         style="font-style:normal;font-variant:normal;font-weight:normal;font-stretch:normal;font-size:10.58333302px;font-family:'Grand Hotel';-inkscape-font-specification:'Grand Hotel, Normal';font-variant-ligatures:normal;font-variant-caps:normal;font-variant-numeric:normal;font-feature-settings:normal;text-align:start;writing-mode:lr-tb;text-anchor:start;stroke-width:0.26458332">nine99</tspan></text>
    <text
       id="text1632"
       y="254.73419"
       x="-134.47035"
       style="font-style:normal;font-variant:normal;font-weight:normal;font-stretch:normal;font-size:10.58333302px;line-height:1.25;font-family:Lobster;-inkscape-font-specification:'Lobster, Normal';font-variant-ligatures:normal;font-variant-caps:normal;font-variant-numeric:normal;font-feature-settings:normal;text-align:start;letter-spacing:0px;word-spacing:0px;writing-mode:lr-tb;text-anchor:start;fill:#000000;fill-opacity:1;stroke:none;stroke-width:0.26458332"
       xml:space="preserve"><tspan
         style="font-style:normal;font-variant:normal;font-weight:normal;font-stretch:normal;font-size:10.58333302px;font-family:Lobster;-inkscape-font-specification:'Lobster, Normal';font-variant-ligatures:normal;font-variant-caps:normal;font-variant-numeric:normal;font-feature-settings:normal;text-align:start;writing-mode:lr-tb;text-anchor:start;stroke-width:0.26458332"
         y="254.73419"
         x="-134.47035"
         id="tspan1630"
         sodipodi:role="line">nine99</tspan></text>
    <text
       xml:space="preserve"
       style="font-style:normal;font-variant:normal;font-weight:normal;font-stretch:normal;font-size:10.58333302px;line-height:1.25;font-family:'Mr Dafoe';-inkscape-font-specification:'Mr Dafoe, Normal';font-variant-ligatures:normal;font-variant-caps:normal;font-variant-numeric:normal;font-feature-settings:normal;text-align:start;letter-spacing:0px;word-spacing:0px;writing-mode:lr-tb;text-anchor:start;fill:#000000;fill-opacity:1;stroke:none;stroke-width:0.26458332"
       x="-134.47035"
       y="265.31754"
       id="text1636"><tspan
         sodipodi:role="line"
         id="tspan1634"
         x="-134.47035"
         y="265.31754"
         style="font-style:normal;font-variant:normal;font-weight:normal;font-stretch:normal;font-size:10.58333302px;font-family:'Mr Dafoe';-inkscape-font-specification:'Mr Dafoe, Normal';font-variant-ligatures:normal;font-variant-caps:normal;font-variant-numeric:normal;font-feature-settings:normal;text-align:start;writing-mode:lr-tb;text-anchor:start;stroke-width:0.26458332">nine99</tspan></text>
    <text
       id="text1640"
       y="277.41278"
       x="-137.49416"
       style="font-style:normal;font-variant:normal;font-weight:normal;font-stretch:normal;font-size:10.58333302px;line-height:1.25;font-family:'Wire One';-inkscape-font-specification:'Wire One, Normal';font-variant-ligatures:normal;font-variant-caps:normal;font-variant-numeric:normal;font-feature-settings:normal;text-align:start;letter-spacing:0px;word-spacing:0px;writing-mode:lr-tb;text-anchor:start;fill:#000000;fill-opacity:1;stroke:none;stroke-width:0.26458332"
       xml:space="preserve"><tspan
         style="font-style:normal;font-variant:normal;font-weight:normal;font-stretch:normal;font-size:10.58333302px;font-family:'Wire One';-inkscape-font-specification:'Wire One, Normal';font-variant-ligatures:normal;font-variant-caps:normal;font-variant-numeric:normal;font-feature-settings:normal;text-align:start;writing-mode:lr-tb;text-anchor:start;stroke-width:0.26458332"
         y="277.41278"
         x="-137.49416"
         id="tspan1638"
         sodipodi:role="line">nine99</tspan></text>
    <text
       xml:space="preserve"
       style="font-style:normal;font-variant:normal;font-weight:normal;font-stretch:normal;font-size:10.58333302px;line-height:1.25;font-family:'Unica One';-inkscape-font-specification:'Unica One, Normal';font-variant-ligatures:normal;font-variant-caps:normal;font-variant-numeric:normal;font-feature-settings:normal;text-align:start;letter-spacing:0px;word-spacing:0px;writing-mode:lr-tb;text-anchor:start;fill:#000000;fill-opacity:1;stroke:none;stroke-width:0.26458332"
       x="-137.49416"
       y="289.31903"
       id="text1644"><tspan
         sodipodi:role="line"
         id="tspan1642"
         x="-137.49416"
         y="289.31903"
         style="font-style:normal;font-variant:normal;font-weight:normal;font-stretch:normal;font-size:10.58333302px;font-family:'Unica One';-inkscape-font-specification:'Unica One, Normal';font-variant-ligatures:normal;font-variant-caps:normal;font-variant-numeric:normal;font-feature-settings:normal;text-align:start;writing-mode:lr-tb;text-anchor:start;stroke-width:0.26458332">nine99</tspan></text>
    <text
       id="text1648"
       y="300.65833"
       x="-137.49416"
       style="font-style:normal;font-variant:normal;font-weight:normal;font-stretch:normal;font-size:10.58333302px;line-height:1.25;font-family:'Tulpen One';-inkscape-font-specification:'Tulpen One, Normal';font-variant-ligatures:normal;font-variant-caps:normal;font-variant-numeric:normal;font-feature-settings:normal;text-align:start;letter-spacing:0px;word-spacing:0px;writing-mode:lr-tb;text-anchor:start;fill:#000000;fill-opacity:1;stroke:none;stroke-width:0.26458332"
       xml:space="preserve"><tspan
         style="font-style:normal;font-variant:normal;font-weight:normal;font-stretch:normal;font-size:10.58333302px;font-family:'Tulpen One';-inkscape-font-specification:'Tulpen One, Normal';font-variant-ligatures:normal;font-variant-caps:normal;font-variant-numeric:normal;font-feature-settings:normal;text-align:start;writing-mode:lr-tb;text-anchor:start;stroke-width:0.26458332"
         y="300.65833"
         x="-137.49416"
         id="tspan1646"
         sodipodi:role="line">nine99</tspan></text>
    <text
       xml:space="preserve"
       style="font-style:normal;font-variant:normal;font-weight:500;font-stretch:normal;font-size:10.58333302px;line-height:1.25;font-family:'Teko Medium';-inkscape-font-specification:'Teko Medium, Medium';font-variant-ligatures:normal;font-variant-caps:normal;font-variant-numeric:normal;font-feature-settings:normal;text-align:start;letter-spacing:0px;word-spacing:0px;writing-mode:lr-tb;text-anchor:start;fill:#000000;fill-opacity:1;stroke:none;stroke-width:0.26458332"
       x="-137.49416"
       y="311.24167"
       id="text1652"><tspan
         sodipodi:role="line"
         id="tspan1650"
         x="-137.49416"
         y="311.24167"
         style="font-style:normal;font-variant:normal;font-weight:500;font-stretch:normal;font-size:10.58333302px;font-family:'Teko Medium';-inkscape-font-specification:'Teko Medium, Medium';font-variant-ligatures:normal;font-variant-caps:normal;font-variant-numeric:normal;font-feature-settings:normal;text-align:start;writing-mode:lr-tb;text-anchor:start;stroke-width:0.26458332">nine99</tspan></text>
    <path
       style="font-style:normal;font-variant:normal;font-weight:normal;font-stretch:normal;font-size:13.11866856px;line-height:1.25;font-family:'Share Tech Mono';-inkscape-font-specification:'Share Tech Mono, Normal';font-variant-ligatures:normal;font-variant-caps:normal;font-variant-numeric:normal;font-feature-settings:normal;text-align:start;letter-spacing:0px;word-spacing:0px;writing-mode:lr-tb;text-anchor:start;fill:#000000;fill-opacity:1;stroke:none;stroke-width:1.23955929"
       d="m 103.08203,301.77539 v 4.46094 h 4.71094 v -4.46094 z"
       transform="matrix(0.26458333,0,0,0.26458333,0,87)"
       id="path1778" />
    <path
       style="font-style:normal;font-variant:normal;font-weight:normal;font-stretch:normal;font-size:13.11866856px;line-height:1.25;font-family:'Share Tech Mono';-inkscape-font-specification:'Share Tech Mono, Normal';font-variant-ligatures:normal;font-variant-caps:normal;font-variant-numeric:normal;font-feature-settings:normal;text-align:start;letter-spacing:0px;word-spacing:0px;writing-mode:lr-tb;text-anchor:start;fill:#000000;fill-opacity:1;stroke:none;stroke-width:1.23955929"
       d="m 69.660156,311.69141 v 24.79101 H 73.875 v -18.3457 c 0,-0.6611 0.26409,-1.27205 0.792969,-1.83399 0.528878,-0.59498 1.338875,-0.89257 2.429687,-0.89257 h 3.273438 c 0.991647,0 1.768144,0.29759 2.330078,0.89257 0.594988,0.56194 0.892578,1.33844 0.892578,2.33008 v 17.84961 h 4.214844 V 319.625 c 0,-2.77661 -0.662179,-4.79274 -1.984375,-6.04883 -1.289142,-1.25608 -3.271771,-1.88476 -5.949219,-1.88476 h -2.28125 c -1.619691,0 -2.942095,0.39613 -3.966797,1.18945 v -1.18945 z"
       transform="matrix(0.26458333,0,0,0.26458333,0,87)"
       id="path1776" />
    <path
       style="font-style:normal;font-variant:normal;font-weight:normal;font-stretch:normal;font-size:13.11866856px;line-height:1.25;font-family:'Share Tech Mono';-inkscape-font-specification:'Share Tech Mono, Normal';font-variant-ligatures:normal;font-variant-caps:normal;font-variant-numeric:normal;font-feature-settings:normal;text-align:start;letter-spacing:0px;word-spacing:0px;writing-mode:lr-tb;text-anchor:start;fill:#000000;fill-opacity:1;stroke:none;stroke-width:1.23955929"
       d="M 96.041016 311.69141 L 96.041016 315.41016 L 103.33008 315.41016 L 103.33008 336.48242 L 114.88281 336.48242 L 114.88281 332.76367 L 107.54492 332.76367 L 107.54492 311.69141 L 96.041016 311.69141 z "
       transform="matrix(0.26458333,0,0,0.26458333,0,87)"
       id="path1774" />
    <path
       style="font-style:normal;font-variant:normal;font-weight:normal;font-stretch:normal;font-size:13.11866856px;line-height:1.25;font-family:'Share Tech Mono';-inkscape-font-specification:'Share Tech Mono, Normal';font-variant-ligatures:normal;font-variant-caps:normal;font-variant-numeric:normal;font-feature-settings:normal;text-align:start;letter-spacing:0px;word-spacing:0px;writing-mode:lr-tb;text-anchor:start;fill:#000000;fill-opacity:1;stroke:none;stroke-width:1.23955929"
       d="m 123.11719,311.69141 v 24.79101 h 4.21289 v -18.3457 c 0,-0.6611 0.26604,-1.27205 0.79492,-1.83399 0.52888,-0.59498 1.33888,-0.89257 2.42969,-0.89257 h 3.27148 c 0.99165,0 1.76815,0.29759 2.33008,0.89257 0.59499,0.56194 0.89258,1.33844 0.89258,2.33008 v 17.84961 h 4.21484 V 319.625 c 0,-2.77661 -0.66022,-4.79274 -1.98242,-6.04883 -1.28914,-1.25608 -3.27372,-1.88476 -5.95117,-1.88476 h -2.28125 c -1.61969,0 -2.94014,0.39613 -3.96485,1.18945 v -1.18945 z"
       transform="matrix(0.26458333,0,0,0.26458333,0,87)"
       id="path1772" />
    <path
       style="font-style:normal;font-variant:normal;font-weight:normal;font-stretch:normal;font-size:13.11866856px;line-height:1.25;font-family:'Share Tech Mono';-inkscape-font-specification:'Share Tech Mono, Normal';font-variant-ligatures:normal;font-variant-caps:normal;font-variant-numeric:normal;font-feature-settings:normal;text-align:start;letter-spacing:0px;word-spacing:0px;writing-mode:lr-tb;text-anchor:start;fill:#000000;fill-opacity:1;stroke:none;stroke-width:1.23955929"
       d="M 158.125 311.69141 C 155.28228 311.69141 153.24842 312.30236 152.02539 313.52539 C 150.80236 314.74842 150.19141 316.78228 150.19141 319.625 L 150.19141 328.54883 C 150.19141 331.3585 150.86936 333.39235 152.22461 334.64844 C 153.57986 335.87147 155.71226 336.48242 158.62109 336.48242 L 166.00781 336.48242 L 166.00781 332.76367 L 158.125 332.76367 C 156.90197 332.76367 155.9757 332.48186 155.34766 331.91992 C 154.71961 331.35799 154.40625 330.56572 154.40625 329.54102 L 154.40625 325.82227 L 167.5957 325.82227 L 167.5957 319.37695 C 167.5957 316.86478 166.9828 314.96297 165.75977 313.67383 C 164.56979 312.35163 162.80198 311.69141 160.45508 311.69141 L 158.125 311.69141 z M 157.62891 315.41016 L 160.50391 315.41016 C 161.36333 315.41016 162.07479 315.69002 162.63672 316.25195 C 163.19865 316.81389 163.48047 317.52534 163.48047 318.38477 L 163.48047 322.10352 L 154.40625 322.10352 L 154.40625 318.63281 C 154.40625 317.57506 154.63684 316.78083 155.09961 316.25195 C 155.59543 315.69002 156.43893 315.41016 157.62891 315.41016 z "
       transform="matrix(0.26458333,0,0,0.26458333,0,87)"
       id="path1770" />
    <text
       xml:space="preserve"
       style="font-style:normal;font-variant:normal;font-weight:normal;font-stretch:normal;font-size:13.11866856px;line-height:1.25;font-family:'Share Tech Mono';-inkscape-font-specification:'Share Tech Mono, Normal';font-variant-ligatures:normal;font-variant-caps:normal;font-variant-numeric:normal;font-feature-settings:normal;text-align:start;letter-spacing:0px;word-spacing:0px;writing-mode:lr-tb;text-anchor:start;fill:#000000;fill-opacity:1;stroke:none;stroke-width:0.32796672"
       x="45.264374"
       y="178.65962"
       id="text1660"><tspan
         sodipodi:role="line"
         id="tspan1658"
         x="45.264374"
         y="178.65962"
         style="font-style:normal;font-variant:normal;font-weight:normal;font-stretch:normal;font-size:13.11866856px;font-family:'Share Tech Mono';-inkscape-font-specification:'Share Tech Mono, Normal';font-variant-ligatures:normal;font-variant-caps:normal;font-variant-numeric:normal;font-feature-settings:normal;text-align:start;writing-mode:lr-tb;text-anchor:start;stroke-width:0.32796672">99</tspan></text>
    <path
       style="fill:none;stroke:#000000;stroke-width:0.94826281;stroke-linecap:butt;stroke-linejoin:miter;stroke-miterlimit:4;stroke-dasharray:0.94826284, 1.89652568;stroke-dashoffset:0;stroke-opacity:1"
       d="m 44.812457,178.11597 -26.420891,0.16566 v 0"
       id="path1662"
       inkscape:connector-curvature="0" />
    <rect
       style="opacity:1;fill:#ffffff;fill-opacity:1;stroke:none;stroke-width:0.94826281;stroke-miterlimit:4;stroke-dasharray:0.94826283, 1.89652566;stroke-dashoffset:0;stroke-opacity:1"
       id="rect1664"
       width="4.8023696"
       height="2.8111432"
       x="25.237644"
       y="165.98401"
       ry="0.0065084673" />
    <g
       id="g1753"
       transform="translate(-5.078121)">
      <path
         inkscape:connector-curvature="0"
         id="path1715"
         d="m 125.47193,168.29064 c -0.12331,-0.007 -0.24427,0.0135 -0.36277,0.0615 -0.14947,0.0683 -0.27334,0.17275 -0.37155,0.31367 -0.0939,0.13666 -0.14108,0.29066 -0.14108,0.46147 v 8.47442 h 1.66553 v -6.46988 l 6.08542,6.35464 c 0.0811,0.0854 0.17294,0.14709 0.27543,0.18552 0.10676,0.0384 0.21119,0.0579 0.31368,0.0579 0.1153,0 0.22462,-0.0214 0.32711,-0.0641 0.10249,-0.0427 0.18992,-0.10052 0.26252,-0.17311 0.0769,-0.0769 0.13661,-0.16623 0.17931,-0.26872 0.047,-0.10249 0.0703,-0.21374 0.0703,-0.33331 v -8.47442 h -1.66553 v 6.46937 l -6.0849,-6.34793 c -0.11957,-0.12384 -0.26288,-0.20059 -0.42943,-0.23048 -0.0416,-0.009 -0.0829,-0.0141 -0.12402,-0.0165 z"
         style="font-style:normal;font-variant:normal;font-weight:normal;font-stretch:normal;font-size:13.11866856px;line-height:1.25;font-family:Audiowide;-inkscape-font-specification:'Audiowide, Normal';font-variant-ligatures:normal;font-variant-caps:normal;font-variant-numeric:normal;font-feature-settings:normal;text-align:start;letter-spacing:0px;word-spacing:0px;writing-mode:lr-tb;text-anchor:start;fill:#000000;fill-opacity:1;stroke:none;stroke-width:0.32796672" />
      <path
         inkscape:connector-curvature="0"
         id="path1713"
         d="m 138.11352,168.29064 c -0.12331,-0.007 -0.24426,0.0135 -0.36277,0.0615 -0.14946,0.0683 -0.27333,0.17275 -0.37155,0.31367 -0.094,0.13666 -0.14056,0.29066 -0.14056,0.46147 v 8.47442 h 1.66553 v -6.46988 l 6.0849,6.35464 c 0.0811,0.0854 0.17295,0.14709 0.27543,0.18552 0.10676,0.0384 0.21171,0.0579 0.3142,0.0579 0.1153,0 0.2241,-0.0214 0.32659,-0.0641 0.10249,-0.0427 0.18992,-0.10052 0.26252,-0.17311 0.0769,-0.0769 0.13661,-0.16623 0.17932,-0.26872 0.047,-0.10249 0.0708,-0.21374 0.0708,-0.33331 v -8.47442 h -1.66553 v 6.46937 l -6.08542,-6.34793 c -0.11957,-0.12384 -0.26288,-0.20059 -0.42943,-0.23048 -0.0416,-0.009 -0.0829,-0.0141 -0.12402,-0.0165 z"
         style="font-style:normal;font-variant:normal;font-weight:normal;font-stretch:normal;font-size:13.11866856px;line-height:1.25;font-family:Audiowide;-inkscape-font-specification:'Audiowide, Normal';font-variant-ligatures:normal;font-variant-caps:normal;font-variant-numeric:normal;font-feature-settings:normal;text-align:start;letter-spacing:0px;word-spacing:0px;writing-mode:lr-tb;text-anchor:start;fill:#000000;fill-opacity:1;stroke:none;stroke-width:0.32796672" />
      <path
         inkscape:connector-curvature="0"
         id="path1711"
         d="m 134.67136,168.41622 v 9.18548 h 1.66553 v -9.18548 z"
         style="font-style:normal;font-variant:normal;font-weight:normal;font-stretch:normal;font-size:13.11866856px;line-height:1.25;font-family:Audiowide;-inkscape-font-specification:'Audiowide, Normal';font-variant-ligatures:normal;font-variant-caps:normal;font-variant-numeric:normal;font-feature-settings:normal;text-align:start;letter-spacing:0px;word-spacing:0px;writing-mode:lr-tb;text-anchor:start;fill:#000000;fill-opacity:1;stroke:none;stroke-width:0.32796672" />
      <path
         inkscape:connector-curvature="0"
         id="path1709"
         d="m 149.59344,168.41622 c -0.23061,0 -0.48273,0.0403 -0.75603,0.12144 -0.27331,0.0811 -0.52736,0.21376 -0.76223,0.39739 -0.23059,0.1879 -0.4249,0.42934 -0.5829,0.72399 -0.15378,0.29893 -0.23048,0.66371 -0.23048,1.09502 v 6.00842 c 0,0.1153 0.0214,0.22462 0.0641,0.32711 0.0427,0.10249 0.10051,0.19182 0.17311,0.26872 0.0769,0.0769 0.16623,0.13662 0.26872,0.17931 0.10249,0.0427 0.21374,0.0641 0.33331,0.0641 h 7.50084 v -1.66553 h -6.67453 v -2.08824 h 6.60993 v -1.67794 h -6.60993 v -1.41593 c 0,-0.21779 0.0578,-0.3839 0.17311,-0.4992 0.1153,-0.1153 0.28386,-0.17311 0.50592,-0.17311 h 5.9955 v -1.66553 z"
         style="font-style:normal;font-variant:normal;font-weight:normal;font-stretch:normal;font-size:13.11866856px;line-height:1.25;font-family:Audiowide;-inkscape-font-specification:'Audiowide, Normal';font-variant-ligatures:normal;font-variant-caps:normal;font-variant-numeric:normal;font-feature-settings:normal;text-align:start;letter-spacing:0px;word-spacing:0px;writing-mode:lr-tb;text-anchor:start;fill:#000000;fill-opacity:1;stroke:none;stroke-width:0.32796672" />
    </g>
    <g
       id="g1757"
       transform="translate(-5.078121)">
      <path
         inkscape:connector-curvature="0"
         id="path1707"
         d="m 158.60219,168.41622 c -0.28612,0 -0.5421,0.0359 -0.76843,0.10852 -0.22633,0.0726 -0.42694,0.17123 -0.60203,0.29507 -0.17082,0.11957 -0.31851,0.25799 -0.44235,0.416 -0.12384,0.158 -0.22389,0.32462 -0.30076,0.49971 -0.0769,0.17081 -0.13468,0.34619 -0.17311,0.52555 -0.0342,0.17508 -0.0512,0.33926 -0.0512,0.49299 v 0.74931 c 0,0.28612 0.0364,0.54261 0.10903,0.76894 0.0726,0.22634 0.16827,0.42695 0.28784,0.60203 0.12384,0.17509 0.26471,0.32471 0.42271,0.44856 0.15801,0.11957 0.3227,0.21961 0.49351,0.30075 0.17509,0.0769 0.34995,0.13468 0.52504,0.17312 0.17508,0.0342 0.3417,0.0512 0.49971,0.0512 h 4.41988 v 0.67283 c 0,0.21778 -0.034,0.41209 -0.10232,0.5829 -0.0683,0.16655 -0.16644,0.30935 -0.29455,0.42892 -0.12384,0.1153 -0.27347,0.20711 -0.44855,0.27543 -0.17082,0.0683 -0.36074,0.11108 -0.57,0.12816 h -4.15736 -1.17203 v 1.67794 h 5.32939 v -0.0124 c 0.20499,0 0.42453,-0.0233 0.6594,-0.0703 0.23487,-0.047 0.46562,-0.12178 0.69194,-0.22427 0.23061,-0.10676 0.45066,-0.23939 0.65991,-0.39739 0.20925,-0.16228 0.39287,-0.35658 0.55087,-0.58291 0.16228,-0.2306 0.29053,-0.49534 0.38448,-0.79427 0.0982,-0.29893 0.14727,-0.63603 0.14727,-1.01182 v -3.01739 c 0,-0.3758 -0.0491,-0.7129 -0.14727,-1.01183 -0.094,-0.29892 -0.2222,-0.56173 -0.38448,-0.78806 -0.158,-0.2306 -0.34162,-0.42684 -0.55087,-0.58911 -0.20925,-0.16228 -0.4293,-0.29491 -0.65991,-0.3974 -0.22632,-0.10676 -0.45707,-0.1835 -0.69194,-0.23047 -0.23487,-0.047 -0.45441,-0.0703 -0.6594,-0.0703 z m 0,1.66553 h 3.00446 c 0.20072,0 0.38626,0.034 0.55708,0.10232 0.17509,0.0641 0.32471,0.15779 0.44855,0.28164 0.12811,0.12384 0.22816,0.27346 0.30076,0.44855 0.0726,0.17508 0.10903,0.37132 0.10903,0.58911 v 0.66662 h -4.40696 c -0.22633,0 -0.39733,-0.0559 -0.51263,-0.16691 -0.1153,-0.1153 -0.1726,-0.28192 -0.1726,-0.49971 v -0.74931 c 0,-0.19217 0.0597,-0.35248 0.17931,-0.48059 0.12385,-0.12811 0.28802,-0.19172 0.493,-0.19172 z"
         style="font-style:normal;font-variant:normal;font-weight:normal;font-stretch:normal;font-size:13.11866856px;line-height:1.25;font-family:Audiowide;-inkscape-font-specification:'Audiowide, Normal';font-variant-ligatures:normal;font-variant-caps:normal;font-variant-numeric:normal;font-feature-settings:normal;text-align:start;letter-spacing:0px;word-spacing:0px;writing-mode:lr-tb;text-anchor:start;fill:#000000;fill-opacity:1;stroke:none;stroke-width:0.32796672" />
      <path
         inkscape:connector-curvature="0"
         id="path1705"
         d="m 167.63471,168.41622 c -0.28612,0 -0.5421,0.0359 -0.76843,0.10852 -0.22633,0.0726 -0.42746,0.17123 -0.60255,0.29507 -0.17082,0.11957 -0.31799,0.25799 -0.44183,0.416 -0.12384,0.158 -0.22389,0.32462 -0.30076,0.49971 -0.0769,0.17081 -0.13467,0.34619 -0.17311,0.52555 -0.0342,0.17508 -0.0512,0.33926 -0.0512,0.49299 v 0.74931 c 0,0.28612 0.0359,0.54261 0.10852,0.76894 0.0726,0.22634 0.16878,0.42695 0.28835,0.60203 0.12384,0.17509 0.26471,0.3247 0.42271,0.44856 0.15802,0.11956 0.3227,0.21961 0.49351,0.30075 0.1751,0.0769 0.34995,0.13468 0.52504,0.17312 0.17508,0.0342 0.3417,0.0512 0.49971,0.0512 h 4.41988 v 0.67283 c 0,0.21777 -0.034,0.41209 -0.10231,0.5829 -0.0683,0.16655 -0.16645,0.30935 -0.29456,0.42892 -0.12385,0.1153 -0.27346,0.20712 -0.44855,0.27543 -0.17081,0.0683 -0.36076,0.11108 -0.56999,0.12816 h -2.49546 -1.66191 -1.19476 v 1.67794 h 2.85667 v -0.0124 h 2.49546 c 0.20496,0 0.42451,-0.0233 0.65939,-0.0703 0.23487,-0.047 0.46562,-0.12178 0.69195,-0.22427 0.2306,-0.10676 0.45065,-0.23939 0.6599,-0.39739 0.20925,-0.16228 0.39287,-0.35658 0.55087,-0.58291 0.16228,-0.2306 0.29053,-0.49534 0.38447,-0.79427 0.0982,-0.29893 0.14728,-0.63603 0.14728,-1.01182 v -3.01739 c 0,-0.3758 -0.0491,-0.7129 -0.14728,-1.01183 -0.094,-0.29892 -0.22219,-0.56173 -0.38447,-0.78806 -0.158,-0.2306 -0.34162,-0.42684 -0.55087,-0.58911 -0.20925,-0.16228 -0.4293,-0.2949 -0.6599,-0.3974 -0.22633,-0.10676 -0.45708,-0.1835 -0.69195,-0.23047 -0.23488,-0.047 -0.45443,-0.0703 -0.65939,-0.0703 z m 0,1.66553 h 3.00447 c 0.2007,0 0.38625,0.034 0.55707,0.10232 0.17508,0.0641 0.32471,0.15778 0.44855,0.28164 0.12811,0.12383 0.22816,0.27346 0.30076,0.44855 0.0726,0.17508 0.10903,0.37132 0.10903,0.58911 v 0.66662 h -4.40696 c -0.22634,0 -0.39733,-0.0559 -0.51263,-0.16691 -0.11531,-0.1153 -0.1726,-0.28192 -0.1726,-0.49971 v -0.74931 c 0,-0.19217 0.0597,-0.35248 0.17931,-0.48059 0.12386,-0.12811 0.28802,-0.19172 0.493,-0.19172 z"
         style="font-style:normal;font-variant:normal;font-weight:normal;font-stretch:normal;font-size:13.11866856px;line-height:1.25;font-family:Audiowide;-inkscape-font-specification:'Audiowide, Normal';font-variant-ligatures:normal;font-variant-caps:normal;font-variant-numeric:normal;font-feature-settings:normal;text-align:start;letter-spacing:0px;word-spacing:0px;writing-mode:lr-tb;text-anchor:start;fill:#000000;fill-opacity:1;stroke:none;stroke-width:0.32796672" />
    </g>
    <path
       inkscape:connector-curvature="0"
       id="path1804"
       d="m 257.86193,163.24797 c -0.39747,0.0389 -0.78868,0.14156 -1.17364,0.30744 -0.37922,0.16536 -0.73623,0.38112 -1.07066,0.64676 -0.33499,0.2599 -0.64245,0.56057 -0.92283,0.90233 -0.27463,0.34118 -0.50593,0.70999 -0.69366,1.10657 -0.1877,0.39661 -0.3242,0.81136 -0.40946,1.24437 -0.0858,0.42728 -0.10728,0.85989 -0.0641,1.29771 0.0337,0.33984 0.10866,0.62621 0.22468,0.85908 0.11539,0.22708 0.2614,0.41044 0.43804,0.55009 0.17608,0.13385 0.37429,0.22802 0.59483,0.28189 0.22572,0.0476 0.46219,0.0588 0.70988,0.0343 0.34561,-0.0341 0.69924,-0.1096 1.05994,-0.22669 0.36016,-0.12278 0.70564,-0.27587 1.03649,-0.45975 -0.12007,0.19798 -0.27668,0.44041 -0.46944,0.72699 -0.187,0.28601 -0.4263,0.6003 -0.71821,0.94318 -0.28614,0.34232 -0.63412,0.70804 -1.04357,1.09743 -0.40373,0.38881 -0.87658,0.78456 -1.41855,1.18702 -0.13547,0.10061 -0.22633,0.21134 -0.27255,0.33222 -0.0464,0.12093 -0.0646,0.23022 -0.055,0.32813 0.0174,0.17861 0.10212,0.32733 0.25352,0.44617 0.15133,0.11885 0.31653,0.16984 0.49509,0.15221 0.046,-0.005 0.0945,-0.0115 0.14561,-0.0237 0.0514,-0.0104 0.0977,-0.0416 0.13933,-0.0922 1.03377,-0.78252 1.91619,-1.59695 2.64709,-2.44268 0.73144,-0.83993 1.33092,-1.66095 1.79853,-2.46324 0.46762,-0.8023 0.81157,-1.56313 1.0314,-2.2828 0.21985,-0.71967 0.3322,-1.34754 0.33752,-1.8832 -9.3e-4,-0.0639 -0.005,-0.12724 -0.0104,-0.19066 -9.2e-4,-0.0639 -0.005,-0.12771 -0.0115,-0.19101 -0.0345,-0.35141 -0.12114,-0.6685 -0.25964,-0.95149 -0.139,-0.28875 -0.31984,-0.52974 -0.54249,-0.72297 -0.22265,-0.19326 -0.48359,-0.33609 -0.78356,-0.42863 -0.29996,-0.0927 -0.63148,-0.12092 -0.99441,-0.0851 z m -0.19023,1.51915 c 0.3341,-0.0332 0.60811,0.0361 0.82274,0.20679 0.21403,0.16501 0.3358,0.39459 0.3648,0.68839 0.002,0.0288 9.2e-4,0.0551 -9.3e-4,0.0786 l 0.006,0.0607 c 2.2e-4,0.59326 -0.14461,1.27652 -0.43478,2.04967 -0.19204,0.176 -0.39416,0.3384 -0.6063,0.48729 -0.20697,0.14256 -0.41508,0.2706 -0.62491,0.38435 -0.2046,0.10752 -0.40551,0.19716 -0.602,0.26891 -0.19706,0.066 -0.37886,0.10694 -0.54588,0.1235 -0.24775,0.0236 -0.45343,-0.0248 -0.61685,-0.14819 -0.16398,-0.12922 -0.26164,-0.35231 -0.29291,-0.66915 -0.0203,-0.21899 -0.004,-0.45338 0.0528,-0.70325 0.0562,-0.25566 0.14189,-0.50835 0.25685,-0.75817 0.11431,-0.25558 0.25289,-0.50198 0.41563,-0.73904 0.16793,-0.24342 0.34755,-0.45892 0.53845,-0.64642 0.19667,-0.1881 0.40225,-0.34197 0.61725,-0.46208 0.21442,-0.1259 0.43147,-0.19992 0.65037,-0.22149 z"
       style="font-style:normal;font-variant:normal;font-weight:normal;font-stretch:normal;font-size:19.65671539px;line-height:1.25;font-family:Damion;-inkscape-font-specification:'Damion, Normal';font-variant-ligatures:normal;font-variant-caps:normal;font-variant-numeric:normal;font-feature-settings:normal;text-align:start;letter-spacing:0px;word-spacing:0px;writing-mode:lr-tb;text-anchor:start;fill:#000000;fill-opacity:1;stroke:none;stroke-width:0.44455525" />
    <g
       id="g1874">
      <path
         style="font-style:normal;font-variant:normal;font-weight:normal;font-stretch:normal;font-size:13.11866856px;line-height:1.25;font-family:Audiowide;-inkscape-font-specification:'Audiowide, Normal';font-variant-ligatures:normal;font-variant-caps:normal;font-variant-numeric:normal;font-feature-settings:normal;text-align:start;letter-spacing:0px;word-spacing:0px;writing-mode:lr-tb;text-anchor:start;fill:#999999;fill-opacity:1;stroke:none;stroke-width:0.32796672"
         d="m 120.39381,202.23387 c -0.12331,-0.007 -0.24427,0.0135 -0.36277,0.0615 -0.14947,0.0683 -0.27334,0.17275 -0.37155,0.31367 -0.0939,0.13666 -0.14108,0.29066 -0.14108,0.46147 v 8.47442 h 1.66553 v -6.46988 l 6.08542,6.35464 c 0.0811,0.0854 0.17294,0.14709 0.27543,0.18552 0.10676,0.0384 0.21119,0.0579 0.31368,0.0579 0.1153,0 0.22462,-0.0214 0.32711,-0.0641 0.10249,-0.0427 0.18992,-0.10052 0.26252,-0.17311 0.0769,-0.0769 0.13661,-0.16623 0.17931,-0.26872 0.047,-0.10249 0.0703,-0.21374 0.0703,-0.33331 v -8.47442 h -1.66553 v 6.46937 l -6.0849,-6.34793 c -0.11957,-0.12384 -0.26288,-0.20059 -0.42943,-0.23048 -0.0416,-0.009 -0.0829,-0.0141 -0.12402,-0.0165 z"
         id="path1806"
         inkscape:connector-curvature="0" />
      <path
         style="font-style:normal;font-variant:normal;font-weight:normal;font-stretch:normal;font-size:13.11866856px;line-height:1.25;font-family:Audiowide;-inkscape-font-specification:'Audiowide, Normal';font-variant-ligatures:normal;font-variant-caps:normal;font-variant-numeric:normal;font-feature-settings:normal;text-align:start;letter-spacing:0px;word-spacing:0px;writing-mode:lr-tb;text-anchor:start;fill:#999999;fill-opacity:1;stroke:none;stroke-width:0.32796672"
         d="m 133.0354,202.23387 c -0.12331,-0.007 -0.24426,0.0135 -0.36277,0.0615 -0.14946,0.0683 -0.27333,0.17275 -0.37155,0.31367 -0.094,0.13666 -0.14056,0.29066 -0.14056,0.46147 v 8.47442 h 1.66553 v -6.46988 l 6.0849,6.35464 c 0.0811,0.0854 0.17295,0.14709 0.27543,0.18552 0.10676,0.0384 0.21171,0.0579 0.3142,0.0579 0.1153,0 0.2241,-0.0214 0.32659,-0.0641 0.10249,-0.0427 0.18992,-0.10052 0.26252,-0.17311 0.0769,-0.0769 0.13661,-0.16623 0.17932,-0.26872 0.047,-0.10249 0.0708,-0.21374 0.0708,-0.33331 v -8.47442 h -1.66553 v 6.46937 l -6.08542,-6.34793 c -0.11957,-0.12384 -0.26288,-0.20059 -0.42943,-0.23048 -0.0416,-0.009 -0.0829,-0.0141 -0.12402,-0.0165 z"
         id="path1808"
         inkscape:connector-curvature="0" />
      <path
         style="font-style:normal;font-variant:normal;font-weight:normal;font-stretch:normal;font-size:13.11866856px;line-height:1.25;font-family:Audiowide;-inkscape-font-specification:'Audiowide, Normal';font-variant-ligatures:normal;font-variant-caps:normal;font-variant-numeric:normal;font-feature-settings:normal;text-align:start;letter-spacing:0px;word-spacing:0px;writing-mode:lr-tb;text-anchor:start;fill:#0066ff;fill-opacity:1;stroke:none;stroke-width:0.32796672"
         d="m 153.52407,202.35945 c -0.28612,0 -0.5421,0.0359 -0.76843,0.10852 -0.22633,0.0726 -0.42694,0.17123 -0.60203,0.29507 -0.17082,0.11957 -0.31851,0.25799 -0.44235,0.416 -0.12384,0.158 -0.22389,0.32462 -0.30076,0.49971 -0.0769,0.17081 -0.13468,0.34619 -0.17311,0.52555 -0.0342,0.17508 -0.0512,0.33926 -0.0512,0.49299 v 0.74931 c 0,0.28612 0.0364,0.54261 0.10903,0.76894 0.0726,0.22634 0.16827,0.42695 0.28784,0.60203 0.12384,0.17509 0.26471,0.32471 0.42271,0.44856 0.15801,0.11957 0.3227,0.21961 0.49351,0.30075 0.17509,0.0769 0.34995,0.13468 0.52504,0.17312 0.17508,0.0342 0.3417,0.0512 0.49971,0.0512 h 4.41988 v 0.67283 c 0,0.21778 -0.034,0.41209 -0.10232,0.5829 -0.0683,0.16655 -0.16644,0.30935 -0.29455,0.42892 -0.12384,0.1153 -0.27347,0.20711 -0.44855,0.27543 -0.17082,0.0683 -0.36074,0.11108 -0.57,0.12816 h -4.15736 -1.17203 v 1.67794 h 5.32939 v -0.0124 c 0.20499,0 0.42453,-0.0233 0.6594,-0.0703 0.23487,-0.047 0.46562,-0.12178 0.69194,-0.22427 0.23061,-0.10676 0.45066,-0.23939 0.65991,-0.39739 0.20925,-0.16228 0.39287,-0.35658 0.55087,-0.58291 0.16228,-0.2306 0.29053,-0.49534 0.38448,-0.79427 0.0982,-0.29893 0.14727,-0.63603 0.14727,-1.01182 v -3.01739 c 0,-0.3758 -0.0491,-0.7129 -0.14727,-1.01183 -0.094,-0.29892 -0.2222,-0.56173 -0.38448,-0.78806 -0.158,-0.2306 -0.34162,-0.42684 -0.55087,-0.58911 -0.20925,-0.16228 -0.4293,-0.29491 -0.65991,-0.3974 -0.22632,-0.10676 -0.45707,-0.1835 -0.69194,-0.23047 -0.23487,-0.047 -0.45441,-0.0703 -0.6594,-0.0703 z m 0,1.66553 h 3.00446 c 0.20072,0 0.38626,0.034 0.55708,0.10232 0.17509,0.0641 0.32471,0.15779 0.44855,0.28164 0.12811,0.12384 0.22816,0.27346 0.30076,0.44855 0.0726,0.17508 0.10903,0.37132 0.10903,0.58911 v 0.66662 h -4.40696 c -0.22633,0 -0.39733,-0.0559 -0.51263,-0.16691 -0.1153,-0.1153 -0.1726,-0.28192 -0.1726,-0.49971 v -0.74931 c 0,-0.19217 0.0597,-0.35248 0.17931,-0.48059 0.12385,-0.12811 0.28802,-0.19172 0.493,-0.19172 z"
         id="path1816"
         inkscape:connector-curvature="0" />
      <path
         style="font-style:normal;font-variant:normal;font-weight:normal;font-stretch:normal;font-size:13.11866856px;line-height:1.25;font-family:Audiowide;-inkscape-font-specification:'Audiowide, Normal';font-variant-ligatures:normal;font-variant-caps:normal;font-variant-numeric:normal;font-feature-settings:normal;text-align:start;letter-spacing:0px;word-spacing:0px;writing-mode:lr-tb;text-anchor:start;fill:#0066ff;fill-opacity:1;stroke:none;stroke-width:0.32796672"
         d="m 162.55659,202.35945 c -0.28612,0 -0.5421,0.0359 -0.76843,0.10852 -0.22633,0.0726 -0.42746,0.17123 -0.60255,0.29507 -0.17082,0.11957 -0.31799,0.25799 -0.44183,0.416 -0.12384,0.158 -0.22389,0.32462 -0.30076,0.49971 -0.0769,0.17081 -0.13467,0.34619 -0.17311,0.52555 -0.0342,0.17508 -0.0512,0.33926 -0.0512,0.49299 v 0.74931 c 0,0.28612 0.0359,0.54261 0.10852,0.76894 0.0726,0.22634 0.16878,0.42695 0.28835,0.60203 0.12384,0.17509 0.26471,0.3247 0.42271,0.44856 0.15802,0.11956 0.3227,0.21961 0.49351,0.30075 0.1751,0.0769 0.34995,0.13468 0.52504,0.17312 0.17508,0.0342 0.3417,0.0512 0.49971,0.0512 h 4.41988 v 0.67283 c 0,0.21777 -0.034,0.41209 -0.10231,0.5829 -0.0683,0.16655 -0.16645,0.30935 -0.29456,0.42892 -0.12385,0.1153 -0.27346,0.20712 -0.44855,0.27543 -0.17081,0.0683 -0.36076,0.11108 -0.56999,0.12816 h -2.49546 -1.66191 -1.19476 v 1.67794 h 2.85667 v -0.0124 h 2.49546 c 0.20496,0 0.42451,-0.0233 0.65939,-0.0703 0.23487,-0.047 0.46562,-0.12178 0.69195,-0.22427 0.2306,-0.10676 0.45065,-0.23939 0.6599,-0.39739 0.20925,-0.16228 0.39287,-0.35658 0.55087,-0.58291 0.16228,-0.2306 0.29053,-0.49534 0.38447,-0.79427 0.0982,-0.29893 0.14728,-0.63603 0.14728,-1.01182 v -3.01739 c 0,-0.3758 -0.0491,-0.7129 -0.14728,-1.01183 -0.094,-0.29892 -0.22219,-0.56173 -0.38447,-0.78806 -0.158,-0.2306 -0.34162,-0.42684 -0.55087,-0.58911 -0.20925,-0.16228 -0.4293,-0.2949 -0.6599,-0.3974 -0.22633,-0.10676 -0.45708,-0.1835 -0.69195,-0.23047 -0.23488,-0.047 -0.45443,-0.0703 -0.65939,-0.0703 z m 0,1.66553 h 3.00447 c 0.2007,0 0.38625,0.034 0.55707,0.10232 0.17508,0.0641 0.32471,0.15778 0.44855,0.28164 0.12811,0.12383 0.22816,0.27346 0.30076,0.44855 0.0726,0.17508 0.10903,0.37132 0.10903,0.58911 v 0.66662 h -4.40696 c -0.22634,0 -0.39733,-0.0559 -0.51263,-0.16691 -0.11531,-0.1153 -0.1726,-0.28192 -0.1726,-0.49971 v -0.74931 c 0,-0.19217 0.0597,-0.35248 0.17931,-0.48059 0.12386,-0.12811 0.28802,-0.19172 0.493,-0.19172 z"
         id="path1818"
         inkscape:connector-curvature="0" />
      <path
         style="font-style:normal;font-variant:normal;font-weight:normal;font-stretch:normal;font-size:13.11866856px;line-height:1.25;font-family:Audiowide;-inkscape-font-specification:'Audiowide, Normal';font-variant-ligatures:normal;font-variant-caps:normal;font-variant-numeric:normal;font-feature-settings:normal;text-align:start;letter-spacing:0px;word-spacing:0px;writing-mode:lr-tb;text-anchor:start;fill:#999999;fill-opacity:1;stroke:none;stroke-width:0.32796672"
         d="m 129.59324,202.35945 v 9.18548 h 1.66553 v -9.18548 z"
         id="path1810"
         inkscape:connector-curvature="0" />
      <path
         id="path1845"
         transform="matrix(0.26458333,0,0,0.26458333,0,87)"
         d="m 546.19922,436.00391 c -0.8716,0 -1.82448,0.15231 -2.85742,0.45898 -1.03299,0.30652 -1.99316,0.80792 -2.88086,1.50195 -0.87152,0.71018 -1.60596,1.62269 -2.20313,2.73633 -0.24869,0.48343 -0.43209,1.0229 -0.57422,1.59766 l 8.48047,0.006 c 0.0293,-5.5e-4 0.0542,-0.006 0.084,-0.006 h 22.66015 v -6.29492 z"
         style="font-style:normal;font-variant:normal;font-weight:normal;font-stretch:normal;font-size:13.11866856px;line-height:1.25;font-family:Audiowide;-inkscape-font-specification:'Audiowide, Normal';font-variant-ligatures:normal;font-variant-caps:normal;font-variant-numeric:normal;font-feature-settings:normal;text-align:start;letter-spacing:0px;word-spacing:0px;writing-mode:lr-tb;text-anchor:start;fill:#0066ff;fill-opacity:1;stroke:none;stroke-width:1.23955929" />
      <path
         id="path1812"
         transform="matrix(0.26458333,0,0,0.26458333,0,87)"
         d="m 537.38672,450.18555 v 17.36328 c 0,0.43578 0.0808,0.84896 0.24219,1.23633 0.16138,0.38736 0.3799,0.72498 0.65429,1.01562 0.29065,0.29065 0.62826,0.51639 1.01563,0.67774 0.38736,0.16138 0.80785,0.24218 1.25976,0.24218 h 28.34961 v -6.29492 h -25.22656 v -7.89258 h 24.98242 v -6.34179 h -22.19922 -2.7832 v -0.002 z"
         style="font-style:normal;font-variant:normal;font-weight:normal;font-stretch:normal;font-size:13.11866856px;line-height:1.25;font-family:Audiowide;-inkscape-font-specification:'Audiowide, Normal';font-variant-ligatures:normal;font-variant-caps:normal;font-variant-numeric:normal;font-feature-settings:normal;text-align:start;letter-spacing:0px;word-spacing:0px;writing-mode:lr-tb;text-anchor:start;fill:#999999;fill-opacity:1;stroke:none;stroke-width:1.23955929" />
    </g>
  </g>
</svg>
