<?xml version="1.0" encoding="UTF-8" standalone="no"?>
<!-- Created with Inkscape (http://www.inkscape.org/) -->

<svg
   xmlns:dc="http://purl.org/dc/elements/1.1/"
   xmlns:cc="http://creativecommons.org/ns#"
   xmlns:rdf="http://www.w3.org/1999/02/22-rdf-syntax-ns#"
   xmlns:svg="http://www.w3.org/2000/svg"
   xmlns="http://www.w3.org/2000/svg"
   xmlns:sodipodi="http://sodipodi.sourceforge.net/DTD/sodipodi-0.dtd"
   xmlns:inkscape="http://www.inkscape.org/namespaces/inkscape"
   width="297mm"
   height="210mm"
   viewBox="0 0 297 210"
   version="1.1"
   id="svg4222"
   inkscape:version="0.92.4 (5da689c313, 2019-01-14)"
   sodipodi:docname="drawing.svg">
  <defs
     id="defs4216" />
  <sodipodi:namedview
     id="base"
     pagecolor="#ffffff"
     bordercolor="#666666"
     borderopacity="1.0"
     inkscape:pageopacity="0.0"
     inkscape:pageshadow="2"
     inkscape:zoom="1.4142136"
     inkscape:cx="314.57345"
     inkscape:cy="437.24198"
     inkscape:document-units="mm"
     inkscape:current-layer="layer1"
     showgrid="false"
     inkscape:window-width="1850"
     inkscape:window-height="1016"
     inkscape:window-x="70"
     inkscape:window-y="27"
     inkscape:window-maximized="1" />
  <metadata
     id="metadata4219">
    <rdf:RDF>
      <cc:Work
         rdf:about="">
        <dc:format>image/svg+xml</dc:format>
        <dc:type
           rdf:resource="http://purl.org/dc/dcmitype/StillImage" />
        <dc:title />
      </cc:Work>
    </rdf:RDF>
  </metadata>
  <g
     inkscape:label="Layer 1"
     inkscape:groupmode="layer"
     id="layer1"
     transform="translate(0,-87)">
    <text
       xml:space="preserve"
       style="font-style:normal;font-variant:normal;font-weight:normal;font-stretch:normal;font-size:10.58333302px;line-height:1.25;font-family:'Alegreya Sans SC Thin';-inkscape-font-specification:'Alegreya Sans SC Thin,  weight=255';font-variant-ligatures:normal;font-variant-caps:normal;font-variant-numeric:normal;font-feature-settings:normal;text-align:start;letter-spacing:0px;word-spacing:0px;writing-mode:lr-tb;text-anchor:start;fill:#000000;fill-opacity:1;stroke:none;stroke-width:0.26458332"
       x="-94.915466"
       y="163.19643"
       id="text4769"><tspan
         sodipodi:role="line"
         id="tspan4767"
         x="-94.915466"
         y="163.19643"
         style="font-style:normal;font-variant:normal;font-stretch:normal;font-size:10.58333302px;font-family:'Alegreya Sans SC Thin';-inkscape-font-specification:'Alegreya Sans SC Thin,  weight=255';font-variant-ligatures:normal;font-variant-caps:normal;font-variant-numeric:normal;font-feature-settings:normal;text-align:start;writing-mode:lr-tb;text-anchor:start;stroke-width:0.26458332">Soul Food</tspan></text>
    <text
       id="text4792"
       y="175.29167"
       x="-94.915466"
       style="font-style:normal;font-variant:normal;font-weight:normal;font-stretch:normal;font-size:10.58333302px;line-height:1.25;font-family:'Cinzel Decorative';-inkscape-font-specification:'Cinzel Decorative, Normal';font-variant-ligatures:normal;font-variant-caps:normal;font-variant-numeric:normal;font-feature-settings:normal;text-align:start;letter-spacing:0px;word-spacing:0px;writing-mode:lr-tb;text-anchor:start;fill:#000000;fill-opacity:1;stroke:none;stroke-width:0.26458332"
       xml:space="preserve"><tspan
         style="font-style:normal;font-variant:normal;font-weight:normal;font-stretch:normal;font-size:10.58333302px;font-family:'Cinzel Decorative';-inkscape-font-specification:'Cinzel Decorative, Normal';font-variant-ligatures:normal;font-variant-caps:normal;font-variant-numeric:normal;font-feature-settings:normal;text-align:start;writing-mode:lr-tb;text-anchor:start;stroke-width:0.26458332"
         y="175.29167"
         x="-94.915466"
         id="tspan4790"
         sodipodi:role="line">Soul Food</tspan></text>
    <text
       xml:space="preserve"
       style="font-style:normal;font-variant:normal;font-weight:500;font-stretch:normal;font-size:10.58333302px;line-height:1.25;font-family:'Cormorant Unicase Medium';-inkscape-font-specification:'Cormorant Unicase Medium, Medium';font-variant-ligatures:normal;font-variant-caps:normal;font-variant-numeric:normal;font-feature-settings:normal;text-align:start;letter-spacing:0px;word-spacing:0px;writing-mode:lr-tb;text-anchor:start;fill:#000000;fill-opacity:1;stroke:none;stroke-width:0.26458332"
       x="-94.915466"
       y="187.10342"
       id="text4796"><tspan
         sodipodi:role="line"
         id="tspan4794"
         x="-94.915466"
         y="187.10342"
         style="font-style:normal;font-variant:normal;font-weight:500;font-stretch:normal;font-size:10.58333302px;font-family:'Cormorant Unicase Medium';-inkscape-font-specification:'Cormorant Unicase Medium, Medium';font-variant-ligatures:normal;font-variant-caps:normal;font-variant-numeric:normal;font-feature-settings:normal;text-align:start;writing-mode:lr-tb;text-anchor:start;stroke-width:0.26458332">Soul Food</tspan></text>
    <text
       id="text4800"
       y="197.97025"
       x="-94.915466"
       style="font-style:normal;font-variant:normal;font-weight:normal;font-stretch:normal;font-size:10.58333302px;line-height:1.25;font-family:'Fredericka the Great';-inkscape-font-specification:'Fredericka the Great, Normal';font-variant-ligatures:normal;font-variant-caps:normal;font-variant-numeric:normal;font-feature-settings:normal;text-align:start;letter-spacing:0px;word-spacing:0px;writing-mode:lr-tb;text-anchor:start;fill:#000000;fill-opacity:1;stroke:none;stroke-width:0.26458332"
       xml:space="preserve"><tspan
         style="font-style:normal;font-variant:normal;font-weight:normal;font-stretch:normal;font-size:10.58333302px;font-family:'Fredericka the Great';-inkscape-font-specification:'Fredericka the Great, Normal';font-variant-ligatures:normal;font-variant-caps:normal;font-variant-numeric:normal;font-feature-settings:normal;text-align:start;writing-mode:lr-tb;text-anchor:start;stroke-width:0.26458332"
         y="197.97025"
         x="-94.915466"
         id="tspan4798"
         sodipodi:role="line">Soul Food</tspan></text>
    <text
       xml:space="preserve"
       style="font-style:normal;font-variant:normal;font-weight:500;font-stretch:normal;font-size:10.58333302px;line-height:1.25;font-family:Megrim;-inkscape-font-specification:'Megrim, Medium';font-variant-ligatures:normal;font-variant-caps:normal;font-variant-numeric:normal;font-feature-settings:normal;text-align:start;letter-spacing:0px;word-spacing:0px;writing-mode:lr-tb;text-anchor:start;fill:#000000;fill-opacity:1;stroke:none;stroke-width:0.26458332"
       x="-94.915466"
       y="209.59302"
       id="text4804"><tspan
         sodipodi:role="line"
         id="tspan4802"
         x="-94.915466"
         y="209.59302"
         style="font-style:normal;font-variant:normal;font-weight:500;font-stretch:normal;font-size:10.58333302px;font-family:Megrim;-inkscape-font-specification:'Megrim, Medium';font-variant-ligatures:normal;font-variant-caps:normal;font-variant-numeric:normal;font-feature-settings:normal;text-align:start;writing-mode:lr-tb;text-anchor:start;stroke-width:0.26458332">Soul Food</tspan></text>
    <text
       id="text4808"
       y="219.23141"
       x="-94.915466"
       style="font-style:normal;font-variant:normal;font-weight:normal;font-stretch:normal;font-size:10.58333302px;line-height:1.25;font-family:Montez;-inkscape-font-specification:'Montez, Normal';font-variant-ligatures:normal;font-variant-caps:normal;font-variant-numeric:normal;font-feature-settings:normal;text-align:start;letter-spacing:0px;word-spacing:0px;writing-mode:lr-tb;text-anchor:start;fill:#000000;fill-opacity:1;stroke:none;stroke-width:0.26458332"
       xml:space="preserve"><tspan
         style="font-style:normal;font-variant:normal;font-weight:normal;font-stretch:normal;font-size:10.58333302px;font-family:Montez;-inkscape-font-specification:'Montez, Normal';font-variant-ligatures:normal;font-variant-caps:normal;font-variant-numeric:normal;font-feature-settings:normal;text-align:start;writing-mode:lr-tb;text-anchor:start;stroke-width:0.26458332"
         y="219.23141"
         x="-94.915466"
         id="tspan4806"
         sodipodi:role="line">Soul Food</tspan></text>
    <text
       xml:space="preserve"
       style="font-style:normal;font-variant:normal;font-weight:normal;font-stretch:normal;font-size:10.58333302px;line-height:1.25;font-family:'Tulpen One';-inkscape-font-specification:'Tulpen One, Normal';font-variant-ligatures:normal;font-variant-caps:normal;font-variant-numeric:normal;font-feature-settings:normal;text-align:start;letter-spacing:0px;word-spacing:0px;writing-mode:lr-tb;text-anchor:start;fill:#000000;fill-opacity:1;stroke:none;stroke-width:0.26458332"
       x="-94.915466"
       y="232.08261"
       id="text4812"><tspan
         sodipodi:role="line"
         id="tspan4810"
         x="-94.915466"
         y="232.08261"
         style="font-style:normal;font-variant:normal;font-weight:normal;font-stretch:normal;font-size:10.58333302px;font-family:'Tulpen One';-inkscape-font-specification:'Tulpen One, Normal';font-variant-ligatures:normal;font-variant-caps:normal;font-variant-numeric:normal;font-feature-settings:normal;text-align:start;writing-mode:lr-tb;text-anchor:start;stroke-width:0.26458332">Soul Food</tspan></text>
    <text
       id="text4816"
       y="243.79987"
       x="-94.915466"
       style="font-style:normal;font-variant:normal;font-weight:normal;font-stretch:normal;font-size:10.58333302px;line-height:1.25;font-family:'Wire One';-inkscape-font-specification:'Wire One, Normal';font-variant-ligatures:normal;font-variant-caps:normal;font-variant-numeric:normal;font-feature-settings:normal;text-align:start;letter-spacing:0px;word-spacing:0px;writing-mode:lr-tb;text-anchor:start;fill:#000000;fill-opacity:1;stroke:none;stroke-width:0.26458332"
       xml:space="preserve"><tspan
         style="font-style:normal;font-variant:normal;font-weight:normal;font-stretch:normal;font-size:10.58333302px;font-family:'Wire One';-inkscape-font-specification:'Wire One, Normal';font-variant-ligatures:normal;font-variant-caps:normal;font-variant-numeric:normal;font-feature-settings:normal;text-align:start;writing-mode:lr-tb;text-anchor:start;stroke-width:0.26458332"
         y="243.79987"
         x="-94.915466"
         id="tspan4814"
         sodipodi:role="line">Soul Food</tspan></text>
    <text
       xml:space="preserve"
       style="font-style:normal;font-variant:normal;font-weight:normal;font-stretch:normal;font-size:10.58333302px;line-height:1.25;font-family:Staatliches;-inkscape-font-specification:'Staatliches, Normal';font-variant-ligatures:normal;font-variant-caps:normal;font-variant-numeric:normal;font-feature-settings:normal;text-align:start;letter-spacing:0px;word-spacing:0px;writing-mode:lr-tb;text-anchor:start;fill:#000000;fill-opacity:1;stroke:none;stroke-width:0.26458332"
       x="-94.915466"
       y="254.95016"
       id="text4824"><tspan
         sodipodi:role="line"
         id="tspan4822"
         x="-94.915466"
         y="254.95016"
         style="font-style:normal;font-variant:normal;font-weight:normal;font-stretch:normal;font-size:10.58333302px;font-family:Staatliches;-inkscape-font-specification:'Staatliches, Normal';font-variant-ligatures:normal;font-variant-caps:normal;font-variant-numeric:normal;font-feature-settings:normal;text-align:start;writing-mode:lr-tb;text-anchor:start;stroke-width:0.26458332">Soul Food</tspan></text>
    <text
       id="text4828"
       y="266.1012"
       x="-94.915466"
       style="font-style:normal;font-variant:normal;font-weight:normal;font-stretch:normal;font-size:10.58333302px;line-height:1.25;font-family:Righteous;-inkscape-font-specification:'Righteous, Normal';font-variant-ligatures:normal;font-variant-caps:normal;font-variant-numeric:normal;font-feature-settings:normal;text-align:start;letter-spacing:0px;word-spacing:0px;writing-mode:lr-tb;text-anchor:start;fill:#000000;fill-opacity:1;stroke:none;stroke-width:0.26458332"
       xml:space="preserve"><tspan
         style="font-style:normal;font-variant:normal;font-weight:normal;font-stretch:normal;font-size:10.58333302px;font-family:Righteous;-inkscape-font-specification:'Righteous, Normal';font-variant-ligatures:normal;font-variant-caps:normal;font-variant-numeric:normal;font-feature-settings:normal;text-align:start;writing-mode:lr-tb;text-anchor:start;stroke-width:0.26458332"
         y="266.1012"
         x="-94.915466"
         id="tspan4826"
         sodipodi:role="line">Soul Food</tspan></text>
    <text
       xml:space="preserve"
       style="font-style:normal;font-variant:normal;font-weight:300;font-stretch:normal;font-size:10.58333302px;line-height:1.25;font-family:'Montserrat Alternates Light';-inkscape-font-specification:'Montserrat Alternates Light, Light';font-variant-ligatures:normal;font-variant-caps:normal;font-variant-numeric:normal;font-feature-settings:normal;text-align:start;letter-spacing:0px;word-spacing:0px;writing-mode:lr-tb;text-anchor:start;fill:#000000;fill-opacity:1;stroke:none;stroke-width:0.26458332"
       x="-94.915466"
       y="276.84674"
       id="text4832"><tspan
         sodipodi:role="line"
         id="tspan4830"
         x="-94.915466"
         y="276.84674"
         style="font-style:normal;font-variant:normal;font-weight:300;font-stretch:normal;font-size:10.58333302px;font-family:'Montserrat Alternates Light';-inkscape-font-specification:'Montserrat Alternates Light, Light';font-variant-ligatures:normal;font-variant-caps:normal;font-variant-numeric:normal;font-feature-settings:normal;text-align:start;writing-mode:lr-tb;text-anchor:start;stroke-width:0.26458332">Soul Food</tspan></text>
    <g
       id="g1500"
       transform="matrix(1.0685582,0,0,1.0248156,-0.80703539,-2.2767727)"
       style="stroke:#000000;stroke-width:0.28668126;stroke-miterlimit:4;stroke-dasharray:none;stroke-opacity:1">
      <g
         id="g1493"
         style="stroke:#000000;stroke-width:0.28668126;stroke-miterlimit:4;stroke-dasharray:none;stroke-opacity:1">
        <path
           style="font-style:normal;font-variant:normal;font-weight:normal;font-stretch:normal;font-size:10.58333302px;line-height:1.25;font-family:'Cinzel Decorative';-inkscape-font-specification:'Cinzel Decorative, Normal';font-variant-ligatures:normal;font-variant-caps:normal;font-variant-numeric:normal;font-feature-settings:normal;text-align:start;letter-spacing:0px;word-spacing:0px;writing-mode:lr-tb;text-anchor:start;fill:#000000;fill-opacity:1;stroke:#000000;stroke-width:0.28668126;stroke-miterlimit:4;stroke-dasharray:none;stroke-opacity:1"
           d="m 34.688322,167.73512 c -0.564444,0 -1.012494,0.18167 -1.344105,0.54445 -0.33161,0.35567 -0.497644,0.79313 -0.497644,1.31241 0,0.51928 0.208492,0.94247 0.624769,1.26969 l 1.904793,1.51508 c 0.324554,0.25608 0.557554,0.53711 0.698664,0.84298 0.148167,0.30588 0.222211,0.59021 0.222211,0.85341 0,0.0498 -0.0038,0.0997 -0.01085,0.14953 -0.07056,0.70423 -0.391232,1.20589 -0.962732,1.50465 -0.303389,0.16361 -0.663244,0.2454 -1.079521,0.2454 -0.409223,0 -0.776152,-0.11032 -1.100709,-0.33084 -0.557387,-0.3699 -0.836123,-0.88914 -0.836123,-1.5578 0,-0.56196 0.183465,-1.08503 0.550355,-1.56874 l -0.09509,-0.0745 c -0.282221,0.30588 -0.472763,0.61161 -0.57154,0.91749 -0.09878,0.29876 -0.148312,0.53698 -0.148312,0.71482 0,0.17072 0.01035,0.31288 0.03152,0.4267 0.134057,0.75402 0.533088,1.28753 1.196309,1.60052 0.352779,0.17073 0.754573,0.25634 1.206129,0.25634 0.740833,0 1.333685,-0.20255 1.778185,-0.60801 0.515057,-0.46949 0.772562,-1.03154 0.772562,-1.68597 0,-0.87496 -0.388157,-1.62197 -1.164269,-2.24084 l -1.95802,-1.5578 c -0.310444,-0.24897 -0.465603,-0.55853 -0.465603,-0.92843 0,-0.37702 0.120295,-0.68275 0.360182,-0.91749 0.23989,-0.24186 0.536059,-0.36314 0.888836,-0.36314 0.359833,0 0.656,0.0999 0.888833,0.29906 0.23989,0.19206 0.363466,0.45881 0.37052,0.80026 h 0.105937 l -0.02119,-1.31241 h -0.42323 c -0.331613,-0.0711 -0.638652,-0.10681 -0.920875,-0.10681 z"
           id="path4904"
           inkscape:connector-curvature="0" />
        <path
           style="font-style:normal;font-variant:normal;font-weight:normal;font-stretch:normal;font-size:10.58333302px;line-height:1.25;font-family:'Cinzel Decorative';-inkscape-font-specification:'Cinzel Decorative, Normal';font-variant-ligatures:normal;font-variant-caps:normal;font-variant-numeric:normal;font-feature-settings:normal;text-align:start;letter-spacing:0px;word-spacing:0px;writing-mode:lr-tb;text-anchor:start;fill:#000000;fill-opacity:1;stroke:#000000;stroke-width:0.28668126;stroke-miterlimit:4;stroke-dasharray:none;stroke-opacity:1"
           d="m 40.805076,167.73512 c -1.034359,0 -1.877075,0.35658 -2.528115,1.06919 -0.651037,0.70555 -0.976395,1.63324 -0.976395,2.78329 0,1.15006 0.325358,2.08154 0.976395,2.79415 0.65104,0.70555 1.493756,1.05833 2.528115,1.05833 1.040444,0 1.886434,-0.35278 2.537472,-1.05833 0.651039,-0.71261 0.976397,-1.64409 0.976397,-2.79415 0,-1.15005 -0.325358,-2.07774 -0.976397,-2.78329 -0.651038,-0.71261 -1.497028,-1.06919 -2.537472,-1.06919 z m 0,0.31729 c 0.839656,0 1.515228,0.325 2.026323,0.97411 0.517181,0.64911 0.775859,1.50275 0.775859,2.56108 0,1.05833 -0.258678,1.91197 -0.775859,2.56108 -0.511095,0.64911 -1.186667,0.97359 -2.026323,0.97359 -0.839657,0 -1.518056,-0.32448 -2.035237,-0.97359 -0.511094,-0.64911 -0.766501,-1.50275 -0.766501,-2.56108 0,-1.05833 0.255407,-1.91197 0.766501,-2.56108 0.517181,-0.64911 1.19558,-0.97411 2.035237,-0.97411 z"
           id="path4902"
           inkscape:connector-curvature="0" />
        <path
           style="font-style:normal;font-variant:normal;font-weight:normal;font-stretch:normal;font-size:10.58333302px;line-height:1.25;font-family:'Cinzel Decorative';-inkscape-font-specification:'Cinzel Decorative, Normal';font-variant-ligatures:normal;font-variant-caps:normal;font-variant-numeric:normal;font-feature-settings:normal;text-align:start;letter-spacing:0px;word-spacing:0px;writing-mode:lr-tb;text-anchor:start;fill:#000000;fill-opacity:1;stroke:#000000;stroke-width:0.28668126;stroke-miterlimit:4;stroke-dasharray:none;stroke-opacity:1"
           d="m 44.529288,167.88343 v 0.10594 h 0.145723 c 0.09127,0 0.173426,0.0207 0.246439,0.063 0.158196,0.0988 0.237525,0.25446 0.237525,0.46613 v 4.16977 c 0,0.8255 0.230996,1.49188 0.693415,1.99988 0.468505,0.50094 1.07695,0.75189 1.825339,0.75189 0.748391,0 1.347907,-0.25423 1.798157,-0.76223 0.450253,-0.508 0.675146,-1.17489 0.675146,-2.00039 v -4.19096 c 0.0061,-0.14111 0.0549,-0.25761 0.146168,-0.34933 0.09735,-0.0988 0.210021,-0.1478 0.337795,-0.1478 h 0.146171 v -0.10594 h -1.688529 v 0.10594 h 0.145725 c 0.133856,0 0.246528,0.049 0.337794,0.1478 0.09127,0.0917 0.140086,0.21201 0.14617,0.36018 v 4.18011 c 0,0.72672 -0.18545,1.31577 -0.556604,1.76733 -0.371153,0.4445 -0.855172,0.66714 -1.451449,0.66714 -0.596276,0 -1.073747,-0.23679 -1.432732,-0.70952 -0.352897,-0.47272 -0.529419,-1.09336 -0.529419,-1.86241 v -4.04265 c 0.0061,-0.14817 0.05491,-0.26846 0.146171,-0.36018 0.09127,-0.0988 0.203935,-0.1478 0.337793,-0.1478 h 0.145726 v -0.10594 z"
           id="path4898"
           inkscape:connector-curvature="0" />
        <path
           style="font-style:normal;font-variant:normal;font-weight:normal;font-stretch:normal;font-size:10.58333302px;line-height:1.25;font-family:'Cinzel Decorative';-inkscape-font-specification:'Cinzel Decorative, Normal';font-variant-ligatures:normal;font-variant-caps:normal;font-variant-numeric:normal;font-feature-settings:normal;text-align:start;letter-spacing:0px;word-spacing:0px;writing-mode:lr-tb;text-anchor:start;fill:#000000;fill-opacity:1;stroke:#000000;stroke-width:0.28668126;stroke-miterlimit:4;stroke-dasharray:none;stroke-opacity:1"
           d="m 51.137186,167.88343 v 0.10594 h 0.137459 c 0.183444,0 0.338604,0.067 0.465604,0.20102 0.134056,0.127 0.204819,0.28216 0.211875,0.46561 v 5.8632 c -0.0071,0.18345 -0.07782,0.34189 -0.211875,0.47595 -0.127,0.127 -0.28216,0.19068 -0.465604,0.19068 h -0.137459 v 0.10594 h 4.391981 l 0.613915,-1.71463 h -0.105937 c -0.183446,0.45862 -0.412646,0.80432 -0.687813,1.03715 -0.275167,0.23283 -0.674198,0.34933 -1.196311,0.34933 H 52.639935 V 168.656 c 0,-0.11995 0.03159,-0.23317 0.09509,-0.339 0.134057,-0.21872 0.327877,-0.32763 0.581877,-0.32763 h 0.137975 v -0.10594 z"
           id="path4896"
           inkscape:connector-curvature="0" />
      </g>
    </g>
    <g
       id="g1487"
       transform="matrix(1.0340748,0,0,1,-4.6952005,2.1401709)"
       style="stroke:#000000;stroke-width:0.2950158;stroke-miterlimit:4;stroke-dasharray:none;stroke-opacity:1">
      <path
         sodipodi:nodetypes="ccsccscsccsccccscscccsccccsccccccccc"
         inkscape:connector-curvature="0"
         id="path4906"
         d="m 75.859371,167.63927 c -0.06145,0.0282 -0.146396,0.0701 -0.349211,0.11944 -0.202815,0.0494 -2.415138,0.0586 -2.67941,0.0586 h -2.700837 l 0.009,0.10594 h 0.110735 c 0.153646,0 0.288803,0.0599 0.405574,0.17983 0.12292,0.11289 0.18456,0.2539 0.18456,0.42323 v 5.92677 c -0.0062,0.18345 -0.06779,0.34189 -0.18456,0.47595 -0.110626,0.127 -0.245782,0.19068 -0.405574,0.19068 h -0.119737 v 0.10594 h 2.018874 v -0.10594 h -0.120186 c -0.159795,0 -0.297806,-0.0637 -0.414579,-0.19068 -0.116773,-0.13406 -0.175106,-0.2925 -0.175106,-0.47595 v -2.72024 h 2.949765 c 0.122919,0.007 0.224399,0.0604 0.304293,0.15916 0.08604,0.0988 0.129192,0.21856 0.129192,0.35967 v 0.15865 h 0.09228 v -1.67226 h -0.09228 v 0.14832 c 0,0.14816 -0.04314,0.27174 -0.129192,0.37052 -0.08604,0.0988 -0.190378,0.15159 -0.313295,0.15864 h -2.940763 v -3.27008 l 3.111248,-0.038 c 0.513557,0.0211 1.241408,0.0145 1.240276,0.53583 l 0.0018,0.27866 0.06575,10e-4 z"
         style="font-style:normal;font-variant:normal;font-weight:normal;font-stretch:normal;font-size:10.58333302px;line-height:1.25;font-family:'Cinzel Decorative';-inkscape-font-specification:'Cinzel Decorative, Normal';font-variant-ligatures:normal;font-variant-caps:normal;font-variant-numeric:normal;font-feature-settings:normal;text-align:start;letter-spacing:0px;word-spacing:0px;writing-mode:lr-tb;text-anchor:start;fill:#000000;fill-opacity:1;stroke:#000000;stroke-width:0.2950158;stroke-miterlimit:4;stroke-dasharray:none;stroke-opacity:1" />
      <path
         inkscape:connector-curvature="0"
         id="path4894"
         d="m 90.871876,167.81728 0.009,0.12107 h 0.110735 c 0.153646,0 0.288804,0.0685 0.405574,0.20552 0.12292,0.12902 0.184557,0.29018 0.184559,0.4837 v 6.77345 c -0.0062,0.20965 -0.06779,0.39073 -0.184559,0.54394 -0.110626,0.14514 -0.245782,0.21792 -0.405574,0.21792 h -0.119733 v 0.12107 h 3.124867 c 0.983345,0 1.779546,-0.387 2.387989,-1.16109 0.614591,-0.78216 0.92188,-1.80628 0.92188,-3.07224 0,-1.26597 -0.307289,-2.28633 -0.92188,-3.06043 -0.608443,-0.78216 -1.404644,-1.17291 -2.387989,-1.17291 z m 1.309003,0.36263 h 1.815864 c 0.78053,0 1.410754,0.35465 1.890135,1.06424 0.485528,0.70959 0.728322,1.64532 0.728322,2.80647 0,0.76603 -0.110949,1.44299 -0.332201,2.03162 -0.215103,0.58057 -0.522398,1.03226 -0.921884,1.35481 -0.393336,0.32254 -0.848116,0.48369 -1.364372,0.48369 h -1.815864 z"
         style="font-style:normal;font-variant:normal;font-weight:normal;font-stretch:normal;font-size:10.58333302px;line-height:1.25;font-family:'Cinzel Decorative';-inkscape-font-specification:'Cinzel Decorative, Normal';font-variant-ligatures:normal;font-variant-caps:normal;font-variant-numeric:normal;font-feature-settings:normal;text-align:start;letter-spacing:0px;word-spacing:0px;writing-mode:lr-tb;text-anchor:start;fill:#000000;fill-opacity:1;stroke:#000000;stroke-width:0.2950158;stroke-miterlimit:4;stroke-dasharray:none;stroke-opacity:1" />
      <path
         inkscape:connector-curvature="0"
         style="font-style:normal;font-variant:normal;font-weight:normal;font-stretch:normal;font-size:10.58333302px;line-height:1.25;font-family:'Cinzel Decorative';-inkscape-font-specification:'Cinzel Decorative, Normal';font-variant-ligatures:normal;font-variant-caps:normal;font-variant-numeric:normal;font-feature-settings:normal;text-align:start;letter-spacing:0px;word-spacing:0px;writing-mode:lr-tb;text-anchor:start;fill:#000000;fill-opacity:1;stroke:#000000;stroke-width:0.2950158;stroke-miterlimit:4;stroke-dasharray:none;stroke-opacity:1"
         d="m 79.608253,167.66897 c -1.044804,0 -1.896028,0.35658 -2.553642,1.06919 -0.657611,0.70555 -0.986254,1.63324 -0.986254,2.78329 0,1.15006 0.328643,2.08154 0.986254,2.79415 0.657614,0.70555 1.508838,1.05833 2.553642,1.05833 1.050949,0 1.905482,-0.35278 2.563093,-1.05833 0.657613,-0.71261 0.986256,-1.64409 0.986256,-2.79415 0,-1.15005 -0.328643,-2.07774 -0.986256,-2.78329 -0.657611,-0.71261 -1.512144,-1.06919 -2.563093,-1.06919 z m 0,0.31729 c 0.848135,0 1.530528,0.325 2.046784,0.97411 0.522402,0.64911 0.783693,1.50275 0.783693,2.56108 0,1.05833 -0.261291,1.91197 -0.783693,2.56108 -0.516256,0.64911 -1.198649,0.97359 -2.046784,0.97359 -0.848135,0 -1.533384,-0.32448 -2.055787,-0.97359 -0.516256,-0.64911 -0.774241,-1.50275 -0.774241,-2.56108 0,-1.05833 0.257985,-1.91197 0.774241,-2.56108 0.522403,-0.64911 1.207652,-0.97411 2.055787,-0.97411 z"
         id="path4911" />
      <path
         id="path4913"
         d="m 87.257741,167.66897 c -1.044804,0 -1.896028,0.35658 -2.553642,1.06919 -0.657611,0.70555 -0.986254,1.63324 -0.986254,2.78329 0,1.15006 0.328643,2.08154 0.986254,2.79415 0.657614,0.70555 1.508838,1.05833 2.553642,1.05833 1.050949,0 1.905482,-0.35278 2.563093,-1.05833 0.657613,-0.71261 0.986256,-1.64409 0.986256,-2.79415 0,-1.15005 -0.328643,-2.07774 -0.986256,-2.78329 -0.657611,-0.71261 -1.512144,-1.06919 -2.563093,-1.06919 z m 0,0.31729 c 0.848135,0 1.530528,0.325 2.046784,0.97411 0.522402,0.64911 0.783693,1.50275 0.783693,2.56108 0,1.05833 -0.261291,1.91197 -0.783693,2.56108 -0.516256,0.64911 -1.198649,0.97359 -2.046784,0.97359 -0.848135,0 -1.533384,-0.32448 -2.055787,-0.97359 -0.516256,-0.64911 -0.774241,-1.50275 -0.774241,-2.56108 0,-1.05833 0.257985,-1.91197 0.774241,-2.56108 0.522403,-0.64911 1.207652,-0.97411 2.055787,-0.97411 z"
         style="font-style:normal;font-variant:normal;font-weight:normal;font-stretch:normal;font-size:10.58333302px;line-height:1.25;font-family:'Cinzel Decorative';-inkscape-font-specification:'Cinzel Decorative, Normal';font-variant-ligatures:normal;font-variant-caps:normal;font-variant-numeric:normal;font-feature-settings:normal;text-align:start;letter-spacing:0px;word-spacing:0px;writing-mode:lr-tb;text-anchor:start;fill:#000000;fill-opacity:1;stroke:#000000;stroke-width:0.2950158;stroke-miterlimit:4;stroke-dasharray:none;stroke-opacity:1"
         inkscape:connector-curvature="0" />
    </g>
    <path
       inkscape:connector-curvature="0"
       style="font-style:normal;font-variant:normal;font-weight:normal;font-stretch:normal;font-size:11.14067268px;line-height:1.25;font-family:'Cinzel Decorative';-inkscape-font-specification:'Cinzel Decorative, Normal';font-variant-ligatures:normal;font-variant-caps:normal;font-variant-numeric:normal;font-feature-settings:normal;text-align:start;letter-spacing:0px;word-spacing:0px;writing-mode:lr-tb;text-anchor:start;fill:#d40000;fill-opacity:1;stroke:#d40000;stroke-width:0.31746435;stroke-opacity:1"
       d="m 62.135041,165.72641 v 0.16711 h 0.12547 c 0.167489,0 0.309413,0.10004 0.425368,0.3003 0.122396,0.20026 0.186548,0.44516 0.192989,0.73442 v 9.26131 c -0.0065,0.28926 -0.07059,0.53969 -0.192989,0.75107 -0.115955,0.20025 -0.257879,0.3003 -0.425368,0.3003 h -0.12547 v 0.16711 h 2.116138 v -0.16711 h -0.125473 c -0.167489,0 -0.312533,-0.10005 -0.434929,-0.3003 -0.122396,-0.21138 -0.183425,-0.46181 -0.183425,-0.75107 v -9.26131 c 0.0065,-0.28926 0.06747,-0.53416 0.183425,-0.73442 0.122396,-0.20026 0.26744,-0.3003 0.434929,-0.3003 h 0.125473 v -0.16711 z"
       id="text1436" />
    <rect
       style="opacity:1;fill:#d40000;fill-opacity:1;stroke:none;stroke-width:0.96365601;stroke-miterlimit:4;stroke-dasharray:none;stroke-dashoffset:0;stroke-opacity:1"
       id="rect1438"
       width="0.49553642"
       height="3.1374631"
       x="61.998238"
       y="162.29759"
       ry="0.0066413493" />
    <rect
       ry="0.0066413493"
       y="162.29759"
       x="62.939919"
       height="3.1374631"
       width="0.49553642"
       id="rect1440"
       style="opacity:1;fill:#d40000;fill-opacity:1;stroke:none;stroke-width:0.96365601;stroke-miterlimit:4;stroke-dasharray:none;stroke-dashoffset:0;stroke-opacity:1" />
    <rect
       style="opacity:1;fill:#d40000;fill-opacity:1;stroke:none;stroke-width:0.96365601;stroke-miterlimit:4;stroke-dasharray:none;stroke-dashoffset:0;stroke-opacity:1"
       id="rect1442"
       width="0.49553642"
       height="3.1374631"
       x="63.865498"
       y="162.29759"
       ry="0.0066413493" />
    <path
       style="font-style:normal;font-variant:normal;font-weight:normal;font-stretch:normal;font-size:11.14067268px;line-height:1.25;font-family:'Cinzel Decorative';-inkscape-font-specification:'Cinzel Decorative, Normal';font-variant-ligatures:normal;font-variant-caps:normal;font-variant-numeric:normal;font-feature-settings:normal;text-align:start;letter-spacing:0px;word-spacing:0px;writing-mode:lr-tb;text-anchor:start;fill:#d40000;fill-opacity:1;stroke:none;stroke-width:1.19986522"
       d="M 218.69727 300.05273 L 218.69727 308.81836 L 219.27344 308.81836 L 219.27344 308.29883 C 219.27344 307.60506 219.61798 307.00503 220.30859 306.49805 C 221.03757 305.99106 221.90089 305.73633 222.89844 305.73633 L 254.83984 305.73633 C 254.87102 305.73716 254.89881 305.74286 254.92969 305.74414 L 258.98242 305.74414 L 258.98242 300.05273 L 258.4082 300.05273 L 258.4082 300.57422 C 258.4082 301.26796 258.0617 301.85561 257.37109 302.33594 C 256.68048 302.84312 255.83739 303.10831 254.83984 303.13477 L 222.89844 303.13477 C 221.90089 303.10808 221.03757 302.8429 220.30859 302.33594 C 219.61798 301.85561 219.27344 301.26796 219.27344 300.57422 L 219.27344 300.05273 L 218.69727 300.05273 z "
       transform="matrix(0.26458333,0,0,0.26458333,0,87)"
       id="path1466" />
    <path
       style="opacity:1;fill:#d40000;fill-opacity:1;stroke:none;stroke-width:1.5208931;stroke-miterlimit:4;stroke-dasharray:none;stroke-dashoffset:0;stroke-opacity:1"
       d="m 64.671217,168.1706 c -0.0046,0 -0.0078,0.005 -0.0078,0.01 v 0.19486 a 2.147084,1.3319419 0 0 0 1.868007,0.7967 h 0.223937 a 2.147084,1.3319419 0 0 0 1.779109,-0.71778 v -0.27378 c 0,-0.005 -0.0039,-0.01 -0.0085,-0.01 z"
       id="rect1456"
       inkscape:connector-curvature="0" />
    <text
       xml:space="preserve"
       style="font-style:normal;font-variant:normal;font-weight:normal;font-stretch:normal;font-size:5.2692976px;line-height:1.25;font-family:'Berkshire Swash';-inkscape-font-specification:'Berkshire Swash, Normal';font-variant-ligatures:normal;font-variant-caps:normal;font-variant-numeric:normal;font-feature-settings:normal;text-align:start;letter-spacing:0px;word-spacing:0px;writing-mode:lr-tb;text-anchor:start;fill:#1a1a1a;fill-opacity:1;stroke:none;stroke-width:0.13173084;"
       x="47.724789"
       y="182.60258"
       id="text1538"><tspan
         sodipodi:role="line"
         id="tspan1536"
         x="47.724789"
         y="182.60258"
         style="font-style:normal;font-variant:normal;font-weight:normal;font-stretch:normal;font-size:5.2692976px;font-family:'Berkshire Swash';-inkscape-font-specification:'Berkshire Swash, Normal';font-variant-ligatures:normal;font-variant-caps:normal;font-variant-numeric:normal;font-feature-settings:normal;text-align:start;writing-mode:lr-tb;text-anchor:start;fill:#1a1a1a;fill-opacity:1;stroke-width:0.13173084;">made real good</tspan></text>
    <path
       style="font-style:normal;font-variant:normal;font-weight:normal;font-stretch:normal;font-size:11.14067268px;line-height:1.25;font-family:'Cinzel Decorative';-inkscape-font-specification:'Cinzel Decorative, Normal';font-variant-ligatures:normal;font-variant-caps:normal;font-variant-numeric:normal;font-feature-settings:normal;text-align:start;letter-spacing:0px;word-spacing:0px;writing-mode:lr-tb;text-anchor:start;fill:#000000;fill-opacity:1;stroke:none;stroke-width:0.31746432;stroke-opacity:1"
       d="m 85.078312,180.98134 v 0.6289 h 7.977291 c 0.289261,0.006 0.534064,0.0675 0.734322,0.18346 0.20026,0.12239 0.300241,0.26711 0.300241,0.4346 v 0.12557 h 0.167431 v -2.11615 h -0.167431 v 0.12557 c 0,0.16749 -0.09998,0.30934 -0.300241,0.4253 -0.200258,0.1224 -0.445061,0.18631 -0.734322,0.19275 z"
       id="path1560"
       inkscape:connector-curvature="0" />
    <path
       style="font-style:normal;font-variant:normal;font-weight:normal;font-stretch:normal;font-size:11.14067268px;line-height:1.25;font-family:'Cinzel Decorative';-inkscape-font-specification:'Cinzel Decorative, Normal';font-variant-ligatures:normal;font-variant-caps:normal;font-variant-numeric:normal;font-feature-settings:normal;text-align:start;letter-spacing:0px;word-spacing:0px;writing-mode:lr-tb;text-anchor:start;fill:#d40000;fill-opacity:1;stroke:none;stroke-width:0.31746432;stroke-opacity:1"
       d="m 82.575624,180.23772 v 2.11615 h 0.167431 v -0.12557 c 0,-0.16749 0.09999,-0.31221 0.300241,-0.4346 0.211378,-0.1224 0.461598,-0.18346 0.750859,-0.18346 h 0.933791 v -0.6289 h -0.933791 c -0.289261,-0.007 -0.539481,-0.0704 -0.750859,-0.19275 -0.20025,-0.11596 -0.300241,-0.25781 -0.300241,-0.4253 v -0.12557 z"
       id="path1542"
       inkscape:connector-curvature="0" />
    <path
       id="path1562"
       d="m 43.860209,180.98134 v 0.6289 h -7.97729 c -0.289261,0.006 -0.534064,0.0675 -0.734322,0.18346 -0.200261,0.12239 -0.300241,0.26711 -0.300241,0.4346 v 0.12557 h -0.167431 v -2.11615 h 0.167431 v 0.12557 c 0,0.16749 0.09998,0.30934 0.300241,0.4253 0.200258,0.1224 0.445061,0.18631 0.734322,0.19275 z"
       style="font-style:normal;font-variant:normal;font-weight:normal;font-stretch:normal;font-size:11.14067268px;line-height:1.25;font-family:'Cinzel Decorative';-inkscape-font-specification:'Cinzel Decorative, Normal';font-variant-ligatures:normal;font-variant-caps:normal;font-variant-numeric:normal;font-feature-settings:normal;text-align:start;letter-spacing:0px;word-spacing:0px;writing-mode:lr-tb;text-anchor:start;fill:#000000;fill-opacity:1;stroke:none;stroke-width:0.31746432;stroke-opacity:1"
       inkscape:connector-curvature="0" />
    <path
       id="path1566"
       d="m 46.362898,180.23772 v 2.11615 h -0.167431 v -0.12557 c 0,-0.16749 -0.09999,-0.31221 -0.300241,-0.4346 -0.211379,-0.1224 -0.461598,-0.18346 -0.750859,-0.18346 h -0.933791 v -0.6289 h 0.933791 c 0.289261,-0.007 0.53948,-0.0704 0.750859,-0.19275 0.20025,-0.11596 0.300241,-0.25781 0.300241,-0.4253 v -0.12557 z"
       style="font-style:normal;font-variant:normal;font-weight:normal;font-stretch:normal;font-size:11.14067268px;line-height:1.25;font-family:'Cinzel Decorative';-inkscape-font-specification:'Cinzel Decorative, Normal';font-variant-ligatures:normal;font-variant-caps:normal;font-variant-numeric:normal;font-feature-settings:normal;text-align:start;letter-spacing:0px;word-spacing:0px;writing-mode:lr-tb;text-anchor:start;fill:#d40000;fill-opacity:1;stroke:none;stroke-width:0.31746432;stroke-opacity:1"
       inkscape:connector-curvature="0" />
  </g>
</svg>
