<?xml version="1.0" encoding="UTF-8" standalone="no"?>
<!-- Created with Inkscape (http://www.inkscape.org/) -->

<svg
   xmlns:dc="http://purl.org/dc/elements/1.1/"
   xmlns:cc="http://creativecommons.org/ns#"
   xmlns:rdf="http://www.w3.org/1999/02/22-rdf-syntax-ns#"
   xmlns:svg="http://www.w3.org/2000/svg"
   xmlns="http://www.w3.org/2000/svg"
   xmlns:sodipodi="http://sodipodi.sourceforge.net/DTD/sodipodi-0.dtd"
   xmlns:inkscape="http://www.inkscape.org/namespaces/inkscape"
   width="297mm"
   height="210mm"
   viewBox="0 0 297 210"
   version="1.1"
   id="svg4222"
   inkscape:version="0.92.4 (5da689c313, 2019-01-14)"
   sodipodi:docname="logo1.2.svg"
   inkscape:export-filename="/home/v/Documents/Soul-Food/logo1.2.png"
   inkscape:export-xdpi="95.300003"
   inkscape:export-ydpi="95.300003">
  <defs
     id="defs4216" />
  <sodipodi:namedview
     id="base"
     pagecolor="#ffffff"
     bordercolor="#666666"
     borderopacity="1.0"
     inkscape:pageopacity="0.0"
     inkscape:pageshadow="2"
     inkscape:zoom="1"
     inkscape:cx="585.48754"
     inkscape:cy="381.46328"
     inkscape:document-units="mm"
     inkscape:current-layer="layer1"
     showgrid="false"
     inkscape:window-width="1850"
     inkscape:window-height="1016"
     inkscape:window-x="70"
     inkscape:window-y="27"
     inkscape:window-maximized="1" />
  <metadata
     id="metadata4219">
    <rdf:RDF>
      <cc:Work
         rdf:about="">
        <dc:format>image/svg+xml</dc:format>
        <dc:type
           rdf:resource="http://purl.org/dc/dcmitype/StillImage" />
        <dc:title></dc:title>
      </cc:Work>
    </rdf:RDF>
  </metadata>
  <g
     inkscape:label="Layer 1"
     inkscape:groupmode="layer"
     id="layer1"
     transform="translate(0,-87)">
    <rect
       ry="0.0047595487"
       y="-193.36388"
       x="-0.37417734"
       height="107.02574"
       width="297.84515"
       id="rect1662"
       style="opacity:1;fill:#ffffff;fill-opacity:1;stroke:none;stroke-width:0.3140555;stroke-miterlimit:4;stroke-dasharray:none;stroke-dashoffset:0;stroke-opacity:1"
       transform="scale(1,-1)" />
    <rect
       style="opacity:1;fill:#000000;fill-opacity:1;stroke:none;stroke-width:0.30959961;stroke-miterlimit:4;stroke-dasharray:none;stroke-dashoffset:0;stroke-opacity:1"
       id="rect1589"
       width="297.84515"
       height="104.01028"
       x="-0.37417734"
       y="193.36388"
       ry="0.0046254476" />
    <g
       transform="translate(-14.469082,-2.6458365)"
       id="g1861">
      <path
         inkscape:connector-curvature="0"
         style="font-style:normal;font-variant:normal;font-weight:normal;font-stretch:normal;font-size:11.14067268px;line-height:1.25;font-family:'Cinzel Decorative';-inkscape-font-specification:'Cinzel Decorative, Normal';font-variant-ligatures:normal;font-variant-caps:normal;font-variant-numeric:normal;font-feature-settings:normal;text-align:start;letter-spacing:0px;word-spacing:0px;writing-mode:lr-tb;text-anchor:start;fill:#d40000;fill-opacity:1;stroke:#d40000;stroke-width:0.92842215;stroke-opacity:1"
         d="m 142.73805,120.16533 v 0.48871 h 0.36694 c 0.48982,0 0.90488,0.29256 1.24399,0.87822 0.35794,0.58566 0.54555,1.30187 0.56439,2.14781 v 27.08463 c -0.019,0.84594 -0.20644,1.57832 -0.56439,2.1965 -0.33911,0.58563 -0.75417,0.87822 -1.24399,0.87822 h -0.36694 v 0.48872 h 6.18864 v -0.48872 h -0.36695 c -0.48983,0 -0.914,-0.29259 -1.27195,-0.87822 -0.35794,-0.61818 -0.53642,-1.35056 -0.53642,-2.1965 v -27.08463 c 0.019,-0.84594 0.19731,-1.56215 0.53642,-2.14781 0.35795,-0.58566 0.78212,-0.87822 1.27195,-0.87822 h 0.36695 v -0.48871 z"
         id="path1849" />
      <rect
         style="opacity:1;fill:#d40000;fill-opacity:1;stroke:none;stroke-width:2.81820488;stroke-miterlimit:4;stroke-dasharray:none;stroke-dashoffset:0;stroke-opacity:1"
         id="rect1851"
         width="1.4491926"
         height="9.1754885"
         x="142.33797"
         y="110.13776"
         ry="0.019422578" />
      <rect
         ry="0.019422578"
         y="110.13776"
         x="145.09192"
         height="9.1754885"
         width="1.4491926"
         id="rect1853"
         style="opacity:1;fill:#d40000;fill-opacity:1;stroke:none;stroke-width:2.81820488;stroke-miterlimit:4;stroke-dasharray:none;stroke-dashoffset:0;stroke-opacity:1" />
      <rect
         style="opacity:1;fill:#d40000;fill-opacity:1;stroke:none;stroke-width:2.81820488;stroke-miterlimit:4;stroke-dasharray:none;stroke-dashoffset:0;stroke-opacity:1"
         id="rect1855"
         width="1.4491926"
         height="9.1754885"
         x="147.79875"
         y="110.13776"
         ry="0.019422578" />
      <path
         style="font-style:normal;font-variant:normal;font-weight:normal;font-stretch:normal;font-size:11.14067268px;line-height:1.25;font-family:'Cinzel Decorative';-inkscape-font-specification:'Cinzel Decorative, Normal';font-variant-ligatures:normal;font-variant-caps:normal;font-variant-numeric:normal;font-feature-settings:normal;text-align:start;letter-spacing:0px;word-spacing:0px;writing-mode:lr-tb;text-anchor:start;fill:#d40000;fill-opacity:1;stroke:none;stroke-width:0.92842215"
         d="m 130.2464,122.10292 v 6.7826 h 0.44583 v -0.40199 c 0,-0.53683 0.2666,-1.00112 0.80097,-1.3934 0.56407,-0.3923 1.23207,-0.5894 2.00395,-0.5894 h 24.71537 c 0.0241,6.4e-4 0.0456,0.005 0.0695,0.006 h 3.13589 v -4.40386 h -0.44432 v 0.40352 c 0,0.5368 -0.26811,0.99151 -0.80248,1.36317 -0.53437,0.39244 -1.18673,0.59764 -1.95861,0.61811 h -24.71536 c -0.77188,-0.0207 -1.43989,-0.22584 -2.00396,-0.61811 -0.53437,-0.37166 -0.80097,-0.82637 -0.80097,-1.36317 v -0.40352 z"
         id="path1857"
         inkscape:connector-curvature="0" />
      <path
         style="opacity:1;fill:#d40000;fill-opacity:1;stroke:none;stroke-width:4.44784069;stroke-miterlimit:4;stroke-dasharray:none;stroke-dashoffset:0;stroke-opacity:1"
         d="m 150.15508,127.31334 c -0.0134,0 -0.0228,0.0146 -0.0228,0.0293 v 0.56986 a 6.2791316,3.8952544 0 0 0 5.46297,2.32994 h 0.6549 a 6.2791316,3.8952544 0 0 0 5.203,-2.09914 v -0.80066 c 0,-0.0146 -0.0114,-0.0293 -0.0249,-0.0293 z"
         id="path1859"
         inkscape:connector-curvature="0" />
    </g>
    <text
       id="text1865"
       y="166.87373"
       x="103.05964"
       style="font-style:normal;font-variant:normal;font-weight:normal;font-stretch:normal;font-size:15.41002274px;line-height:1.25;font-family:'Berkshire Swash';-inkscape-font-specification:'Berkshire Swash, Normal';font-variant-ligatures:normal;font-variant-caps:normal;font-variant-numeric:normal;font-feature-settings:normal;text-align:start;letter-spacing:0px;word-spacing:0px;writing-mode:lr-tb;text-anchor:start;fill:#1a1a1a;fill-opacity:1;stroke:none;stroke-width:0.38524589"
       xml:space="preserve"><tspan
         style="font-style:normal;font-variant:normal;font-weight:normal;font-stretch:normal;font-size:15.41002274px;font-family:'Berkshire Swash';-inkscape-font-specification:'Berkshire Swash, Normal';font-variant-ligatures:normal;font-variant-caps:normal;font-variant-numeric:normal;font-feature-settings:normal;text-align:start;writing-mode:lr-tb;text-anchor:start;fill:#1a1a1a;fill-opacity:1;stroke-width:0.38524589"
         y="166.87373"
         x="103.05964"
         id="tspan1863"
         sodipodi:role="line">made real good</tspan></text>
    <g
       transform="translate(2.4642518,-2.6458365)"
       id="g1871">
      <path
         style="font-style:normal;font-variant:normal;font-weight:normal;font-stretch:normal;font-size:11.14067268px;line-height:1.25;font-family:'Cinzel Decorative';-inkscape-font-specification:'Cinzel Decorative, Normal';font-variant-ligatures:normal;font-variant-caps:normal;font-variant-numeric:normal;font-feature-settings:normal;text-align:start;letter-spacing:0px;word-spacing:0px;writing-mode:lr-tb;text-anchor:start;fill:#000000;fill-opacity:1;stroke:none;stroke-width:0.92842209;stroke-opacity:1"
         d="m 209.83548,164.77826 v 1.83921 h 23.32953 c 0.84594,0.0175 1.56187,0.1974 2.14753,0.53653 0.58565,0.35793 0.87804,0.78116 0.87804,1.27098 v 0.36723 h 0.48966 v -6.18866 h -0.48966 v 0.36723 c 0,0.48982 -0.29239,0.90466 -0.87804,1.24378 -0.58566,0.35796 -1.30159,0.54486 -2.14753,0.5637 z"
         id="path1867"
         inkscape:connector-curvature="0" />
      <path
         style="font-style:normal;font-variant:normal;font-weight:normal;font-stretch:normal;font-size:11.14067268px;line-height:1.25;font-family:'Cinzel Decorative';-inkscape-font-specification:'Cinzel Decorative, Normal';font-variant-ligatures:normal;font-variant-caps:normal;font-variant-numeric:normal;font-feature-settings:normal;text-align:start;letter-spacing:0px;word-spacing:0px;writing-mode:lr-tb;text-anchor:start;fill:#d40000;fill-opacity:1;stroke:none;stroke-width:0.92842209;stroke-opacity:1"
         d="m 202.51639,162.60355 v 6.18866 h 0.48965 v -0.36723 c 0,-0.48982 0.29242,-0.91305 0.87806,-1.27098 0.61817,-0.35796 1.34993,-0.53653 2.19588,-0.53653 h 2.73086 v -1.83921 h -2.73086 c -0.84595,-0.0205 -1.57771,-0.20589 -2.19588,-0.5637 -0.58563,-0.33912 -0.87806,-0.75396 -0.87806,-1.24378 v -0.36723 z"
         id="path1869"
         inkscape:connector-curvature="0" />
    </g>
    <g
       id="g1877"
       transform="matrix(-1,0,0,1,301.69632,-2.6458365)">
      <path
         inkscape:connector-curvature="0"
         id="path1873"
         d="m 209.83548,164.77826 v 1.83921 h 23.32953 c 0.84594,0.0175 1.56187,0.1974 2.14753,0.53653 0.58565,0.35793 0.87804,0.78116 0.87804,1.27098 v 0.36723 h 0.48966 v -6.18866 h -0.48966 v 0.36723 c 0,0.48982 -0.29239,0.90466 -0.87804,1.24378 -0.58566,0.35796 -1.30159,0.54486 -2.14753,0.5637 z"
         style="font-style:normal;font-variant:normal;font-weight:normal;font-stretch:normal;font-size:11.14067268px;line-height:1.25;font-family:'Cinzel Decorative';-inkscape-font-specification:'Cinzel Decorative, Normal';font-variant-ligatures:normal;font-variant-caps:normal;font-variant-numeric:normal;font-feature-settings:normal;text-align:start;letter-spacing:0px;word-spacing:0px;writing-mode:lr-tb;text-anchor:start;fill:#000000;fill-opacity:1;stroke:none;stroke-width:0.92842209;stroke-opacity:1" />
      <path
         inkscape:connector-curvature="0"
         id="path1875"
         d="m 202.51639,162.60355 v 6.18866 h 0.48965 v -0.36723 c 0,-0.48982 0.29242,-0.91305 0.87806,-1.27098 0.61817,-0.35796 1.34993,-0.53653 2.19588,-0.53653 h 2.73086 v -1.83921 h -2.73086 c -0.84595,-0.0205 -1.57771,-0.20589 -2.19588,-0.5637 -0.58563,-0.33912 -0.87806,-0.75396 -0.87806,-1.24378 v -0.36723 z"
         style="font-style:normal;font-variant:normal;font-weight:normal;font-stretch:normal;font-size:11.14067268px;line-height:1.25;font-family:'Cinzel Decorative';-inkscape-font-specification:'Cinzel Decorative, Normal';font-variant-ligatures:normal;font-variant-caps:normal;font-variant-numeric:normal;font-feature-settings:normal;text-align:start;letter-spacing:0px;word-spacing:0px;writing-mode:lr-tb;text-anchor:start;fill:#d40000;fill-opacity:1;stroke:none;stroke-width:0.92842209;stroke-opacity:1" />
    </g>
    <g
       id="g1891"
       transform="translate(0,-2.6458365)">
      <path
         style="font-style:normal;font-variant:normal;font-weight:normal;font-stretch:normal;font-size:10.58333302px;line-height:1.25;font-family:'Cinzel Decorative';-inkscape-font-specification:'Cinzel Decorative, Normal';font-variant-ligatures:normal;font-variant-caps:normal;font-variant-numeric:normal;font-feature-settings:normal;text-align:start;letter-spacing:0px;word-spacing:0px;writing-mode:lr-tb;text-anchor:start;fill:#000000;fill-opacity:1;stroke:#000000;stroke-width:0.87734783;stroke-miterlimit:4;stroke-dasharray:none;stroke-opacity:1"
         d="m 74.291839,131.55443 c -1.763883,0 -3.164035,0.54448 -4.200316,1.63175 -1.036278,1.06597 -1.555133,2.37707 -1.555133,3.93338 0,1.55632 0.651536,2.82465 1.952397,3.80535 l 5.952461,4.54079 c 1.014228,0.76749 1.742351,1.60976 2.183318,2.52647 0.463021,0.91674 0.694408,1.7689 0.694408,2.55772 0,0.14926 -0.01188,0.29881 -0.03391,0.44816 -0.2205,2.11062 -1.222597,3.61413 -3.008529,4.50953 -0.948088,0.49035 -2.072631,0.73548 -3.373493,0.73548 -1.278818,0 -2.425468,-0.33064 -3.439705,-0.99155 -1.74183,-1.10861 -2.612877,-2.66481 -2.612877,-4.66883 0,-1.68423 0.573326,-3.2519 1.719854,-4.70161 l -0.297155,-0.22329 c -0.881938,0.91675 -1.47738,1.83304 -1.786057,2.74978 -0.308687,0.89541 -0.463474,1.60937 -0.463474,2.14236 0,0.51166 0.03234,0.93773 0.0985,1.27885 0.418927,2.25985 1.665895,3.85881 3.738454,4.79687 1.102431,0.51169 2.358034,0.76826 3.769142,0.76826 2.315096,0 4.167753,-0.60705 5.556812,-1.82224 1.609548,-1.40709 2.414249,-3.0916 2.414249,-5.05296 0,-2.62232 -1.212987,-4.86116 -3.63833,-6.71595 l -6.118794,-4.66883 c -0.970135,-0.74618 -1.455005,-1.67395 -1.455005,-2.78256 0,-1.12996 0.37592,-2.04625 1.125565,-2.74978 0.749654,-0.72487 1.675179,-1.08836 2.777604,-1.08836 1.124475,0 2.049994,0.29941 2.777595,0.89631 0.749654,0.57561 1.135828,1.37508 1.157872,2.39843 h 0.331052 l -0.06622,-3.93338 h -1.32259 c -1.036287,-0.21309 -1.995781,-0.32012 -2.877725,-0.32012 z"
         id="path1879"
         inkscape:connector-curvature="0" />
      <path
         style="font-style:normal;font-variant:normal;font-weight:normal;font-stretch:normal;font-size:10.58333302px;line-height:1.25;font-family:'Cinzel Decorative';-inkscape-font-specification:'Cinzel Decorative, Normal';font-variant-ligatures:normal;font-variant-caps:normal;font-variant-numeric:normal;font-feature-settings:normal;text-align:start;letter-spacing:0px;word-spacing:0px;writing-mode:lr-tb;text-anchor:start;fill:#000000;fill-opacity:1;stroke:#000000;stroke-width:0.87734783;stroke-miterlimit:4;stroke-dasharray:none;stroke-opacity:1"
         d="m 93.406638,131.55443 c -3.232362,0 -5.865842,1.0687 -7.900336,3.20443 -2.034484,2.11458 -3.051225,4.89493 -3.051225,8.34171 0,3.4468 1.016741,6.23851 3.051225,8.37425 2.034494,2.11458 4.667974,3.17188 7.900336,3.17188 3.251378,0 5.895089,-1.0573 7.929572,-3.17188 2.0345,-2.13574 3.05124,-4.92745 3.05124,-8.37425 0,-3.44678 -1.01674,-6.22713 -3.05124,-8.34171 -2.034483,-2.13573 -4.678194,-3.20443 -7.929572,-3.20443 z m 0,0.95094 c 2.623917,0 4.735073,0.97405 6.332241,2.91947 1.616181,1.94543 2.424551,4.50384 2.424551,7.67573 0,3.17188 -0.80837,5.7303 -2.424551,7.67572 -1.597168,1.94543 -3.708324,2.91792 -6.332241,2.91792 -2.62392,0 -4.743911,-0.97249 -6.360097,-2.91792 -1.597164,-1.94542 -2.395308,-4.50384 -2.395308,-7.67572 0,-3.17189 0.798144,-5.7303 2.395308,-7.67573 1.616186,-1.94542 3.736177,-2.91947 6.360097,-2.91947 z"
         id="path1881"
         inkscape:connector-curvature="0" />
      <path
         style="font-style:normal;font-variant:normal;font-weight:normal;font-stretch:normal;font-size:10.58333302px;line-height:1.25;font-family:'Cinzel Decorative';-inkscape-font-specification:'Cinzel Decorative, Normal';font-variant-ligatures:normal;font-variant-caps:normal;font-variant-numeric:normal;font-feature-settings:normal;text-align:start;letter-spacing:0px;word-spacing:0px;writing-mode:lr-tb;text-anchor:start;fill:#000000;fill-opacity:1;stroke:#000000;stroke-width:0.87734783;stroke-miterlimit:4;stroke-dasharray:none;stroke-opacity:1"
         d="m 105.04477,131.99893 v 0.31751 h 0.45538 c 0.28522,0 0.54196,0.062 0.77012,0.18881 0.49436,0.29611 0.74226,0.76263 0.74226,1.39702 v 12.49708 c 0,2.47408 0.72186,4.47126 2.16692,5.99377 1.46407,1.50135 3.36545,2.25346 5.70416,2.25346 2.33872,0 4.2122,-0.76194 5.61923,-2.28445 1.40703,-1.52251 2.10982,-3.52122 2.10982,-5.9953 v -12.56058 c 0.0191,-0.42292 0.17156,-0.77208 0.45678,-1.04697 0.30421,-0.29611 0.65631,-0.44296 1.0556,-0.44296 h 0.45678 v -0.31751 h -5.27663 v 0.31751 h 0.45539 c 0.4183,0 0.77039,0.14685 1.0556,0.44296 0.28522,0.27483 0.43777,0.63541 0.45678,1.07949 v 12.52806 c 0,2.17803 -0.57953,3.94345 -1.73938,5.2968 -1.15985,1.3322 -2.67241,1.99947 -4.53577,1.99947 -1.86335,0 -3.35545,-0.70968 -4.47727,-2.12648 -1.1028,-1.41677 -1.65443,-3.27687 -1.65443,-5.58177 v -12.11608 c 0.0191,-0.44408 0.17159,-0.8046 0.45678,-1.07949 0.28522,-0.29611 0.6373,-0.44296 1.0556,-0.44296 h 0.45539 v -0.31751 z"
         id="path1883"
         inkscape:connector-curvature="0" />
      <path
         inkscape:connector-curvature="0"
         id="path1885"
         d="m 74.291839,131.55443 c -1.763883,0 -3.164035,0.54448 -4.200316,1.63175 -1.036278,1.06597 -1.555133,2.37707 -1.555133,3.93338 0,1.55632 0.651536,2.82465 1.952397,3.80535 l 5.952461,4.54079 c 1.014228,0.76749 1.742351,1.60976 2.183318,2.52647 0.463021,0.91674 0.694408,1.7689 0.694408,2.55772 0,0.14926 -0.01188,0.29881 -0.03391,0.44816 -0.2205,2.11062 -1.222597,3.61413 -3.008529,4.50953 -0.948088,0.49035 -2.072631,0.73548 -3.373493,0.73548 -1.278818,0 -2.425468,-0.33064 -3.439705,-0.99155 -1.74183,-1.10861 -2.612877,-2.66481 -2.612877,-4.66883 0,-1.68423 0.573326,-3.2519 1.719854,-4.70161 l -0.297155,-0.22329 c -0.881938,0.91675 -1.47738,1.83304 -1.786057,2.74978 -0.308687,0.89541 -0.463474,1.60937 -0.463474,2.14236 0,0.51166 0.03234,0.93773 0.0985,1.27885 0.418927,2.25985 1.665895,3.85881 3.738454,4.79687 1.102431,0.51169 2.358034,0.76826 3.769142,0.76826 2.315096,0 4.167753,-0.60705 5.556812,-1.82224 1.609548,-1.40709 2.414249,-3.0916 2.414249,-5.05296 0,-2.62232 -1.212987,-4.86116 -3.63833,-6.71595 l -6.118794,-4.66883 c -0.970135,-0.74618 -1.455005,-1.67395 -1.455005,-2.78256 0,-1.12996 0.37592,-2.04625 1.125565,-2.74978 0.749654,-0.72487 1.675179,-1.08836 2.777604,-1.08836 1.124475,0 2.049994,0.29941 2.777595,0.89631 0.749654,0.57561 1.135828,1.37508 1.157872,2.39843 h 0.331052 l -0.06622,-3.93338 h -1.32259 c -1.036287,-0.21309 -1.995781,-0.32012 -2.877725,-0.32012 z"
         style="font-style:normal;font-variant:normal;font-weight:normal;font-stretch:normal;font-size:10.58333302px;line-height:1.25;font-family:'Cinzel Decorative';-inkscape-font-specification:'Cinzel Decorative, Normal';font-variant-ligatures:normal;font-variant-caps:normal;font-variant-numeric:normal;font-feature-settings:normal;text-align:start;letter-spacing:0px;word-spacing:0px;writing-mode:lr-tb;text-anchor:start;fill:#000000;fill-opacity:1;stroke:#000000;stroke-width:0.87734783;stroke-miterlimit:4;stroke-dasharray:none;stroke-opacity:1" />
      <path
         inkscape:connector-curvature="0"
         id="path1887"
         d="m 93.406638,131.55443 c -3.232362,0 -5.865842,1.0687 -7.900336,3.20443 -2.034484,2.11458 -3.051225,4.89493 -3.051225,8.34171 0,3.4468 1.016741,6.23851 3.051225,8.37425 2.034494,2.11458 4.667974,3.17188 7.900336,3.17188 3.251378,0 5.895089,-1.0573 7.929572,-3.17188 2.0345,-2.13574 3.05124,-4.92745 3.05124,-8.37425 0,-3.44678 -1.01674,-6.22713 -3.05124,-8.34171 -2.034483,-2.13573 -4.678194,-3.20443 -7.929572,-3.20443 z m 0,0.95094 c 2.623917,0 4.735073,0.97405 6.332241,2.91947 1.616181,1.94543 2.424551,4.50384 2.424551,7.67573 0,3.17188 -0.80837,5.7303 -2.424551,7.67572 -1.597168,1.94543 -3.708324,2.91792 -6.332241,2.91792 -2.62392,0 -4.743911,-0.97249 -6.360097,-2.91792 -1.597164,-1.94542 -2.395308,-4.50384 -2.395308,-7.67572 0,-3.17189 0.798144,-5.7303 2.395308,-7.67573 1.616186,-1.94542 3.736177,-2.91947 6.360097,-2.91947 z"
         style="font-style:normal;font-variant:normal;font-weight:normal;font-stretch:normal;font-size:10.58333302px;line-height:1.25;font-family:'Cinzel Decorative';-inkscape-font-specification:'Cinzel Decorative, Normal';font-variant-ligatures:normal;font-variant-caps:normal;font-variant-numeric:normal;font-feature-settings:normal;text-align:start;letter-spacing:0px;word-spacing:0px;writing-mode:lr-tb;text-anchor:start;fill:#000000;fill-opacity:1;stroke:#000000;stroke-width:0.87734783;stroke-miterlimit:4;stroke-dasharray:none;stroke-opacity:1" />
      <path
         inkscape:connector-curvature="0"
         id="path1889"
         d="m 105.04477,131.99893 v 0.31751 h 0.45538 c 0.28522,0 0.54196,0.062 0.77012,0.18881 0.49436,0.29611 0.74226,0.76263 0.74226,1.39702 v 12.49708 c 0,2.47408 0.72186,4.47126 2.16692,5.99377 1.46407,1.50135 3.36545,2.25346 5.70416,2.25346 2.33872,0 4.2122,-0.76194 5.61923,-2.28445 1.40703,-1.52251 2.10982,-3.52122 2.10982,-5.9953 v -12.56058 c 0.0191,-0.42292 0.17156,-0.77208 0.45678,-1.04697 0.30421,-0.29611 0.65631,-0.44296 1.0556,-0.44296 h 0.45678 v -0.31751 h -5.27663 v 0.31751 h 0.45539 c 0.4183,0 0.77039,0.14685 1.0556,0.44296 0.28522,0.27483 0.43777,0.63541 0.45678,1.07949 v 12.52806 c 0,2.17803 -0.57953,3.94345 -1.73938,5.2968 -1.15985,1.3322 -2.67241,1.99947 -4.53577,1.99947 -1.86335,0 -3.35545,-0.70968 -4.47727,-2.12648 -1.1028,-1.41677 -1.65443,-3.27687 -1.65443,-5.58177 v -12.11608 c 0.0191,-0.44408 0.17159,-0.8046 0.45678,-1.07949 0.28522,-0.29611 0.6373,-0.44296 1.0556,-0.44296 h 0.45539 v -0.31751 z"
         style="font-style:normal;font-variant:normal;font-weight:normal;font-stretch:normal;font-size:10.58333302px;line-height:1.25;font-family:'Cinzel Decorative';-inkscape-font-specification:'Cinzel Decorative, Normal';font-variant-ligatures:normal;font-variant-caps:normal;font-variant-numeric:normal;font-feature-settings:normal;text-align:start;letter-spacing:0px;word-spacing:0px;writing-mode:lr-tb;text-anchor:start;fill:#000000;fill-opacity:1;stroke:#000000;stroke-width:0.87734783;stroke-miterlimit:4;stroke-dasharray:none;stroke-opacity:1" />
    </g>
    <g
       id="g1913"
       transform="translate(0,-2.6458365)">
      <g
         id="g1901"
         transform="matrix(3.0241442,0,0,2.9244927,-55.930797,-358.24144)"
         style="stroke:#000000;stroke-width:0.29501581;stroke-miterlimit:4;stroke-dasharray:none;stroke-opacity:1">
        <path
           sodipodi:nodetypes="ccsccscsccsccccscscccsccccsccccccccc"
           inkscape:connector-curvature="0"
           id="path1893"
           d="m 75.859371,167.63927 c -0.06145,0.0282 -0.146396,0.0701 -0.349211,0.11944 -0.202815,0.0494 -2.415138,0.0586 -2.67941,0.0586 h -2.700837 l 0.009,0.10594 h 0.110735 c 0.153646,0 0.288803,0.0599 0.405574,0.17983 0.12292,0.11289 0.18456,0.2539 0.18456,0.42323 v 5.92677 c -0.0062,0.18345 -0.06779,0.34189 -0.18456,0.47595 -0.110626,0.127 -0.245782,0.19068 -0.405574,0.19068 h -0.119737 v 0.10594 h 2.018874 v -0.10594 h -0.120186 c -0.159795,0 -0.297806,-0.0637 -0.414579,-0.19068 -0.116773,-0.13406 -0.175106,-0.2925 -0.175106,-0.47595 v -2.72024 h 2.949765 c 0.122919,0.007 0.224399,0.0604 0.304293,0.15916 0.08604,0.0988 0.129192,0.21856 0.129192,0.35967 v 0.15865 h 0.09228 v -1.67226 h -0.09228 v 0.14832 c 0,0.14816 -0.04314,0.27174 -0.129192,0.37052 -0.08604,0.0988 -0.190378,0.15159 -0.313295,0.15864 h -2.940763 v -3.27008 l 3.111248,-0.038 c 0.513557,0.0211 1.241408,0.0145 1.240276,0.53583 l 0.0018,0.27866 0.06575,10e-4 z"
           style="font-style:normal;font-variant:normal;font-weight:normal;font-stretch:normal;font-size:10.58333302px;line-height:1.25;font-family:'Cinzel Decorative';-inkscape-font-specification:'Cinzel Decorative, Normal';font-variant-ligatures:normal;font-variant-caps:normal;font-variant-numeric:normal;font-feature-settings:normal;text-align:start;letter-spacing:0px;word-spacing:0px;writing-mode:lr-tb;text-anchor:start;fill:#000000;fill-opacity:1;stroke:#000000;stroke-width:0.29501581;stroke-miterlimit:4;stroke-dasharray:none;stroke-opacity:1" />
        <path
           inkscape:connector-curvature="0"
           id="path1895"
           d="m 90.871876,167.81728 0.009,0.12107 h 0.110735 c 0.153646,0 0.288804,0.0685 0.405574,0.20552 0.12292,0.12902 0.184557,0.29018 0.184559,0.4837 v 6.77345 c -0.0062,0.20965 -0.06779,0.39073 -0.184559,0.54394 -0.110626,0.14514 -0.245782,0.21792 -0.405574,0.21792 h -0.119733 v 0.12107 h 3.124867 c 0.983345,0 1.779546,-0.387 2.387989,-1.16109 0.614591,-0.78216 0.92188,-1.80628 0.92188,-3.07224 0,-1.26597 -0.307289,-2.28633 -0.92188,-3.06043 -0.608443,-0.78216 -1.404644,-1.17291 -2.387989,-1.17291 z m 1.309003,0.36263 h 1.815864 c 0.78053,0 1.410754,0.35465 1.890135,1.06424 0.485528,0.70959 0.728322,1.64532 0.728322,2.80647 0,0.76603 -0.110949,1.44299 -0.332201,2.03162 -0.215103,0.58057 -0.522398,1.03226 -0.921884,1.35481 -0.393336,0.32254 -0.848116,0.48369 -1.364372,0.48369 h -1.815864 z"
           style="font-style:normal;font-variant:normal;font-weight:normal;font-stretch:normal;font-size:10.58333302px;line-height:1.25;font-family:'Cinzel Decorative';-inkscape-font-specification:'Cinzel Decorative, Normal';font-variant-ligatures:normal;font-variant-caps:normal;font-variant-numeric:normal;font-feature-settings:normal;text-align:start;letter-spacing:0px;word-spacing:0px;writing-mode:lr-tb;text-anchor:start;fill:#000000;fill-opacity:1;stroke:#000000;stroke-width:0.29501581;stroke-miterlimit:4;stroke-dasharray:none;stroke-opacity:1" />
        <path
           inkscape:connector-curvature="0"
           style="font-style:normal;font-variant:normal;font-weight:normal;font-stretch:normal;font-size:10.58333302px;line-height:1.25;font-family:'Cinzel Decorative';-inkscape-font-specification:'Cinzel Decorative, Normal';font-variant-ligatures:normal;font-variant-caps:normal;font-variant-numeric:normal;font-feature-settings:normal;text-align:start;letter-spacing:0px;word-spacing:0px;writing-mode:lr-tb;text-anchor:start;fill:#000000;fill-opacity:1;stroke:#000000;stroke-width:0.29501581;stroke-miterlimit:4;stroke-dasharray:none;stroke-opacity:1"
           d="m 79.608253,167.66897 c -1.044804,0 -1.896028,0.35658 -2.553642,1.06919 -0.657611,0.70555 -0.986254,1.63324 -0.986254,2.78329 0,1.15006 0.328643,2.08154 0.986254,2.79415 0.657614,0.70555 1.508838,1.05833 2.553642,1.05833 1.050949,0 1.905482,-0.35278 2.563093,-1.05833 0.657613,-0.71261 0.986256,-1.64409 0.986256,-2.79415 0,-1.15005 -0.328643,-2.07774 -0.986256,-2.78329 -0.657611,-0.71261 -1.512144,-1.06919 -2.563093,-1.06919 z m 0,0.31729 c 0.848135,0 1.530528,0.325 2.046784,0.97411 0.522402,0.64911 0.783693,1.50275 0.783693,2.56108 0,1.05833 -0.261291,1.91197 -0.783693,2.56108 -0.516256,0.64911 -1.198649,0.97359 -2.046784,0.97359 -0.848135,0 -1.533384,-0.32448 -2.055787,-0.97359 -0.516256,-0.64911 -0.774241,-1.50275 -0.774241,-2.56108 0,-1.05833 0.257985,-1.91197 0.774241,-2.56108 0.522403,-0.64911 1.207652,-0.97411 2.055787,-0.97411 z"
           id="path1897" />
        <path
           id="path1899"
           d="m 87.257741,167.66897 c -1.044804,0 -1.896028,0.35658 -2.553642,1.06919 -0.657611,0.70555 -0.986254,1.63324 -0.986254,2.78329 0,1.15006 0.328643,2.08154 0.986254,2.79415 0.657614,0.70555 1.508838,1.05833 2.553642,1.05833 1.050949,0 1.905482,-0.35278 2.563093,-1.05833 0.657613,-0.71261 0.986256,-1.64409 0.986256,-2.79415 0,-1.15005 -0.328643,-2.07774 -0.986256,-2.78329 -0.657611,-0.71261 -1.512144,-1.06919 -2.563093,-1.06919 z m 0,0.31729 c 0.848135,0 1.530528,0.325 2.046784,0.97411 0.522402,0.64911 0.783693,1.50275 0.783693,2.56108 0,1.05833 -0.261291,1.91197 -0.783693,2.56108 -0.516256,0.64911 -1.198649,0.97359 -2.046784,0.97359 -0.848135,0 -1.533384,-0.32448 -2.055787,-0.97359 -0.516256,-0.64911 -0.774241,-1.50275 -0.774241,-2.56108 0,-1.05833 0.257985,-1.91197 0.774241,-2.56108 0.522403,-0.64911 1.207652,-0.97411 2.055787,-0.97411 z"
           style="font-style:normal;font-variant:normal;font-weight:normal;font-stretch:normal;font-size:10.58333302px;line-height:1.25;font-family:'Cinzel Decorative';-inkscape-font-specification:'Cinzel Decorative, Normal';font-variant-ligatures:normal;font-variant-caps:normal;font-variant-numeric:normal;font-feature-settings:normal;text-align:start;letter-spacing:0px;word-spacing:0px;writing-mode:lr-tb;text-anchor:start;fill:#000000;fill-opacity:1;stroke:#000000;stroke-width:0.29501581;stroke-miterlimit:4;stroke-dasharray:none;stroke-opacity:1"
           inkscape:connector-curvature="0" />
      </g>
      <g
         style="stroke:#000000;stroke-width:0.29501581;stroke-miterlimit:4;stroke-dasharray:none;stroke-opacity:1"
         transform="matrix(3.0241442,0,0,2.9244927,-55.930797,-358.24144)"
         id="g1911">
        <path
           style="font-style:normal;font-variant:normal;font-weight:normal;font-stretch:normal;font-size:10.58333302px;line-height:1.25;font-family:'Cinzel Decorative';-inkscape-font-specification:'Cinzel Decorative, Normal';font-variant-ligatures:normal;font-variant-caps:normal;font-variant-numeric:normal;font-feature-settings:normal;text-align:start;letter-spacing:0px;word-spacing:0px;writing-mode:lr-tb;text-anchor:start;fill:#000000;fill-opacity:1;stroke:#000000;stroke-width:0.29501581;stroke-miterlimit:4;stroke-dasharray:none;stroke-opacity:1"
           d="m 75.859371,167.63927 c -0.06145,0.0282 -0.146396,0.0701 -0.349211,0.11944 -0.202815,0.0494 -2.415138,0.0586 -2.67941,0.0586 h -2.700837 l 0.009,0.10594 h 0.110735 c 0.153646,0 0.288803,0.0599 0.405574,0.17983 0.12292,0.11289 0.18456,0.2539 0.18456,0.42323 v 5.92677 c -0.0062,0.18345 -0.06779,0.34189 -0.18456,0.47595 -0.110626,0.127 -0.245782,0.19068 -0.405574,0.19068 h -0.119737 v 0.10594 h 2.018874 v -0.10594 h -0.120186 c -0.159795,0 -0.297806,-0.0637 -0.414579,-0.19068 -0.116773,-0.13406 -0.175106,-0.2925 -0.175106,-0.47595 v -2.72024 h 2.949765 c 0.122919,0.007 0.224399,0.0604 0.304293,0.15916 0.08604,0.0988 0.129192,0.21856 0.129192,0.35967 v 0.15865 h 0.09228 v -1.67226 h -0.09228 v 0.14832 c 0,0.14816 -0.04314,0.27174 -0.129192,0.37052 -0.08604,0.0988 -0.190378,0.15159 -0.313295,0.15864 h -2.940763 v -3.27008 l 3.111248,-0.038 c 0.513557,0.0211 1.241408,0.0145 1.240276,0.53583 l 0.0018,0.27866 0.06575,10e-4 z"
           id="path1903"
           inkscape:connector-curvature="0"
           sodipodi:nodetypes="ccsccscsccsccccscscccsccccsccccccccc" />
        <path
           style="font-style:normal;font-variant:normal;font-weight:normal;font-stretch:normal;font-size:10.58333302px;line-height:1.25;font-family:'Cinzel Decorative';-inkscape-font-specification:'Cinzel Decorative, Normal';font-variant-ligatures:normal;font-variant-caps:normal;font-variant-numeric:normal;font-feature-settings:normal;text-align:start;letter-spacing:0px;word-spacing:0px;writing-mode:lr-tb;text-anchor:start;fill:#000000;fill-opacity:1;stroke:#000000;stroke-width:0.29501581;stroke-miterlimit:4;stroke-dasharray:none;stroke-opacity:1"
           d="m 90.871876,167.81728 0.009,0.12107 h 0.110735 c 0.153646,0 0.288804,0.0685 0.405574,0.20552 0.12292,0.12902 0.184557,0.29018 0.184559,0.4837 v 6.77345 c -0.0062,0.20965 -0.06779,0.39073 -0.184559,0.54394 -0.110626,0.14514 -0.245782,0.21792 -0.405574,0.21792 h -0.119733 v 0.12107 h 3.124867 c 0.983345,0 1.779546,-0.387 2.387989,-1.16109 0.614591,-0.78216 0.92188,-1.80628 0.92188,-3.07224 0,-1.26597 -0.307289,-2.28633 -0.92188,-3.06043 -0.608443,-0.78216 -1.404644,-1.17291 -2.387989,-1.17291 z m 1.309003,0.36263 h 1.815864 c 0.78053,0 1.410754,0.35465 1.890135,1.06424 0.485528,0.70959 0.728322,1.64532 0.728322,2.80647 0,0.76603 -0.110949,1.44299 -0.332201,2.03162 -0.215103,0.58057 -0.522398,1.03226 -0.921884,1.35481 -0.393336,0.32254 -0.848116,0.48369 -1.364372,0.48369 h -1.815864 z"
           id="path1905"
           inkscape:connector-curvature="0" />
        <path
           id="path1907"
           d="m 79.608253,167.66897 c -1.044804,0 -1.896028,0.35658 -2.553642,1.06919 -0.657611,0.70555 -0.986254,1.63324 -0.986254,2.78329 0,1.15006 0.328643,2.08154 0.986254,2.79415 0.657614,0.70555 1.508838,1.05833 2.553642,1.05833 1.050949,0 1.905482,-0.35278 2.563093,-1.05833 0.657613,-0.71261 0.986256,-1.64409 0.986256,-2.79415 0,-1.15005 -0.328643,-2.07774 -0.986256,-2.78329 -0.657611,-0.71261 -1.512144,-1.06919 -2.563093,-1.06919 z m 0,0.31729 c 0.848135,0 1.530528,0.325 2.046784,0.97411 0.522402,0.64911 0.783693,1.50275 0.783693,2.56108 0,1.05833 -0.261291,1.91197 -0.783693,2.56108 -0.516256,0.64911 -1.198649,0.97359 -2.046784,0.97359 -0.848135,0 -1.533384,-0.32448 -2.055787,-0.97359 -0.516256,-0.64911 -0.774241,-1.50275 -0.774241,-2.56108 0,-1.05833 0.257985,-1.91197 0.774241,-2.56108 0.522403,-0.64911 1.207652,-0.97411 2.055787,-0.97411 z"
           style="font-style:normal;font-variant:normal;font-weight:normal;font-stretch:normal;font-size:10.58333302px;line-height:1.25;font-family:'Cinzel Decorative';-inkscape-font-specification:'Cinzel Decorative, Normal';font-variant-ligatures:normal;font-variant-caps:normal;font-variant-numeric:normal;font-feature-settings:normal;text-align:start;letter-spacing:0px;word-spacing:0px;writing-mode:lr-tb;text-anchor:start;fill:#000000;fill-opacity:1;stroke:#000000;stroke-width:0.29501581;stroke-miterlimit:4;stroke-dasharray:none;stroke-opacity:1"
           inkscape:connector-curvature="0" />
        <path
           inkscape:connector-curvature="0"
           style="font-style:normal;font-variant:normal;font-weight:normal;font-stretch:normal;font-size:10.58333302px;line-height:1.25;font-family:'Cinzel Decorative';-inkscape-font-specification:'Cinzel Decorative, Normal';font-variant-ligatures:normal;font-variant-caps:normal;font-variant-numeric:normal;font-feature-settings:normal;text-align:start;letter-spacing:0px;word-spacing:0px;writing-mode:lr-tb;text-anchor:start;fill:#000000;fill-opacity:1;stroke:#000000;stroke-width:0.29501581;stroke-miterlimit:4;stroke-dasharray:none;stroke-opacity:1"
           d="m 87.257741,167.66897 c -1.044804,0 -1.896028,0.35658 -2.553642,1.06919 -0.657611,0.70555 -0.986254,1.63324 -0.986254,2.78329 0,1.15006 0.328643,2.08154 0.986254,2.79415 0.657614,0.70555 1.508838,1.05833 2.553642,1.05833 1.050949,0 1.905482,-0.35278 2.563093,-1.05833 0.657613,-0.71261 0.986256,-1.64409 0.986256,-2.79415 0,-1.15005 -0.328643,-2.07774 -0.986256,-2.78329 -0.657611,-0.71261 -1.512144,-1.06919 -2.563093,-1.06919 z m 0,0.31729 c 0.848135,0 1.530528,0.325 2.046784,0.97411 0.522402,0.64911 0.783693,1.50275 0.783693,2.56108 0,1.05833 -0.261291,1.91197 -0.783693,2.56108 -0.516256,0.64911 -1.198649,0.97359 -2.046784,0.97359 -0.848135,0 -1.533384,-0.32448 -2.055787,-0.97359 -0.516256,-0.64911 -0.774241,-1.50275 -0.774241,-2.56108 0,-1.05833 0.257985,-1.91197 0.774241,-2.56108 0.522403,-0.64911 1.207652,-0.97411 2.055787,-0.97411 z"
           id="path1909" />
      </g>
    </g>
    <text
       xml:space="preserve"
       style="font-style:normal;font-variant:normal;font-weight:normal;font-stretch:normal;font-size:15.41002274px;line-height:1.25;font-family:'Berkshire Swash';-inkscape-font-specification:'Berkshire Swash, Normal';font-variant-ligatures:normal;font-variant-caps:normal;font-variant-numeric:normal;font-feature-settings:normal;text-align:start;letter-spacing:0px;word-spacing:0px;writing-mode:lr-tb;text-anchor:start;fill:#000000;fill-opacity:1;stroke:none;stroke-width:0.38524589;"
       x="103.05964"
       y="166.87373"
       id="text1931"><tspan
         sodipodi:role="line"
         id="tspan1929"
         x="103.05964"
         y="166.87373"
         style="font-style:normal;font-variant:normal;font-weight:normal;font-stretch:normal;font-size:15.41002274px;font-family:'Berkshire Swash';-inkscape-font-specification:'Berkshire Swash, Normal';font-variant-ligatures:normal;font-variant-caps:normal;font-variant-numeric:normal;font-feature-settings:normal;text-align:start;writing-mode:lr-tb;text-anchor:start;fill:#000000;fill-opacity:1;stroke-width:0.38524589;">made real good</tspan></text>
    <g
       id="g1937"
       transform="translate(2.4642518,-2.6458365)">
      <path
         inkscape:connector-curvature="0"
         id="path1933"
         d="m 209.83548,164.77826 v 1.83921 h 23.32953 c 0.84594,0.0175 1.56187,0.1974 2.14753,0.53653 0.58565,0.35793 0.87804,0.78116 0.87804,1.27098 v 0.36723 h 0.48966 v -6.18866 h -0.48966 v 0.36723 c 0,0.48982 -0.29239,0.90466 -0.87804,1.24378 -0.58566,0.35796 -1.30159,0.54486 -2.14753,0.5637 z"
         style="font-style:normal;font-variant:normal;font-weight:normal;font-stretch:normal;font-size:11.14067268px;line-height:1.25;font-family:'Cinzel Decorative';-inkscape-font-specification:'Cinzel Decorative, Normal';font-variant-ligatures:normal;font-variant-caps:normal;font-variant-numeric:normal;font-feature-settings:normal;text-align:start;letter-spacing:0px;word-spacing:0px;writing-mode:lr-tb;text-anchor:start;fill:#000000;fill-opacity:1;stroke:none;stroke-width:0.92842209;stroke-opacity:1" />
      <path
         inkscape:connector-curvature="0"
         id="path1935"
         d="m 202.51639,162.60355 v 6.18866 h 0.48965 v -0.36723 c 0,-0.48982 0.29242,-0.91305 0.87806,-1.27098 0.61817,-0.35796 1.34993,-0.53653 2.19588,-0.53653 h 2.73086 v -1.83921 h -2.73086 c -0.84595,-0.0205 -1.57771,-0.20589 -2.19588,-0.5637 -0.58563,-0.33912 -0.87806,-0.75396 -0.87806,-1.24378 v -0.36723 z"
         style="font-style:normal;font-variant:normal;font-weight:normal;font-stretch:normal;font-size:11.14067268px;line-height:1.25;font-family:'Cinzel Decorative';-inkscape-font-specification:'Cinzel Decorative, Normal';font-variant-ligatures:normal;font-variant-caps:normal;font-variant-numeric:normal;font-feature-settings:normal;text-align:start;letter-spacing:0px;word-spacing:0px;writing-mode:lr-tb;text-anchor:start;fill:#d40000;fill-opacity:1;stroke:none;stroke-width:0.92842209;stroke-opacity:1" />
    </g>
    <g
       transform="matrix(-1,0,0,1,301.69632,-2.6458365)"
       id="g1943">
      <path
         style="font-style:normal;font-variant:normal;font-weight:normal;font-stretch:normal;font-size:11.14067268px;line-height:1.25;font-family:'Cinzel Decorative';-inkscape-font-specification:'Cinzel Decorative, Normal';font-variant-ligatures:normal;font-variant-caps:normal;font-variant-numeric:normal;font-feature-settings:normal;text-align:start;letter-spacing:0px;word-spacing:0px;writing-mode:lr-tb;text-anchor:start;fill:#000000;fill-opacity:1;stroke:none;stroke-width:0.92842209;stroke-opacity:1"
         d="m 209.83548,164.77826 v 1.83921 h 23.32953 c 0.84594,0.0175 1.56187,0.1974 2.14753,0.53653 0.58565,0.35793 0.87804,0.78116 0.87804,1.27098 v 0.36723 h 0.48966 v -6.18866 h -0.48966 v 0.36723 c 0,0.48982 -0.29239,0.90466 -0.87804,1.24378 -0.58566,0.35796 -1.30159,0.54486 -2.14753,0.5637 z"
         id="path1939"
         inkscape:connector-curvature="0" />
      <path
         style="font-style:normal;font-variant:normal;font-weight:normal;font-stretch:normal;font-size:11.14067268px;line-height:1.25;font-family:'Cinzel Decorative';-inkscape-font-specification:'Cinzel Decorative, Normal';font-variant-ligatures:normal;font-variant-caps:normal;font-variant-numeric:normal;font-feature-settings:normal;text-align:start;letter-spacing:0px;word-spacing:0px;writing-mode:lr-tb;text-anchor:start;fill:#d40000;fill-opacity:1;stroke:none;stroke-width:0.92842209;stroke-opacity:1"
         d="m 202.51639,162.60355 v 6.18866 h 0.48965 v -0.36723 c 0,-0.48982 0.29242,-0.91305 0.87806,-1.27098 0.61817,-0.35796 1.34993,-0.53653 2.19588,-0.53653 h 2.73086 v -1.83921 h -2.73086 c -0.84595,-0.0205 -1.57771,-0.20589 -2.19588,-0.5637 -0.58563,-0.33912 -0.87806,-0.75396 -0.87806,-1.24378 v -0.36723 z"
         id="path1941"
         inkscape:connector-curvature="0" />
    </g>
    <g
       id="g2094"
       transform="translate(-14.469082,102.498)">
      <path
         id="path2082"
         d="m 142.73805,120.16533 v 0.48871 h 0.36694 c 0.48982,0 0.90488,0.29256 1.24399,0.87822 0.35794,0.58566 0.54555,1.30187 0.56439,2.14781 v 27.08463 c -0.019,0.84594 -0.20644,1.57832 -0.56439,2.1965 -0.33911,0.58563 -0.75417,0.87822 -1.24399,0.87822 h -0.36694 v 0.48872 h 6.18864 v -0.48872 h -0.36695 c -0.48983,0 -0.914,-0.29259 -1.27195,-0.87822 -0.35794,-0.61818 -0.53642,-1.35056 -0.53642,-2.1965 v -27.08463 c 0.019,-0.84594 0.19731,-1.56215 0.53642,-2.14781 0.35795,-0.58566 0.78212,-0.87822 1.27195,-0.87822 h 0.36695 v -0.48871 z"
         style="font-style:normal;font-variant:normal;font-weight:normal;font-stretch:normal;font-size:11.14067268px;line-height:1.25;font-family:'Cinzel Decorative';-inkscape-font-specification:'Cinzel Decorative, Normal';font-variant-ligatures:normal;font-variant-caps:normal;font-variant-numeric:normal;font-feature-settings:normal;text-align:start;letter-spacing:0px;word-spacing:0px;writing-mode:lr-tb;text-anchor:start;fill:#d40000;fill-opacity:1;stroke:#d40000;stroke-width:0.92842215;stroke-opacity:1"
         inkscape:connector-curvature="0" />
      <rect
         ry="0.019422578"
         y="110.13776"
         x="142.33797"
         height="9.1754885"
         width="1.4491926"
         id="rect2084"
         style="opacity:1;fill:#d40000;fill-opacity:1;stroke:none;stroke-width:2.81820488;stroke-miterlimit:4;stroke-dasharray:none;stroke-dashoffset:0;stroke-opacity:1" />
      <rect
         style="opacity:1;fill:#d40000;fill-opacity:1;stroke:none;stroke-width:2.81820488;stroke-miterlimit:4;stroke-dasharray:none;stroke-dashoffset:0;stroke-opacity:1"
         id="rect2086"
         width="1.4491926"
         height="9.1754885"
         x="145.09192"
         y="110.13776"
         ry="0.019422578" />
      <rect
         ry="0.019422578"
         y="110.13776"
         x="147.79875"
         height="9.1754885"
         width="1.4491926"
         id="rect2088"
         style="opacity:1;fill:#d40000;fill-opacity:1;stroke:none;stroke-width:2.81820488;stroke-miterlimit:4;stroke-dasharray:none;stroke-dashoffset:0;stroke-opacity:1" />
      <path
         inkscape:connector-curvature="0"
         id="path2090"
         d="m 130.2464,122.10292 v 6.7826 h 0.44583 v -0.40199 c 0,-0.53683 0.2666,-1.00112 0.80097,-1.3934 0.56407,-0.3923 1.23207,-0.5894 2.00395,-0.5894 h 24.71537 c 0.0241,6.4e-4 0.0456,0.005 0.0695,0.006 h 3.13589 v -4.40386 h -0.44432 v 0.40352 c 0,0.5368 -0.26811,0.99151 -0.80248,1.36317 -0.53437,0.39244 -1.18673,0.59764 -1.95861,0.61811 h -24.71536 c -0.77188,-0.0207 -1.43989,-0.22584 -2.00396,-0.61811 -0.53437,-0.37166 -0.80097,-0.82637 -0.80097,-1.36317 v -0.40352 z"
         style="font-style:normal;font-variant:normal;font-weight:normal;font-stretch:normal;font-size:11.14067268px;line-height:1.25;font-family:'Cinzel Decorative';-inkscape-font-specification:'Cinzel Decorative, Normal';font-variant-ligatures:normal;font-variant-caps:normal;font-variant-numeric:normal;font-feature-settings:normal;text-align:start;letter-spacing:0px;word-spacing:0px;writing-mode:lr-tb;text-anchor:start;fill:#d40000;fill-opacity:1;stroke:none;stroke-width:0.92842215" />
      <path
         inkscape:connector-curvature="0"
         id="path2092"
         d="m 150.15508,127.31334 c -0.0134,0 -0.0228,0.0146 -0.0228,0.0293 v 0.56986 a 6.2791316,3.8952544 0 0 0 5.46297,2.32994 h 0.6549 a 6.2791316,3.8952544 0 0 0 5.203,-2.09914 v -0.80066 c 0,-0.0146 -0.0114,-0.0293 -0.0249,-0.0293 z"
         style="opacity:1;fill:#d40000;fill-opacity:1;stroke:none;stroke-width:4.44784069;stroke-miterlimit:4;stroke-dasharray:none;stroke-dashoffset:0;stroke-opacity:1" />
    </g>
    <text
       xml:space="preserve"
       style="font-style:normal;font-variant:normal;font-weight:normal;font-stretch:normal;font-size:15.41002274px;line-height:1.25;font-family:'Berkshire Swash';-inkscape-font-specification:'Berkshire Swash, Normal';font-variant-ligatures:normal;font-variant-caps:normal;font-variant-numeric:normal;font-feature-settings:normal;text-align:start;letter-spacing:0px;word-spacing:0px;writing-mode:lr-tb;text-anchor:start;fill:#1a1a1a;fill-opacity:1;stroke:none;stroke-width:0.38524589"
       x="103.05964"
       y="272.01758"
       id="text2098"><tspan
         sodipodi:role="line"
         id="tspan2096"
         x="103.05964"
         y="272.01758"
         style="font-style:normal;font-variant:normal;font-weight:normal;font-stretch:normal;font-size:15.41002274px;font-family:'Berkshire Swash';-inkscape-font-specification:'Berkshire Swash, Normal';font-variant-ligatures:normal;font-variant-caps:normal;font-variant-numeric:normal;font-feature-settings:normal;text-align:start;writing-mode:lr-tb;text-anchor:start;fill:#1a1a1a;fill-opacity:1;stroke-width:0.38524589">made real good</tspan></text>
    <g
       id="g2104"
       transform="translate(2.4642518,102.498)">
      <path
         inkscape:connector-curvature="0"
         id="path2100"
         d="m 209.83548,164.77826 v 1.83921 h 23.32953 c 0.84594,0.0175 1.56187,0.1974 2.14753,0.53653 0.58565,0.35793 0.87804,0.78116 0.87804,1.27098 v 0.36723 h 0.48966 v -6.18866 h -0.48966 v 0.36723 c 0,0.48982 -0.29239,0.90466 -0.87804,1.24378 -0.58566,0.35796 -1.30159,0.54486 -2.14753,0.5637 z"
         style="font-style:normal;font-variant:normal;font-weight:normal;font-stretch:normal;font-size:11.14067268px;line-height:1.25;font-family:'Cinzel Decorative';-inkscape-font-specification:'Cinzel Decorative, Normal';font-variant-ligatures:normal;font-variant-caps:normal;font-variant-numeric:normal;font-feature-settings:normal;text-align:start;letter-spacing:0px;word-spacing:0px;writing-mode:lr-tb;text-anchor:start;fill:#000000;fill-opacity:1;stroke:none;stroke-width:0.92842209;stroke-opacity:1" />
      <path
         inkscape:connector-curvature="0"
         id="path2102"
         d="m 202.51639,162.60355 v 6.18866 h 0.48965 v -0.36723 c 0,-0.48982 0.29242,-0.91305 0.87806,-1.27098 0.61817,-0.35796 1.34993,-0.53653 2.19588,-0.53653 h 2.73086 v -1.83921 h -2.73086 c -0.84595,-0.0205 -1.57771,-0.20589 -2.19588,-0.5637 -0.58563,-0.33912 -0.87806,-0.75396 -0.87806,-1.24378 v -0.36723 z"
         style="font-style:normal;font-variant:normal;font-weight:normal;font-stretch:normal;font-size:11.14067268px;line-height:1.25;font-family:'Cinzel Decorative';-inkscape-font-specification:'Cinzel Decorative, Normal';font-variant-ligatures:normal;font-variant-caps:normal;font-variant-numeric:normal;font-feature-settings:normal;text-align:start;letter-spacing:0px;word-spacing:0px;writing-mode:lr-tb;text-anchor:start;fill:#d40000;fill-opacity:1;stroke:none;stroke-width:0.92842209;stroke-opacity:1" />
    </g>
    <g
       transform="matrix(-1,0,0,1,301.69632,102.498)"
       id="g2110">
      <path
         style="font-style:normal;font-variant:normal;font-weight:normal;font-stretch:normal;font-size:11.14067268px;line-height:1.25;font-family:'Cinzel Decorative';-inkscape-font-specification:'Cinzel Decorative, Normal';font-variant-ligatures:normal;font-variant-caps:normal;font-variant-numeric:normal;font-feature-settings:normal;text-align:start;letter-spacing:0px;word-spacing:0px;writing-mode:lr-tb;text-anchor:start;fill:#000000;fill-opacity:1;stroke:none;stroke-width:0.92842209;stroke-opacity:1"
         d="m 209.83548,164.77826 v 1.83921 h 23.32953 c 0.84594,0.0175 1.56187,0.1974 2.14753,0.53653 0.58565,0.35793 0.87804,0.78116 0.87804,1.27098 v 0.36723 h 0.48966 v -6.18866 h -0.48966 v 0.36723 c 0,0.48982 -0.29239,0.90466 -0.87804,1.24378 -0.58566,0.35796 -1.30159,0.54486 -2.14753,0.5637 z"
         id="path2106"
         inkscape:connector-curvature="0" />
      <path
         style="font-style:normal;font-variant:normal;font-weight:normal;font-stretch:normal;font-size:11.14067268px;line-height:1.25;font-family:'Cinzel Decorative';-inkscape-font-specification:'Cinzel Decorative, Normal';font-variant-ligatures:normal;font-variant-caps:normal;font-variant-numeric:normal;font-feature-settings:normal;text-align:start;letter-spacing:0px;word-spacing:0px;writing-mode:lr-tb;text-anchor:start;fill:#d40000;fill-opacity:1;stroke:none;stroke-width:0.92842209;stroke-opacity:1"
         d="m 202.51639,162.60355 v 6.18866 h 0.48965 v -0.36723 c 0,-0.48982 0.29242,-0.91305 0.87806,-1.27098 0.61817,-0.35796 1.34993,-0.53653 2.19588,-0.53653 h 2.73086 v -1.83921 h -2.73086 c -0.84595,-0.0205 -1.57771,-0.20589 -2.19588,-0.5637 -0.58563,-0.33912 -0.87806,-0.75396 -0.87806,-1.24378 v -0.36723 z"
         id="path2108"
         inkscape:connector-curvature="0" />
    </g>
    <g
       transform="translate(0,102.498)"
       id="g2124"
       style="fill:#ffffff;stroke:#ffffff;stroke-opacity:1">
      <path
         inkscape:connector-curvature="0"
         id="path2112"
         d="m 74.291839,131.55443 c -1.763883,0 -3.164035,0.54448 -4.200316,1.63175 -1.036278,1.06597 -1.555133,2.37707 -1.555133,3.93338 0,1.55632 0.651536,2.82465 1.952397,3.80535 l 5.952461,4.54079 c 1.014228,0.76749 1.742351,1.60976 2.183318,2.52647 0.463021,0.91674 0.694408,1.7689 0.694408,2.55772 0,0.14926 -0.01188,0.29881 -0.03391,0.44816 -0.2205,2.11062 -1.222597,3.61413 -3.008529,4.50953 -0.948088,0.49035 -2.072631,0.73548 -3.373493,0.73548 -1.278818,0 -2.425468,-0.33064 -3.439705,-0.99155 -1.74183,-1.10861 -2.612877,-2.66481 -2.612877,-4.66883 0,-1.68423 0.573326,-3.2519 1.719854,-4.70161 l -0.297155,-0.22329 c -0.881938,0.91675 -1.47738,1.83304 -1.786057,2.74978 -0.308687,0.89541 -0.463474,1.60937 -0.463474,2.14236 0,0.51166 0.03234,0.93773 0.0985,1.27885 0.418927,2.25985 1.665895,3.85881 3.738454,4.79687 1.102431,0.51169 2.358034,0.76826 3.769142,0.76826 2.315096,0 4.167753,-0.60705 5.556812,-1.82224 1.609548,-1.40709 2.414249,-3.0916 2.414249,-5.05296 0,-2.62232 -1.212987,-4.86116 -3.63833,-6.71595 l -6.118794,-4.66883 c -0.970135,-0.74618 -1.455005,-1.67395 -1.455005,-2.78256 0,-1.12996 0.37592,-2.04625 1.125565,-2.74978 0.749654,-0.72487 1.675179,-1.08836 2.777604,-1.08836 1.124475,0 2.049994,0.29941 2.777595,0.89631 0.749654,0.57561 1.135828,1.37508 1.157872,2.39843 h 0.331052 l -0.06622,-3.93338 h -1.32259 c -1.036287,-0.21309 -1.995781,-0.32012 -2.877725,-0.32012 z"
         style="font-style:normal;font-variant:normal;font-weight:normal;font-stretch:normal;font-size:10.58333302px;line-height:1.25;font-family:'Cinzel Decorative';-inkscape-font-specification:'Cinzel Decorative, Normal';font-variant-ligatures:normal;font-variant-caps:normal;font-variant-numeric:normal;font-feature-settings:normal;text-align:start;letter-spacing:0px;word-spacing:0px;writing-mode:lr-tb;text-anchor:start;fill:#ffffff;fill-opacity:1;stroke:#ffffff;stroke-width:0.87734783;stroke-miterlimit:4;stroke-dasharray:none;stroke-opacity:1" />
      <path
         inkscape:connector-curvature="0"
         id="path2114"
         d="m 93.406638,131.55443 c -3.232362,0 -5.865842,1.0687 -7.900336,3.20443 -2.034484,2.11458 -3.051225,4.89493 -3.051225,8.34171 0,3.4468 1.016741,6.23851 3.051225,8.37425 2.034494,2.11458 4.667974,3.17188 7.900336,3.17188 3.251378,0 5.895089,-1.0573 7.929572,-3.17188 2.0345,-2.13574 3.05124,-4.92745 3.05124,-8.37425 0,-3.44678 -1.01674,-6.22713 -3.05124,-8.34171 -2.034483,-2.13573 -4.678194,-3.20443 -7.929572,-3.20443 z m 0,0.95094 c 2.623917,0 4.735073,0.97405 6.332241,2.91947 1.616181,1.94543 2.424551,4.50384 2.424551,7.67573 0,3.17188 -0.80837,5.7303 -2.424551,7.67572 -1.597168,1.94543 -3.708324,2.91792 -6.332241,2.91792 -2.62392,0 -4.743911,-0.97249 -6.360097,-2.91792 -1.597164,-1.94542 -2.395308,-4.50384 -2.395308,-7.67572 0,-3.17189 0.798144,-5.7303 2.395308,-7.67573 1.616186,-1.94542 3.736177,-2.91947 6.360097,-2.91947 z"
         style="font-style:normal;font-variant:normal;font-weight:normal;font-stretch:normal;font-size:10.58333302px;line-height:1.25;font-family:'Cinzel Decorative';-inkscape-font-specification:'Cinzel Decorative, Normal';font-variant-ligatures:normal;font-variant-caps:normal;font-variant-numeric:normal;font-feature-settings:normal;text-align:start;letter-spacing:0px;word-spacing:0px;writing-mode:lr-tb;text-anchor:start;fill:#ffffff;fill-opacity:1;stroke:#ffffff;stroke-width:0.87734783;stroke-miterlimit:4;stroke-dasharray:none;stroke-opacity:1" />
      <path
         inkscape:connector-curvature="0"
         id="path2116"
         d="m 105.04477,131.99893 v 0.31751 h 0.45538 c 0.28522,0 0.54196,0.062 0.77012,0.18881 0.49436,0.29611 0.74226,0.76263 0.74226,1.39702 v 12.49708 c 0,2.47408 0.72186,4.47126 2.16692,5.99377 1.46407,1.50135 3.36545,2.25346 5.70416,2.25346 2.33872,0 4.2122,-0.76194 5.61923,-2.28445 1.40703,-1.52251 2.10982,-3.52122 2.10982,-5.9953 v -12.56058 c 0.0191,-0.42292 0.17156,-0.77208 0.45678,-1.04697 0.30421,-0.29611 0.65631,-0.44296 1.0556,-0.44296 h 0.45678 v -0.31751 h -5.27663 v 0.31751 h 0.45539 c 0.4183,0 0.77039,0.14685 1.0556,0.44296 0.28522,0.27483 0.43777,0.63541 0.45678,1.07949 v 12.52806 c 0,2.17803 -0.57953,3.94345 -1.73938,5.2968 -1.15985,1.3322 -2.67241,1.99947 -4.53577,1.99947 -1.86335,0 -3.35545,-0.70968 -4.47727,-2.12648 -1.1028,-1.41677 -1.65443,-3.27687 -1.65443,-5.58177 v -12.11608 c 0.0191,-0.44408 0.17159,-0.8046 0.45678,-1.07949 0.28522,-0.29611 0.6373,-0.44296 1.0556,-0.44296 h 0.45539 v -0.31751 z"
         style="font-style:normal;font-variant:normal;font-weight:normal;font-stretch:normal;font-size:10.58333302px;line-height:1.25;font-family:'Cinzel Decorative';-inkscape-font-specification:'Cinzel Decorative, Normal';font-variant-ligatures:normal;font-variant-caps:normal;font-variant-numeric:normal;font-feature-settings:normal;text-align:start;letter-spacing:0px;word-spacing:0px;writing-mode:lr-tb;text-anchor:start;fill:#ffffff;fill-opacity:1;stroke:#ffffff;stroke-width:0.87734783;stroke-miterlimit:4;stroke-dasharray:none;stroke-opacity:1" />
      <path
         style="font-style:normal;font-variant:normal;font-weight:normal;font-stretch:normal;font-size:10.58333302px;line-height:1.25;font-family:'Cinzel Decorative';-inkscape-font-specification:'Cinzel Decorative, Normal';font-variant-ligatures:normal;font-variant-caps:normal;font-variant-numeric:normal;font-feature-settings:normal;text-align:start;letter-spacing:0px;word-spacing:0px;writing-mode:lr-tb;text-anchor:start;fill:#ffffff;fill-opacity:1;stroke:#ffffff;stroke-width:0.87734783;stroke-miterlimit:4;stroke-dasharray:none;stroke-opacity:1"
         d="m 74.291839,131.55443 c -1.763883,0 -3.164035,0.54448 -4.200316,1.63175 -1.036278,1.06597 -1.555133,2.37707 -1.555133,3.93338 0,1.55632 0.651536,2.82465 1.952397,3.80535 l 5.952461,4.54079 c 1.014228,0.76749 1.742351,1.60976 2.183318,2.52647 0.463021,0.91674 0.694408,1.7689 0.694408,2.55772 0,0.14926 -0.01188,0.29881 -0.03391,0.44816 -0.2205,2.11062 -1.222597,3.61413 -3.008529,4.50953 -0.948088,0.49035 -2.072631,0.73548 -3.373493,0.73548 -1.278818,0 -2.425468,-0.33064 -3.439705,-0.99155 -1.74183,-1.10861 -2.612877,-2.66481 -2.612877,-4.66883 0,-1.68423 0.573326,-3.2519 1.719854,-4.70161 l -0.297155,-0.22329 c -0.881938,0.91675 -1.47738,1.83304 -1.786057,2.74978 -0.308687,0.89541 -0.463474,1.60937 -0.463474,2.14236 0,0.51166 0.03234,0.93773 0.0985,1.27885 0.418927,2.25985 1.665895,3.85881 3.738454,4.79687 1.102431,0.51169 2.358034,0.76826 3.769142,0.76826 2.315096,0 4.167753,-0.60705 5.556812,-1.82224 1.609548,-1.40709 2.414249,-3.0916 2.414249,-5.05296 0,-2.62232 -1.212987,-4.86116 -3.63833,-6.71595 l -6.118794,-4.66883 c -0.970135,-0.74618 -1.455005,-1.67395 -1.455005,-2.78256 0,-1.12996 0.37592,-2.04625 1.125565,-2.74978 0.749654,-0.72487 1.675179,-1.08836 2.777604,-1.08836 1.124475,0 2.049994,0.29941 2.777595,0.89631 0.749654,0.57561 1.135828,1.37508 1.157872,2.39843 h 0.331052 l -0.06622,-3.93338 h -1.32259 c -1.036287,-0.21309 -1.995781,-0.32012 -2.877725,-0.32012 z"
         id="path2118"
         inkscape:connector-curvature="0" />
      <path
         style="font-style:normal;font-variant:normal;font-weight:normal;font-stretch:normal;font-size:10.58333302px;line-height:1.25;font-family:'Cinzel Decorative';-inkscape-font-specification:'Cinzel Decorative, Normal';font-variant-ligatures:normal;font-variant-caps:normal;font-variant-numeric:normal;font-feature-settings:normal;text-align:start;letter-spacing:0px;word-spacing:0px;writing-mode:lr-tb;text-anchor:start;fill:#ffffff;fill-opacity:1;stroke:#ffffff;stroke-width:0.87734783;stroke-miterlimit:4;stroke-dasharray:none;stroke-opacity:1"
         d="m 93.406638,131.55443 c -3.232362,0 -5.865842,1.0687 -7.900336,3.20443 -2.034484,2.11458 -3.051225,4.89493 -3.051225,8.34171 0,3.4468 1.016741,6.23851 3.051225,8.37425 2.034494,2.11458 4.667974,3.17188 7.900336,3.17188 3.251378,0 5.895089,-1.0573 7.929572,-3.17188 2.0345,-2.13574 3.05124,-4.92745 3.05124,-8.37425 0,-3.44678 -1.01674,-6.22713 -3.05124,-8.34171 -2.034483,-2.13573 -4.678194,-3.20443 -7.929572,-3.20443 z m 0,0.95094 c 2.623917,0 4.735073,0.97405 6.332241,2.91947 1.616181,1.94543 2.424551,4.50384 2.424551,7.67573 0,3.17188 -0.80837,5.7303 -2.424551,7.67572 -1.597168,1.94543 -3.708324,2.91792 -6.332241,2.91792 -2.62392,0 -4.743911,-0.97249 -6.360097,-2.91792 -1.597164,-1.94542 -2.395308,-4.50384 -2.395308,-7.67572 0,-3.17189 0.798144,-5.7303 2.395308,-7.67573 1.616186,-1.94542 3.736177,-2.91947 6.360097,-2.91947 z"
         id="path2120"
         inkscape:connector-curvature="0" />
      <path
         style="font-style:normal;font-variant:normal;font-weight:normal;font-stretch:normal;font-size:10.58333302px;line-height:1.25;font-family:'Cinzel Decorative';-inkscape-font-specification:'Cinzel Decorative, Normal';font-variant-ligatures:normal;font-variant-caps:normal;font-variant-numeric:normal;font-feature-settings:normal;text-align:start;letter-spacing:0px;word-spacing:0px;writing-mode:lr-tb;text-anchor:start;fill:#ffffff;fill-opacity:1;stroke:#ffffff;stroke-width:0.87734783;stroke-miterlimit:4;stroke-dasharray:none;stroke-opacity:1"
         d="m 105.04477,131.99893 v 0.31751 h 0.45538 c 0.28522,0 0.54196,0.062 0.77012,0.18881 0.49436,0.29611 0.74226,0.76263 0.74226,1.39702 v 12.49708 c 0,2.47408 0.72186,4.47126 2.16692,5.99377 1.46407,1.50135 3.36545,2.25346 5.70416,2.25346 2.33872,0 4.2122,-0.76194 5.61923,-2.28445 1.40703,-1.52251 2.10982,-3.52122 2.10982,-5.9953 v -12.56058 c 0.0191,-0.42292 0.17156,-0.77208 0.45678,-1.04697 0.30421,-0.29611 0.65631,-0.44296 1.0556,-0.44296 h 0.45678 v -0.31751 h -5.27663 v 0.31751 h 0.45539 c 0.4183,0 0.77039,0.14685 1.0556,0.44296 0.28522,0.27483 0.43777,0.63541 0.45678,1.07949 v 12.52806 c 0,2.17803 -0.57953,3.94345 -1.73938,5.2968 -1.15985,1.3322 -2.67241,1.99947 -4.53577,1.99947 -1.86335,0 -3.35545,-0.70968 -4.47727,-2.12648 -1.1028,-1.41677 -1.65443,-3.27687 -1.65443,-5.58177 v -12.11608 c 0.0191,-0.44408 0.17159,-0.8046 0.45678,-1.07949 0.28522,-0.29611 0.6373,-0.44296 1.0556,-0.44296 h 0.45539 v -0.31751 z"
         id="path2122"
         inkscape:connector-curvature="0" />
    </g>
    <g
       transform="translate(0,102.498)"
       id="g2146"
       style="fill:#ffffff;stroke:#ffffff;stroke-opacity:1">
      <g
         style="stroke:#ffffff;stroke-width:0.29501581;stroke-miterlimit:4;stroke-dasharray:none;stroke-opacity:1;fill:#ffffff"
         transform="matrix(3.0241442,0,0,2.9244927,-55.930797,-358.24144)"
         id="g2134">
        <path
           style="font-style:normal;font-variant:normal;font-weight:normal;font-stretch:normal;font-size:10.58333302px;line-height:1.25;font-family:'Cinzel Decorative';-inkscape-font-specification:'Cinzel Decorative, Normal';font-variant-ligatures:normal;font-variant-caps:normal;font-variant-numeric:normal;font-feature-settings:normal;text-align:start;letter-spacing:0px;word-spacing:0px;writing-mode:lr-tb;text-anchor:start;fill:#ffffff;fill-opacity:1;stroke:#ffffff;stroke-width:0.29501581;stroke-miterlimit:4;stroke-dasharray:none;stroke-opacity:1"
           d="m 75.859371,167.63927 c -0.06145,0.0282 -0.146396,0.0701 -0.349211,0.11944 -0.202815,0.0494 -2.415138,0.0586 -2.67941,0.0586 h -2.700837 l 0.009,0.10594 h 0.110735 c 0.153646,0 0.288803,0.0599 0.405574,0.17983 0.12292,0.11289 0.18456,0.2539 0.18456,0.42323 v 5.92677 c -0.0062,0.18345 -0.06779,0.34189 -0.18456,0.47595 -0.110626,0.127 -0.245782,0.19068 -0.405574,0.19068 h -0.119737 v 0.10594 h 2.018874 v -0.10594 h -0.120186 c -0.159795,0 -0.297806,-0.0637 -0.414579,-0.19068 -0.116773,-0.13406 -0.175106,-0.2925 -0.175106,-0.47595 v -2.72024 h 2.949765 c 0.122919,0.007 0.224399,0.0604 0.304293,0.15916 0.08604,0.0988 0.129192,0.21856 0.129192,0.35967 v 0.15865 h 0.09228 v -1.67226 h -0.09228 v 0.14832 c 0,0.14816 -0.04314,0.27174 -0.129192,0.37052 -0.08604,0.0988 -0.190378,0.15159 -0.313295,0.15864 h -2.940763 v -3.27008 l 3.111248,-0.038 c 0.513557,0.0211 1.241408,0.0145 1.240276,0.53583 l 0.0018,0.27866 0.06575,10e-4 z"
           id="path2126"
           inkscape:connector-curvature="0"
           sodipodi:nodetypes="ccsccscsccsccccscscccsccccsccccccccc" />
        <path
           style="font-style:normal;font-variant:normal;font-weight:normal;font-stretch:normal;font-size:10.58333302px;line-height:1.25;font-family:'Cinzel Decorative';-inkscape-font-specification:'Cinzel Decorative, Normal';font-variant-ligatures:normal;font-variant-caps:normal;font-variant-numeric:normal;font-feature-settings:normal;text-align:start;letter-spacing:0px;word-spacing:0px;writing-mode:lr-tb;text-anchor:start;fill:#ffffff;fill-opacity:1;stroke:#ffffff;stroke-width:0.29501581;stroke-miterlimit:4;stroke-dasharray:none;stroke-opacity:1"
           d="m 90.871876,167.81728 0.009,0.12107 h 0.110735 c 0.153646,0 0.288804,0.0685 0.405574,0.20552 0.12292,0.12902 0.184557,0.29018 0.184559,0.4837 v 6.77345 c -0.0062,0.20965 -0.06779,0.39073 -0.184559,0.54394 -0.110626,0.14514 -0.245782,0.21792 -0.405574,0.21792 h -0.119733 v 0.12107 h 3.124867 c 0.983345,0 1.779546,-0.387 2.387989,-1.16109 0.614591,-0.78216 0.92188,-1.80628 0.92188,-3.07224 0,-1.26597 -0.307289,-2.28633 -0.92188,-3.06043 -0.608443,-0.78216 -1.404644,-1.17291 -2.387989,-1.17291 z m 1.309003,0.36263 h 1.815864 c 0.78053,0 1.410754,0.35465 1.890135,1.06424 0.485528,0.70959 0.728322,1.64532 0.728322,2.80647 0,0.76603 -0.110949,1.44299 -0.332201,2.03162 -0.215103,0.58057 -0.522398,1.03226 -0.921884,1.35481 -0.393336,0.32254 -0.848116,0.48369 -1.364372,0.48369 h -1.815864 z"
           id="path2128"
           inkscape:connector-curvature="0" />
        <path
           id="path2130"
           d="m 79.608253,167.66897 c -1.044804,0 -1.896028,0.35658 -2.553642,1.06919 -0.657611,0.70555 -0.986254,1.63324 -0.986254,2.78329 0,1.15006 0.328643,2.08154 0.986254,2.79415 0.657614,0.70555 1.508838,1.05833 2.553642,1.05833 1.050949,0 1.905482,-0.35278 2.563093,-1.05833 0.657613,-0.71261 0.986256,-1.64409 0.986256,-2.79415 0,-1.15005 -0.328643,-2.07774 -0.986256,-2.78329 -0.657611,-0.71261 -1.512144,-1.06919 -2.563093,-1.06919 z m 0,0.31729 c 0.848135,0 1.530528,0.325 2.046784,0.97411 0.522402,0.64911 0.783693,1.50275 0.783693,2.56108 0,1.05833 -0.261291,1.91197 -0.783693,2.56108 -0.516256,0.64911 -1.198649,0.97359 -2.046784,0.97359 -0.848135,0 -1.533384,-0.32448 -2.055787,-0.97359 -0.516256,-0.64911 -0.774241,-1.50275 -0.774241,-2.56108 0,-1.05833 0.257985,-1.91197 0.774241,-2.56108 0.522403,-0.64911 1.207652,-0.97411 2.055787,-0.97411 z"
           style="font-style:normal;font-variant:normal;font-weight:normal;font-stretch:normal;font-size:10.58333302px;line-height:1.25;font-family:'Cinzel Decorative';-inkscape-font-specification:'Cinzel Decorative, Normal';font-variant-ligatures:normal;font-variant-caps:normal;font-variant-numeric:normal;font-feature-settings:normal;text-align:start;letter-spacing:0px;word-spacing:0px;writing-mode:lr-tb;text-anchor:start;fill:#ffffff;fill-opacity:1;stroke:#ffffff;stroke-width:0.29501581;stroke-miterlimit:4;stroke-dasharray:none;stroke-opacity:1"
           inkscape:connector-curvature="0" />
        <path
           inkscape:connector-curvature="0"
           style="font-style:normal;font-variant:normal;font-weight:normal;font-stretch:normal;font-size:10.58333302px;line-height:1.25;font-family:'Cinzel Decorative';-inkscape-font-specification:'Cinzel Decorative, Normal';font-variant-ligatures:normal;font-variant-caps:normal;font-variant-numeric:normal;font-feature-settings:normal;text-align:start;letter-spacing:0px;word-spacing:0px;writing-mode:lr-tb;text-anchor:start;fill:#ffffff;fill-opacity:1;stroke:#ffffff;stroke-width:0.29501581;stroke-miterlimit:4;stroke-dasharray:none;stroke-opacity:1"
           d="m 87.257741,167.66897 c -1.044804,0 -1.896028,0.35658 -2.553642,1.06919 -0.657611,0.70555 -0.986254,1.63324 -0.986254,2.78329 0,1.15006 0.328643,2.08154 0.986254,2.79415 0.657614,0.70555 1.508838,1.05833 2.553642,1.05833 1.050949,0 1.905482,-0.35278 2.563093,-1.05833 0.657613,-0.71261 0.986256,-1.64409 0.986256,-2.79415 0,-1.15005 -0.328643,-2.07774 -0.986256,-2.78329 -0.657611,-0.71261 -1.512144,-1.06919 -2.563093,-1.06919 z m 0,0.31729 c 0.848135,0 1.530528,0.325 2.046784,0.97411 0.522402,0.64911 0.783693,1.50275 0.783693,2.56108 0,1.05833 -0.261291,1.91197 -0.783693,2.56108 -0.516256,0.64911 -1.198649,0.97359 -2.046784,0.97359 -0.848135,0 -1.533384,-0.32448 -2.055787,-0.97359 -0.516256,-0.64911 -0.774241,-1.50275 -0.774241,-2.56108 0,-1.05833 0.257985,-1.91197 0.774241,-2.56108 0.522403,-0.64911 1.207652,-0.97411 2.055787,-0.97411 z"
           id="path2132" />
      </g>
      <g
         id="g2144"
         transform="matrix(3.0241442,0,0,2.9244927,-55.930797,-358.24144)"
         style="stroke:#ffffff;stroke-width:0.29501581;stroke-miterlimit:4;stroke-dasharray:none;stroke-opacity:1;fill:#ffffff">
        <path
           sodipodi:nodetypes="ccsccscsccsccccscscccsccccsccccccccc"
           inkscape:connector-curvature="0"
           id="path2136"
           d="m 75.859371,167.63927 c -0.06145,0.0282 -0.146396,0.0701 -0.349211,0.11944 -0.202815,0.0494 -2.415138,0.0586 -2.67941,0.0586 h -2.700837 l 0.009,0.10594 h 0.110735 c 0.153646,0 0.288803,0.0599 0.405574,0.17983 0.12292,0.11289 0.18456,0.2539 0.18456,0.42323 v 5.92677 c -0.0062,0.18345 -0.06779,0.34189 -0.18456,0.47595 -0.110626,0.127 -0.245782,0.19068 -0.405574,0.19068 h -0.119737 v 0.10594 h 2.018874 v -0.10594 h -0.120186 c -0.159795,0 -0.297806,-0.0637 -0.414579,-0.19068 -0.116773,-0.13406 -0.175106,-0.2925 -0.175106,-0.47595 v -2.72024 h 2.949765 c 0.122919,0.007 0.224399,0.0604 0.304293,0.15916 0.08604,0.0988 0.129192,0.21856 0.129192,0.35967 v 0.15865 h 0.09228 v -1.67226 h -0.09228 v 0.14832 c 0,0.14816 -0.04314,0.27174 -0.129192,0.37052 -0.08604,0.0988 -0.190378,0.15159 -0.313295,0.15864 h -2.940763 v -3.27008 l 3.111248,-0.038 c 0.513557,0.0211 1.241408,0.0145 1.240276,0.53583 l 0.0018,0.27866 0.06575,10e-4 z"
           style="font-style:normal;font-variant:normal;font-weight:normal;font-stretch:normal;font-size:10.58333302px;line-height:1.25;font-family:'Cinzel Decorative';-inkscape-font-specification:'Cinzel Decorative, Normal';font-variant-ligatures:normal;font-variant-caps:normal;font-variant-numeric:normal;font-feature-settings:normal;text-align:start;letter-spacing:0px;word-spacing:0px;writing-mode:lr-tb;text-anchor:start;fill:#ffffff;fill-opacity:1;stroke:#ffffff;stroke-width:0.29501581;stroke-miterlimit:4;stroke-dasharray:none;stroke-opacity:1" />
        <path
           inkscape:connector-curvature="0"
           id="path2138"
           d="m 90.871876,167.81728 0.009,0.12107 h 0.110735 c 0.153646,0 0.288804,0.0685 0.405574,0.20552 0.12292,0.12902 0.184557,0.29018 0.184559,0.4837 v 6.77345 c -0.0062,0.20965 -0.06779,0.39073 -0.184559,0.54394 -0.110626,0.14514 -0.245782,0.21792 -0.405574,0.21792 h -0.119733 v 0.12107 h 3.124867 c 0.983345,0 1.779546,-0.387 2.387989,-1.16109 0.614591,-0.78216 0.92188,-1.80628 0.92188,-3.07224 0,-1.26597 -0.307289,-2.28633 -0.92188,-3.06043 -0.608443,-0.78216 -1.404644,-1.17291 -2.387989,-1.17291 z m 1.309003,0.36263 h 1.815864 c 0.78053,0 1.410754,0.35465 1.890135,1.06424 0.485528,0.70959 0.728322,1.64532 0.728322,2.80647 0,0.76603 -0.110949,1.44299 -0.332201,2.03162 -0.215103,0.58057 -0.522398,1.03226 -0.921884,1.35481 -0.393336,0.32254 -0.848116,0.48369 -1.364372,0.48369 h -1.815864 z"
           style="font-style:normal;font-variant:normal;font-weight:normal;font-stretch:normal;font-size:10.58333302px;line-height:1.25;font-family:'Cinzel Decorative';-inkscape-font-specification:'Cinzel Decorative, Normal';font-variant-ligatures:normal;font-variant-caps:normal;font-variant-numeric:normal;font-feature-settings:normal;text-align:start;letter-spacing:0px;word-spacing:0px;writing-mode:lr-tb;text-anchor:start;fill:#ffffff;fill-opacity:1;stroke:#ffffff;stroke-width:0.29501581;stroke-miterlimit:4;stroke-dasharray:none;stroke-opacity:1" />
        <path
           inkscape:connector-curvature="0"
           style="font-style:normal;font-variant:normal;font-weight:normal;font-stretch:normal;font-size:10.58333302px;line-height:1.25;font-family:'Cinzel Decorative';-inkscape-font-specification:'Cinzel Decorative, Normal';font-variant-ligatures:normal;font-variant-caps:normal;font-variant-numeric:normal;font-feature-settings:normal;text-align:start;letter-spacing:0px;word-spacing:0px;writing-mode:lr-tb;text-anchor:start;fill:#ffffff;fill-opacity:1;stroke:#ffffff;stroke-width:0.29501581;stroke-miterlimit:4;stroke-dasharray:none;stroke-opacity:1"
           d="m 79.608253,167.66897 c -1.044804,0 -1.896028,0.35658 -2.553642,1.06919 -0.657611,0.70555 -0.986254,1.63324 -0.986254,2.78329 0,1.15006 0.328643,2.08154 0.986254,2.79415 0.657614,0.70555 1.508838,1.05833 2.553642,1.05833 1.050949,0 1.905482,-0.35278 2.563093,-1.05833 0.657613,-0.71261 0.986256,-1.64409 0.986256,-2.79415 0,-1.15005 -0.328643,-2.07774 -0.986256,-2.78329 -0.657611,-0.71261 -1.512144,-1.06919 -2.563093,-1.06919 z m 0,0.31729 c 0.848135,0 1.530528,0.325 2.046784,0.97411 0.522402,0.64911 0.783693,1.50275 0.783693,2.56108 0,1.05833 -0.261291,1.91197 -0.783693,2.56108 -0.516256,0.64911 -1.198649,0.97359 -2.046784,0.97359 -0.848135,0 -1.533384,-0.32448 -2.055787,-0.97359 -0.516256,-0.64911 -0.774241,-1.50275 -0.774241,-2.56108 0,-1.05833 0.257985,-1.91197 0.774241,-2.56108 0.522403,-0.64911 1.207652,-0.97411 2.055787,-0.97411 z"
           id="path2140" />
        <path
           id="path2142"
           d="m 87.257741,167.66897 c -1.044804,0 -1.896028,0.35658 -2.553642,1.06919 -0.657611,0.70555 -0.986254,1.63324 -0.986254,2.78329 0,1.15006 0.328643,2.08154 0.986254,2.79415 0.657614,0.70555 1.508838,1.05833 2.553642,1.05833 1.050949,0 1.905482,-0.35278 2.563093,-1.05833 0.657613,-0.71261 0.986256,-1.64409 0.986256,-2.79415 0,-1.15005 -0.328643,-2.07774 -0.986256,-2.78329 -0.657611,-0.71261 -1.512144,-1.06919 -2.563093,-1.06919 z m 0,0.31729 c 0.848135,0 1.530528,0.325 2.046784,0.97411 0.522402,0.64911 0.783693,1.50275 0.783693,2.56108 0,1.05833 -0.261291,1.91197 -0.783693,2.56108 -0.516256,0.64911 -1.198649,0.97359 -2.046784,0.97359 -0.848135,0 -1.533384,-0.32448 -2.055787,-0.97359 -0.516256,-0.64911 -0.774241,-1.50275 -0.774241,-2.56108 0,-1.05833 0.257985,-1.91197 0.774241,-2.56108 0.522403,-0.64911 1.207652,-0.97411 2.055787,-0.97411 z"
           style="font-style:normal;font-variant:normal;font-weight:normal;font-stretch:normal;font-size:10.58333302px;line-height:1.25;font-family:'Cinzel Decorative';-inkscape-font-specification:'Cinzel Decorative, Normal';font-variant-ligatures:normal;font-variant-caps:normal;font-variant-numeric:normal;font-feature-settings:normal;text-align:start;letter-spacing:0px;word-spacing:0px;writing-mode:lr-tb;text-anchor:start;fill:#ffffff;fill-opacity:1;stroke:#ffffff;stroke-width:0.29501581;stroke-miterlimit:4;stroke-dasharray:none;stroke-opacity:1"
           inkscape:connector-curvature="0" />
      </g>
    </g>
    <text
       id="text2150"
       y="272.01758"
       x="103.05964"
       style="font-style:normal;font-variant:normal;font-weight:normal;font-stretch:normal;font-size:15.41002274px;line-height:1.25;font-family:'Berkshire Swash';-inkscape-font-specification:'Berkshire Swash, Normal';font-variant-ligatures:normal;font-variant-caps:normal;font-variant-numeric:normal;font-feature-settings:normal;text-align:start;letter-spacing:0px;word-spacing:0px;writing-mode:lr-tb;text-anchor:start;fill:#f9f9f9;fill-opacity:1;stroke:none;stroke-width:0.38524589;"
       xml:space="preserve"><tspan
         style="font-style:normal;font-variant:normal;font-weight:normal;font-stretch:normal;font-size:15.41002274px;font-family:'Berkshire Swash';-inkscape-font-specification:'Berkshire Swash, Normal';font-variant-ligatures:normal;font-variant-caps:normal;font-variant-numeric:normal;font-feature-settings:normal;text-align:start;writing-mode:lr-tb;text-anchor:start;fill:#f9f9f9;fill-opacity:1;stroke-width:0.38524589;"
         y="272.01758"
         x="103.05964"
         id="tspan2148"
         sodipodi:role="line">made real good</tspan></text>
    <path
       inkscape:connector-curvature="0"
       id="path2152"
       d="m 212.29973,267.27626 v 1.83921 h 23.32953 c 0.84594,0.0175 1.56187,0.1974 2.14753,0.53653 0.58565,0.35793 0.87804,0.78116 0.87804,1.27098 v 0.36723 h 0.48966 v -6.18866 h -0.48966 v 0.36723 c 0,0.48982 -0.29239,0.90466 -0.87804,1.24378 -0.58566,0.35796 -1.30159,0.54486 -2.14753,0.5637 z"
       style="font-style:normal;font-variant:normal;font-weight:normal;font-stretch:normal;font-size:11.14067268px;line-height:1.25;font-family:'Cinzel Decorative';-inkscape-font-specification:'Cinzel Decorative, Normal';font-variant-ligatures:normal;font-variant-caps:normal;font-variant-numeric:normal;font-feature-settings:normal;text-align:start;letter-spacing:0px;word-spacing:0px;writing-mode:lr-tb;text-anchor:start;fill:#ffffff;fill-opacity:1;stroke:none;stroke-width:0.92842209;stroke-opacity:1" />
    <path
       inkscape:connector-curvature="0"
       id="path2154"
       d="m 204.98064,265.10155 v 6.18866 h 0.48965 v -0.36723 c 0,-0.48982 0.29242,-0.91305 0.87806,-1.27098 0.61817,-0.35796 1.34993,-0.53653 2.19588,-0.53653 h 2.73086 v -1.83921 h -2.73086 c -0.84595,-0.0205 -1.57771,-0.20589 -2.19588,-0.5637 -0.58563,-0.33912 -0.87806,-0.75396 -0.87806,-1.24378 v -0.36723 z"
       style="font-style:normal;font-variant:normal;font-weight:normal;font-stretch:normal;font-size:11.14067268px;line-height:1.25;font-family:'Cinzel Decorative';-inkscape-font-specification:'Cinzel Decorative, Normal';font-variant-ligatures:normal;font-variant-caps:normal;font-variant-numeric:normal;font-feature-settings:normal;text-align:start;letter-spacing:0px;word-spacing:0px;writing-mode:lr-tb;text-anchor:start;fill:#d40000;fill-opacity:1;stroke:none;stroke-width:0.92842209;stroke-opacity:1" />
    <path
       style="font-style:normal;font-variant:normal;font-weight:normal;font-stretch:normal;font-size:11.14067268px;line-height:1.25;font-family:'Cinzel Decorative';-inkscape-font-specification:'Cinzel Decorative, Normal';font-variant-ligatures:normal;font-variant-caps:normal;font-variant-numeric:normal;font-feature-settings:normal;text-align:start;letter-spacing:0px;word-spacing:0px;writing-mode:lr-tb;text-anchor:start;fill:#ffffff;fill-opacity:1;stroke:none;stroke-width:0.92842209;stroke-opacity:1"
       d="m 91.86084,267.27626 v 1.83921 H 68.53131 c -0.84594,0.0175 -1.56187,0.1974 -2.14753,0.53653 -0.58565,0.35793 -0.87804,0.78116 -0.87804,1.27098 v 0.36723 h -0.48966 v -6.18866 h 0.48966 v 0.36723 c 0,0.48982 0.29239,0.90466 0.87804,1.24378 0.58566,0.35796 1.30159,0.54486 2.14753,0.5637 z"
       id="path2158"
       inkscape:connector-curvature="0" />
    <path
       style="font-style:normal;font-variant:normal;font-weight:normal;font-stretch:normal;font-size:11.14067268px;line-height:1.25;font-family:'Cinzel Decorative';-inkscape-font-specification:'Cinzel Decorative, Normal';font-variant-ligatures:normal;font-variant-caps:normal;font-variant-numeric:normal;font-feature-settings:normal;text-align:start;letter-spacing:0px;word-spacing:0px;writing-mode:lr-tb;text-anchor:start;fill:#ffffff;fill-opacity:1;stroke:none;stroke-width:0.92842209;stroke-opacity:1"
       d="m 99.17993,265.10155 v 6.18866 h -0.48965 v -0.36723 c 0,-0.48982 -0.29242,-0.91305 -0.87806,-1.27098 -0.61817,-0.35796 -1.34993,-0.53653 -2.19588,-0.53653 h -2.73086 v -1.83921 h 2.73086 c 0.84595,-0.0205 1.57771,-0.20589 2.19588,-0.5637 0.58563,-0.33912 0.87806,-0.75396 0.87806,-1.24378 v -0.36723 z"
       id="path2160"
       inkscape:connector-curvature="0" />
  </g>
</svg>
