<?xml version="1.0" encoding="UTF-8" standalone="no"?>
<!-- Created with Inkscape (http://www.inkscape.org/) -->

<svg
   xmlns:dc="http://purl.org/dc/elements/1.1/"
   xmlns:cc="http://creativecommons.org/ns#"
   xmlns:rdf="http://www.w3.org/1999/02/22-rdf-syntax-ns#"
   xmlns:svg="http://www.w3.org/2000/svg"
   xmlns="http://www.w3.org/2000/svg"
   xmlns:xlink="http://www.w3.org/1999/xlink"
   xmlns:sodipodi="http://sodipodi.sourceforge.net/DTD/sodipodi-0.dtd"
   xmlns:inkscape="http://www.inkscape.org/namespaces/inkscape"
   width="297mm"
   height="210mm"
   viewBox="0 0 297 210"
   version="1.1"
   id="svg1169"
   inkscape:version="0.92.4 (33fec40, 2019-01-16)"
   sodipodi:docname="logo1.svg">
  <defs
     id="defs1163">
    <linearGradient
       inkscape:collect="always"
       id="linearGradient1065">
      <stop
         style="stop-color:#000000;stop-opacity:1;"
         offset="0"
         id="stop1061" />
      <stop
         style="stop-color:#000000;stop-opacity:0;"
         offset="1"
         id="stop1063" />
    </linearGradient>
    <linearGradient
       inkscape:collect="always"
       id="linearGradient978">
      <stop
         style="stop-color:#aa0000;stop-opacity:1;"
         offset="0"
         id="stop974" />
      <stop
         style="stop-color:#fc0000;stop-opacity:1"
         offset="1"
         id="stop976" />
    </linearGradient>
    <linearGradient
       inkscape:collect="always"
       id="linearGradient930">
      <stop
         style="stop-color:#000000;stop-opacity:1;"
         offset="0"
         id="stop926" />
      <stop
         style="stop-color:#8c8c8b;stop-opacity:1"
         offset="1"
         id="stop928" />
    </linearGradient>
    <linearGradient
       inkscape:collect="always"
       xlink:href="#linearGradient930"
       id="linearGradient924"
       x1="154.11163"
       y1="250.41385"
       x2="341.6257"
       y2="250.41385"
       gradientUnits="userSpaceOnUse"
       gradientTransform="matrix(3.7795276,0,0,3.7795276,0,-328.8189)" />
    <linearGradient
       inkscape:collect="always"
       xlink:href="#linearGradient930"
       id="linearGradient956"
       x1="93.794785"
       y1="153.99271"
       x2="97.045555"
       y2="145.11621"
       gradientUnits="userSpaceOnUse" />
    <linearGradient
       inkscape:collect="always"
       xlink:href="#linearGradient930"
       id="linearGradient958"
       x1="78.405792"
       y1="151.82652"
       x2="85.403885"
       y2="141.80893"
       gradientUnits="userSpaceOnUse" />
    <linearGradient
       inkscape:collect="always"
       xlink:href="#linearGradient978"
       id="linearGradient980"
       x1="379"
       y1="209.95079"
       x2="406"
       y2="197.20079"
       gradientUnits="userSpaceOnUse"
       gradientTransform="matrix(0.26458333,0,0,0.26458333,0,87)" />
    <linearGradient
       inkscape:collect="always"
       xlink:href="#linearGradient1065"
       id="linearGradient1069"
       x1="85.139306"
       y1="157.94852"
       x2="110.13231"
       y2="157.94852"
       gradientUnits="userSpaceOnUse" />
    <linearGradient
       inkscape:collect="always"
       xlink:href="#linearGradient1065"
       id="linearGradient1073"
       x1="65.044333"
       y1="158.04424"
       x2="87.113851"
       y2="158.04424"
       gradientUnits="userSpaceOnUse" />
    <linearGradient
       inkscape:collect="always"
       xlink:href="#linearGradient978"
       id="linearGradient1095"
       x1="89.742599"
       y1="143.42915"
       x2="107.66318"
       y2="144.02446"
       gradientUnits="userSpaceOnUse" />
    <linearGradient
       inkscape:collect="always"
       xlink:href="#linearGradient978"
       id="linearGradient1105"
       x1="519.06506"
       y1="290.31415"
       x2="621.34344"
       y2="285.01086"
       gradientUnits="userSpaceOnUse" />
    <linearGradient
       inkscape:collect="always"
       xlink:href="#linearGradient978"
       id="linearGradient1113"
       x1="519.06506"
       y1="290.31415"
       x2="621.34344"
       y2="285.01086"
       gradientUnits="userSpaceOnUse" />
    <linearGradient
       inkscape:collect="always"
       xlink:href="#linearGradient978"
       id="linearGradient1123"
       gradientUnits="userSpaceOnUse"
       x1="519.06506"
       y1="290.31415"
       x2="621.34344"
       y2="285.01086"
       gradientTransform="matrix(0.26458333,0,0,0.26458333,0.52916667,87.529167)" />
    <linearGradient
       inkscape:collect="always"
       xlink:href="#linearGradient978"
       id="linearGradient1125"
       gradientUnits="userSpaceOnUse"
       x1="519.06506"
       y1="290.31415"
       x2="621.34344"
       y2="285.01086"
       gradientTransform="matrix(0.26458333,0,0,0.26458333,0.52916667,87.529167)" />
    <filter
       inkscape:collect="always"
       style="color-interpolation-filters:sRGB"
       id="filter1141"
       x="-0.0064815487"
       width="1.0129631"
       y="-0.018501655"
       height="1.0370033">
      <feGaussianBlur
         inkscape:collect="always"
         stdDeviation="0.20041682"
         id="feGaussianBlur1143" />
    </filter>
    <linearGradient
       inkscape:collect="always"
       xlink:href="#linearGradient930"
       id="linearGradient1201"
       gradientUnits="userSpaceOnUse"
       gradientTransform="translate(0,67.7261)"
       x1="58.227856"
       y1="167.90746"
       x2="78.184372"
       y2="143.15202" />
    <linearGradient
       inkscape:collect="always"
       xlink:href="#linearGradient930"
       id="linearGradient1203"
       gradientUnits="userSpaceOnUse"
       x1="66.764122"
       y1="171.00882"
       x2="81.295006"
       y2="150.90021"
       gradientTransform="translate(0,67.726098)" />
    <linearGradient
       inkscape:collect="always"
       xlink:href="#linearGradient1065"
       id="linearGradient1205"
       gradientUnits="userSpaceOnUse"
       x1="65.044333"
       y1="158.04424"
       x2="87.113851"
       y2="158.04424"
       gradientTransform="translate(0,67.726098)" />
    <linearGradient
       inkscape:collect="always"
       xlink:href="#linearGradient930"
       id="linearGradient1207"
       gradientUnits="userSpaceOnUse"
       x1="90.008896"
       y1="166.1946"
       x2="97.045555"
       y2="145.11621"
       gradientTransform="translate(0,67.726098)" />
    <linearGradient
       inkscape:collect="always"
       xlink:href="#linearGradient1065"
       id="linearGradient1209"
       gradientUnits="userSpaceOnUse"
       x1="85.139306"
       y1="157.94852"
       x2="110.13231"
       y2="157.94852"
       gradientTransform="translate(0,67.726098)" />
    <linearGradient
       inkscape:collect="always"
       xlink:href="#linearGradient978"
       id="linearGradient1211"
       gradientUnits="userSpaceOnUse"
       gradientTransform="matrix(0.26458333,0,0,0.26458333,0,154.7261)"
       x1="379"
       y1="209.95079"
       x2="406"
       y2="197.20079" />
    <linearGradient
       inkscape:collect="always"
       xlink:href="#linearGradient978"
       id="linearGradient1215"
       gradientUnits="userSpaceOnUse"
       gradientTransform="matrix(0.26458333,0,0,0.26458333,0.52916667,87.529167)"
       x1="519.06506"
       y1="290.31415"
       x2="621.34344"
       y2="285.01086" />
    <linearGradient
       inkscape:collect="always"
       xlink:href="#linearGradient978"
       id="linearGradient1217"
       gradientUnits="userSpaceOnUse"
       gradientTransform="matrix(0.26458333,0,0,0.26458333,0.52916667,87.529167)"
       x1="519.06506"
       y1="290.31415"
       x2="621.34344"
       y2="285.01086" />
    <linearGradient
       inkscape:collect="always"
       xlink:href="#linearGradient978"
       id="linearGradient1219"
       gradientUnits="userSpaceOnUse"
       x1="519.06506"
       y1="290.31415"
       x2="621.34344"
       y2="285.01086" />
    <linearGradient
       inkscape:collect="always"
       xlink:href="#linearGradient978"
       id="linearGradient1221"
       gradientUnits="userSpaceOnUse"
       x1="519.06506"
       y1="290.31415"
       x2="621.34344"
       y2="285.01086" />
    <linearGradient
       inkscape:collect="always"
       xlink:href="#linearGradient978"
       id="linearGradient1239"
       x1="89.742599"
       y1="211.15526"
       x2="115.13766"
       y2="211.15526"
       gradientUnits="userSpaceOnUse" />
    <linearGradient
       inkscape:collect="always"
       xlink:href="#linearGradient930"
       id="linearGradient1267"
       x1="122.22144"
       y1="152.16739"
       x2="127.89281"
       y2="167.88284"
       gradientUnits="userSpaceOnUse" />
  </defs>
  <sodipodi:namedview
     id="base"
     pagecolor="#ffffff"
     bordercolor="#666666"
     borderopacity="1.0"
     inkscape:pageopacity="0.0"
     inkscape:pageshadow="2"
     inkscape:zoom="1"
     inkscape:cx="358.06176"
     inkscape:cy="481.41494"
     inkscape:document-units="mm"
     inkscape:current-layer="layer1"
     showgrid="false"
     inkscape:window-width="1850"
     inkscape:window-height="1016"
     inkscape:window-x="70"
     inkscape:window-y="27"
     inkscape:window-maximized="1" />
  <metadata
     id="metadata1166">
    <rdf:RDF>
      <cc:Work
         rdf:about="">
        <dc:format>image/svg+xml</dc:format>
        <dc:type
           rdf:resource="http://purl.org/dc/dcmitype/StillImage" />
        <dc:title />
      </cc:Work>
    </rdf:RDF>
  </metadata>
  <g
     inkscape:label="Layer 1"
     inkscape:groupmode="layer"
     id="layer1"
     transform="translate(0,-87)">
    <g
       id="g1155">
      <g
         transform="translate(1.0583333,1.0583333)"
         style="fill:#999999;stroke:none;filter:url(#filter1141)"
         id="g999">
        <path
           id="path989"
           d="m 100.43929,149.67187 c -3.708425,0.004 -7.356092,0.0399 -10.5583,0.0523 0.0516,6.61948 3.476223,6.6439 12.69513,6.76515 0.46605,0.0272 0.83659,0.75797 0.83688,1.6505 -5.3e-4,0.89208 -0.37106,1.62201 -0.83688,1.64914 v 0.002 h -0.0226 c -0.001,1.3e-4 -0.003,1.7e-4 -0.004,3.5e-4 -0.002,-1.2e-4 -0.003,-1.8e-4 -0.005,-3.5e-4 H 89.60089 c -0.672816,3.09825 -2.255741,6.44783 -4.457613,6.43444 l 2.216471,-0.0465 2.649151,0.0157 -0.0079,-0.026 h 14.054241 c 5.84945,-0.0244 5.88689,-8.25936 5.88689,-8.25936 h -0.0246 c -0.0572,-1.42398 -0.49303,-8.20442 -5.76376,-8.22823 -1.23534,-0.008 -2.47835,-0.0105 -3.71449,-0.009 z"
           style="fill:#999999;fill-opacity:1;stroke:none;stroke-width:0.37863776"
           inkscape:connector-curvature="0" />
        <path
           inkscape:connector-curvature="0"
           id="path991"
           d="m 85.762633,149.29908 -0.523959,0.003 c 0.17642,-10e-4 0.351146,0.0217 0.523959,0.061 z"
           style="fill:#999999;stroke-width:0.28518623;stroke:none" />
        <path
           sodipodi:nodetypes="ccccccccccccccccc"
           inkscape:connector-curvature="0"
           id="path993"
           d="m 51.546206,140.34041 c -3.356797,-0.11219 -10.666036,4.46829 -10.608138,12.61784 -0.360328,11.81253 7.73652,13.23622 10.790039,13.17852 l 6.701401,0.0134 c 3.531772,0.13131 6.809933,-0.16006 6.69313,-6.1097 l 0.0093,-4.42247 v 0 l -0.03499,-5.8277 -12.226258,-0.0236 c -1.624706,2.21103 -1.560198,4.10369 -0.29495,5.87495 l 5.734913,-0.0236 -0.0186,4.30878 -6.725172,0.0181 c -4.643143,-0.71301 -5.546828,-10.82183 -0.04807,-13.40901 l 35.687743,0.0114 c -0.0028,-1.40371 0.216451,-4.27543 2.716112,-6.07767 z"
           style="fill:#999999;fill-opacity:1;stroke:none;stroke-width:0.30221924px;stroke-linecap:butt;stroke-linejoin:miter;stroke-opacity:1" />
        <path
           sodipodi:nodetypes="cccccccc"
           inkscape:connector-curvature="0"
           id="path995"
           d="m 80.236676,149.84187 -0.04378,9.96423 -12.487247,-0.0219 c 0.04678,6.40091 -2.827797,6.4749 -2.467625,6.55189 l 14.99557,-0.18466 c 7.024707,0.12934 6.676711,-8.15429 6.676711,-8.15429 l 0.03706,-8.24279 z"
           style="fill:#999999;fill-opacity:1;stroke:none;stroke-width:0.33145827" />
        <path
           inkscape:connector-curvature="0"
           id="path997"
           transform="matrix(0.26458333,0,0,0.26458333,0,87)"
           d="m 415.12891,202.28125 0.0312,0.0684 h -53.13672 c -22.11564,0.065 -22.25781,21.92383 -22.25782,21.92383 h 57.69336 18.31641 v -0.11133 -0.16992 h 0.0156 c 0.45525,-9.17506 9.41517,-21.66948 19.37304,-21.62696 l -10.01953,-0.043 z"
           style="fill:#999999;fill-opacity:1;stroke-width:1.15431476;stroke:none" />
      </g>
      <path
         id="path84"
         transform="matrix(0.26458333,0,0,0.26458333,0,87)"
         d="M 194.82031 201.60156 C 182.13321 201.17754 154.50774 218.48957 154.72656 249.29102 C 153.36469 293.9368 183.96695 299.31769 195.50781 299.09961 L 220.83594 299.15039 C 234.18437 299.64668 246.57427 298.54542 246.13281 276.05859 L 246.16797 259.34375 L 246.03516 237.31836 L 199.82617 237.22852 C 193.68555 245.58516 193.9289 252.73907 198.71094 259.43359 L 220.38672 259.34375 L 220.31641 275.62891 L 194.89844 275.69727 C 177.34955 273.00242 173.93409 234.7959 194.7168 225.01758 L 329.59961 225.06055 C 329.58903 219.75519 330.4177 208.90146 339.86523 202.08984 L 194.82031 201.60156 z "
         style="fill:url(#linearGradient924);fill-opacity:1;stroke:#000000;stroke-width:1.14224601px;stroke-linecap:butt;stroke-linejoin:miter;stroke-opacity:1" />
      <path
         sodipodi:nodetypes="cccccccc"
         inkscape:connector-curvature="0"
         id="rect137"
         d="m 80.236676,149.84187 -0.04378,9.96423 -12.487247,-0.0219 c 0.04678,6.40091 -2.827797,6.4749 -2.467625,6.55189 l 14.99557,-0.18466 c 7.024707,0.12934 6.676711,-8.15429 6.676711,-8.15429 l 0.03706,-8.24279 z"
         style="fill:url(#linearGradient958);fill-opacity:1;stroke:url(#linearGradient1073);stroke-width:0.33145827;stroke-opacity:1" />
      <path
         id="path1044"
         d="m 100.43929,149.67187 c -3.708425,0.004 -7.356092,0.0399 -10.5583,0.0523 0.0516,6.61948 3.476223,6.6439 12.69513,6.76515 0.46605,0.0272 0.83659,0.75797 0.83688,1.6505 -5.3e-4,0.89208 -0.37106,1.62201 -0.83688,1.64914 v 0.002 h -0.0226 c -0.001,1.3e-4 -0.003,1.7e-4 -0.004,3.5e-4 -0.002,-1.2e-4 -0.003,-1.8e-4 -0.005,-3.5e-4 H 89.60089 c -0.672816,3.09825 -2.255741,6.44783 -4.457613,6.43444 l 2.216471,-0.0465 2.649151,0.0157 -0.0079,-0.026 h 14.054241 c 5.84945,-0.0244 5.88689,-8.25936 5.88689,-8.25936 h -0.0246 c -0.0572,-1.42398 -0.49303,-8.20442 -5.76376,-8.22823 -1.23534,-0.008 -2.47835,-0.0105 -3.71449,-0.009 z"
         style="fill:url(#linearGradient956);fill-opacity:1;stroke:url(#linearGradient1069);stroke-width:0.37863776;stroke-opacity:1"
         inkscape:connector-curvature="0" />
      <path
         id="path159"
         d="m 109.83619,140.52025 0.008,0.0181 H 95.785354 c -5.85143,0.0172 -5.889045,5.80068 -5.889048,5.80068 h 15.264704 4.84621 v -0.0294 -0.045 h 0.004 c 0.12045,-2.42757 2.4911,-5.73338 5.12578,-5.72213 l -2.651,-0.0114 z"
         style="fill:url(#linearGradient980);fill-opacity:1;stroke:url(#linearGradient1095);stroke-width:0.30541244;stroke-opacity:1"
         inkscape:connector-curvature="0" />
    </g>
    <g
       id="g1221">
      <g
         aria-label="STEEL BY "
         transform="scale(1.1496514,0.86982889)"
         style="font-style:normal;font-variant:normal;font-weight:normal;font-stretch:normal;font-size:21.47742081px;line-height:1.25;font-family:Uroob;-inkscape-font-specification:'Uroob, Normal';font-variant-ligatures:normal;font-variant-caps:normal;font-variant-numeric:normal;font-feature-settings:normal;text-align:start;letter-spacing:0px;word-spacing:0px;writing-mode:lr-tb;text-anchor:start;fill:#000000;fill-opacity:1;stroke:none;stroke-width:0.53693843"
         id="text1189" />
      <g
         aria-label="DESIGN"
         transform="scale(1.1496514,0.86982889)"
         style="font-style:normal;font-variant:normal;font-weight:normal;font-stretch:normal;font-size:21.47755814px;line-height:1.25;font-family:Uroob;-inkscape-font-specification:'Uroob, Normal';font-variant-ligatures:normal;font-variant-caps:normal;font-variant-numeric:normal;font-feature-settings:normal;text-align:start;letter-spacing:0px;word-spacing:0px;writing-mode:lr-tb;text-anchor:start;fill:#000000;fill-opacity:1;stroke:none;stroke-width:0.27253941"
         id="text1195" />
    </g>
    <g
       id="g1233"
       transform="translate(0.55173514,0.5698303)">
      <g
         aria-label="STEEL BY "
         transform="scale(1.1496514,0.86982889)"
         style="font-style:normal;font-variant:normal;font-weight:normal;font-stretch:normal;font-size:21.47742081px;line-height:1.25;font-family:Uroob;-inkscape-font-specification:'Uroob, Normal';font-variant-ligatures:normal;font-variant-caps:normal;font-variant-numeric:normal;font-feature-settings:normal;text-align:start;letter-spacing:0px;word-spacing:0px;writing-mode:lr-tb;text-anchor:start;fill:#000000;fill-opacity:1;stroke:none;stroke-width:0.53693843"
         id="text1227" />
      <g
         aria-label="DESIGN"
         transform="scale(1.1496514,0.86982889)"
         style="font-style:normal;font-variant:normal;font-weight:normal;font-stretch:normal;font-size:21.47755814px;line-height:1.25;font-family:Uroob;-inkscape-font-specification:'Uroob, Normal';font-variant-ligatures:normal;font-variant-caps:normal;font-variant-numeric:normal;font-feature-settings:normal;text-align:start;letter-spacing:0px;word-spacing:0px;writing-mode:lr-tb;text-anchor:start;fill:#000000;fill-opacity:1;stroke:none;stroke-width:0.27253941"
         id="text1231" />
    </g>
    <g
       transform="translate(-0.0270409,0.5698303)"
       id="g1245">
      <g
         aria-label="STEEL BY "
         transform="scale(1.1496514,0.86982889)"
         style="font-style:normal;font-variant:normal;font-weight:normal;font-stretch:normal;font-size:21.47742081px;line-height:1.25;font-family:Uroob;-inkscape-font-specification:'Uroob, Normal';font-variant-ligatures:normal;font-variant-caps:normal;font-variant-numeric:normal;font-feature-settings:normal;text-align:start;letter-spacing:0px;word-spacing:0px;writing-mode:lr-tb;text-anchor:start;fill:#000000;fill-opacity:1;stroke:none;stroke-width:0.53693843"
         id="text1239" />
      <g
         aria-label="DESIGN"
         transform="scale(1.1496514,0.86982889)"
         style="font-style:normal;font-variant:normal;font-weight:normal;font-stretch:normal;font-size:21.47755814px;line-height:1.25;font-family:Uroob;-inkscape-font-specification:'Uroob, Normal';font-variant-ligatures:normal;font-variant-caps:normal;font-variant-numeric:normal;font-feature-settings:normal;text-align:start;letter-spacing:0px;word-spacing:0px;writing-mode:lr-tb;text-anchor:start;fill:#000000;fill-opacity:1;stroke:none;stroke-width:0.27253941"
         id="text1243" />
    </g>
    <g
       id="g1257"
       transform="translate(-0.0270409,0.12098357)">
      <g
         aria-label="STEEL BY "
         transform="scale(1.1496514,0.86982889)"
         style="font-style:normal;font-variant:normal;font-weight:normal;font-stretch:normal;font-size:21.47742081px;line-height:1.25;font-family:Uroob;-inkscape-font-specification:'Uroob, Normal';font-variant-ligatures:normal;font-variant-caps:normal;font-variant-numeric:normal;font-feature-settings:normal;text-align:start;letter-spacing:0px;word-spacing:0px;writing-mode:lr-tb;text-anchor:start;fill:#000000;fill-opacity:1;stroke:none;stroke-width:0.53693843"
         id="text1251" />
      <g
         aria-label="DESIGN"
         transform="scale(1.1496514,0.86982889)"
         style="font-style:normal;font-variant:normal;font-weight:normal;font-stretch:normal;font-size:21.47755814px;line-height:1.25;font-family:Uroob;-inkscape-font-specification:'Uroob, Normal';font-variant-ligatures:normal;font-variant-caps:normal;font-variant-numeric:normal;font-feature-settings:normal;text-align:start;letter-spacing:0px;word-spacing:0px;writing-mode:lr-tb;text-anchor:start;fill:#000000;fill-opacity:1;stroke:none;stroke-width:0.27253941"
         id="text1255" />
    </g>
    <g
       id="text1263"
       style="font-style:normal;font-variant:normal;font-weight:normal;font-stretch:normal;font-size:21.47742081px;line-height:1.25;font-family:Uroob;-inkscape-font-specification:'Uroob, Normal';font-variant-ligatures:normal;font-variant-caps:normal;font-variant-numeric:normal;font-feature-settings:normal;text-align:start;letter-spacing:0px;word-spacing:0px;writing-mode:lr-tb;text-anchor:start;fill:#000000;fill-opacity:1;stroke:none;stroke-width:0.53693843"
       transform="matrix(1.1496514,0,0,0.86982889,0.55173514,-0.00894574)"
       aria-label="STEEL BY " />
    <g
       id="g1163"
       transform="translate(16.66875)">
      <path
         inkscape:connector-curvature="0"
         style="font-style:normal;font-variant:normal;font-weight:normal;font-stretch:normal;font-size:13.41490841px;line-height:1.25;font-family:Uroob;-inkscape-font-specification:'Uroob, Normal';font-variant-ligatures:normal;font-variant-caps:normal;font-variant-numeric:normal;font-feature-settings:normal;text-align:start;letter-spacing:0px;word-spacing:0px;writing-mode:lr-tb;text-anchor:start;fill:url(#linearGradient1123);fill-opacity:1;stroke:url(#linearGradient1125);stroke-width:0.509;stroke-miterlimit:4;stroke-dasharray:none;stroke-opacity:1"
         d="m 128.96474,160.44564 c -0.20386,-0.003 -0.33566,0.0344 -0.39533,0.11266 -0.0299,0.0325 -0.0299,0.065 0,0.0977 0.0298,0.0326 0.10721,0.13708 0.23152,0.31316 0.1243,0.17608 0.2954,0.41885 0.51418,0.72864 0.21877,0.30978 0.43751,0.62126 0.65629,0.93431 0.21878,0.30978 0.43526,0.61658 0.64905,0.91984 0.21878,0.30326 0.42517,0.59167 0.61909,0.86558 v 2.31355 h 1.44694 v -2.31355 c 0.18396,-0.27717 0.37801,-0.56749 0.58187,-0.87075 0.20883,-0.30326 0.41749,-0.60955 0.62632,-0.91933 0.2138,-0.31304 0.42246,-0.62313 0.62632,-0.92965 0.20883,-0.30979 0.37037,-0.55065 0.48472,-0.72348 0.11929,-0.17283 0.18936,-0.274 0.20929,-0.30333 0.0199,-0.0293 0.0149,-0.067 -0.015,-0.11266 -0.0298,-0.0489 -0.15937,-0.0799 -0.38809,-0.093 h -0.95447 l -1.93941,2.8174 -2.07326,-2.83704 z m 26.58029,0.0196 c -0.45743,0 -0.87527,0.0979 -1.25315,0.29353 -0.37789,0.19564 -0.56638,0.4417 -0.56638,0.73845 v 4.21163 c 0,0.29673 0.18849,0.54141 0.56638,0.73381 0.37291,0.19239 0.79074,0.28835 1.25315,0.28835 h 3.22202 v -0.76274 h -3.13262 c -0.19391,0 -0.33528,-0.041 -0.42478,-0.12248 -0.0895,-0.0815 -0.13436,-0.18078 -0.13436,-0.29817 v -1.62419 h 3.38584 v -0.75293 h -3.38584 v -1.51153 c 0,-0.11739 0.0449,-0.21716 0.13436,-0.29869 0.0895,-0.0815 0.23087,-0.12196 0.42478,-0.12196 h 3.13262 v -0.77308 z m 26.75754,0 c -0.45743,0 -0.87527,0.0979 -1.25315,0.29353 -0.37789,0.19564 -0.5669,0.4417 -0.5669,0.73845 v 4.22145 c 0,0.29021 0.16154,0.53159 0.48473,0.72399 0.32318,0.19239 0.71354,0.28835 1.17099,0.28835 h 1.71566 c 0.39776,0 0.74552,-0.0847 1.04386,-0.25425 v 0.25425 h 1.29811 v -2.9931 c 0,-0.15 -0.15198,-0.22531 -0.45527,-0.22531 h -1.74511 c -0.0895,-0.007 -0.17871,4e-5 -0.2682,0.0196 -0.0895,0.0196 -0.13436,0.0883 -0.13436,0.20567 v 0.6258 h 1.20819 v 0.93896 c 0,0.18262 -0.10207,0.33932 -0.30592,0.46974 -0.20387,0.13044 -0.4473,0.19586 -0.7307,0.19586 h -1.37253 c -0.37291,0 -0.55914,-0.12234 -0.55914,-0.36691 v -3.94239 c 0,-0.11739 0.0449,-0.21716 0.13436,-0.29869 0.0895,-0.0815 0.23087,-0.12196 0.42478,-0.12196 h 1.8495 c 0.27347,0 0.45013,0.0748 0.52968,0.2248 0.0397,0.0717 0.0594,0.21715 0.0594,0.43563 h 1.3503 v -0.40153 c 0,-0.29022 -0.15926,-0.53437 -0.47749,-0.73329 -0.32318,-0.1989 -0.70624,-0.29869 -1.14876,-0.29869 z m -16.99328,0.005 c -0.44253,0 -0.80264,0.10447 -1.08107,0.31316 -0.27844,0.2087 -0.41806,0.45944 -0.41806,0.75292 v 1.36943 c 0,0.29999 0.14919,0.55786 0.44752,0.77308 0.29834,0.21522 0.67409,0.32298 1.12654,0.32298 h 1.90169 c 0.37789,0 0.5669,0.12703 0.5669,0.38137 v 1.20303 c 0,0.24456 -0.18901,0.3669 -0.5669,0.3669 h -1.75286 c -0.15911,0 -0.28813,-0.0225 -0.38757,-0.0682 -0.0945,-0.0489 -0.13654,-0.1303 -0.12661,-0.24443 h -1.28313 c 0,0.31956 0.1391,0.5816 0.41755,0.78703 0.27347,0.20543 0.65426,0.30851 1.14153,0.30851 h 2.31201 c 0.45246,0 0.8277,-0.10638 1.12602,-0.31833 0.29834,-0.21522 0.44752,-0.47256 0.44752,-0.77256 v -1.36943 c 0,-0.29022 -0.1391,-0.53957 -0.41754,-0.74827 -0.27347,-0.20869 -0.6341,-0.31316 -1.08159,-0.31316 h -1.97662 c -0.37788,0 -0.56689,-0.12234 -0.56689,-0.3669 v -1.20355 c 0,-0.2576 0.18901,-0.38602 0.56689,-0.38602 h 1.60351 c 0.35302,0 0.52464,0.0913 0.5147,0.27388 h 1.28313 c 0,-0.30977 -0.13181,-0.56434 -0.39533,-0.76326 -0.26849,-0.1989 -0.63189,-0.29817 -1.08933,-0.29817 z m -45.61789,0.01 v 6.25078 h 4.10156 c 0.43754,0 0.78358,-0.10447 1.03715,-0.31316 0.25358,-0.20544 0.38034,-0.45479 0.38034,-0.74828 v -1.33531 c 0,-0.47283 -0.25857,-0.75793 -0.77567,-0.85577 0.36794,-0.11413 0.55191,-0.34562 0.55191,-0.69453 v -1.20302 c 0,-0.3 -0.12397,-0.55735 -0.37259,-0.77257 -0.2486,-0.2152 -0.59689,-0.32298 -1.04438,-0.32298 h -2.52129 v -0.005 z m 23.08645,0 v 6.25078 h 3.9827 c 0.4475,0 0.80587,-0.0893 1.07435,-0.26872 0.26851,-0.18261 0.40257,-0.4193 0.40257,-0.70951 v -4.15737 c 0,-0.31956 -0.17389,-0.58541 -0.52194,-0.79737 -0.34806,-0.21194 -0.76588,-0.31781 -1.25315,-0.31781 z m 31.74432,0 c -0.0994,0 -0.18635,0.0245 -0.26097,0.0734 -0.0746,0.0489 -0.11214,0.10585 -0.11214,0.17105 v 6.00635 h 1.37253 v -6.00635 c 0,-0.0652 -0.0375,-0.12212 -0.11214,-0.17105 -0.0746,-0.0489 -0.16152,-0.0734 -0.26097,-0.0734 z m 17.0527,0 c -0.0994,0 -0.18687,0.0245 -0.26148,0.0734 -0.0746,0.0489 -0.11162,0.10585 -0.11162,0.17105 v 6.01617 h 1.37201 v -4.01578 c 0.5519,0.675 1.17613,1.4236 1.87223,2.24534 0.69611,0.82175 1.18071,1.41174 1.45418,1.77044 h 0.67128 c 0.0994,0 0.18635,-0.0225 0.26096,-0.0682 0.0746,-0.0489 0.11214,-0.10637 0.11214,-0.17157 v -6.02082 h -1.37253 v 4.09381 c -0.0348,-0.0457 -0.1094,-0.13833 -0.22376,-0.27854 -0.10939,-0.14022 -0.24345,-0.3101 -0.40256,-0.50901 -0.1591,-0.20218 -0.33298,-0.42187 -0.52193,-0.65991 -0.18894,-0.24131 -0.38073,-0.48459 -0.57464,-0.72916 -0.18893,-0.24455 -0.37517,-0.48074 -0.55914,-0.709 -0.17899,-0.22826 -0.33826,-0.43198 -0.47749,-0.61133 -0.13923,-0.17935 -0.25086,-0.32286 -0.33538,-0.43046 -0.0845,-0.10754 -0.12661,-0.16307 -0.12661,-0.1664 z m -47.43948,0.75809 h 2.08824 c 0.10441,-0.003 0.19639,0.0112 0.27596,0.0439 0.25853,0.0978 0.38809,0.25591 0.38809,0.47439 v 3.78581 c 0,0.049 -0.005,0.0998 -0.015,0.15193 -0.0299,0.17592 -0.17172,0.2653 -0.4253,0.26872 h -2.312 z m -23.08696,0.0248 h 1.96939 c 0.42759,0 0.6413,0.12182 0.6413,0.36638 v 1.13482 c 0,0.0946 -0.0421,0.18115 -0.12661,0.25941 -0.0795,0.0783 -0.19675,0.11731 -0.35088,0.11731 h -2.1332 z m 0,2.65565 h 2.19314 c 0.42762,0 0.64131,0.12233 0.64131,0.3669 v 1.31568 c 0,0.25761 -0.189,0.38603 -0.56689,0.38603 h -2.26756 z"
         id="path1121" />
      <path
         id="path1131"
         d="m 158.74535,141.28764 c -1.214,0 -2.32251,0.25779 -3.32538,0.77515 -1.00287,0.51736 -1.5043,1.16872 -1.5043,1.95337 v 11.13627 c 0,0.78466 0.50143,1.43119 1.5043,1.93993 0.98968,0.50874 2.09818,0.76326 3.32538,0.76326 h 8.5509 v -2.01796 h -8.31319 c -0.51463,0 -0.89109,-0.10744 -1.12861,-0.32298 -0.23753,-0.21557 -0.35605,-0.47868 -0.35605,-0.7891 v -4.29379 h 8.98601 v -1.99213 H 157.4984 V 144.443 c 0,-0.31043 0.11852,-0.57353 0.35605,-0.78909 0.23752,-0.21557 0.61398,-0.32298 1.12861,-0.32298 h 8.31319 v -2.04329 z m 15.64918,0 c -1.21401,0 -2.32253,0.25779 -3.32538,0.77515 -1.00289,0.51736 -1.50431,1.16872 -1.50431,1.95337 v 11.13627 c 0,0.78466 0.50142,1.43119 1.50431,1.93993 0.98967,0.50874 2.09818,0.76326 3.32538,0.76326 h 8.55038 v -2.01796 h -8.31319 c -0.51463,0 -0.89057,-0.10744 -1.1281,-0.32298 -0.23753,-0.21557 -0.35605,-0.47868 -0.35605,-0.7891 v -4.29379 h 8.98602 v -1.99213 h -8.98602 V 144.443 c 0,-0.31043 0.11852,-0.57353 0.35605,-0.78909 0.23753,-0.21557 0.61347,-0.32298 1.1281,-0.32298 h 8.31319 v -2.04329 z m -50.38918,0.0129 c -1.17442,0 -2.13166,0.27549 -2.87062,0.82734 -0.73896,0.55184 -1.10795,1.21557 -1.10795,1.99161 v 3.622 c 0,0.79328 0.39579,1.47419 1.18753,2.04329 0.79173,0.5691 1.78817,0.85369 2.98896,0.85369 h 5.04672 c 1.00287,0 1.5043,0.33615 1.5043,1.00873 v 3.18171 c 0,0.6467 -0.50143,0.97049 -1.5043,0.97049 h -4.65088 c -0.42224,0 -0.76548,-0.0607 -1.02939,-0.18139 -0.25071,-0.12934 -0.36332,-0.34468 -0.33693,-0.64647 h -3.40393 c 0,0.84502 0.369,1.53934 1.10794,2.08256 0.72578,0.54324 1.73559,0.81442 3.02876,0.81442 h 6.13554 c 1.20082,0 2.19722,-0.2803 2.98897,-0.84077 0.79174,-0.56909 1.18752,-1.25002 1.18752,-2.04329 v -3.622 c 0,-0.76742 -0.36898,-1.42684 -1.10794,-1.97869 -0.72577,-0.55185 -1.68302,-0.82734 -2.87062,-0.82734 h -5.24465 c -1.00288,0 -1.5043,-0.32378 -1.5043,-0.97048 v -3.18172 c 0,-0.68119 0.50142,-1.02165 1.5043,-1.02165 h 4.25504 c 0.9369,0 1.39272,0.24111 1.36633,0.72399 h 3.40392 c 0,-0.81916 -0.34965,-1.49146 -1.04903,-2.01745 -0.71257,-0.52597 -1.67574,-0.78858 -2.88975,-0.78858 z m 13.36043,0.0253 c -0.27711,0 -0.52165,0.0607 -0.73278,0.18139 -0.19792,0.12072 -0.29662,0.2759 -0.29662,0.4656 v 1.48777 h 5.85856 v 14.39498 h 3.62252 V 143.4606 h 5.85855 v -1.48777 c -0.0792,-0.43113 -0.41545,-0.64699 -1.00924,-0.64699 z m 48.02807,0 v 14.34435 c 0,1.45723 1.28011,2.18539 3.84008,2.18539 h 7.56078 v -2.01796 h -6.72931 c -0.48824,0 -0.79179,-0.0553 -0.91054,-0.16743 -0.11876,-0.11209 -0.17828,-0.34085 -0.17828,-0.68575 v -13.6586 z"
         style="font-style:normal;font-variant:normal;font-weight:normal;font-stretch:normal;font-size:30.28314209px;line-height:1.25;font-family:Uroob;-inkscape-font-specification:'Uroob, Normal';font-variant-ligatures:normal;font-variant-caps:normal;font-variant-numeric:normal;font-feature-settings:normal;text-align:start;letter-spacing:0px;word-spacing:0px;writing-mode:lr-tb;text-anchor:start;fill:#000000;fill-opacity:1;stroke:#000000;stroke-width:0.64924389;stroke-miterlimit:4;stroke-dasharray:none;stroke-opacity:1"
         inkscape:connector-curvature="0" />
      <path
         inkscape:connector-curvature="0"
         style="font-style:normal;font-variant:normal;font-weight:normal;font-stretch:normal;font-size:30.28314209px;line-height:1.25;font-family:Uroob;-inkscape-font-specification:'Uroob, Normal';font-variant-ligatures:normal;font-variant-caps:normal;font-variant-numeric:normal;font-feature-settings:normal;text-align:start;letter-spacing:0px;word-spacing:0px;writing-mode:lr-tb;text-anchor:start;fill:#ffffff;fill-opacity:1;stroke:#fffff0;stroke-width:0.64924389;stroke-miterlimit:4;stroke-dasharray:none;stroke-opacity:1"
         d="m 158.4973,140.97345 c -1.214,0 -2.32251,0.25779 -3.32538,0.77515 -1.00287,0.51736 -1.5043,1.16872 -1.5043,1.95337 v 11.13627 c 0,0.78466 0.50143,1.43119 1.5043,1.93993 0.98968,0.50874 2.09818,0.76326 3.32538,0.76326 h 8.5509 v -2.01796 h -8.31319 c -0.51463,0 -0.89109,-0.10744 -1.12861,-0.32298 -0.23753,-0.21557 -0.35605,-0.47868 -0.35605,-0.7891 v -4.29379 h 8.98601 v -1.99213 h -8.98601 v -3.99666 c 0,-0.31043 0.11852,-0.57353 0.35605,-0.78909 0.23752,-0.21557 0.61398,-0.32298 1.12861,-0.32298 h 8.31319 v -2.04329 z m 15.64918,0 c -1.21401,0 -2.32253,0.25779 -3.32538,0.77515 -1.00289,0.51736 -1.50431,1.16872 -1.50431,1.95337 v 11.13627 c 0,0.78466 0.50142,1.43119 1.50431,1.93993 0.98967,0.50874 2.09818,0.76326 3.32538,0.76326 h 8.55038 v -2.01796 h -8.31319 c -0.51463,0 -0.89057,-0.10744 -1.1281,-0.32298 -0.23753,-0.21557 -0.35605,-0.47868 -0.35605,-0.7891 v -4.29379 h 8.98602 v -1.99213 h -8.98602 v -3.99666 c 0,-0.31043 0.11852,-0.57353 0.35605,-0.78909 0.23753,-0.21557 0.61347,-0.32298 1.1281,-0.32298 h 8.31319 v -2.04329 z m -50.38918,0.0129 c -1.17442,0 -2.13166,0.27549 -2.87062,0.82734 -0.73896,0.55184 -1.10795,1.21557 -1.10795,1.99161 v 3.622 c 0,0.79328 0.39579,1.47419 1.18753,2.04329 0.79173,0.5691 1.78817,0.85369 2.98896,0.85369 h 5.04672 c 1.00287,0 1.5043,0.33615 1.5043,1.00873 v 3.18171 c 0,0.6467 -0.50143,0.97049 -1.5043,0.97049 h -4.65088 c -0.42224,0 -0.76548,-0.0607 -1.02939,-0.18139 -0.25071,-0.12934 -0.36332,-0.34468 -0.33693,-0.64647 h -3.40393 c 0,0.84502 0.369,1.53934 1.10794,2.08256 0.72578,0.54324 1.73559,0.81442 3.02876,0.81442 h 6.13554 c 1.20082,0 2.19722,-0.2803 2.98897,-0.84077 0.79174,-0.56909 1.18752,-1.25002 1.18752,-2.04329 v -3.622 c 0,-0.76742 -0.36898,-1.42684 -1.10794,-1.97869 -0.72577,-0.55185 -1.68302,-0.82734 -2.87062,-0.82734 h -5.24465 c -1.00288,0 -1.5043,-0.32378 -1.5043,-0.97048 v -3.18172 c 0,-0.68119 0.50142,-1.02165 1.5043,-1.02165 h 4.25504 c 0.9369,0 1.39272,0.24111 1.36633,0.72399 h 3.40392 c 0,-0.81916 -0.34965,-1.49146 -1.04903,-2.01745 -0.71257,-0.52597 -1.67574,-0.78858 -2.88975,-0.78858 z m 13.36043,0.0253 c -0.27711,0 -0.52165,0.0607 -0.73278,0.18139 -0.19792,0.12072 -0.29662,0.2759 -0.29662,0.4656 v 1.48777 h 5.85856 v 14.39498 h 3.62252 v -14.39498 h 5.85855 v -1.48777 c -0.0792,-0.43113 -0.41545,-0.64699 -1.00924,-0.64699 z m 48.02807,0 V 155.356 c 0,1.45723 1.28011,2.18539 3.84008,2.18539 h 7.56078 v -2.01796 h -6.72931 c -0.48824,0 -0.79179,-0.0553 -0.91054,-0.16743 -0.11876,-0.11209 -0.17828,-0.34085 -0.17828,-0.68575 v -13.6586 z"
         id="path1129" />
      <path
         id="path870"
         transform="matrix(0.26458333,0,0,0.26458333,0,87)"
         d="m 597.98242,203.18164 c -4.58834,0 -8.77798,0.97431 -12.56836,2.92969 -3.79037,1.95537 -5.68554,4.4172 -5.68554,7.38281 v 42.08984 c 0,2.96565 1.89517,5.40924 5.68554,7.33204 3.74053,1.92279 7.93013,2.88476 12.56836,2.88476 h 32.31836 v -7.62695 h -31.41992 c -1.94506,0 -3.36791,-0.40607 -4.26563,-1.22071 -0.89775,-0.81475 -1.3457,-1.80918 -1.3457,-2.98242 v -16.22851 h 33.96289 v -7.5293 h -33.96289 v -15.10547 c 0,-1.17328 0.44795,-2.16767 1.3457,-2.98242 0.89772,-0.81475 2.32057,-1.2207 4.26563,-1.2207 h 31.41992 v -7.72266 z m 59.14649,0 c -4.58835,0 -8.77803,0.97431 -12.56836,2.92969 -3.79042,1.95537 -5.68555,4.4172 -5.68555,7.38281 v 42.08984 c 0,2.96565 1.89513,5.40924 5.68555,7.33204 3.74048,1.92279 7.93016,2.88476 12.56836,2.88476 h 32.3164 v -7.62695 h -31.41992 c -1.94506,0 -3.36592,-0.40607 -4.26367,-1.22071 -0.89775,-0.81475 -1.3457,-1.80918 -1.3457,-2.98242 v -16.22851 h 33.96289 v -7.5293 h -33.96289 v -15.10547 c 0,-1.17328 0.44795,-2.16767 1.3457,-2.98242 0.89775,-0.81475 2.31861,-1.2207 4.26367,-1.2207 h 31.41992 v -7.72266 z m -190.44727,0.0488 c -4.43875,0 -8.05669,1.04122 -10.84961,3.12695 -2.79292,2.0857 -4.1875,4.59428 -4.1875,7.52735 v 13.68945 c 0,2.99822 1.49588,5.57173 4.48828,7.72266 2.99237,2.15092 6.75846,3.22656 11.29688,3.22656 h 19.07422 c 3.79037,0 5.68554,1.27046 5.68554,3.8125 v 12.02539 c 0,2.44422 -1.89517,3.66797 -5.68554,3.66797 h -17.57813 c -1.5959,0 -2.89317,-0.22947 -3.89062,-0.68555 -0.94757,-0.48884 -1.37318,-1.30274 -1.27344,-2.44336 h -12.86524 c 0,3.19378 1.39462,5.81798 4.1875,7.87109 2.74307,2.05319 6.5597,3.07813 11.44727,3.07813 h 23.18945 c 4.5385,0 8.30444,-1.05939 11.29688,-3.17773 2.9924,-2.1509 4.48828,-4.72448 4.48828,-7.72266 v -13.68945 c 0,-2.90049 -1.39458,-5.39279 -4.1875,-7.47852 -2.74307,-2.08573 -6.36104,-3.12695 -10.84961,-3.12695 h -19.82227 c -3.79041,0 -5.68554,-1.22375 -5.68554,-3.66797 v -12.02539 c 0,-2.57458 1.89513,-3.86133 5.68554,-3.86133 h 16.08204 c 3.54103,0 5.2638,0.91127 5.16406,2.73633 h 12.86523 c 0,-3.09604 -1.32152,-5.63701 -3.96484,-7.625 -2.69318,-1.98792 -6.33353,-2.98047 -10.92188,-2.98047 z m 50.49609,0.0957 c -1.04734,0 -1.97156,0.22947 -2.76953,0.68555 -0.74808,0.45626 -1.12109,1.04279 -1.12109,1.75976 v 5.62305 h 22.14258 v 54.40625 h 13.6914 v -54.40625 h 22.14258 v -5.62305 c -0.29934,-1.62946 -1.57021,-2.44531 -3.81445,-2.44531 z m 181.52344,0 v 54.21485 c 0,5.50764 4.8382,8.25976 14.51367,8.25976 h 28.57618 v -7.62695 h -25.4336 c -1.84531,0 -2.99259,-0.2089 -3.4414,-0.63281 -0.44886,-0.42365 -0.67383,-1.28824 -0.67383,-2.5918 v -51.62305 z"
         style="font-style:normal;font-variant:normal;font-weight:normal;font-stretch:normal;font-size:30.28314209px;line-height:1.25;font-family:Uroob;-inkscape-font-specification:'Uroob, Normal';font-variant-ligatures:normal;font-variant-caps:normal;font-variant-numeric:normal;font-feature-settings:normal;text-align:start;letter-spacing:0px;word-spacing:0px;writing-mode:lr-tb;text-anchor:start;fill:#000000;fill-opacity:1;stroke:#000000;stroke-width:2.45383525;stroke-miterlimit:4;stroke-dasharray:none;stroke-opacity:1"
         inkscape:connector-curvature="0" />
      <path
         id="path1127"
         d="m 128.7415,160.23067 c -0.20386,-0.003 -0.33566,0.0344 -0.39533,0.11266 -0.0299,0.0325 -0.0299,0.065 0,0.0977 0.0298,0.0326 0.10721,0.13708 0.23152,0.31316 0.1243,0.17608 0.2954,0.41885 0.51418,0.72864 0.21877,0.30978 0.43751,0.62126 0.65629,0.93431 0.21878,0.30978 0.43526,0.61658 0.64905,0.91984 0.21878,0.30326 0.42517,0.59167 0.61909,0.86558 v 2.31355 h 1.44694 v -2.31355 c 0.18396,-0.27717 0.37801,-0.56749 0.58187,-0.87075 0.20883,-0.30326 0.41749,-0.60955 0.62632,-0.91933 0.2138,-0.31304 0.42246,-0.62313 0.62632,-0.92965 0.20883,-0.30979 0.37037,-0.55065 0.48472,-0.72348 0.11929,-0.17283 0.18936,-0.274 0.20929,-0.30333 0.0199,-0.0293 0.0149,-0.067 -0.015,-0.11266 -0.0298,-0.0489 -0.15937,-0.0799 -0.38809,-0.093 h -0.95447 l -1.93941,2.8174 -2.07326,-2.83704 z m 26.58029,0.0196 c -0.45743,0 -0.87527,0.0979 -1.25315,0.29353 -0.37789,0.19564 -0.56638,0.4417 -0.56638,0.73845 v 4.21163 c 0,0.29673 0.18849,0.54141 0.56638,0.73381 0.37291,0.19239 0.79074,0.28835 1.25315,0.28835 h 3.22202 v -0.76274 h -3.13262 c -0.19391,0 -0.33528,-0.041 -0.42478,-0.12248 -0.0895,-0.0815 -0.13436,-0.18078 -0.13436,-0.29817 v -1.62419 h 3.38584 v -0.75293 h -3.38584 V 161.444 c 0,-0.11739 0.0449,-0.21716 0.13436,-0.29869 0.0895,-0.0815 0.23087,-0.12196 0.42478,-0.12196 h 3.13262 v -0.77308 z m 26.75754,0 c -0.45743,0 -0.87527,0.0979 -1.25315,0.29353 -0.37789,0.19564 -0.5669,0.4417 -0.5669,0.73845 v 4.22145 c 0,0.29021 0.16154,0.53159 0.48473,0.72399 0.32318,0.19239 0.71354,0.28835 1.17099,0.28835 h 1.71566 c 0.39776,0 0.74552,-0.0847 1.04386,-0.25425 v 0.25425 h 1.29811 v -2.9931 c 0,-0.15 -0.15198,-0.22531 -0.45527,-0.22531 h -1.74511 c -0.0895,-0.007 -0.17871,4e-5 -0.2682,0.0196 -0.0895,0.0196 -0.13436,0.0883 -0.13436,0.20567 v 0.6258 h 1.20819 v 0.93896 c 0,0.18262 -0.10207,0.33932 -0.30592,0.46974 -0.20387,0.13044 -0.4473,0.19586 -0.7307,0.19586 h -1.37253 c -0.37291,0 -0.55914,-0.12234 -0.55914,-0.36691 v -3.94239 c 0,-0.11739 0.0449,-0.21716 0.13436,-0.29869 0.0895,-0.0815 0.23087,-0.12196 0.42478,-0.12196 h 1.8495 c 0.27347,0 0.45013,0.0748 0.52968,0.2248 0.0397,0.0717 0.0594,0.21715 0.0594,0.43563 h 1.3503 v -0.40153 c 0,-0.29022 -0.15926,-0.53437 -0.47749,-0.73329 -0.32318,-0.1989 -0.70624,-0.29869 -1.14876,-0.29869 z m -16.99328,0.005 c -0.44253,0 -0.80264,0.10447 -1.08107,0.31316 -0.27844,0.2087 -0.41806,0.45944 -0.41806,0.75292 v 1.36943 c 0,0.29999 0.14919,0.55786 0.44752,0.77308 0.29834,0.21522 0.67409,0.32298 1.12654,0.32298 h 1.90169 c 0.37789,0 0.5669,0.12703 0.5669,0.38137 v 1.20303 c 0,0.24456 -0.18901,0.3669 -0.5669,0.3669 h -1.75286 c -0.15911,0 -0.28813,-0.0225 -0.38757,-0.0682 -0.0945,-0.0489 -0.13654,-0.1303 -0.12661,-0.24443 h -1.28313 c 0,0.31956 0.1391,0.5816 0.41755,0.78703 0.27347,0.20543 0.65426,0.30851 1.14153,0.30851 h 2.31201 c 0.45246,0 0.8277,-0.10638 1.12602,-0.31833 0.29834,-0.21522 0.44752,-0.47256 0.44752,-0.77256 v -1.36943 c 0,-0.29022 -0.1391,-0.53957 -0.41754,-0.74827 -0.27347,-0.20869 -0.6341,-0.31316 -1.08159,-0.31316 h -1.97662 c -0.37788,0 -0.56689,-0.12234 -0.56689,-0.3669 v -1.20355 c 0,-0.2576 0.18901,-0.38602 0.56689,-0.38602 h 1.60351 c 0.35302,0 0.52464,0.0913 0.5147,0.27388 h 1.28313 c 0,-0.30977 -0.13181,-0.56434 -0.39533,-0.76326 -0.26849,-0.1989 -0.63189,-0.29817 -1.08933,-0.29817 z m -45.61789,0.01 v 6.25078 h 4.10156 c 0.43754,0 0.78358,-0.10447 1.03715,-0.31316 0.25358,-0.20544 0.38034,-0.45479 0.38034,-0.74828 v -1.33531 c 0,-0.47283 -0.25857,-0.75793 -0.77567,-0.85577 0.36794,-0.11413 0.55191,-0.34562 0.55191,-0.69453 v -1.20302 c 0,-0.3 -0.12397,-0.55735 -0.37259,-0.77257 -0.2486,-0.2152 -0.59689,-0.32298 -1.04438,-0.32298 h -2.52129 v -0.005 z m 23.08645,0 v 6.25078 h 3.9827 c 0.4475,0 0.80587,-0.0893 1.07435,-0.26872 0.26851,-0.18261 0.40257,-0.4193 0.40257,-0.70951 v -4.15737 c 0,-0.31956 -0.17389,-0.58541 -0.52194,-0.79737 -0.34806,-0.21194 -0.76588,-0.31781 -1.25315,-0.31781 z m 31.74432,0 c -0.0994,0 -0.18635,0.0245 -0.26097,0.0734 -0.0746,0.0489 -0.11214,0.10585 -0.11214,0.17105 v 6.00635 h 1.37253 v -6.00635 c 0,-0.0652 -0.0375,-0.12212 -0.11214,-0.17105 -0.0746,-0.0489 -0.16152,-0.0734 -0.26097,-0.0734 z m 17.0527,0 c -0.0994,0 -0.18687,0.0245 -0.26148,0.0734 -0.0746,0.0489 -0.11162,0.10585 -0.11162,0.17105 v 6.01617 h 1.37201 v -4.01578 c 0.5519,0.675 1.17613,1.4236 1.87223,2.24534 0.69611,0.82175 1.18071,1.41174 1.45418,1.77044 h 0.67128 c 0.0994,0 0.18635,-0.0225 0.26096,-0.0682 0.0746,-0.0489 0.11214,-0.10637 0.11214,-0.17157 v -6.02082 h -1.37253 v 4.09381 c -0.0348,-0.0457 -0.1094,-0.13833 -0.22376,-0.27854 -0.10939,-0.14022 -0.24345,-0.3101 -0.40256,-0.50901 -0.1591,-0.20218 -0.33298,-0.42187 -0.52193,-0.65991 -0.18894,-0.24131 -0.38073,-0.48459 -0.57464,-0.72916 -0.18893,-0.24455 -0.37517,-0.48074 -0.55914,-0.709 -0.17899,-0.22826 -0.33826,-0.43198 -0.47749,-0.61133 -0.13923,-0.17935 -0.25086,-0.32286 -0.33538,-0.43046 -0.0845,-0.10754 -0.12661,-0.16307 -0.12661,-0.1664 z m -47.43948,0.75809 h 2.08824 c 0.10441,-0.003 0.19639,0.0112 0.27596,0.0439 0.25853,0.0978 0.38809,0.25591 0.38809,0.47439 v 3.78581 c 0,0.049 -0.005,0.0998 -0.015,0.15193 -0.0299,0.17592 -0.17172,0.2653 -0.4253,0.26872 h -2.312 z m -23.08696,0.0248 h 1.96939 c 0.42759,0 0.6413,0.12182 0.6413,0.36638 v 1.13482 c 0,0.0946 -0.0421,0.18115 -0.12661,0.25941 -0.0795,0.0783 -0.19675,0.11731 -0.35088,0.11731 h -2.1332 z m 0,2.65565 h 2.19314 c 0.42762,0 0.64131,0.12233 0.64131,0.3669 v 1.31568 c 0,0.25761 -0.189,0.38603 -0.56689,0.38603 h -2.26756 z"
         style="font-style:normal;font-variant:normal;font-weight:normal;font-stretch:normal;font-size:13.41490841px;line-height:1.25;font-family:Uroob;-inkscape-font-specification:'Uroob, Normal';font-variant-ligatures:normal;font-variant-caps:normal;font-variant-numeric:normal;font-feature-settings:normal;text-align:start;letter-spacing:0px;word-spacing:0px;writing-mode:lr-tb;text-anchor:start;fill:#ffffff;fill-opacity:1;stroke:#ffffff;stroke-width:0.509;stroke-miterlimit:4;stroke-dasharray:none;stroke-opacity:1"
         inkscape:connector-curvature="0" />
      <path
         id="path885"
         transform="matrix(0.26458333,0,0,0.26458333,0,87)"
         d="m 485.42578,275.58984 c -0.77049,-0.0123 -1.26863,0.13 -1.49414,0.42578 -0.11288,0.12297 -0.11288,0.24568 0,0.36915 0.11276,0.12326 0.40518,0.51809 0.875,1.18359 0.4698,0.66552 1.1165,1.58306 1.94336,2.75391 0.82686,1.17082 1.65358,2.34808 2.48047,3.53125 0.82688,1.17082 1.64509,2.33038 2.45312,3.47656 0.82689,1.1462 1.60695,2.23624 2.33985,3.27148 v 8.74414 h 5.46875 v -8.74414 c 0.69528,-1.04756 1.4287,-2.14481 2.19922,-3.29101 0.78926,-1.14618 1.57789,-2.30379 2.36718,-3.47461 0.80807,-1.18317 1.5967,-2.35517 2.36719,-3.51367 0.78927,-1.17085 1.39981,-2.08118 1.83203,-2.73438 0.45085,-0.65325 0.71568,-1.03562 0.79102,-1.14648 0.0753,-0.11087 0.0562,-0.25319 -0.0566,-0.42579 -0.11273,-0.18469 -0.60235,-0.30217 -1.4668,-0.35156 h -3.60742 l -7.33008,10.64844 -7.83594,-10.72266 z m 100.46094,0.0742 c -1.72888,0 -3.3081,0.3699 -4.73633,1.10938 -1.42823,0.73945 -2.14062,1.66945 -2.14062,2.79101 v 15.91797 c 0,1.12151 0.71239,2.04628 2.14062,2.77344 1.40944,0.72716 2.98865,1.08984 4.73633,1.08984 h 12.17773 v -2.88281 h -11.83984 c -0.73288,0 -1.26718,-0.15478 -1.60547,-0.46289 -0.33824,-0.30813 -0.50781,-0.68329 -0.50781,-1.12695 v -6.13867 h 12.79687 v -2.84571 h -12.79687 v -5.71289 c 0,-0.44366 0.16957,-0.82077 0.50781,-1.1289 0.33829,-0.30814 0.87259,-0.46094 1.60547,-0.46094 h 11.83984 v -2.92188 z m 101.13086,0 c -1.72888,0 -3.3081,0.3699 -4.73633,1.10938 -1.42823,0.73945 -2.14258,1.66945 -2.14258,2.79101 v 15.95508 c 0,1.09687 0.61052,2.00917 1.83203,2.73633 1.22147,0.72716 2.69685,1.08984 4.42578,1.08984 h 6.48438 c 1.50337,0 2.81775,-0.32008 3.94531,-0.96093 v 0.96093 h 4.90625 v -11.3125 c 0,-0.56693 -0.5744,-0.85156 -1.7207,-0.85156 h -6.5957 c -0.3383,-0.0247 -0.67543,1.4e-4 -1.01368,0.0742 -0.33826,0.074 -0.50781,0.33368 -0.50781,0.77734 v 2.36524 h 4.56641 v 3.54883 c 0,0.69019 -0.38578,1.28244 -1.15625,1.77539 -0.77055,0.493 -1.69058,0.74023 -2.76172,0.74023 h -5.1875 c -1.40941,0 -2.11328,-0.46237 -2.11328,-1.38672 v -14.90039 c 0,-0.44366 0.16957,-0.82077 0.50781,-1.1289 0.33827,-0.30814 0.87257,-0.46094 1.60547,-0.46094 h 6.99023 c 1.03358,0 1.70128,0.28265 2.00196,0.84961 0.15017,0.27111 0.22461,0.82073 0.22461,1.64648 h 5.10351 v -1.51758 c 0,-1.09689 -0.60196,-2.01966 -1.80469,-2.77148 -1.22149,-0.75177 -2.66928,-1.12891 -4.34179,-1.12891 z m -64.22656,0.0195 c -1.67255,0 -3.0336,0.39486 -4.08594,1.1836 -1.05237,0.78878 -1.58008,1.73648 -1.58008,2.8457 v 5.17578 c 0,1.13383 0.56387,2.10845 1.69141,2.92188 1.12758,0.81343 2.54775,1.2207 4.25781,1.2207 h 7.1875 c 1.42821,0 2.14258,0.48012 2.14258,1.44141 v 4.54687 c 0,0.92432 -0.71437,1.38672 -2.14258,1.38672 h -6.625 c -0.60135,0 -1.08898,-0.0852 -1.46484,-0.25781 -0.35699,-0.18487 -0.51606,-0.49246 -0.47852,-0.92383 h -4.84961 c 0,1.20781 0.52573,2.19817 1.57813,2.97461 1.03357,0.77644 2.47279,1.16601 4.31445,1.16601 h 8.73828 c 1.71011,0 3.12832,-0.40204 4.25586,-1.20312 1.12756,-0.81343 1.69141,-1.78606 1.69141,-2.91992 v -5.17578 c 0,-1.0969 -0.52573,-2.03934 -1.57813,-2.82813 -1.03357,-0.78874 -2.39658,-1.18359 -4.08789,-1.18359 h -7.4707 c -1.42821,0 -2.14258,-0.46237 -2.14258,-1.38672 v -4.54883 c 0,-0.97361 0.71437,-1.45898 2.14258,-1.45898 h 6.06054 c 1.33425,0 1.98286,0.34501 1.94532,1.03515 h 4.8496 c 10e-6,-1.17079 -0.49815,-2.13294 -1.49414,-2.88476 -1.01477,-0.75178 -2.38825,-1.12696 -4.11718,-1.12696 z m -172.41407,0.0371 v 23.625 h 15.50196 c 1.65369,0 2.96154,-0.39484 3.91992,-1.18359 0.95841,-0.77647 1.4375,-1.71891 1.4375,-2.82813 v -5.04687 c 0,-1.78707 -0.97725,-2.86462 -2.93164,-3.23438 1.39064,-0.43139 2.08593,-1.30628 2.08593,-2.625 v -4.54687 c 0,-1.13386 -0.46853,-2.10649 -1.4082,-2.91992 -0.93959,-0.81339 -2.25596,-1.22071 -3.94726,-1.22071 h -9.5293 v -0.0195 z m 87.25586,0 v 23.625 h 15.05274 c 1.69134,0 3.04578,-0.33765 4.06054,-1.01562 1.01484,-0.69018 1.52149,-1.58475 1.52149,-2.68164 v -15.71289 c 0,-1.20779 -0.65719,-2.21257 -1.97266,-3.01367 -1.3155,-0.80104 -2.89468,-1.20118 -4.73633,-1.20118 z m 119.97852,0 c -0.37571,0 -0.7043,0.0926 -0.98633,0.27735 -0.282,0.18494 -0.42383,0.40006 -0.42383,0.64648 v 22.70117 h 5.1875 v -22.70117 c 0,-0.24642 -0.1418,-0.46154 -0.42383,-0.64648 -0.28187,-0.1847 -0.61046,-0.27735 -0.98632,-0.27735 z m 64.45117,0 c -0.37574,0 -0.70628,0.0926 -0.98828,0.27735 -0.28203,0.18494 -0.42188,0.40006 -0.42188,0.64648 v 22.73828 h 5.18555 v -15.17773 c 2.08595,2.55118 4.44524,5.38054 7.07617,8.48633 2.63096,3.10581 4.46252,5.33571 5.4961,6.6914 h 2.53711 c 0.37571,0 0.70432,-0.0852 0.98632,-0.25781 0.28203,-0.18494 0.42383,-0.40201 0.42383,-0.64844 V 275.7207 h -5.1875 v 15.47266 c -0.13155,-0.17255 -0.4135,-0.52279 -0.8457,-1.05274 -0.41346,-0.52996 -0.92014,-1.17202 -1.52149,-1.92382 -0.60134,-0.76412 -1.25852,-1.59447 -1.97265,-2.49414 -0.71411,-0.91205 -1.43898,-1.83152 -2.17188,-2.75586 -0.71408,-0.92432 -1.41795,-1.81698 -2.11328,-2.67969 -0.67651,-0.86272 -1.27847,-1.6327 -1.80469,-2.31055 -0.52621,-0.67787 -0.94813,-1.22025 -1.26757,-1.62695 -0.3195,-0.40643 -0.47852,-0.61631 -0.47852,-0.62891 z m -179.29883,2.86524 h 7.89258 c 0.39462,-0.0113 0.74223,0.0424 1.04297,0.16601 0.97712,0.36964 1.4668,0.96722 1.4668,1.79297 v 14.3086 c 0,0.18519 -0.0192,0.377 -0.0566,0.57421 -0.11301,0.6649 -0.64901,1.0027 -1.60743,1.01563 h -8.73828 z m -87.25781,0.0937 h 7.44336 c 1.61612,0 2.42383,0.46044 2.42383,1.38476 v 4.28907 c 0,0.35754 -0.15911,0.68468 -0.47852,0.98046 -0.30047,0.29594 -0.74363,0.44336 -1.32617,0.44336 h -8.0625 z m 0,10.03711 h 8.28906 c 1.61617,0 2.42383,0.46236 2.42383,1.38672 v 4.97265 c 0,0.97365 -0.71433,1.45899 -2.14258,1.45899 h -8.57031 z"
         style="font-style:normal;font-variant:normal;font-weight:normal;font-stretch:normal;font-size:13.41490841px;line-height:1.25;font-family:Uroob;-inkscape-font-specification:'Uroob, Normal';font-variant-ligatures:normal;font-variant-caps:normal;font-variant-numeric:normal;font-feature-settings:normal;text-align:start;letter-spacing:0px;word-spacing:0px;writing-mode:lr-tb;text-anchor:start;fill:url(#linearGradient1113);fill-opacity:1;stroke:url(#linearGradient1105);stroke-width:1.92377949;stroke-miterlimit:4;stroke-dasharray:none;stroke-opacity:1"
         inkscape:connector-curvature="0" />
    </g>
    <g
       transform="translate(1.0583333,68.784431)"
       style="fill:#999999;stroke:none;filter:url(#filter1141)"
       id="g1175">
      <path
         id="path1165"
         d="m 100.43929,149.67187 c -3.708425,0.004 -7.356092,0.0399 -10.5583,0.0523 0.0516,6.61948 3.476223,6.6439 12.69513,6.76515 0.46605,0.0272 0.83659,0.75797 0.83688,1.6505 -5.3e-4,0.89208 -0.37106,1.62201 -0.83688,1.64914 v 0.002 h -0.0226 c -0.001,1.3e-4 -0.003,1.7e-4 -0.004,3.5e-4 -0.002,-1.2e-4 -0.003,-1.8e-4 -0.005,-3.5e-4 H 89.60089 c -0.672816,3.09825 -2.255741,6.44783 -4.457613,6.43444 l 2.216471,-0.0465 2.649151,0.0157 -0.0079,-0.026 h 14.054241 c 5.84945,-0.0244 5.88689,-8.25936 5.88689,-8.25936 h -0.0246 c -0.0572,-1.42398 -0.49303,-8.20442 -5.76376,-8.22823 -1.23534,-0.008 -2.47835,-0.0105 -3.71449,-0.009 z"
         style="fill:#999999;fill-opacity:1;stroke:none;stroke-width:0.37863776"
         inkscape:connector-curvature="0" />
      <path
         inkscape:connector-curvature="0"
         id="path1167"
         d="m 85.762633,149.29908 -0.523959,0.003 c 0.17642,-10e-4 0.351146,0.0217 0.523959,0.061 z"
         style="fill:#999999;stroke:none;stroke-width:0.28518623" />
      <path
         sodipodi:nodetypes="ccccccccccccccccc"
         inkscape:connector-curvature="0"
         id="path1169"
         d="m 51.546206,140.34041 c -3.356797,-0.11219 -10.666036,4.46829 -10.608138,12.61784 -0.360328,11.81253 7.73652,13.23622 10.790039,13.17852 l 6.701401,0.0134 c 3.531772,0.13131 6.809933,-0.16006 6.69313,-6.1097 l 0.0093,-4.42247 v 0 l -0.03499,-5.8277 -12.226258,-0.0236 c -1.624706,2.21103 -1.560198,4.10369 -0.29495,5.87495 l 5.734913,-0.0236 -0.0186,4.30878 -6.725172,0.0181 c -4.643143,-0.71301 -5.546828,-10.82183 -0.04807,-13.40901 l 35.687743,0.0114 c -0.0028,-1.40371 0.216451,-4.27543 2.716112,-6.07767 z"
         style="fill:#999999;fill-opacity:1;stroke:none;stroke-width:0.30221924px;stroke-linecap:butt;stroke-linejoin:miter;stroke-opacity:1" />
      <path
         sodipodi:nodetypes="cccccccc"
         inkscape:connector-curvature="0"
         id="path1171"
         d="m 80.236676,149.84187 -0.04378,9.96423 -12.487247,-0.0219 c 0.04678,6.40091 -2.827797,6.4749 -2.467625,6.55189 l 14.99557,-0.18466 c 7.024707,0.12934 6.676711,-8.15429 6.676711,-8.15429 l 0.03706,-8.24279 z"
         style="fill:#999999;fill-opacity:1;stroke:none;stroke-width:0.33145827" />
      <path
         inkscape:connector-curvature="0"
         id="path1173"
         transform="matrix(0.26458333,0,0,0.26458333,0,87)"
         d="m 415.12891,202.28125 0.0312,0.0684 h -53.13672 c -22.11564,0.065 -22.25781,21.92383 -22.25782,21.92383 h 57.69336 18.31641 v -0.11133 -0.16992 h 0.0156 c 0.45525,-9.17506 9.41517,-21.66948 19.37304,-21.62696 l -10.01953,-0.043 z"
         style="fill:#999999;fill-opacity:1;stroke:none;stroke-width:1.15431476" />
    </g>
    <path
       inkscape:connector-curvature="0"
       id="path1177"
       d="m 51.546206,208.06651 c -3.356795,-0.11219 -10.666034,4.46829 -10.608138,12.61784 -0.360328,11.81253 7.73652,13.23622 10.790039,13.17852 l 6.701401,0.0134 c 3.531772,0.13131 6.809933,-0.16006 6.69313,-6.1097 l 0.0093,-4.42247 -0.03514,-5.82755 -12.226129,-0.0238 c -1.624706,2.21103 -1.560319,4.10383 -0.295071,5.87509 l 5.73505,-0.0238 -0.0186,4.30878 -6.725172,0.0181 c -4.643143,-0.71301 -5.546817,-10.82182 -0.04806,-13.409 l 35.687743,0.0114 c -0.0028,-1.40371 0.216453,-4.27542 2.716112,-6.07766 z"
       style="fill:url(#linearGradient1201);fill-opacity:1;stroke:#000000;stroke-width:0.30221924px;stroke-linecap:butt;stroke-linejoin:miter;stroke-opacity:1" />
    <path
       sodipodi:nodetypes="cccccccc"
       inkscape:connector-curvature="0"
       id="path1179"
       d="m 80.236676,217.56797 -0.04378,9.96423 -12.487247,-0.0219 c 0.04678,6.40091 -2.827797,6.4749 -2.467625,6.55189 l 14.99557,-0.18466 c 7.024707,0.12934 6.676711,-8.15429 6.676711,-8.15429 l 0.03706,-8.24279 z"
       style="fill:url(#linearGradient1203);fill-opacity:1;stroke:url(#linearGradient1205);stroke-width:0.33145827;stroke-opacity:1" />
    <path
       id="path1181"
       d="m 100.43929,217.39797 c -3.708425,0.004 -7.356092,0.0399 -10.5583,0.0523 0.0516,6.61948 3.476223,6.6439 12.69513,6.76515 0.46605,0.0272 0.83659,0.75797 0.83688,1.6505 -5.3e-4,0.89208 -0.37106,1.62201 -0.83688,1.64914 v 0.002 h -0.0226 c -0.001,1.3e-4 -0.003,1.7e-4 -0.004,3.5e-4 -0.002,-1.2e-4 -0.003,-1.8e-4 -0.005,-3.5e-4 H 89.60089 c -0.672816,3.09825 -2.255741,6.44783 -4.457613,6.43444 l 2.216471,-0.0465 2.649151,0.0157 -0.0079,-0.026 h 14.054241 c 5.84945,-0.0244 5.88689,-8.25936 5.88689,-8.25936 h -0.0246 c -0.0572,-1.42398 -0.49303,-8.20442 -5.76376,-8.22823 -1.23534,-0.008 -2.47835,-0.0105 -3.71449,-0.009 z"
       style="fill:url(#linearGradient1207);fill-opacity:1;stroke:url(#linearGradient1209);stroke-width:0.37863776;stroke-opacity:1"
       inkscape:connector-curvature="0" />
    <path
       id="path1183"
       d="m 109.83619,208.24635 0.008,0.0181 H 95.785354 c -5.85143,0.0172 -5.889045,5.80068 -5.889048,5.80068 h 15.264704 4.84621 v -0.0294 -0.045 h 0.004 c 0.12045,-2.42757 2.4911,-5.73338 5.12578,-5.72213 l -2.651,-0.0114 z"
       style="fill:url(#linearGradient1211);fill-opacity:1;stroke:url(#linearGradient1239);stroke-width:0.30541244;stroke-opacity:1"
       inkscape:connector-curvature="0" />
    <g
       id="g1199"
       transform="translate(0,67.726098)">
      <path
         id="path1187"
         d="m 128.96474,160.44564 c -0.20386,-0.003 -0.33566,0.0344 -0.39533,0.11266 -0.0299,0.0325 -0.0299,0.065 0,0.0977 0.0298,0.0326 0.10721,0.13708 0.23152,0.31316 0.1243,0.17608 0.2954,0.41885 0.51418,0.72864 0.21877,0.30978 0.43751,0.62126 0.65629,0.93431 0.21878,0.30978 0.43526,0.61658 0.64905,0.91984 0.21878,0.30326 0.42517,0.59167 0.61909,0.86558 v 2.31355 h 1.44694 v -2.31355 c 0.18396,-0.27717 0.37801,-0.56749 0.58187,-0.87075 0.20883,-0.30326 0.41749,-0.60955 0.62632,-0.91933 0.2138,-0.31304 0.42246,-0.62313 0.62632,-0.92965 0.20883,-0.30979 0.37037,-0.55065 0.48472,-0.72348 0.11929,-0.17283 0.18936,-0.274 0.20929,-0.30333 0.0199,-0.0293 0.0149,-0.067 -0.015,-0.11266 -0.0298,-0.0489 -0.15937,-0.0799 -0.38809,-0.093 h -0.95447 l -1.93941,2.8174 -2.07326,-2.83704 z m 26.58029,0.0196 c -0.45743,0 -0.87527,0.0979 -1.25315,0.29353 -0.37789,0.19564 -0.56638,0.4417 -0.56638,0.73845 v 4.21163 c 0,0.29673 0.18849,0.54141 0.56638,0.73381 0.37291,0.19239 0.79074,0.28835 1.25315,0.28835 h 3.22202 v -0.76274 h -3.13262 c -0.19391,0 -0.33528,-0.041 -0.42478,-0.12248 -0.0895,-0.0815 -0.13436,-0.18078 -0.13436,-0.29817 v -1.62419 h 3.38584 v -0.75293 h -3.38584 v -1.51153 c 0,-0.11739 0.0449,-0.21716 0.13436,-0.29869 0.0895,-0.0815 0.23087,-0.12196 0.42478,-0.12196 h 3.13262 v -0.77308 z m 26.75754,0 c -0.45743,0 -0.87527,0.0979 -1.25315,0.29353 -0.37789,0.19564 -0.5669,0.4417 -0.5669,0.73845 v 4.22145 c 0,0.29021 0.16154,0.53159 0.48473,0.72399 0.32318,0.19239 0.71354,0.28835 1.17099,0.28835 h 1.71566 c 0.39776,0 0.74552,-0.0847 1.04386,-0.25425 v 0.25425 h 1.29811 v -2.9931 c 0,-0.15 -0.15198,-0.22531 -0.45527,-0.22531 h -1.74511 c -0.0895,-0.007 -0.17871,4e-5 -0.2682,0.0196 -0.0895,0.0196 -0.13436,0.0883 -0.13436,0.20567 v 0.6258 h 1.20819 v 0.93896 c 0,0.18262 -0.10207,0.33932 -0.30592,0.46974 -0.20387,0.13044 -0.4473,0.19586 -0.7307,0.19586 h -1.37253 c -0.37291,0 -0.55914,-0.12234 -0.55914,-0.36691 v -3.94239 c 0,-0.11739 0.0449,-0.21716 0.13436,-0.29869 0.0895,-0.0815 0.23087,-0.12196 0.42478,-0.12196 h 1.8495 c 0.27347,0 0.45013,0.0748 0.52968,0.2248 0.0397,0.0717 0.0594,0.21715 0.0594,0.43563 h 1.3503 v -0.40153 c 0,-0.29022 -0.15926,-0.53437 -0.47749,-0.73329 -0.32318,-0.1989 -0.70624,-0.29869 -1.14876,-0.29869 z m -16.99328,0.005 c -0.44253,0 -0.80264,0.10447 -1.08107,0.31316 -0.27844,0.2087 -0.41806,0.45944 -0.41806,0.75292 v 1.36943 c 0,0.29999 0.14919,0.55786 0.44752,0.77308 0.29834,0.21522 0.67409,0.32298 1.12654,0.32298 h 1.90169 c 0.37789,0 0.5669,0.12703 0.5669,0.38137 v 1.20303 c 0,0.24456 -0.18901,0.3669 -0.5669,0.3669 h -1.75286 c -0.15911,0 -0.28813,-0.0225 -0.38757,-0.0682 -0.0945,-0.0489 -0.13654,-0.1303 -0.12661,-0.24443 h -1.28313 c 0,0.31956 0.1391,0.5816 0.41755,0.78703 0.27347,0.20543 0.65426,0.30851 1.14153,0.30851 h 2.31201 c 0.45246,0 0.8277,-0.10638 1.12602,-0.31833 0.29834,-0.21522 0.44752,-0.47256 0.44752,-0.77256 v -1.36943 c 0,-0.29022 -0.1391,-0.53957 -0.41754,-0.74827 -0.27347,-0.20869 -0.6341,-0.31316 -1.08159,-0.31316 h -1.97662 c -0.37788,0 -0.56689,-0.12234 -0.56689,-0.3669 v -1.20355 c 0,-0.2576 0.18901,-0.38602 0.56689,-0.38602 h 1.60351 c 0.35302,0 0.52464,0.0913 0.5147,0.27388 h 1.28313 c 0,-0.30977 -0.13181,-0.56434 -0.39533,-0.76326 -0.26849,-0.1989 -0.63189,-0.29817 -1.08933,-0.29817 z m -45.61789,0.01 v 6.25078 h 4.10156 c 0.43754,0 0.78358,-0.10447 1.03715,-0.31316 0.25358,-0.20544 0.38034,-0.45479 0.38034,-0.74828 v -1.33531 c 0,-0.47283 -0.25857,-0.75793 -0.77567,-0.85577 0.36794,-0.11413 0.55191,-0.34562 0.55191,-0.69453 v -1.20302 c 0,-0.3 -0.12397,-0.55735 -0.37259,-0.77257 -0.2486,-0.2152 -0.59689,-0.32298 -1.04438,-0.32298 h -2.52129 v -0.005 z m 23.08645,0 v 6.25078 h 3.9827 c 0.4475,0 0.80587,-0.0893 1.07435,-0.26872 0.26851,-0.18261 0.40257,-0.4193 0.40257,-0.70951 v -4.15737 c 0,-0.31956 -0.17389,-0.58541 -0.52194,-0.79737 -0.34806,-0.21194 -0.76588,-0.31781 -1.25315,-0.31781 z m 31.74432,0 c -0.0994,0 -0.18635,0.0245 -0.26097,0.0734 -0.0746,0.0489 -0.11214,0.10585 -0.11214,0.17105 v 6.00635 h 1.37253 v -6.00635 c 0,-0.0652 -0.0375,-0.12212 -0.11214,-0.17105 -0.0746,-0.0489 -0.16152,-0.0734 -0.26097,-0.0734 z m 17.0527,0 c -0.0994,0 -0.18687,0.0245 -0.26148,0.0734 -0.0746,0.0489 -0.11162,0.10585 -0.11162,0.17105 v 6.01617 h 1.37201 v -4.01578 c 0.5519,0.675 1.17613,1.4236 1.87223,2.24534 0.69611,0.82175 1.18071,1.41174 1.45418,1.77044 h 0.67128 c 0.0994,0 0.18635,-0.0225 0.26096,-0.0682 0.0746,-0.0489 0.11214,-0.10637 0.11214,-0.17157 v -6.02082 h -1.37253 v 4.09381 c -0.0348,-0.0457 -0.1094,-0.13833 -0.22376,-0.27854 -0.10939,-0.14022 -0.24345,-0.3101 -0.40256,-0.50901 -0.1591,-0.20218 -0.33298,-0.42187 -0.52193,-0.65991 -0.18894,-0.24131 -0.38073,-0.48459 -0.57464,-0.72916 -0.18893,-0.24455 -0.37517,-0.48074 -0.55914,-0.709 -0.17899,-0.22826 -0.33826,-0.43198 -0.47749,-0.61133 -0.13923,-0.17935 -0.25086,-0.32286 -0.33538,-0.43046 -0.0845,-0.10754 -0.12661,-0.16307 -0.12661,-0.1664 z m -47.43948,0.75809 h 2.08824 c 0.10441,-0.003 0.19639,0.0112 0.27596,0.0439 0.25853,0.0978 0.38809,0.25591 0.38809,0.47439 v 3.78581 c 0,0.049 -0.005,0.0998 -0.015,0.15193 -0.0299,0.17592 -0.17172,0.2653 -0.4253,0.26872 h -2.312 z m -23.08696,0.0248 h 1.96939 c 0.42759,0 0.6413,0.12182 0.6413,0.36638 v 1.13482 c 0,0.0946 -0.0421,0.18115 -0.12661,0.25941 -0.0795,0.0783 -0.19675,0.11731 -0.35088,0.11731 h -2.1332 z m 0,2.65565 h 2.19314 c 0.42762,0 0.64131,0.12233 0.64131,0.3669 v 1.31568 c 0,0.25761 -0.189,0.38603 -0.56689,0.38603 h -2.26756 z"
         style="font-style:normal;font-variant:normal;font-weight:normal;font-stretch:normal;font-size:13.41490841px;line-height:1.25;font-family:Uroob;-inkscape-font-specification:'Uroob, Normal';font-variant-ligatures:normal;font-variant-caps:normal;font-variant-numeric:normal;font-feature-settings:normal;text-align:start;letter-spacing:0px;word-spacing:0px;writing-mode:lr-tb;text-anchor:start;fill:url(#linearGradient1215);fill-opacity:1;stroke:url(#linearGradient1217);stroke-width:0.509;stroke-miterlimit:4;stroke-dasharray:none;stroke-opacity:1"
         inkscape:connector-curvature="0" />
      <path
         inkscape:connector-curvature="0"
         style="font-style:normal;font-variant:normal;font-weight:normal;font-stretch:normal;font-size:30.28314209px;line-height:1.25;font-family:Uroob;-inkscape-font-specification:'Uroob, Normal';font-variant-ligatures:normal;font-variant-caps:normal;font-variant-numeric:normal;font-feature-settings:normal;text-align:start;letter-spacing:0px;word-spacing:0px;writing-mode:lr-tb;text-anchor:start;fill:#000000;fill-opacity:1;stroke:#000000;stroke-width:0.64924389;stroke-miterlimit:4;stroke-dasharray:none;stroke-opacity:1"
         d="m 158.74535,141.28764 c -1.214,0 -2.32251,0.25779 -3.32538,0.77515 -1.00287,0.51736 -1.5043,1.16872 -1.5043,1.95337 v 11.13627 c 0,0.78466 0.50143,1.43119 1.5043,1.93993 0.98968,0.50874 2.09818,0.76326 3.32538,0.76326 h 8.5509 v -2.01796 h -8.31319 c -0.51463,0 -0.89109,-0.10744 -1.12861,-0.32298 -0.23753,-0.21557 -0.35605,-0.47868 -0.35605,-0.7891 v -4.29379 h 8.98601 v -1.99213 H 157.4984 V 144.443 c 0,-0.31043 0.11852,-0.57353 0.35605,-0.78909 0.23752,-0.21557 0.61398,-0.32298 1.12861,-0.32298 h 8.31319 v -2.04329 z m 15.64918,0 c -1.21401,0 -2.32253,0.25779 -3.32538,0.77515 -1.00289,0.51736 -1.50431,1.16872 -1.50431,1.95337 v 11.13627 c 0,0.78466 0.50142,1.43119 1.50431,1.93993 0.98967,0.50874 2.09818,0.76326 3.32538,0.76326 h 8.55038 v -2.01796 h -8.31319 c -0.51463,0 -0.89057,-0.10744 -1.1281,-0.32298 -0.23753,-0.21557 -0.35605,-0.47868 -0.35605,-0.7891 v -4.29379 h 8.98602 v -1.99213 h -8.98602 V 144.443 c 0,-0.31043 0.11852,-0.57353 0.35605,-0.78909 0.23753,-0.21557 0.61347,-0.32298 1.1281,-0.32298 h 8.31319 v -2.04329 z m -50.38918,0.0129 c -1.17442,0 -2.13166,0.27549 -2.87062,0.82734 -0.73896,0.55184 -1.10795,1.21557 -1.10795,1.99161 v 3.622 c 0,0.79328 0.39579,1.47419 1.18753,2.04329 0.79173,0.5691 1.78817,0.85369 2.98896,0.85369 h 5.04672 c 1.00287,0 1.5043,0.33615 1.5043,1.00873 v 3.18171 c 0,0.6467 -0.50143,0.97049 -1.5043,0.97049 h -4.65088 c -0.42224,0 -0.76548,-0.0607 -1.02939,-0.18139 -0.25071,-0.12934 -0.36332,-0.34468 -0.33693,-0.64647 h -3.40393 c 0,0.84502 0.369,1.53934 1.10794,2.08256 0.72578,0.54324 1.73559,0.81442 3.02876,0.81442 h 6.13554 c 1.20082,0 2.19722,-0.2803 2.98897,-0.84077 0.79174,-0.56909 1.18752,-1.25002 1.18752,-2.04329 v -3.622 c 0,-0.76742 -0.36898,-1.42684 -1.10794,-1.97869 -0.72577,-0.55185 -1.68302,-0.82734 -2.87062,-0.82734 h -5.24465 c -1.00288,0 -1.5043,-0.32378 -1.5043,-0.97048 v -3.18172 c 0,-0.68119 0.50142,-1.02165 1.5043,-1.02165 h 4.25504 c 0.9369,0 1.39272,0.24111 1.36633,0.72399 h 3.40392 c 0,-0.81916 -0.34965,-1.49146 -1.04903,-2.01745 -0.71257,-0.52597 -1.67574,-0.78858 -2.88975,-0.78858 z m 13.36043,0.0253 c -0.27711,0 -0.52165,0.0607 -0.73278,0.18139 -0.19792,0.12072 -0.29662,0.2759 -0.29662,0.4656 v 1.48777 h 5.85856 v 14.39498 h 3.62252 V 143.4606 h 5.85855 v -1.48777 c -0.0792,-0.43113 -0.41545,-0.64699 -1.00924,-0.64699 z m 48.02807,0 v 14.34435 c 0,1.45723 1.28011,2.18539 3.84008,2.18539 h 7.56078 v -2.01796 h -6.72931 c -0.48824,0 -0.79179,-0.0553 -0.91054,-0.16743 -0.11876,-0.11209 -0.17828,-0.34085 -0.17828,-0.68575 v -13.6586 z"
         id="path1189" />
      <path
         id="path1191"
         d="m 158.4973,140.97345 c -1.214,0 -2.32251,0.25779 -3.32538,0.77515 -1.00287,0.51736 -1.5043,1.16872 -1.5043,1.95337 v 11.13627 c 0,0.78466 0.50143,1.43119 1.5043,1.93993 0.98968,0.50874 2.09818,0.76326 3.32538,0.76326 h 8.5509 v -2.01796 h -8.31319 c -0.51463,0 -0.89109,-0.10744 -1.12861,-0.32298 -0.23753,-0.21557 -0.35605,-0.47868 -0.35605,-0.7891 v -4.29379 h 8.98601 v -1.99213 h -8.98601 v -3.99666 c 0,-0.31043 0.11852,-0.57353 0.35605,-0.78909 0.23752,-0.21557 0.61398,-0.32298 1.12861,-0.32298 h 8.31319 v -2.04329 z m 15.64918,0 c -1.21401,0 -2.32253,0.25779 -3.32538,0.77515 -1.00289,0.51736 -1.50431,1.16872 -1.50431,1.95337 v 11.13627 c 0,0.78466 0.50142,1.43119 1.50431,1.93993 0.98967,0.50874 2.09818,0.76326 3.32538,0.76326 h 8.55038 v -2.01796 h -8.31319 c -0.51463,0 -0.89057,-0.10744 -1.1281,-0.32298 -0.23753,-0.21557 -0.35605,-0.47868 -0.35605,-0.7891 v -4.29379 h 8.98602 v -1.99213 h -8.98602 v -3.99666 c 0,-0.31043 0.11852,-0.57353 0.35605,-0.78909 0.23753,-0.21557 0.61347,-0.32298 1.1281,-0.32298 h 8.31319 v -2.04329 z m -50.38918,0.0129 c -1.17442,0 -2.13166,0.27549 -2.87062,0.82734 -0.73896,0.55184 -1.10795,1.21557 -1.10795,1.99161 v 3.622 c 0,0.79328 0.39579,1.47419 1.18753,2.04329 0.79173,0.5691 1.78817,0.85369 2.98896,0.85369 h 5.04672 c 1.00287,0 1.5043,0.33615 1.5043,1.00873 v 3.18171 c 0,0.6467 -0.50143,0.97049 -1.5043,0.97049 h -4.65088 c -0.42224,0 -0.76548,-0.0607 -1.02939,-0.18139 -0.25071,-0.12934 -0.36332,-0.34468 -0.33693,-0.64647 h -3.40393 c 0,0.84502 0.369,1.53934 1.10794,2.08256 0.72578,0.54324 1.73559,0.81442 3.02876,0.81442 h 6.13554 c 1.20082,0 2.19722,-0.2803 2.98897,-0.84077 0.79174,-0.56909 1.18752,-1.25002 1.18752,-2.04329 v -3.622 c 0,-0.76742 -0.36898,-1.42684 -1.10794,-1.97869 -0.72577,-0.55185 -1.68302,-0.82734 -2.87062,-0.82734 h -5.24465 c -1.00288,0 -1.5043,-0.32378 -1.5043,-0.97048 v -3.18172 c 0,-0.68119 0.50142,-1.02165 1.5043,-1.02165 h 4.25504 c 0.9369,0 1.39272,0.24111 1.36633,0.72399 h 3.40392 c 0,-0.81916 -0.34965,-1.49146 -1.04903,-2.01745 -0.71257,-0.52597 -1.67574,-0.78858 -2.88975,-0.78858 z m 13.36043,0.0253 c -0.27711,0 -0.52165,0.0607 -0.73278,0.18139 -0.19792,0.12072 -0.29662,0.2759 -0.29662,0.4656 v 1.48777 h 5.85856 v 14.39498 h 3.62252 v -14.39498 h 5.85855 v -1.48777 c -0.0792,-0.43113 -0.41545,-0.64699 -1.00924,-0.64699 z m 48.02807,0 V 155.356 c 0,1.45723 1.28011,2.18539 3.84008,2.18539 h 7.56078 v -2.01796 h -6.72931 c -0.48824,0 -0.79179,-0.0553 -0.91054,-0.16743 -0.11876,-0.11209 -0.17828,-0.34085 -0.17828,-0.68575 v -13.6586 z"
         style="font-style:normal;font-variant:normal;font-weight:normal;font-stretch:normal;font-size:30.28314209px;line-height:1.25;font-family:Uroob;-inkscape-font-specification:'Uroob, Normal';font-variant-ligatures:normal;font-variant-caps:normal;font-variant-numeric:normal;font-feature-settings:normal;text-align:start;letter-spacing:0px;word-spacing:0px;writing-mode:lr-tb;text-anchor:start;fill:#ffffff;fill-opacity:1;stroke:#fffff0;stroke-width:0.64924389;stroke-miterlimit:4;stroke-dasharray:none;stroke-opacity:1"
         inkscape:connector-curvature="0" />
      <path
         style="font-style:normal;font-variant:normal;font-weight:normal;font-stretch:normal;font-size:30.28314209px;line-height:1.25;font-family:Uroob;-inkscape-font-specification:'Uroob, Normal';font-variant-ligatures:normal;font-variant-caps:normal;font-variant-numeric:normal;font-feature-settings:normal;text-align:start;letter-spacing:0px;word-spacing:0px;writing-mode:lr-tb;text-anchor:start;fill:#000000;fill-opacity:1;stroke:#000000;stroke-width:2.45383525;stroke-miterlimit:4;stroke-dasharray:none;stroke-opacity:1"
         d="m 597.98242,203.18164 c -4.58834,0 -8.77798,0.97431 -12.56836,2.92969 -3.79037,1.95537 -5.68554,4.4172 -5.68554,7.38281 v 42.08984 c 0,2.96565 1.89517,5.40924 5.68554,7.33204 3.74053,1.92279 7.93013,2.88476 12.56836,2.88476 h 32.31836 v -7.62695 h -31.41992 c -1.94506,0 -3.36791,-0.40607 -4.26563,-1.22071 -0.89775,-0.81475 -1.3457,-1.80918 -1.3457,-2.98242 v -16.22851 h 33.96289 v -7.5293 h -33.96289 v -15.10547 c 0,-1.17328 0.44795,-2.16767 1.3457,-2.98242 0.89772,-0.81475 2.32057,-1.2207 4.26563,-1.2207 h 31.41992 v -7.72266 z m 59.14649,0 c -4.58835,0 -8.77803,0.97431 -12.56836,2.92969 -3.79042,1.95537 -5.68555,4.4172 -5.68555,7.38281 v 42.08984 c 0,2.96565 1.89513,5.40924 5.68555,7.33204 3.74048,1.92279 7.93016,2.88476 12.56836,2.88476 h 32.3164 v -7.62695 h -31.41992 c -1.94506,0 -3.36592,-0.40607 -4.26367,-1.22071 -0.89775,-0.81475 -1.3457,-1.80918 -1.3457,-2.98242 v -16.22851 h 33.96289 v -7.5293 h -33.96289 v -15.10547 c 0,-1.17328 0.44795,-2.16767 1.3457,-2.98242 0.89775,-0.81475 2.31861,-1.2207 4.26367,-1.2207 h 31.41992 v -7.72266 z m -190.44727,0.0488 c -4.43875,0 -8.05669,1.04122 -10.84961,3.12695 -2.79292,2.0857 -4.1875,4.59428 -4.1875,7.52735 v 13.68945 c 0,2.99822 1.49588,5.57173 4.48828,7.72266 2.99237,2.15092 6.75846,3.22656 11.29688,3.22656 h 19.07422 c 3.79037,0 5.68554,1.27046 5.68554,3.8125 v 12.02539 c 0,2.44422 -1.89517,3.66797 -5.68554,3.66797 h -17.57813 c -1.5959,0 -2.89317,-0.22947 -3.89062,-0.68555 -0.94757,-0.48884 -1.37318,-1.30274 -1.27344,-2.44336 h -12.86524 c 0,3.19378 1.39462,5.81798 4.1875,7.87109 2.74307,2.05319 6.5597,3.07813 11.44727,3.07813 h 23.18945 c 4.5385,0 8.30444,-1.05939 11.29688,-3.17773 2.9924,-2.1509 4.48828,-4.72448 4.48828,-7.72266 v -13.68945 c 0,-2.90049 -1.39458,-5.39279 -4.1875,-7.47852 -2.74307,-2.08573 -6.36104,-3.12695 -10.84961,-3.12695 h -19.82227 c -3.79041,0 -5.68554,-1.22375 -5.68554,-3.66797 v -12.02539 c 0,-2.57458 1.89513,-3.86133 5.68554,-3.86133 h 16.08204 c 3.54103,0 5.2638,0.91127 5.16406,2.73633 h 12.86523 c 0,-3.09604 -1.32152,-5.63701 -3.96484,-7.625 -2.69318,-1.98792 -6.33353,-2.98047 -10.92188,-2.98047 z m 50.49609,0.0957 c -1.04734,0 -1.97156,0.22947 -2.76953,0.68555 -0.74808,0.45626 -1.12109,1.04279 -1.12109,1.75976 v 5.62305 h 22.14258 v 54.40625 h 13.6914 v -54.40625 h 22.14258 v -5.62305 c -0.29934,-1.62946 -1.57021,-2.44531 -3.81445,-2.44531 z m 181.52344,0 v 54.21485 c 0,5.50764 4.8382,8.25976 14.51367,8.25976 h 28.57618 v -7.62695 h -25.4336 c -1.84531,0 -2.99259,-0.2089 -3.4414,-0.63281 -0.44886,-0.42365 -0.67383,-1.28824 -0.67383,-2.5918 v -51.62305 z"
         transform="matrix(0.26458333,0,0,0.26458333,0,87)"
         id="path1193"
         inkscape:connector-curvature="0" />
      <path
         inkscape:connector-curvature="0"
         style="font-style:normal;font-variant:normal;font-weight:normal;font-stretch:normal;font-size:13.41490841px;line-height:1.25;font-family:Uroob;-inkscape-font-specification:'Uroob, Normal';font-variant-ligatures:normal;font-variant-caps:normal;font-variant-numeric:normal;font-feature-settings:normal;text-align:start;letter-spacing:0px;word-spacing:0px;writing-mode:lr-tb;text-anchor:start;fill:#ffffff;fill-opacity:1;stroke:#ffffff;stroke-width:0.509;stroke-miterlimit:4;stroke-dasharray:none;stroke-opacity:1"
         d="m 128.7415,160.23067 c -0.20386,-0.003 -0.33566,0.0344 -0.39533,0.11266 -0.0299,0.0325 -0.0299,0.065 0,0.0977 0.0298,0.0326 0.10721,0.13708 0.23152,0.31316 0.1243,0.17608 0.2954,0.41885 0.51418,0.72864 0.21877,0.30978 0.43751,0.62126 0.65629,0.93431 0.21878,0.30978 0.43526,0.61658 0.64905,0.91984 0.21878,0.30326 0.42517,0.59167 0.61909,0.86558 v 2.31355 h 1.44694 v -2.31355 c 0.18396,-0.27717 0.37801,-0.56749 0.58187,-0.87075 0.20883,-0.30326 0.41749,-0.60955 0.62632,-0.91933 0.2138,-0.31304 0.42246,-0.62313 0.62632,-0.92965 0.20883,-0.30979 0.37037,-0.55065 0.48472,-0.72348 0.11929,-0.17283 0.18936,-0.274 0.20929,-0.30333 0.0199,-0.0293 0.0149,-0.067 -0.015,-0.11266 -0.0298,-0.0489 -0.15937,-0.0799 -0.38809,-0.093 h -0.95447 l -1.93941,2.8174 -2.07326,-2.83704 z m 26.58029,0.0196 c -0.45743,0 -0.87527,0.0979 -1.25315,0.29353 -0.37789,0.19564 -0.56638,0.4417 -0.56638,0.73845 v 4.21163 c 0,0.29673 0.18849,0.54141 0.56638,0.73381 0.37291,0.19239 0.79074,0.28835 1.25315,0.28835 h 3.22202 v -0.76274 h -3.13262 c -0.19391,0 -0.33528,-0.041 -0.42478,-0.12248 -0.0895,-0.0815 -0.13436,-0.18078 -0.13436,-0.29817 v -1.62419 h 3.38584 v -0.75293 h -3.38584 V 161.444 c 0,-0.11739 0.0449,-0.21716 0.13436,-0.29869 0.0895,-0.0815 0.23087,-0.12196 0.42478,-0.12196 h 3.13262 v -0.77308 z m 26.75754,0 c -0.45743,0 -0.87527,0.0979 -1.25315,0.29353 -0.37789,0.19564 -0.5669,0.4417 -0.5669,0.73845 v 4.22145 c 0,0.29021 0.16154,0.53159 0.48473,0.72399 0.32318,0.19239 0.71354,0.28835 1.17099,0.28835 h 1.71566 c 0.39776,0 0.74552,-0.0847 1.04386,-0.25425 v 0.25425 h 1.29811 v -2.9931 c 0,-0.15 -0.15198,-0.22531 -0.45527,-0.22531 h -1.74511 c -0.0895,-0.007 -0.17871,4e-5 -0.2682,0.0196 -0.0895,0.0196 -0.13436,0.0883 -0.13436,0.20567 v 0.6258 h 1.20819 v 0.93896 c 0,0.18262 -0.10207,0.33932 -0.30592,0.46974 -0.20387,0.13044 -0.4473,0.19586 -0.7307,0.19586 h -1.37253 c -0.37291,0 -0.55914,-0.12234 -0.55914,-0.36691 v -3.94239 c 0,-0.11739 0.0449,-0.21716 0.13436,-0.29869 0.0895,-0.0815 0.23087,-0.12196 0.42478,-0.12196 h 1.8495 c 0.27347,0 0.45013,0.0748 0.52968,0.2248 0.0397,0.0717 0.0594,0.21715 0.0594,0.43563 h 1.3503 v -0.40153 c 0,-0.29022 -0.15926,-0.53437 -0.47749,-0.73329 -0.32318,-0.1989 -0.70624,-0.29869 -1.14876,-0.29869 z m -16.99328,0.005 c -0.44253,0 -0.80264,0.10447 -1.08107,0.31316 -0.27844,0.2087 -0.41806,0.45944 -0.41806,0.75292 v 1.36943 c 0,0.29999 0.14919,0.55786 0.44752,0.77308 0.29834,0.21522 0.67409,0.32298 1.12654,0.32298 h 1.90169 c 0.37789,0 0.5669,0.12703 0.5669,0.38137 v 1.20303 c 0,0.24456 -0.18901,0.3669 -0.5669,0.3669 h -1.75286 c -0.15911,0 -0.28813,-0.0225 -0.38757,-0.0682 -0.0945,-0.0489 -0.13654,-0.1303 -0.12661,-0.24443 h -1.28313 c 0,0.31956 0.1391,0.5816 0.41755,0.78703 0.27347,0.20543 0.65426,0.30851 1.14153,0.30851 h 2.31201 c 0.45246,0 0.8277,-0.10638 1.12602,-0.31833 0.29834,-0.21522 0.44752,-0.47256 0.44752,-0.77256 v -1.36943 c 0,-0.29022 -0.1391,-0.53957 -0.41754,-0.74827 -0.27347,-0.20869 -0.6341,-0.31316 -1.08159,-0.31316 h -1.97662 c -0.37788,0 -0.56689,-0.12234 -0.56689,-0.3669 v -1.20355 c 0,-0.2576 0.18901,-0.38602 0.56689,-0.38602 h 1.60351 c 0.35302,0 0.52464,0.0913 0.5147,0.27388 h 1.28313 c 0,-0.30977 -0.13181,-0.56434 -0.39533,-0.76326 -0.26849,-0.1989 -0.63189,-0.29817 -1.08933,-0.29817 z m -45.61789,0.01 v 6.25078 h 4.10156 c 0.43754,0 0.78358,-0.10447 1.03715,-0.31316 0.25358,-0.20544 0.38034,-0.45479 0.38034,-0.74828 v -1.33531 c 0,-0.47283 -0.25857,-0.75793 -0.77567,-0.85577 0.36794,-0.11413 0.55191,-0.34562 0.55191,-0.69453 v -1.20302 c 0,-0.3 -0.12397,-0.55735 -0.37259,-0.77257 -0.2486,-0.2152 -0.59689,-0.32298 -1.04438,-0.32298 h -2.52129 v -0.005 z m 23.08645,0 v 6.25078 h 3.9827 c 0.4475,0 0.80587,-0.0893 1.07435,-0.26872 0.26851,-0.18261 0.40257,-0.4193 0.40257,-0.70951 v -4.15737 c 0,-0.31956 -0.17389,-0.58541 -0.52194,-0.79737 -0.34806,-0.21194 -0.76588,-0.31781 -1.25315,-0.31781 z m 31.74432,0 c -0.0994,0 -0.18635,0.0245 -0.26097,0.0734 -0.0746,0.0489 -0.11214,0.10585 -0.11214,0.17105 v 6.00635 h 1.37253 v -6.00635 c 0,-0.0652 -0.0375,-0.12212 -0.11214,-0.17105 -0.0746,-0.0489 -0.16152,-0.0734 -0.26097,-0.0734 z m 17.0527,0 c -0.0994,0 -0.18687,0.0245 -0.26148,0.0734 -0.0746,0.0489 -0.11162,0.10585 -0.11162,0.17105 v 6.01617 h 1.37201 v -4.01578 c 0.5519,0.675 1.17613,1.4236 1.87223,2.24534 0.69611,0.82175 1.18071,1.41174 1.45418,1.77044 h 0.67128 c 0.0994,0 0.18635,-0.0225 0.26096,-0.0682 0.0746,-0.0489 0.11214,-0.10637 0.11214,-0.17157 v -6.02082 h -1.37253 v 4.09381 c -0.0348,-0.0457 -0.1094,-0.13833 -0.22376,-0.27854 -0.10939,-0.14022 -0.24345,-0.3101 -0.40256,-0.50901 -0.1591,-0.20218 -0.33298,-0.42187 -0.52193,-0.65991 -0.18894,-0.24131 -0.38073,-0.48459 -0.57464,-0.72916 -0.18893,-0.24455 -0.37517,-0.48074 -0.55914,-0.709 -0.17899,-0.22826 -0.33826,-0.43198 -0.47749,-0.61133 -0.13923,-0.17935 -0.25086,-0.32286 -0.33538,-0.43046 -0.0845,-0.10754 -0.12661,-0.16307 -0.12661,-0.1664 z m -47.43948,0.75809 h 2.08824 c 0.10441,-0.003 0.19639,0.0112 0.27596,0.0439 0.25853,0.0978 0.38809,0.25591 0.38809,0.47439 v 3.78581 c 0,0.049 -0.005,0.0998 -0.015,0.15193 -0.0299,0.17592 -0.17172,0.2653 -0.4253,0.26872 h -2.312 z m -23.08696,0.0248 h 1.96939 c 0.42759,0 0.6413,0.12182 0.6413,0.36638 v 1.13482 c 0,0.0946 -0.0421,0.18115 -0.12661,0.25941 -0.0795,0.0783 -0.19675,0.11731 -0.35088,0.11731 h -2.1332 z m 0,2.65565 h 2.19314 c 0.42762,0 0.64131,0.12233 0.64131,0.3669 v 1.31568 c 0,0.25761 -0.189,0.38603 -0.56689,0.38603 h -2.26756 z"
         id="path1195" />
      <path
         style="font-style:normal;font-variant:normal;font-weight:normal;font-stretch:normal;font-size:13.41490841px;line-height:1.25;font-family:Uroob;-inkscape-font-specification:'Uroob, Normal';font-variant-ligatures:normal;font-variant-caps:normal;font-variant-numeric:normal;font-feature-settings:normal;text-align:start;letter-spacing:0px;word-spacing:0px;writing-mode:lr-tb;text-anchor:start;fill:url(#linearGradient1219);fill-opacity:1;stroke:url(#linearGradient1221);stroke-width:1.92377949;stroke-miterlimit:4;stroke-dasharray:none;stroke-opacity:1"
         d="m 485.42578,275.58984 c -0.77049,-0.0123 -1.26863,0.13 -1.49414,0.42578 -0.11288,0.12297 -0.11288,0.24568 0,0.36915 0.11276,0.12326 0.40518,0.51809 0.875,1.18359 0.4698,0.66552 1.1165,1.58306 1.94336,2.75391 0.82686,1.17082 1.65358,2.34808 2.48047,3.53125 0.82688,1.17082 1.64509,2.33038 2.45312,3.47656 0.82689,1.1462 1.60695,2.23624 2.33985,3.27148 v 8.74414 h 5.46875 v -8.74414 c 0.69528,-1.04756 1.4287,-2.14481 2.19922,-3.29101 0.78926,-1.14618 1.57789,-2.30379 2.36718,-3.47461 0.80807,-1.18317 1.5967,-2.35517 2.36719,-3.51367 0.78927,-1.17085 1.39981,-2.08118 1.83203,-2.73438 0.45085,-0.65325 0.71568,-1.03562 0.79102,-1.14648 0.0753,-0.11087 0.0562,-0.25319 -0.0566,-0.42579 -0.11273,-0.18469 -0.60235,-0.30217 -1.4668,-0.35156 h -3.60742 l -7.33008,10.64844 -7.83594,-10.72266 z m 100.46094,0.0742 c -1.72888,0 -3.3081,0.3699 -4.73633,1.10938 -1.42823,0.73945 -2.14062,1.66945 -2.14062,2.79101 v 15.91797 c 0,1.12151 0.71239,2.04628 2.14062,2.77344 1.40944,0.72716 2.98865,1.08984 4.73633,1.08984 h 12.17773 v -2.88281 h -11.83984 c -0.73288,0 -1.26718,-0.15478 -1.60547,-0.46289 -0.33824,-0.30813 -0.50781,-0.68329 -0.50781,-1.12695 v -6.13867 h 12.79687 v -2.84571 h -12.79687 v -5.71289 c 0,-0.44366 0.16957,-0.82077 0.50781,-1.1289 0.33829,-0.30814 0.87259,-0.46094 1.60547,-0.46094 h 11.83984 v -2.92188 z m 101.13086,0 c -1.72888,0 -3.3081,0.3699 -4.73633,1.10938 -1.42823,0.73945 -2.14258,1.66945 -2.14258,2.79101 v 15.95508 c 0,1.09687 0.61052,2.00917 1.83203,2.73633 1.22147,0.72716 2.69685,1.08984 4.42578,1.08984 h 6.48438 c 1.50337,0 2.81775,-0.32008 3.94531,-0.96093 v 0.96093 h 4.90625 v -11.3125 c 0,-0.56693 -0.5744,-0.85156 -1.7207,-0.85156 h -6.5957 c -0.3383,-0.0247 -0.67543,1.4e-4 -1.01368,0.0742 -0.33826,0.074 -0.50781,0.33368 -0.50781,0.77734 v 2.36524 h 4.56641 v 3.54883 c 0,0.69019 -0.38578,1.28244 -1.15625,1.77539 -0.77055,0.493 -1.69058,0.74023 -2.76172,0.74023 h -5.1875 c -1.40941,0 -2.11328,-0.46237 -2.11328,-1.38672 v -14.90039 c 0,-0.44366 0.16957,-0.82077 0.50781,-1.1289 0.33827,-0.30814 0.87257,-0.46094 1.60547,-0.46094 h 6.99023 c 1.03358,0 1.70128,0.28265 2.00196,0.84961 0.15017,0.27111 0.22461,0.82073 0.22461,1.64648 h 5.10351 v -1.51758 c 0,-1.09689 -0.60196,-2.01966 -1.80469,-2.77148 -1.22149,-0.75177 -2.66928,-1.12891 -4.34179,-1.12891 z m -64.22656,0.0195 c -1.67255,0 -3.0336,0.39486 -4.08594,1.1836 -1.05237,0.78878 -1.58008,1.73648 -1.58008,2.8457 v 5.17578 c 0,1.13383 0.56387,2.10845 1.69141,2.92188 1.12758,0.81343 2.54775,1.2207 4.25781,1.2207 h 7.1875 c 1.42821,0 2.14258,0.48012 2.14258,1.44141 v 4.54687 c 0,0.92432 -0.71437,1.38672 -2.14258,1.38672 h -6.625 c -0.60135,0 -1.08898,-0.0852 -1.46484,-0.25781 -0.35699,-0.18487 -0.51606,-0.49246 -0.47852,-0.92383 h -4.84961 c 0,1.20781 0.52573,2.19817 1.57813,2.97461 1.03357,0.77644 2.47279,1.16601 4.31445,1.16601 h 8.73828 c 1.71011,0 3.12832,-0.40204 4.25586,-1.20312 1.12756,-0.81343 1.69141,-1.78606 1.69141,-2.91992 v -5.17578 c 0,-1.0969 -0.52573,-2.03934 -1.57813,-2.82813 -1.03357,-0.78874 -2.39658,-1.18359 -4.08789,-1.18359 h -7.4707 c -1.42821,0 -2.14258,-0.46237 -2.14258,-1.38672 v -4.54883 c 0,-0.97361 0.71437,-1.45898 2.14258,-1.45898 h 6.06054 c 1.33425,0 1.98286,0.34501 1.94532,1.03515 h 4.8496 c 10e-6,-1.17079 -0.49815,-2.13294 -1.49414,-2.88476 -1.01477,-0.75178 -2.38825,-1.12696 -4.11718,-1.12696 z m -172.41407,0.0371 v 23.625 h 15.50196 c 1.65369,0 2.96154,-0.39484 3.91992,-1.18359 0.95841,-0.77647 1.4375,-1.71891 1.4375,-2.82813 v -5.04687 c 0,-1.78707 -0.97725,-2.86462 -2.93164,-3.23438 1.39064,-0.43139 2.08593,-1.30628 2.08593,-2.625 v -4.54687 c 0,-1.13386 -0.46853,-2.10649 -1.4082,-2.91992 -0.93959,-0.81339 -2.25596,-1.22071 -3.94726,-1.22071 h -9.5293 v -0.0195 z m 87.25586,0 v 23.625 h 15.05274 c 1.69134,0 3.04578,-0.33765 4.06054,-1.01562 1.01484,-0.69018 1.52149,-1.58475 1.52149,-2.68164 v -15.71289 c 0,-1.20779 -0.65719,-2.21257 -1.97266,-3.01367 -1.3155,-0.80104 -2.89468,-1.20118 -4.73633,-1.20118 z m 119.97852,0 c -0.37571,0 -0.7043,0.0926 -0.98633,0.27735 -0.282,0.18494 -0.42383,0.40006 -0.42383,0.64648 v 22.70117 h 5.1875 v -22.70117 c 0,-0.24642 -0.1418,-0.46154 -0.42383,-0.64648 -0.28187,-0.1847 -0.61046,-0.27735 -0.98632,-0.27735 z m 64.45117,0 c -0.37574,0 -0.70628,0.0926 -0.98828,0.27735 -0.28203,0.18494 -0.42188,0.40006 -0.42188,0.64648 v 22.73828 h 5.18555 v -15.17773 c 2.08595,2.55118 4.44524,5.38054 7.07617,8.48633 2.63096,3.10581 4.46252,5.33571 5.4961,6.6914 h 2.53711 c 0.37571,0 0.70432,-0.0852 0.98632,-0.25781 0.28203,-0.18494 0.42383,-0.40201 0.42383,-0.64844 V 275.7207 h -5.1875 v 15.47266 c -0.13155,-0.17255 -0.4135,-0.52279 -0.8457,-1.05274 -0.41346,-0.52996 -0.92014,-1.17202 -1.52149,-1.92382 -0.60134,-0.76412 -1.25852,-1.59447 -1.97265,-2.49414 -0.71411,-0.91205 -1.43898,-1.83152 -2.17188,-2.75586 -0.71408,-0.92432 -1.41795,-1.81698 -2.11328,-2.67969 -0.67651,-0.86272 -1.27847,-1.6327 -1.80469,-2.31055 -0.52621,-0.67787 -0.94813,-1.22025 -1.26757,-1.62695 -0.3195,-0.40643 -0.47852,-0.61631 -0.47852,-0.62891 z m -179.29883,2.86524 h 7.89258 c 0.39462,-0.0113 0.74223,0.0424 1.04297,0.16601 0.97712,0.36964 1.4668,0.96722 1.4668,1.79297 v 14.3086 c 0,0.18519 -0.0192,0.377 -0.0566,0.57421 -0.11301,0.6649 -0.64901,1.0027 -1.60743,1.01563 h -8.73828 z m -87.25781,0.0937 h 7.44336 c 1.61612,0 2.42383,0.46044 2.42383,1.38476 v 4.28907 c 0,0.35754 -0.15911,0.68468 -0.47852,0.98046 -0.30047,0.29594 -0.74363,0.44336 -1.32617,0.44336 h -8.0625 z m 0,10.03711 h 8.28906 c 1.61617,0 2.42383,0.46236 2.42383,1.38672 v 4.97265 c 0,0.97365 -0.71433,1.45899 -2.14258,1.45899 h -8.57031 z"
         transform="matrix(0.26458333,0,0,0.26458333,0,87)"
         id="path1197"
         inkscape:connector-curvature="0" />
    </g>
    <rect
       style="opacity:1;fill:url(#linearGradient1267);fill-opacity:1;stroke:none;stroke-width:0.50120068;stroke-miterlimit:4;stroke-dasharray:none;stroke-opacity:1"
       id="rect1259"
       width="2.1166666"
       height="26.166786"
       x="122.50208"
       y="140.39363" />
    <rect
       y="140.39363"
       x="122.50208"
       height="26.166786"
       width="2.1166666"
       id="rect1269"
       style="opacity:1;fill:url(#linearGradient1267);fill-opacity:1;stroke:none;stroke-width:0.50120068;stroke-miterlimit:4;stroke-dasharray:none;stroke-opacity:1" />
  </g>
</svg>
