<?xml version="1.0" encoding="iso-8859-1"?>
<!-- Generator: Adobe Illustrator 16.0.0, SVG Export Plug-In . SVG Version: 6.00 Build 0)  -->
<!DOCTYPE svg PUBLIC "-//W3C//DTD SVG 1.1//EN" "http://www.w3.org/Graphics/SVG/1.1/DTD/svg11.dtd">
<svg version="1.1" id="Capa_1" xmlns="http://www.w3.org/2000/svg" xmlns:xlink="http://www.w3.org/1999/xlink" x="0px" y="0px"
	 width="72.1px" height="72.1px" viewBox="0 0 72.1 72.1" style="enable-background:new 0 0 72.1 72.1;" xml:space="preserve">
<g>
	<g id="_x33_2_1_">
		<g>
			<path d="M70.45,57.004c-1.904-1.905-5.106-2.029-7.213-0.419L17.61,3.477C14.022-0.796,7.112-1.251,2.901,2.971
				c-1.956,1.957-3.012,4.663-2.892,7.43c0.12,2.767,1.403,5.373,3.51,7.141l53.102,45.651c-0.751,0.957-1.18,2.117-1.18,3.354
				c0,1.461,0.568,2.835,1.658,3.921c1.031,1.032,2.405,1.603,3.865,1.603c1.461,0,2.835-0.569,3.866-1.603l5.675-5.673
				C72.641,62.661,72.641,59.193,70.45,57.004z M3.079,10.269C2.995,8.334,3.703,6.512,5.203,5.012
				c1.289-1.29,3.002-2.002,4.825-2.002c2.021,0,3.93,0.892,5.243,2.455l45.327,52.761l-2.331,2.328L5.508,15.202
				C4.026,13.957,3.163,12.204,3.079,10.269z M68.336,62.622l-5.675,5.675c-0.906,0.905-2.427,0.961-3.446-0.055
				c-0.452-0.453-0.701-1.057-0.701-1.694c0-0.641,0.249-1.242,0.701-1.695l5.676-5.677c0.452-0.453,1.056-0.702,1.693-0.702
				c0.639,0,1.242,0.249,1.752,0.76c0.452,0.452,0.701,1.056,0.701,1.694S68.788,62.17,68.336,62.622z"/>
		</g>
	</g>
</g>
<g>
</g>
<g>
</g>
<g>
</g>
<g>
</g>
<g>
</g>
<g>
</g>
<g>
</g>
<g>
</g>
<g>
</g>
<g>
</g>
<g>
</g>
<g>
</g>
<g>
</g>
<g>
</g>
<g>
</g>
</svg>
