<?xml version="1.0" encoding="iso-8859-1"?>
<!-- Generator: Adobe Illustrator 16.0.0, SVG Export Plug-In . SVG Version: 6.00 Build 0)  -->
<!DOCTYPE svg PUBLIC "-//W3C//DTD SVG 1.1//EN" "http://www.w3.org/Graphics/SVG/1.1/DTD/svg11.dtd">
<svg version="1.1" id="Capa_1" xmlns="http://www.w3.org/2000/svg" xmlns:xlink="http://www.w3.org/1999/xlink" x="0px" y="0px"
	 width="76.81px" height="76.811px" viewBox="0 0 76.81 76.811" style="enable-background:new 0 0 76.81 76.811;"
	 xml:space="preserve">
<g>
	<g id="_x33_1_1_">
		<g>
			<path d="M64.512,18.435h-7.679V1.536C56.833,0.688,56.147,0,55.297,0H21.513c-0.85,0-1.536,0.688-1.536,1.536v16.898h-7.679
				c-0.848,0.001-1.535,0.687-1.535,1.537v55.302c0,0.85,0.687,1.537,1.535,1.537h52.214c0.849,0,1.535-0.688,1.535-1.537V19.971
				C66.047,19.121,65.361,18.435,64.512,18.435z M23.048,3.072h30.714v43.014H23.048V3.072z M13.834,21.507h6.143v24.579h-6.143
				V21.507z M62.976,73.736H13.834V49.158h49.142V73.736z M62.976,46.086h-6.143V21.507h6.143V46.086z M47.619,12.289H29.191
				c-0.849,0-1.535,0.688-1.535,1.537c0,0.849,0.687,1.536,1.535,1.536h18.429c0.849,0,1.535-0.688,1.535-1.536
				C49.156,12.977,48.468,12.289,47.619,12.289z M47.619,18.435H29.191c-0.849,0-1.535,0.687-1.535,1.536
				c0,0.849,0.687,1.536,1.535,1.536h18.429c0.849,0,1.535-0.688,1.535-1.536C49.156,19.121,48.468,18.435,47.619,18.435z
				 M47.619,24.579H29.191c-0.849,0-1.535,0.687-1.535,1.536c0,0.849,0.687,1.536,1.535,1.536h18.429
				c0.849,0,1.535-0.687,1.535-1.536C49.156,25.266,48.468,24.579,47.619,24.579z"/>
		</g>
	</g>
</g>
<g>
</g>
<g>
</g>
<g>
</g>
<g>
</g>
<g>
</g>
<g>
</g>
<g>
</g>
<g>
</g>
<g>
</g>
<g>
</g>
<g>
</g>
<g>
</g>
<g>
</g>
<g>
</g>
<g>
</g>
</svg>
