<?xml version="1.0" encoding="iso-8859-1"?>
<!-- Generator: Adobe Illustrator 16.0.0, SVG Export Plug-In . SVG Version: 6.00 Build 0)  -->
<!DOCTYPE svg PUBLIC "-//W3C//DTD SVG 1.1//EN" "http://www.w3.org/Graphics/SVG/1.1/DTD/svg11.dtd">
<svg version="1.1" id="Capa_1" xmlns="http://www.w3.org/2000/svg" xmlns:xlink="http://www.w3.org/1999/xlink" x="0px" y="0px"
	 width="79.882px" height="79.882px" viewBox="0 0 79.882 79.882" style="enable-background:new 0 0 79.882 79.882;"
	 xml:space="preserve">
<g>
	<g id="_x32_3_1_">
		<g>
			<path d="M58.367,33.629c0-6.778-3.719-12.693-9.213-15.846V5.761C49.154,2.584,46.572,0,43.395,0h-6.911
				c-3.176,0-5.759,2.584-5.759,5.761v12.022c-5.495,3.152-9.214,9.068-9.214,15.846v7.85c0,0.049,0.01,0.095,0.015,0.144
				c0.003,0.036,0,0.071,0.006,0.108l6.143,36.867c0.124,0.741,0.766,1.284,1.516,1.284h21.5c0.75,0,1.391-0.543,1.514-1.284
				l6.145-36.867c0.006-0.037,0.003-0.072,0.006-0.108c0.006-0.048,0.016-0.095,0.016-0.144v-7.85H58.367z M33.796,5.761
				c0-1.48,1.206-2.688,2.688-2.688h6.911c1.481,0,2.688,1.206,2.688,2.688v0.385H33.796V5.761z M33.796,9.218h12.285v7.169
				c-1.875-0.652-3.881-1.024-5.975-1.024h-0.335c-2.095,0-4.1,0.372-5.975,1.024V9.218z M24.582,33.629
				c0-8.377,6.814-15.194,15.188-15.194h0.336c8.375,0,15.189,6.817,15.189,15.194v6.312H24.582V33.629z M54.508,46.086H25.369
				l-0.512-3.072h30.162L54.508,46.086z M49.387,76.811H30.491l-4.609-27.652h28.113L49.387,76.811z"/>
		</g>
	</g>
</g>
<g>
</g>
<g>
</g>
<g>
</g>
<g>
</g>
<g>
</g>
<g>
</g>
<g>
</g>
<g>
</g>
<g>
</g>
<g>
</g>
<g>
</g>
<g>
</g>
<g>
</g>
<g>
</g>
<g>
</g>
</svg>
