<?xml version="1.0" encoding="iso-8859-1"?>
<!-- Generator: Adobe Illustrator 16.0.0, SVG Export Plug-In . SVG Version: 6.00 Build 0)  -->
<!DOCTYPE svg PUBLIC "-//W3C//DTD SVG 1.1//EN" "http://www.w3.org/Graphics/SVG/1.1/DTD/svg11.dtd">
<svg version="1.1" id="Capa_1" xmlns="http://www.w3.org/2000/svg" xmlns:xlink="http://www.w3.org/1999/xlink" x="0px" y="0px"
	 width="66.824px" height="66.824px" viewBox="0 0 66.824 66.824" style="enable-background:new 0 0 66.824 66.824;"
	 xml:space="preserve">
<g>
	<g id="_x32_6_1_">
		<g>
			<path d="M60.376,63.752H38.663c2.146-0.761,4.117-1.893,5.82-3.336l0.075,0.068l0.728-0.797c0.648-0.619,1.254-1.279,1.81-1.984
				l13.858-15.194c2.306-2.618,2.943-6.004,1.666-8.833c-1.183-2.613-3.719-4.174-6.789-4.174H15.016
				c-0.85,0-1.536,0.688-1.536,1.537v15.148c0,8.104,5.206,15,12.44,17.563H5.092c-0.849,0.001-1.536,0.687-1.536,1.537
				c0,0.849,0.687,1.536,1.536,1.536h55.284c0.849,0,1.535-0.688,1.535-1.536C61.911,64.438,61.225,63.752,60.376,63.752z
				 M51.104,46.188V32.574h4.728c1.856,0,3.311,0.865,3.988,2.367c0.775,1.714,0.326,3.838-1.152,5.519l-7.801,8.554
				C51.008,48.089,51.104,47.15,51.104,46.188z M32.119,61.762c-8.584,0-15.568-6.986-15.568-15.574V32.574h31.481v13.613
				c0,3.593-1.235,6.896-3.287,9.533l-1.653,1.813c-2.786,2.612-6.519,4.227-10.629,4.227L32.119,61.762L32.119,61.762z
				 M22.662,24.579c0.849,0,1.536-0.688,1.536-1.536V1.536C24.198,0.686,23.51,0,22.662,0s-1.535,0.687-1.535,1.536v21.507
				C21.126,23.892,21.813,24.579,22.662,24.579z M28.805,24.579c0.85,0,1.536-0.688,1.536-1.536v-12.29
				c0-0.849-0.687-1.536-1.536-1.536s-1.535,0.688-1.535,1.536v12.29C27.27,23.892,27.956,24.579,28.805,24.579z"/>
		</g>
	</g>
</g>
<g>
</g>
<g>
</g>
<g>
</g>
<g>
</g>
<g>
</g>
<g>
</g>
<g>
</g>
<g>
</g>
<g>
</g>
<g>
</g>
<g>
</g>
<g>
</g>
<g>
</g>
<g>
</g>
<g>
</g>
</svg>
