<?xml version="1.0" encoding="iso-8859-1"?>
<!-- Generator: Adobe Illustrator 16.0.0, SVG Export Plug-In . SVG Version: 6.00 Build 0)  -->
<!DOCTYPE svg PUBLIC "-//W3C//DTD SVG 1.1//EN" "http://www.w3.org/Graphics/SVG/1.1/DTD/svg11.dtd">
<svg version="1.1" id="Capa_1" xmlns="http://www.w3.org/2000/svg" xmlns:xlink="http://www.w3.org/1999/xlink" x="0px" y="0px"
	 width="92.504px" height="92.504px" viewBox="0 0 92.504 92.504" style="enable-background:new 0 0 92.504 92.504;"
	 xml:space="preserve">
<g>
	<g id="_x33_">
		<g>
			<path d="M58.571,50.578h-2.125c-0.798,0-1.447-0.648-1.447-1.448v-3.211c0-0.44,0.248-0.864,0.661-1.134
				c6.363-4.133,10.316-12.179,10.316-20.997C65.976,10.671,57.224,0,46.467,0C35.71,0,26.958,10.671,26.958,23.788
				c0,8.754,3.909,16.771,10.202,20.925c0.414,0.273,0.661,0.701,0.661,1.144v3.273c0,0.8-0.649,1.448-1.448,1.448H34.04
				c-9.018,0-17.03,4.376-22.033,11.115c-0.207,0.171-0.367,0.396-0.468,0.658c-3.104,4.446-4.931,9.847-4.931,15.668v11.412
				c0,1.697,1.375,3.072,3.071,3.072h73.146c1.696,0,3.071-1.375,3.071-3.072v-11.52C85.896,62.84,73.637,50.578,58.571,50.578z
				 M46.467,3.072c3.573,0,6.868,1.452,9.564,3.891c-2.946,6.099-9.172,10.004-16.088,10.004c-2.912,0-5.769-0.705-8.321-2.033
				C34.259,7.928,39.906,3.072,46.467,3.072z M34.04,53.65h2.333c2.496,0,4.52-2.023,4.52-4.521v-3.273
				c0-1.504-0.786-2.879-2.041-3.708c-5.243-3.461-8.822-10.383-8.822-18.36c0-2.041,0.243-4.008,0.68-5.871
				c2.86,1.389,6.021,2.122,9.235,2.122c7.692,0,14.658-4.135,18.304-10.683c2.879,3.731,4.657,8.816,4.657,14.432
				c0,8.025-3.622,14.98-8.917,18.421c-1.268,0.822-2.061,2.2-2.061,3.71v3.211c0,2.497,2.022,4.521,4.519,4.521h1.841
				c-2.453,4.408-7.07,7.17-12.227,7.17c-5.119,0-9.757-2.77-12.218-7.164C33.908,53.655,33.973,53.65,34.04,53.65z M21.69,89.432
				H9.679v-3.238h12.002c0.021,0,0.037-0.012,0.058-0.012L21.69,89.432z M21.785,83.143c-0.036-0.004-0.067-0.021-0.104-0.021H9.679
				V78.02c0-4.845,1.438-9.367,3.899-13.17c4.935,1.988,8.294,7.029,8.294,12.391L21.785,83.143z M24.761,89.432l0.183-12.527
				c0-6.33-3.771-12.066-9.4-14.689c3.754-4.387,9.027-7.436,14.987-8.306c2.78,6.077,8.815,9.983,15.529,9.983
				c6.78,0,12.793-3.918,15.557-10.045c6.077,0.762,11.451,3.771,15.271,8.172c-6.057,2.467-10.176,8.629-10.176,15.27l0.183,12.145
				H24.761V89.432z M82.825,89.432H69.965l-0.049-3.238h12.907L82.825,89.432L82.825,89.432z M82.825,83.12H69.874l-0.092-6.218
				c0-5.625,3.674-10.666,8.975-12.44c2.568,3.851,4.068,8.474,4.068,13.45V83.12z M61.609,80.048V68.623
				c0-0.568-0.315-1.093-0.815-1.357c-0.508-0.267-1.109-0.229-1.584,0.088l-12.285,8.353c-0.42,0.286-0.672,0.762-0.672,1.271
				v3.072c-0.849,0-1.535,0.688-1.535,1.536c0,0.851,0.687,1.536,1.535,1.536h15.357c0.849,0,1.535-0.688,1.535-1.536
				C63.144,80.734,62.458,80.048,61.609,80.048z M58.538,80.048h-9.214v-2.259l9.214-6.266V80.048z"/>
		</g>
	</g>
</g>
<g>
</g>
<g>
</g>
<g>
</g>
<g>
</g>
<g>
</g>
<g>
</g>
<g>
</g>
<g>
</g>
<g>
</g>
<g>
</g>
<g>
</g>
<g>
</g>
<g>
</g>
<g>
</g>
<g>
</g>
</svg>
