<?xml version="1.0" encoding="iso-8859-1"?>
<!-- Generator: Adobe Illustrator 16.0.0, SVG Export Plug-In . SVG Version: 6.00 Build 0)  -->
<!DOCTYPE svg PUBLIC "-//W3C//DTD SVG 1.1//EN" "http://www.w3.org/Graphics/SVG/1.1/DTD/svg11.dtd">
<svg version="1.1" id="Capa_1" xmlns="http://www.w3.org/2000/svg" xmlns:xlink="http://www.w3.org/1999/xlink" x="0px" y="0px"
	 width="92.504px" height="92.504px" viewBox="0 0 92.504 92.504" style="enable-background:new 0 0 92.504 92.504;"
	 xml:space="preserve">
<g>
	<g id="_x31_">
		<g>
			<path d="M58.571,50.578h-2.125c-0.798,0-1.447-0.648-1.447-1.448v-3.211c0-0.44,0.248-0.864,0.661-1.134
				c6.363-4.133,10.316-12.179,10.316-20.997C65.977,10.671,57.225,0,46.467,0C35.71,0,26.958,10.671,26.958,23.788
				c0,8.754,3.909,16.771,10.202,20.925c0.414,0.273,0.661,0.701,0.661,1.144v3.273c0,0.8-0.649,1.448-1.448,1.448H34.04
				c-15.126,0-27.432,12.311-27.432,27.441v11.412c0,1.697,1.375,3.072,3.071,3.072h73.146c1.696,0,3.071-1.375,3.071-3.072v-11.52
				C85.897,62.84,73.639,50.578,58.571,50.578z M46.467,3.072c3.573,0,6.87,1.452,9.565,3.891
				c-2.947,6.099-9.171,10.004-16.088,10.004c-2.912,0-5.769-0.705-8.321-2.033C34.259,7.928,39.906,3.072,46.467,3.072z
				 M36.373,53.65c2.496,0,4.52-2.023,4.52-4.521v-3.273c0-1.504-0.786-2.879-2.041-3.708c-5.243-3.461-8.822-10.383-8.822-18.36
				c0-2.041,0.244-4.008,0.68-5.871c2.86,1.389,6.021,2.122,9.235,2.122c7.692,0,14.658-4.135,18.304-10.683
				c2.879,3.731,4.657,8.816,4.657,14.432c0,8.025-3.622,14.98-8.917,18.421c-1.268,0.822-2.062,2.2-2.062,3.71v3.211
				c0,2.497,2.023,4.521,4.521,4.521h1.841c-2.453,4.408-7.07,7.17-12.227,7.17c-5.12,0-9.757-2.77-12.218-7.164
				c0.066,0,0.131-0.006,0.197-0.006H36.373L36.373,53.65z M82.825,89.432H70.807c0.006-0.055,0.017-0.108,0.017-0.166V76.977
				c0-0.851-0.687-1.537-1.536-1.537c-0.849,0-1.535,0.688-1.535,1.537v12.289c0,0.058,0.012,0.111,0.018,0.166H24.736
				c0.006-0.055,0.017-0.108,0.017-0.166V76.977c0-0.851-0.688-1.537-1.536-1.537c-0.848,0-1.535,0.688-1.535,1.537v12.289
				c0,0.058,0.011,0.111,0.017,0.166H9.679V78.02c0-12.211,9.101-22.396,20.852-24.11c2.781,6.077,8.816,9.983,15.53,9.983
				c6.779,0,12.793-3.918,15.557-10.045c11.957,1.5,21.208,11.698,21.208,24.064L82.825,89.432L82.825,89.432z"/>
		</g>
	</g>
</g>
<g>
</g>
<g>
</g>
<g>
</g>
<g>
</g>
<g>
</g>
<g>
</g>
<g>
</g>
<g>
</g>
<g>
</g>
<g>
</g>
<g>
</g>
<g>
</g>
<g>
</g>
<g>
</g>
<g>
</g>
</svg>
