<?xml version="1.0" encoding="iso-8859-1"?>
<!-- Generator: Adobe Illustrator 16.0.0, SVG Export Plug-In . SVG Version: 6.00 Build 0)  -->
<!DOCTYPE svg PUBLIC "-//W3C//DTD SVG 1.1//EN" "http://www.w3.org/Graphics/SVG/1.1/DTD/svg11.dtd">
<svg version="1.1" id="Capa_1" xmlns="http://www.w3.org/2000/svg" xmlns:xlink="http://www.w3.org/1999/xlink" x="0px" y="0px"
	 width="90.68px" height="90.68px" viewBox="0 0 90.68 90.68" style="enable-background:new 0 0 90.68 90.68;" xml:space="preserve"
	>
<g>
	<g id="_x34__1_">
		<g>
			<path d="M57.669,49.51h-2.127c-0.8,0-1.451-0.605-1.451-1.353v-3.144c0-0.396,0.238-0.785,0.639-1.038
				c6.383-4.056,10.349-11.959,10.349-20.625C65.077,10.476,56.319,0,45.556,0S26.034,10.476,26.034,23.351
				c0,8.603,3.922,16.479,10.234,20.555c0.398,0.257,0.637,0.648,0.637,1.048v3.204c0,0.746-0.651,1.353-1.451,1.353h-2.335
				C17.983,49.51,5.669,61.589,5.669,76.436v11.172c0,1.697,1.375,3.072,3.071,3.072H81.94c1.695,0,3.07-1.375,3.07-3.072V76.331
				C85.012,61.542,72.746,49.51,57.669,49.51z M55.834,54.674v10.611l-7.942-3.354L55.834,54.674z M45.556,3.072
				c3.573,0,6.87,1.419,9.567,3.805c-2.953,5.954-9.179,9.765-16.095,9.765c-2.911,0-5.767-0.688-8.319-1.98
				C33.352,7.816,38.997,3.072,45.556,3.072z M34.335,54.674l7.942,7.258l-7.942,3.354V54.674z M43.549,87.607h-21.5V76.816
				c0-0.851-0.687-1.536-1.535-1.536c-0.85,0-1.536,0.687-1.536,1.536v10.791H8.74V76.436c0-12.508,9.975-22.84,22.523-23.776V67.6
				c0,0.516,0.258,0.996,0.687,1.279c0.429,0.285,0.969,0.335,1.445,0.135l10.153-4.283L43.549,87.607L43.549,87.607z
				 M36.467,52.461c2.009-0.451,3.51-2.203,3.51-4.304v-3.204c0-1.473-0.786-2.818-2.042-3.63
				c-5.248-3.388-8.829-10.164-8.829-17.973c0-1.988,0.242-3.904,0.675-5.719c2.862,1.364,6.029,2.083,9.248,2.083
				c7.699,0,14.672-4.059,18.322-10.482c2.877,3.652,4.655,8.626,4.655,14.119c0,7.855-3.625,14.664-8.924,18.031
				c-1.267,0.805-2.062,2.154-2.062,3.632v3.144c0,1.842,1.151,3.42,2.789,4.085l-8.83,7.996L36.467,52.461z M81.94,87.607H71.19
				V76.816c0-0.851-0.688-1.536-1.535-1.536s-1.536,0.687-1.536,1.536v10.791H46.62V64.729l10.152,4.285
				c0.478,0.199,1.021,0.149,1.445-0.136c0.43-0.283,0.688-0.765,0.688-1.278V52.613c12.83,0.63,23.035,11.008,23.035,23.718V87.607
				z M61.978,79.889h-9.215c-0.849,0-1.535,0.688-1.535,1.536c0,0.851,0.688,1.536,1.535,1.536h9.215
				c0.85,0,1.535-0.688,1.535-1.536S62.826,79.889,61.978,79.889z"/>
		</g>
	</g>
</g>
<g>
</g>
<g>
</g>
<g>
</g>
<g>
</g>
<g>
</g>
<g>
</g>
<g>
</g>
<g>
</g>
<g>
</g>
<g>
</g>
<g>
</g>
<g>
</g>
<g>
</g>
<g>
</g>
<g>
</g>
</svg>
