<?xml version="1.0" encoding="iso-8859-1"?>
<!-- Generator: Adobe Illustrator 16.0.0, SVG Export Plug-In . SVG Version: 6.00 Build 0)  -->
<!DOCTYPE svg PUBLIC "-//W3C//DTD SVG 1.1//EN" "http://www.w3.org/Graphics/SVG/1.1/DTD/svg11.dtd">
<svg version="1.1" id="Capa_1" xmlns="http://www.w3.org/2000/svg" xmlns:xlink="http://www.w3.org/1999/xlink" x="0px" y="0px"
	 width="86.831px" height="86.831px" viewBox="0 0 86.831 86.831" style="enable-background:new 0 0 86.831 86.831;"
	 xml:space="preserve">
<g>
	<g id="_x35_">
		<g>
			<path d="M70.408,35.754h-5.021V25.753c1.883-1.784,3.009-4.359,2.834-7.196c-0.279-4.528-3.951-8.22-8.478-8.521
				c-0.209-0.014-0.416-0.021-0.622-0.021c-0.892,0-1.753,0.128-2.566,0.366c-0.165,0.049-0.331,0.071-0.495,0.071
				c-0.639,0-1.24-0.353-1.565-0.938c-1.773-3.194-5.182-5.355-9.094-5.355c-2.125,0-4.1,0.639-5.746,1.733
				C39.36,6.088,39.028,6.183,38.7,6.183c-0.545,0-1.078-0.261-1.41-0.746C35.041,2.154,31.175,0,26.897,0
				C20.006,0,14.33,5.588,14.33,12.48v0.059c0.309,0.649-0.357,1.128-1.016,1.128c-0.121,0-0.241-0.017-0.355-0.05
				c-0.667-0.2-1.345-0.308-2.064-0.308c-0.191,0-0.386,0.007-0.584,0.022c-3.052,0.24-5.651,2.274-6.49,5.221
				c-1.252,4.399,1.469,8.432,5.382,9.369v45.083c0,7.637,6.189,13.827,13.823,13.827h28.539c6.932,0,12.656-5.11,13.653-11.767
				c10.066-0.541,18.099-8.881,18.099-19.082v-7.318C83.316,41.546,77.525,35.754,70.408,35.754z M62.624,73.005
				c0,6.11-4.951,11.063-11.061,11.063h-28.54c-6.108,0-11.06-4.952-11.06-11.062V28.091c2.178,0.007,6.094,0.021,10.781,0.038
				v5.434c0,2.595,2.102,4.697,4.695,4.697h0.854c2.594,0,4.696-2.103,4.696-4.697v-5.407c11.665,0.041,25.891,0.085,29.634,0.097
				L62.624,73.005L62.624,73.005z M63.755,23.489c-1.216,1.292-2.859,2.004-4.632,2.004l-2.099-0.008L33,25.392h-0.01
				c-0.73,0-1.432,0.29-1.949,0.806c-0.52,0.519-0.812,1.223-0.812,1.957v5.407c0,1.067-0.867,1.936-1.935,1.936H27.44
				c-1.067,0-1.935-0.868-1.935-1.936v-5.434c0-1.521-1.23-2.757-2.752-2.762l-12.47-0.044c-1.312-0.182-2.482-0.914-3.228-2.024
				c-0.778-1.158-0.984-2.575-0.582-3.989c0.514-1.806,2.104-3.071,4.051-3.224c0.124-0.01,0.246-0.015,0.367-0.015
				c0.426,0,0.843,0.062,1.273,0.191c0.368,0.11,0.754,0.166,1.146,0.166c1.369,0,2.645-0.674,3.328-1.758
				c0.476-0.753,0.63-1.646,0.453-2.506C17.26,6.95,21.592,2.76,26.893,2.76c3.266,0,6.299,1.583,8.114,4.235
				c0.835,1.22,2.214,1.948,3.688,1.948c0.885,0,1.744-0.261,2.484-0.753c1.251-0.832,2.709-1.271,4.217-1.271
				c2.771,0,5.331,1.508,6.68,3.936c0.81,1.455,2.333,2.359,3.979,2.359c0.43,0,0.856-0.062,1.271-0.184
				c0.578-0.169,1.182-0.255,1.791-0.255c0.146,0,0.292,0.005,0.439,0.015c3.118,0.207,5.711,2.814,5.902,5.935
				C65.575,20.507,64.968,22.198,63.755,23.489z M80.554,55.982c0,8.623-6.701,15.711-15.166,16.328V38.517h5.021
				c5.595,0,10.146,4.552,10.146,10.147V55.982z M23.45,40.9c-0.849,0-1.535,0.688-1.535,1.536v30.725
				c0,0.849,0.687,1.534,1.535,1.534c0.85,0,1.536-0.687,1.536-1.534V42.437C24.986,41.588,24.299,40.9,23.45,40.9z M31.128,42.437
				v30.725c0,0.849,0.687,1.535,1.536,1.535c0.849,0,1.535-0.688,1.535-1.535V42.437c0-0.849-0.687-1.536-1.535-1.536
				C31.815,40.9,31.128,41.588,31.128,42.437z M41.878,74.695c0.849,0,1.535-0.687,1.535-1.534V42.437
				c0-0.849-0.687-1.536-1.535-1.536c-0.848,0-1.536,0.688-1.536,1.536v30.725C40.342,74.01,41.03,74.695,41.878,74.695z
				 M51.093,74.695c0.849,0,1.536-0.687,1.536-1.534V42.437c0-0.849-0.688-1.536-1.536-1.536c-0.849,0-1.535,0.688-1.535,1.536
				v30.725C49.558,74.01,50.243,74.695,51.093,74.695z"/>
		</g>
	</g>
</g>
<g>
</g>
<g>
</g>
<g>
</g>
<g>
</g>
<g>
</g>
<g>
</g>
<g>
</g>
<g>
</g>
<g>
</g>
<g>
</g>
<g>
</g>
<g>
</g>
<g>
</g>
<g>
</g>
<g>
</g>
</svg>
