<?xml version="1.0" encoding="iso-8859-1"?>
<!-- Generator: Adobe Illustrator 16.0.0, SVG Export Plug-In . SVG Version: 6.00 Build 0)  -->
<!DOCTYPE svg PUBLIC "-//W3C//DTD SVG 1.1//EN" "http://www.w3.org/Graphics/SVG/1.1/DTD/svg11.dtd">
<svg version="1.1" id="Capa_1" xmlns="http://www.w3.org/2000/svg" xmlns:xlink="http://www.w3.org/1999/xlink" x="0px" y="0px"
	 width="90.236px" height="90.237px" viewBox="0 0 90.236 90.237" style="enable-background:new 0 0 90.236 90.237;"
	 xml:space="preserve">
<g>
	<g id="_x31_1">
		<g>
			<path d="M78.316,56.939c6.676-0.618,11.92-6.245,11.92-13.082v-4.782c0-5.003-4.07-9.073-9.069-9.073h-2.651v-5.401
				c0-0.402-0.158-0.764-0.41-1.038c1.135-1.158,1.803-2.773,1.692-4.545c-0.183-2.96-2.583-5.373-5.541-5.57
				c-0.137-0.009-0.272-0.014-0.407-0.014c-0.582,0-1.146,0.084-1.678,0.24c-0.107,0.031-0.217,0.047-0.322,0.047
				c-0.418,0-0.812-0.23-1.023-0.613c-1.16-2.089-3.389-3.502-5.944-3.502c-1.39,0-2.681,0.418-3.756,1.134
				c-0.192,0.128-0.41,0.189-0.625,0.189c-0.356,0-0.704-0.17-0.922-0.487c-1.47-2.147-3.998-3.555-6.794-3.555
				c-4.506,0-8.216,3.653-8.216,8.159v0.038c0.202,0.424-0.234,0.737-0.664,0.737c-0.079,0-0.157-0.011-0.232-0.033
				c-0.436-0.13-0.879-0.201-1.35-0.201c-0.125,0-0.252,0.006-0.381,0.016c-1.996,0.156-3.694,1.486-4.243,3.412
				c-0.741,2.606,0.652,5.012,2.823,5.897v30.075c0,3.719,2.111,6.948,5.194,8.565h-11.41c1.568-1.709,2.55-3.967,2.55-6.465v-25.73
				c0-0.85-0.687-1.601-1.535-1.601H23.035C10.333,29.756,0,40.157,0,52.864v4.224c0,5.295,4.308,9.536,9.599,9.536h76.399
				c0.85,0,1.536-0.687,1.536-1.535c0-0.85-0.687-1.536-1.536-1.536H73.32C75.85,62.225,77.725,59.817,78.316,56.939z
				 M78.516,33.075h2.651c3.308,0,5.998,2.69,5.998,6v4.782c0,5.072-3.769,9.279-8.649,9.972V33.075z M33.785,57.087
				c0,3.385-2.595,6.142-5.895,6.465H9.599c-3.6,0-6.527-2.864-6.527-6.465v-4.226c0-0.539,0.039-1.069,0.081-1.6h30.633
				L33.785,57.087L33.785,57.087z M33.785,48.192H3.645c2.11-8.777,9.992-15.363,19.391-15.363h10.75L33.785,48.192L33.785,48.192z
				 M40.867,21.41c-0.21-0.312-0.418-0.836-0.214-1.554c0.189-0.665,0.79-1.133,1.67-1.197c0.158,0,0.304,0.022,0.47,0.072
				c0.358,0.107,0.732,0.162,1.112,0.162c1.326,0,2.57-0.667,3.248-1.74c0.457-0.725,0.625-1.574,0.496-2.4
				c0.153-2.669,2.398-4.793,5.137-4.793c1.689,0,3.322,0.85,4.259,2.217c0.782,1.143,2.074,1.824,3.456,1.824
				c0.829,0,1.633-0.243,2.325-0.704c0.608-0.405,1.319-0.619,2.056-0.619c1.352,0,2.602,0.736,3.26,1.922
				c0.752,1.353,2.172,2.193,3.709,2.193c0.4,0,0.801-0.058,1.188-0.171c0.262-0.077,0.536-0.116,0.812-0.116l0.205,0.007
				c1.414,0.095,2.592,1.277,2.678,2.694c0.052,0.811-0.226,1.58-0.776,2.167c-0.552,0.587-1.3,0.911-2.101,0.911
				c-0.293-0.001-29.112-0.102-31.829-0.111C41.557,22.089,41.139,21.816,40.867,21.41z M75.443,54.987c0,3.641-2.957,6.6-6.596,6.6
				h-18.66c-3.638,0-6.595-2.959-6.595-6.6v-28.85h31.851V54.987z M50.678,55.442c0.85,0,1.536-0.688,1.536-1.537V35.47
				c0-0.849-0.688-1.536-1.536-1.536s-1.535,0.688-1.535,1.536v18.435C49.143,54.754,49.829,55.442,50.678,55.442z M56.82,55.442
				c0.849,0,1.535-0.688,1.535-1.537V35.47c0-0.849-0.688-1.536-1.535-1.536s-1.535,0.688-1.535,1.536v18.435
				C55.285,54.754,55.973,55.442,56.82,55.442z M62.963,55.442c0.85,0,1.536-0.688,1.536-1.537V35.47
				c0-0.849-0.687-1.536-1.536-1.536s-1.535,0.688-1.535,1.536v18.435C61.428,54.754,62.113,55.442,62.963,55.442z M69.105,55.442
				c0.85,0,1.535-0.688,1.535-1.537V35.47c0-0.849-0.687-1.536-1.535-1.536c-0.85,0-1.535,0.688-1.535,1.536v18.435
				C67.57,54.754,68.257,55.442,69.105,55.442z M20.732,69.01c-3.95,0-7.166,3.217-7.166,7.169c0,3.953,3.216,7.17,7.166,7.17
				c3.949,0,7.165-3.217,7.165-7.17C27.897,72.227,24.682,69.01,20.732,69.01z M20.732,80.278c-2.259,0-4.095-1.839-4.095-4.099
				c0-2.259,1.836-4.097,4.095-4.097c2.258,0,4.094,1.838,4.094,4.097C24.826,78.439,22.99,80.278,20.732,80.278z M69.874,69.01
				c-3.95,0-7.166,3.217-7.166,7.169c0,3.953,3.216,7.17,7.166,7.17s7.165-3.217,7.165-7.17
				C77.039,72.227,73.824,69.01,69.874,69.01z M69.874,80.278c-2.259,0-4.095-1.839-4.095-4.099c0-2.259,1.836-4.097,4.095-4.097
				s4.094,1.838,4.094,4.097C73.968,78.439,72.133,80.278,69.874,80.278z"/>
		</g>
	</g>
</g>
<g>
</g>
<g>
</g>
<g>
</g>
<g>
</g>
<g>
</g>
<g>
</g>
<g>
</g>
<g>
</g>
<g>
</g>
<g>
</g>
<g>
</g>
<g>
</g>
<g>
</g>
<g>
</g>
<g>
</g>
</svg>
