<?xml version="1.0" encoding="iso-8859-1"?>
<!-- Generator: Adobe Illustrator 16.0.0, SVG Export Plug-In . SVG Version: 6.00 Build 0)  -->
<!DOCTYPE svg PUBLIC "-//W3C//DTD SVG 1.1//EN" "http://www.w3.org/Graphics/SVG/1.1/DTD/svg11.dtd">
<svg version="1.1" id="Capa_1" xmlns="http://www.w3.org/2000/svg" xmlns:xlink="http://www.w3.org/1999/xlink" x="0px" y="0px"
	 width="84.491px" height="84.491px" viewBox="0 0 84.491 84.491" style="enable-background:new 0 0 84.491 84.491;"
	 xml:space="preserve">
<g>
	<g id="_x31_8_1_">
		<g>
			<path d="M50.681,27.891c-1.123-0.351-1.877-1.386-1.877-2.58V9.217h4.191c0.85,0,1.535-0.687,1.535-1.536V1.536
				C54.53,0.687,53.845,0,52.995,0h-21.5c-0.849,0-1.535,0.687-1.535,1.536v6.145c0,0.85,0.687,1.536,1.535,1.536h3.946V25.35
				c0,1.188-0.75,2.224-1.863,2.577C22.089,31.566,14.37,42.148,14.37,54.261v23.712c0,3.596,2.923,6.519,6.515,6.519h42.721
				c3.591,0,6.515-2.923,6.515-6.519V54.261C70.12,42.112,62.308,31.516,50.681,27.891z M33.031,6.145V3.072h18.428v3.072
				L33.031,6.145L33.031,6.145z M67.05,77.973c0,1.899-1.546,3.444-3.443,3.444H20.885c-1.898,0-3.443-1.545-3.443-3.444V54.261
				c0-10.765,6.858-20.171,17.065-23.405c2.396-0.762,4.006-2.974,4.006-5.506V9.217h7.218v16.094c0,2.545,1.621,4.759,4.035,5.515
				c10.338,3.22,17.283,12.638,17.283,23.436V77.973z M25.352,52.229c-0.849,0-1.536,0.688-1.536,1.537v15.361
				c0,0.85,0.688,1.536,1.536,1.536h33.786c0.849,0,1.534-0.687,1.534-1.536V53.766c0-0.849-0.687-1.535-1.534-1.535H25.352V52.229z
				 M57.601,67.592H26.889V55.303h30.713v12.289H57.601z M30.727,46.085H54.53c0.484,0,0.941-0.228,1.23-0.618
				c0.289-0.39,0.379-0.891,0.24-1.355c-1.814-6.087-6.439-9.307-13.373-9.307c-6.933,0-11.559,3.22-13.373,9.307
				c-0.139,0.466-0.049,0.967,0.24,1.355C29.786,45.857,30.243,46.085,30.727,46.085z M42.629,37.876
				c4.759,0,7.938,1.687,9.659,5.138H32.97C34.691,39.562,37.87,37.876,42.629,37.876z"/>
		</g>
	</g>
</g>
<g>
</g>
<g>
</g>
<g>
</g>
<g>
</g>
<g>
</g>
<g>
</g>
<g>
</g>
<g>
</g>
<g>
</g>
<g>
</g>
<g>
</g>
<g>
</g>
<g>
</g>
<g>
</g>
<g>
</g>
</svg>
