<?xml version="1.0" encoding="iso-8859-1"?>
<!-- Generator: Adobe Illustrator 16.0.0, SVG Export Plug-In . SVG Version: 6.00 Build 0)  -->
<!DOCTYPE svg PUBLIC "-//W3C//DTD SVG 1.1//EN" "http://www.w3.org/Graphics/SVG/1.1/DTD/svg11.dtd">
<svg version="1.1" id="Capa_1" xmlns="http://www.w3.org/2000/svg" xmlns:xlink="http://www.w3.org/1999/xlink" x="0px" y="0px"
	 width="85.936px" height="85.936px" viewBox="0 0 85.936 85.936" style="enable-background:new 0 0 85.936 85.936;"
	 xml:space="preserve">
<g>
	<g id="_x38_">
		<g>
			<path d="M52.875,27.367c-0.623-0.459-0.647-1.236-0.461-1.809c0.316-0.978,0.479-1.991,0.479-3.014
				c0-3.021-1.357-5.842-3.671-7.702V5.091h1.776V2.698c0-1.49-1.474-2.698-3.289-2.698h-9.312c-1.816,0-3.289,1.208-3.289,2.698
				v2.393h1.901v9.676c-2.389,1.865-3.793,4.713-3.793,7.778c0,1.032,0.146,2.036,0.438,2.979c0.178,0.579,0.145,1.362-0.485,1.821
				c-4.242,3.098-6.773,8.055-6.773,13.261V80.55c0,2.972,2.414,5.386,5.384,5.386h22.375c2.97,0,5.384-2.414,5.384-5.386V40.606
				C59.539,35.393,57.049,30.443,52.875,27.367z M56.467,80.551c0,1.275-1.037,2.313-2.312,2.313H31.78
				c-1.274,0-2.312-1.038-2.312-2.313V40.606c0-4.229,2.061-8.258,5.513-10.779c1.59-1.16,2.223-3.2,1.61-5.204
				c-0.2-0.654-0.303-1.354-0.303-2.078c0-2.309,1.157-4.44,3.096-5.702c0.435-0.283,0.698-0.768,0.698-1.287V5.43h6.068v10.189
				c0,0.512,0.255,0.99,0.682,1.275c1.871,1.259,2.989,3.37,2.989,5.65c0,0.698-0.11,1.391-0.329,2.062
				c-0.65,2.005-0.037,4.059,1.562,5.233c3.44,2.537,5.413,6.461,5.413,10.766V80.551z M50.646,42.969H35.29
				c-0.849,0-1.535,0.688-1.535,1.536v27.651c0,0.849,0.687,1.535,1.535,1.535h15.357c0.85,0,1.535-0.688,1.535-1.535V44.505
				C52.182,43.655,51.496,42.969,50.646,42.969z M49.11,70.62H36.826V46.041H49.11V70.62z"/>
		</g>
	</g>
</g>
<g>
</g>
<g>
</g>
<g>
</g>
<g>
</g>
<g>
</g>
<g>
</g>
<g>
</g>
<g>
</g>
<g>
</g>
<g>
</g>
<g>
</g>
<g>
</g>
<g>
</g>
<g>
</g>
<g>
</g>
</svg>
