<?xml version="1.0" encoding="iso-8859-1"?>
<!-- Generator: Adobe Illustrator 16.0.0, SVG Export Plug-In . SVG Version: 6.00 Build 0)  -->
<!DOCTYPE svg PUBLIC "-//W3C//DTD SVG 1.1//EN" "http://www.w3.org/Graphics/SVG/1.1/DTD/svg11.dtd">
<svg version="1.1" id="Capa_1" xmlns="http://www.w3.org/2000/svg" xmlns:xlink="http://www.w3.org/1999/xlink" x="0px" y="0px"
	 width="76.81px" height="76.811px" viewBox="0 0 76.81 76.811" style="enable-background:new 0 0 76.81 76.811;"
	 xml:space="preserve">
<g>
	<g id="_x39_">
		<g>
			<path d="M38.268,0c-8.392,0-15.219,6.829-15.219,15.225v7.818c0,0.85,0.687,1.536,1.536,1.536h1.919
				c3.175,0,5.759,2.585,5.759,5.761v6.529h-1.535c-0.85,0-1.536,0.687-1.536,1.536v29.264c0,5.04,4.099,9.142,9.138,9.142h0.153
				c5.039,0,9.138-4.102,9.138-9.142V38.405c0-0.85-0.688-1.536-1.536-1.536h-1.536V30.34c0-3.176,2.583-5.761,5.759-5.761h1.919
				c0.85,0,1.536-0.687,1.536-1.536v-7.818C53.762,6.829,46.935,0,38.268,0z M44.548,67.669c0,3.347-2.723,6.067-6.066,6.067h-0.154
				c-3.345,0-6.066-2.723-6.066-6.067V46.086h12.286V67.669z M44.548,43.014H32.262v-3.072h12.286V43.014z M50.691,21.507h-0.384
				c-4.87,0-8.831,3.962-8.831,8.833v6.529h-6.143V30.34c0-4.871-3.961-8.833-8.83-8.833h-0.384v-6.282
				c0-6.7,5.45-12.152,12.424-12.152c6.696,0,12.147,5.452,12.147,12.152V21.507L50.691,21.507z M38.213,6.913
				c-5.257,0-9.534,4.278-9.534,9.537c0,0.16,0.017,0.314,0.049,0.54l0.085,1.444h17.354l1.357-0.192l0.186-1.323l0.037-0.469
				C47.747,11.191,43.469,6.913,38.213,6.913z M31.842,15.362c0.519-3.049,3.178-5.377,6.371-5.377c3.181,0,5.834,2.312,6.358,5.377
				H31.842z"/>
		</g>
	</g>
</g>
<g>
</g>
<g>
</g>
<g>
</g>
<g>
</g>
<g>
</g>
<g>
</g>
<g>
</g>
<g>
</g>
<g>
</g>
<g>
</g>
<g>
</g>
<g>
</g>
<g>
</g>
<g>
</g>
<g>
</g>
</svg>
