<?xml version="1.0" encoding="iso-8859-1"?>
<!-- Generator: Adobe Illustrator 16.0.0, SVG Export Plug-In . SVG Version: 6.00 Build 0)  -->
<!DOCTYPE svg PUBLIC "-//W3C//DTD SVG 1.1//EN" "http://www.w3.org/Graphics/SVG/1.1/DTD/svg11.dtd">
<svg version="1.1" id="Capa_1" xmlns="http://www.w3.org/2000/svg" xmlns:xlink="http://www.w3.org/1999/xlink" x="0px" y="0px"
	 width="79.585px" height="79.585px" viewBox="0 0 79.585 79.585" style="enable-background:new 0 0 79.585 79.585;"
	 xml:space="preserve">
<g>
	<g id="_x31_0">
		<g>
			<path d="M76.637,45.834c1.375-1.725,2.935-3.679,2.935-6.041c0-2.363-1.56-4.318-2.935-6.042
				c-0.933-1.167-1.812-2.27-2.082-3.277c-0.288-1.08-0.063-2.588,0.151-4.045c0.332-2.245,0.678-4.569-0.461-6.536
				c-1.155-2-3.459-2.904-5.488-3.701c-1.416-0.557-2.756-1.083-3.521-1.85c-0.768-0.768-1.293-2.107-1.851-3.525
				c-0.798-2.031-1.7-4.332-3.696-5.487c-1.641-0.95-4.156-0.813-6.537-0.462c-1.568,0.232-3.08,0.411-4.043,0.151
				C48.101,4.748,47,3.868,45.832,2.937C44.109,1.561,42.154,0,39.792,0s-4.316,1.561-6.039,2.937
				c-1.167,0.931-2.27,1.812-3.277,2.082c-0.963,0.259-2.475,0.081-4.043-0.152c-2.373-0.352-4.896-0.484-6.534,0.46
				c-1.999,1.157-2.903,3.46-3.699,5.491c-0.557,1.416-1.083,2.756-1.85,3.522c-0.768,0.768-2.106,1.294-3.524,1.851
				c-2.03,0.799-4.331,1.701-5.485,3.698c-1.141,1.969-0.795,4.292-0.462,6.538c0.216,1.458,0.439,2.966,0.151,4.046
				c-0.27,1.008-1.15,2.11-2.082,3.277c-1.375,1.725-2.935,3.68-2.935,6.043c0,2.362,1.56,4.316,2.935,6.041
				c0.932,1.167,1.812,2.27,2.082,3.277c0.288,1.08,0.064,2.588-0.151,4.045c-0.333,2.246-0.679,4.568,0.46,6.535
				c1.156,2,3.458,2.904,5.489,3.701c1.416,0.558,2.755,1.084,3.521,1.851c0.769,0.768,1.295,2.106,1.852,3.524
				c0.797,2.031,1.7,4.332,3.696,5.487c1.642,0.953,4.162,0.815,6.535,0.463c1.57-0.233,3.082-0.409,4.045-0.151
				c1.008,0.271,2.11,1.15,3.277,2.082c1.723,1.375,3.677,2.937,6.039,2.937c2.361,0,4.316-1.562,6.039-2.937
				c1.168-0.932,2.271-1.812,3.277-2.082c0.963-0.258,2.475-0.082,4.043,0.151c2.377,0.354,4.896,0.487,6.534-0.461
				c1.999-1.157,2.903-3.46,3.699-5.489c0.558-1.418,1.083-2.758,1.851-3.522c0.768-0.769,2.105-1.295,3.523-1.853
				c2.029-0.798,4.331-1.701,5.484-3.697c1.141-1.969,0.795-4.293,0.463-6.539c-0.217-1.457-0.439-2.965-0.151-4.045
				C74.826,48.104,75.705,47.001,76.637,45.834z M74.236,43.917c-1.086,1.363-2.211,2.771-2.646,4.401
				c-0.452,1.695-0.184,3.521,0.08,5.289c0.267,1.805,0.521,3.51-0.081,4.549c-0.618,1.068-2.238,1.703-3.95,2.378
				c-1.648,0.646-3.354,1.317-4.574,2.538c-1.219,1.22-1.888,2.924-2.535,4.572c-0.674,1.715-1.31,3.334-2.379,3.953
				c-0.898,0.518-2.646,0.36-4.546,0.08c-1.815-0.269-3.8-0.478-5.286-0.078c-1.631,0.435-3.039,1.561-4.4,2.646
				c-1.459,1.166-2.838,2.266-4.124,2.266c-1.287,0-2.665-1.1-4.123-2.266c-1.363-1.087-2.771-2.213-4.401-2.646
				c-0.61-0.164-1.273-0.244-2.029-0.244c-1.083,0-2.188,0.164-3.257,0.322c-1.903,0.28-3.653,0.438-4.548-0.08
				c-1.067-0.619-1.703-2.238-2.376-3.951c-0.646-1.65-1.317-3.354-2.538-4.576c-1.219-1.219-2.923-1.889-4.57-2.536
				c-1.715-0.675-3.333-1.31-3.952-2.379c-0.602-1.04-0.348-2.744-0.081-4.548c0.263-1.768,0.532-3.594,0.079-5.289
				c-0.435-1.631-1.56-3.038-2.646-4.401c-1.165-1.459-2.265-2.837-2.265-4.124s1.1-2.666,2.265-4.124
				c1.087-1.364,2.212-2.772,2.646-4.403c0.453-1.693,0.184-3.521-0.079-5.288C7.652,24.173,7.398,22.469,8,21.429
				c0.618-1.068,2.237-1.704,3.95-2.378c1.649-0.646,3.354-1.316,4.574-2.538c1.219-1.22,1.888-2.924,2.536-4.572
				c0.673-1.715,1.309-3.334,2.378-3.953c0.893-0.52,2.646-0.364,4.546-0.081c1.815,0.271,3.8,0.479,5.286,0.08
				c1.63-0.436,3.038-1.561,4.401-2.648c1.458-1.165,2.836-2.266,4.123-2.266c1.286,0,2.665,1.101,4.124,2.266
				c1.361,1.088,2.771,2.213,4.4,2.648c1.486,0.398,3.471,0.19,5.286-0.08c1.9-0.283,3.65-0.438,4.548,0.081
				c1.067,0.618,1.703,2.238,2.377,3.951c0.646,1.65,1.316,3.354,2.536,4.575c1.22,1.221,2.925,1.89,4.571,2.537
				c1.714,0.674,3.333,1.31,3.952,2.38c0.602,1.039,0.348,2.743,0.081,4.547c-0.264,1.767-0.532,3.595-0.08,5.288
				c0.436,1.631,1.561,3.039,2.646,4.403c1.166,1.458,2.266,2.837,2.266,4.124S75.402,42.458,74.236,43.917z M39.84,12.602
				c-15.013,0-27.183,12.174-27.183,27.191c0,15.018,12.17,27.191,27.183,27.191c15.012,0,27.183-12.176,27.183-27.191
				C67.023,24.775,54.852,12.602,39.84,12.602z M39.84,63.911c-13.295,0-24.111-10.819-24.111-24.118
				c0-13.3,10.816-24.119,24.111-24.119s24.11,10.819,24.11,24.119C63.951,53.092,53.135,63.911,39.84,63.911z M58.244,48.07
				c-0.744-0.405-1.679-0.131-2.084,0.611c-3.264,5.981-9.516,9.695-16.319,9.695c-6.657,0-12.843-3.596-16.147-9.385
				c-0.42-0.736-1.355-0.995-2.095-0.571c-0.736,0.42-0.993,1.356-0.571,2.097C24.875,57.261,32.083,61.45,39.84,61.45
				c7.928,0,15.214-4.328,19.016-11.295C59.263,49.41,58.99,48.479,58.244,48.07z M40.029,18.973
				c-7.929,0-15.216,4.328-19.017,11.295c-0.407,0.746-0.133,1.679,0.611,2.086c0.234,0.127,0.486,0.188,0.734,0.188
				c0.545,0,1.071-0.29,1.351-0.8c3.263-5.981,9.516-9.696,16.319-9.696c6.655,0,12.844,3.597,16.147,9.384
				c0.42,0.737,1.358,0.995,2.095,0.572c0.736-0.421,0.993-1.359,0.571-2.097C54.992,23.161,47.783,18.973,40.029,18.973z"/>
		</g>
	</g>
</g>
<g>
</g>
<g>
</g>
<g>
</g>
<g>
</g>
<g>
</g>
<g>
</g>
<g>
</g>
<g>
</g>
<g>
</g>
<g>
</g>
<g>
</g>
<g>
</g>
<g>
</g>
<g>
</g>
<g>
</g>
</svg>
