<?xml version="1.0" encoding="iso-8859-1"?>
<!-- Generator: Adobe Illustrator 16.0.0, SVG Export Plug-In . SVG Version: 6.00 Build 0)  -->
<!DOCTYPE svg PUBLIC "-//W3C//DTD SVG 1.1//EN" "http://www.w3.org/Graphics/SVG/1.1/DTD/svg11.dtd">
<svg version="1.1" id="Capa_1" xmlns="http://www.w3.org/2000/svg" xmlns:xlink="http://www.w3.org/1999/xlink" x="0px" y="0px"
	 width="76.553px" height="76.553px" viewBox="0 0 76.553 76.553" style="enable-background:new 0 0 76.553 76.553;"
	 xml:space="preserve">
<g>
	<g id="_x32_8">
		<g>
			<path d="M38.277,0C17.179,0,0.014,17.171,0.014,38.278c0,21.104,17.165,38.275,38.263,38.275s38.262-17.171,38.262-38.275
				C76.539,17.171,59.373,0,38.277,0z M38.277,73.48c-19.406,0-35.191-15.791-35.191-35.203S18.87,3.072,38.277,3.072
				c19.407,0,35.191,15.794,35.191,35.206S57.683,73.48,38.277,73.48z M52.551,10.237l-0.137,0.239l-1.24,2.506
				c9.559,4.876,15.494,14.579,15.494,25.32c0,4.497-1.041,8.824-3.096,12.859c-0.387,0.756-0.084,1.68,0.672,2.063
				c0.223,0.113,0.459,0.168,0.695,0.168c0.559,0,1.1-0.307,1.368-0.841c2.276-4.47,3.431-9.265,3.431-14.251
				C69.74,26.4,63.162,15.649,52.551,10.237z M25.379,63.57C15.821,58.695,9.885,48.993,9.885,38.255
				c0-4.48,1.034-8.795,3.077-12.824c0.384-0.756,0.081-1.68-0.679-2.064c-0.746-0.371-1.673-0.08-2.063,0.679
				c-2.261,4.461-3.407,9.244-3.407,14.21c0,11.898,6.578,22.649,16.946,27.915c0.108,0.081,0.268,0.168,0.394,0.216
				c0.183,0.075,0.372,0.111,0.558,0.111c0.582,0,1.131-0.346,1.389-0.912C26.438,64.838,26.108,63.943,25.379,63.57z
				 M51.791,11.572l0.623-1.096l0.123-0.249L51.791,11.572z M38.277,25.873c-6.849,0-12.4,5.554-12.4,12.404
				s5.552,12.405,12.4,12.405s12.4-5.555,12.4-12.405S45.125,25.873,38.277,25.873z M38.277,40.464
				c-1.207,0-2.186-0.979-2.186-2.187c0-1.208,0.979-2.187,2.186-2.187c1.208,0,2.186,0.979,2.186,2.187
				C40.463,39.484,39.484,40.464,38.277,40.464z"/>
		</g>
	</g>
</g>
<g>
</g>
<g>
</g>
<g>
</g>
<g>
</g>
<g>
</g>
<g>
</g>
<g>
</g>
<g>
</g>
<g>
</g>
<g>
</g>
<g>
</g>
<g>
</g>
<g>
</g>
<g>
</g>
<g>
</g>
</svg>
