<?xml version="1.0" encoding="iso-8859-1"?>
<!-- Generator: Adobe Illustrator 16.0.0, SVG Export Plug-In . SVG Version: 6.00 Build 0)  -->
<!DOCTYPE svg PUBLIC "-//W3C//DTD SVG 1.1//EN" "http://www.w3.org/Graphics/SVG/1.1/DTD/svg11.dtd">
<svg version="1.1" id="Capa_1" xmlns="http://www.w3.org/2000/svg" xmlns:xlink="http://www.w3.org/1999/xlink" x="0px" y="0px"
	 width="85.641px" height="85.642px" viewBox="0 0 85.641 85.642" style="enable-background:new 0 0 85.641 85.642;"
	 xml:space="preserve">
<g>
	<g id="_x32_0_1_">
		<g>
			<path d="M66.377,21.122h-3.91l8.063-18.986c0.333-0.779-0.032-1.683-0.812-2.013c-0.776-0.333-1.68,0.033-2.014,0.813
				l-8.574,20.186H47.809C47.183,12.619,40.086,5.89,31.428,5.89c-9.067,0-16.445,7.378-16.445,16.448
				c0,9.07,7.378,16.45,16.445,16.45c2.576,0,5.096-0.607,7.374-1.753c0.204,2.27-0.269,4.599-1.48,6.662
				c-1.994,3.401-2.699,7.3-2.033,11.266c1.115,6.634,6.263,12.008,12.81,13.376c0.731,0.152,1.469,0.242,2.204,0.301v13.93H38.018
				c-0.85,0-1.536,0.688-1.536,1.536c0,0.851,0.687,1.536,1.536,1.536H65.66c0.851,0,1.536-0.687,1.536-1.536
				c0-0.849-0.688-1.536-1.536-1.536H53.375V68.621c3.789-0.387,7.303-2.045,10.032-4.776c3.138-3.139,4.865-7.312,4.865-11.753
				c0-2.823-0.724-5.613-2.095-8.07c-2.65-4.758-1.997-10.391,1.629-14.015l1.59-1.591c1.245-1.248,1.6-3.03,0.924-4.659
				C69.646,22.134,68.133,21.122,66.377,21.122z M31.428,35.716c-7.376,0-13.374-6-13.374-13.378
				c0-7.375,5.998-13.376,13.374-13.376c6.962,0,12.692,5.354,13.31,12.16h-7.794c-1.761,0-3.271,1.012-3.947,2.638
				c-0.675,1.626-0.317,3.411,0.927,4.656l1.596,1.597c1.146,1.146,2.004,2.486,2.563,3.922
				C36.065,35.096,33.779,35.716,31.428,35.716z M39.97,45.251c3.3-5.61,2.36-12.77-2.279-17.411l-1.596-1.596
				c-0.528-0.528-0.333-1.134-0.261-1.309c0.072-0.174,0.365-0.741,1.109-0.741h20.883l-10.44,24.579h-8.853
				C38.842,47.549,39.317,46.366,39.97,45.251z M61.236,61.672c-3.245,3.247-7.903,4.624-12.507,3.661
				c-5.321-1.113-9.506-5.485-10.411-10.88c-0.147-0.876-0.206-1.747-0.192-2.607h27.061c0.002,0.082,0.017,0.164,0.017,0.246
				C65.202,55.71,63.792,59.112,61.236,61.672z M67.226,26.244l-1.591,1.59c-4.606,4.605-5.465,11.711-2.139,17.682
				c0.571,1.024,1,2.123,1.286,3.258H50.721l10.439-24.579h5.215c0.744,0,1.035,0.567,1.107,0.741
				C67.556,25.11,67.75,25.719,67.226,26.244z"/>
		</g>
	</g>
</g>
<g>
</g>
<g>
</g>
<g>
</g>
<g>
</g>
<g>
</g>
<g>
</g>
<g>
</g>
<g>
</g>
<g>
</g>
<g>
</g>
<g>
</g>
<g>
</g>
<g>
</g>
<g>
</g>
<g>
</g>
</svg>
