<?xml version="1.0" encoding="iso-8859-1"?>
<!-- Generator: Adobe Illustrator 16.0.0, SVG Export Plug-In . SVG Version: 6.00 Build 0)  -->
<!DOCTYPE svg PUBLIC "-//W3C//DTD SVG 1.1//EN" "http://www.w3.org/Graphics/SVG/1.1/DTD/svg11.dtd">
<svg version="1.1" id="Capa_1" xmlns="http://www.w3.org/2000/svg" xmlns:xlink="http://www.w3.org/1999/xlink" x="0px" y="0px"
	 width="79.752px" height="79.752px" viewBox="0 0 79.752 79.752" style="enable-background:new 0 0 79.752 79.752;"
	 xml:space="preserve">
<g>
	<g id="_x31_9">
		<g>
			<path d="M53.823,40.514l22.651-22.659c0.438-0.438,0.569-1.101,0.332-1.674c-0.235-0.573-0.797-0.948-1.418-0.948H35.654
				C35.028,6.729,27.931,0,19.273,0C10.206,0,2.828,7.378,2.828,16.448c0,9.069,7.378,16.45,16.445,16.45
				c3.053,0,5.981-0.826,8.55-2.396l10.008,10.012c1.769,1.769,4.022,2.866,6.461,3.196v32.97H32.006
				c-0.849,0-1.535,0.688-1.535,1.536c0,0.851,0.687,1.536,1.535,1.536h27.642c0.849,0,1.535-0.688,1.535-1.536
				s-0.688-1.536-1.535-1.536H47.363V43.711C49.801,43.381,52.055,42.282,53.823,40.514z M62.469,27.522H29.186l-9.214-9.218h51.709
				L62.469,27.522z M19.273,29.826c-7.375,0-13.374-6-13.374-13.378c0-7.375,5.999-13.376,13.374-13.376
				c6.963,0,12.692,5.354,13.31,12.16H16.266c-0.621,0-1.183,0.375-1.419,0.948c-0.237,0.573-0.105,1.236,0.333,1.674l10.39,10.393
				C23.643,29.279,21.501,29.826,19.273,29.826z M32.258,30.595h27.138l-7.743,7.747c-3.114,3.108-8.536,3.108-11.65,0
				L32.258,30.595z"/>
		</g>
	</g>
</g>
<g>
</g>
<g>
</g>
<g>
</g>
<g>
</g>
<g>
</g>
<g>
</g>
<g>
</g>
<g>
</g>
<g>
</g>
<g>
</g>
<g>
</g>
<g>
</g>
<g>
</g>
<g>
</g>
<g>
</g>
</svg>
