<?xml version="1.0" encoding="iso-8859-1"?>
<!-- Generator: Adobe Illustrator 16.0.0, SVG Export Plug-In . SVG Version: 6.00 Build 0)  -->
<!DOCTYPE svg PUBLIC "-//W3C//DTD SVG 1.1//EN" "http://www.w3.org/Graphics/SVG/1.1/DTD/svg11.dtd">
<svg version="1.1" id="Capa_1" xmlns="http://www.w3.org/2000/svg" xmlns:xlink="http://www.w3.org/1999/xlink" x="0px" y="0px"
	 width="73.203px" height="73.203px" viewBox="0 0 73.203 73.203" style="enable-background:new 0 0 73.203 73.203;"
	 xml:space="preserve">
<g>
	<g id="_x31_5">
		<g>
			<path d="M68.147,44.662L55.829,13.906c-0.219-0.55-0.737-0.924-1.327-0.961c-0.643-0.027-1.152,0.271-1.439,0.789l-5.705,10.311
				h-2.376l-0.498-8.148c-0.054-0.847-0.776-1.484-1.625-1.451l-8.81,0.522l3.74-4.045c0.576-0.622,0.537-1.595-0.084-2.171
				l-9.019-8.344c-0.627-0.577-1.596-0.536-2.172,0.086l-8.342,9.021c-0.575,0.622-0.536,1.595,0.085,2.171l2.519,2.331
				l-9.934,2.665c-0.393,0.105-0.729,0.363-0.93,0.716c-0.204,0.354-0.261,0.772-0.153,1.167l1.471,5.48H6.48
				c-0.848,0-1.535,0.686-1.535,1.536v32.26c0,8.47,6.89,15.362,15.356,15.362H38.73c8.467,0,15.355-6.894,15.355-15.362v-32.26
				c0-0.85-0.687-1.536-1.535-1.536h-1.685l3.315-5.992l11.115,27.752c0.239,0.602,0.815,0.965,1.426,0.965
				c0.19,0,0.384-0.034,0.568-0.108C68.082,46.344,68.463,45.449,68.147,44.662z M41.904,24.045H36.6l0.619-1.832
				c0.271-0.804-0.16-1.676-0.963-1.945l-3.895-1.314l-0.047-0.762l9.196-0.562L41.904,24.045z M27.127,24.045l-1.066-3.975
				l7.757,2.617l-0.458,1.357L27.127,24.045L27.127,24.045z M27.725,3.707l6.764,6.259l-6.254,6.766l-6.764-6.259L27.725,3.707z
				 M13.121,19.252l8.899-2.389l1.928,7.182h-9.54L13.121,19.252z M38.73,70.13H20.301c-4.536,0-8.495-2.479-10.623-6.146h39.675
				C47.225,67.651,43.266,70.13,38.73,70.13z M51.016,57.841c0,1.062-0.149,2.088-0.404,3.072H8.421
				c-0.255-0.984-0.404-2.011-0.404-3.072V27.117h42.999V57.841z"/>
		</g>
	</g>
</g>
<g>
</g>
<g>
</g>
<g>
</g>
<g>
</g>
<g>
</g>
<g>
</g>
<g>
</g>
<g>
</g>
<g>
</g>
<g>
</g>
<g>
</g>
<g>
</g>
<g>
</g>
<g>
</g>
<g>
</g>
</svg>
