<?xml version="1.0" encoding="iso-8859-1"?>
<!-- Generator: Adobe Illustrator 16.0.0, SVG Export Plug-In . SVG Version: 6.00 Build 0)  -->
<!DOCTYPE svg PUBLIC "-//W3C//DTD SVG 1.1//EN" "http://www.w3.org/Graphics/SVG/1.1/DTD/svg11.dtd">
<svg version="1.1" id="Capa_1" xmlns="http://www.w3.org/2000/svg" xmlns:xlink="http://www.w3.org/1999/xlink" x="0px" y="0px"
	 width="82.873px" height="82.873px" viewBox="0 0 82.873 82.873" style="enable-background:new 0 0 82.873 82.873;"
	 xml:space="preserve">
<g>
	<g id="_x31_6_1_">
		<g>
			<path d="M66.353,56.964h-2.457c-2.942,0-5.339,2.396-5.339,5.343v0.06h-5.488c-1.755,0-3.396-0.501-4.738-1.447
				c-2.022-1.425-4.449-2.142-6.88-2.153c0.028-2.059,0.084-7.224-0.013-9.703c-0.012-0.256-0.039-0.637-0.069-1.018
				c-0.026-0.335-0.054-0.67-0.06-0.887c-0.078-2.324-0.927-3.576-1.607-4.586c-0.601-0.886-1.035-1.526-1.035-2.985
				c0-1.181,0.534-1.733,1.56-2.686c1.071-0.996,2.541-2.361,2.541-4.938c0-2.572-1.47-3.937-2.541-4.933
				c-1.025-0.949-1.56-1.5-1.56-2.678c0-1.178,0.534-1.728,1.56-2.678c1.071-0.996,2.541-2.358,2.541-4.931
				c0-2.571-1.47-3.936-2.541-4.93c-1.025-0.95-1.56-1.5-1.56-2.678c0-1.175,0.534-1.724,1.56-2.674
				c1.071-0.993,2.541-2.355,2.541-4.925C42.767,0.686,42.079,0,41.23,0c-0.848,0-1.536,0.687-1.536,1.536
				c0,1.173-0.533,1.722-1.557,2.672c-1.073,0.993-2.543,2.355-2.543,4.927c0,2.572,1.47,3.937,2.54,4.931
				c1.026,0.95,1.56,1.5,1.56,2.677c0,1.178-0.533,1.729-1.56,2.678c-1.07,0.996-2.54,2.358-2.54,4.932
				c0,2.572,1.47,3.936,2.54,4.932c1.026,0.949,1.56,1.503,1.56,2.68c0,1.183-0.533,1.736-1.56,2.689
				c-1.073,0.996-2.54,2.365-2.54,4.939c0,2.402,0.867,3.689,1.562,4.72c0.6,0.885,1.032,1.541,1.08,2.986
				c0.012,0.253,0.039,0.667,0.069,1.049c0.026,0.334,0.054,0.734,0.06,0.961c0.101,2.567,0.028,8.229,0.006,9.832
				c-1.393,0.348-2.729,0.936-3.923,1.776c-1.344,0.946-2.981,1.446-4.739,1.446h-5.393v-0.06c0-2.946-2.396-5.342-5.339-5.342
				h-2.457c-2.943,0.002-5.339,2.397-5.339,5.345v15.223c0,2.947,2.396,5.344,5.339,5.344h2.457c2.879,0,5.22-2.298,5.32-5.156
				h3.485c2.063,0,4.064,0.762,5.636,2.145c2.205,1.94,5.033,3.01,7.97,3.01c2.938,0,5.766-1.068,7.969-3.01
				c1.572-1.383,3.572-2.145,5.637-2.145h3.582c0.101,2.858,2.44,5.156,5.319,5.156h2.457c2.942,0,5.339-2.396,5.339-5.344V62.307
				C71.691,59.359,69.295,56.964,66.353,56.964z M21.245,77.529c0,1.252-1.018,2.27-2.268,2.27h-2.456
				c-1.251,0-2.268-1.018-2.268-2.27V62.307c0-1.252,1.017-2.271,2.268-2.271h2.457c1.25,0,2.268,1.019,2.268,2.271L21.245,77.529
				L21.245,77.529z M58.557,74.645h-3.562c-2.813,0-5.533,1.032-7.664,2.909c-3.287,2.894-8.595,2.892-11.883,0.003
				c-2.129-1.88-4.85-2.912-7.663-2.912h-3.467v-9.205h5.393c2.394,0,4.646-0.695,6.509-2.01c3.035-2.143,7.307-2.143,10.342,0
				c1.865,1.313,4.118,2.01,6.51,2.01h5.487L58.557,74.645L58.557,74.645z M68.619,77.529c0,1.252-1.018,2.27-2.268,2.27h-2.457
				c-1.25,0-2.268-1.018-2.268-2.27V62.307c0-1.252,1.018-2.271,2.268-2.271h2.457c1.25,0,2.268,1.019,2.268,2.271V77.529z
				 M41.313,64.154c-3.689,0-6.691,3.003-6.691,6.692c0,3.69,3.002,6.694,6.691,6.694c3.688,0,6.691-3.004,6.691-6.694
				C48.005,67.157,45.002,64.154,41.313,64.154z M41.313,74.469c-1.997,0-3.62-1.624-3.62-3.621c0-1.996,1.623-3.619,3.62-3.619
				c1.998,0,3.62,1.623,3.62,3.619C44.934,72.845,43.312,74.469,41.313,74.469z"/>
		</g>
	</g>
</g>
<g>
</g>
<g>
</g>
<g>
</g>
<g>
</g>
<g>
</g>
<g>
</g>
<g>
</g>
<g>
</g>
<g>
</g>
<g>
</g>
<g>
</g>
<g>
</g>
<g>
</g>
<g>
</g>
<g>
</g>
</svg>
