<?xml version="1.0" encoding="iso-8859-1"?>
<!-- Generator: Adobe Illustrator 16.0.0, SVG Export Plug-In . SVG Version: 6.00 Build 0)  -->
<!DOCTYPE svg PUBLIC "-//W3C//DTD SVG 1.1//EN" "http://www.w3.org/Graphics/SVG/1.1/DTD/svg11.dtd">
<svg version="1.1" id="Capa_1" xmlns="http://www.w3.org/2000/svg" xmlns:xlink="http://www.w3.org/1999/xlink" x="0px" y="0px"
	 width="78.573px" height="78.573px" viewBox="0 0 78.573 78.573" style="enable-background:new 0 0 78.573 78.573;"
	 xml:space="preserve">
<g>
	<g id="_x31_7_1_">
		<g>
			<path d="M56.179,75.501H40.822V50.922c0-0.472-0.217-0.889-0.551-1.17c5.944-0.189,11.506-2.59,15.729-6.816
				c5.417-5.418,7.618-13.499,5.747-21.086L56.646,1.167C56.477,0.483,55.862,0,55.156,0H23.419c-0.707,0-1.322,0.483-1.492,1.167
				l-5.101,20.682c-1.872,7.588,0.33,15.668,5.747,21.086c4.224,4.228,9.784,6.627,15.729,6.816
				c-0.334,0.281-0.551,0.698-0.551,1.17v24.579H22.395c-0.849,0-1.536,0.688-1.536,1.536c0,0.85,0.688,1.536,1.536,1.536h33.785
				c0.85,0,1.535-0.688,1.535-1.536C57.714,76.188,57.029,75.501,56.179,75.501z M24.622,3.073h29.331l4.814,19.514
				c0.565,2.296,0.691,4.642,0.429,6.923c-2.322-0.205-3.603-1.188-5.051-2.312c-1.813-1.404-3.868-2.997-7.846-2.997
				s-6.032,1.593-7.846,2.997c-1.63,1.264-3.036,2.354-5.964,2.354c-2.924,0-4.331-1.092-5.958-2.354
				c-1.686-1.305-3.598-2.756-7.048-2.957c0.086-0.553,0.188-1.105,0.324-1.654L24.622,3.073z M19.247,27.3
				c2.543,0.134,3.885,1.15,5.402,2.329c1.813,1.404,3.866,2.997,7.842,2.997c3.978,0,6.032-1.593,7.845-2.997
				c1.631-1.264,3.037-2.355,5.965-2.355s4.334,1.092,5.965,2.355c1.567,1.215,3.322,2.565,6.34,2.91
				c-0.865,3.082-2.483,5.932-4.775,8.225c-3.824,3.828-8.911,5.936-14.321,5.936h-0.441c-5.411,0-10.498-2.106-14.322-5.936
				C21.193,37.211,19.255,32.323,19.247,27.3z"/>
		</g>
	</g>
</g>
<g>
</g>
<g>
</g>
<g>
</g>
<g>
</g>
<g>
</g>
<g>
</g>
<g>
</g>
<g>
</g>
<g>
</g>
<g>
</g>
<g>
</g>
<g>
</g>
<g>
</g>
<g>
</g>
<g>
</g>
</svg>
