<?xml version="1.0" encoding="iso-8859-1"?>
<!-- Generator: Adobe Illustrator 16.0.0, SVG Export Plug-In . SVG Version: 6.00 Build 0)  -->
<!DOCTYPE svg PUBLIC "-//W3C//DTD SVG 1.1//EN" "http://www.w3.org/Graphics/SVG/1.1/DTD/svg11.dtd">
<svg version="1.1" id="Capa_1" xmlns="http://www.w3.org/2000/svg" xmlns:xlink="http://www.w3.org/1999/xlink" x="0px" y="0px"
	 width="89.098px" height="89.098px" viewBox="0 0 89.098 89.098" style="enable-background:new 0 0 89.098 89.098;"
	 xml:space="preserve">
<g>
	<g id="_x32_2_1_">
		<g>
			<path d="M61.395,38.044c-0.008-0.032-0.02-0.062-0.028-0.093c-0.026-0.088-0.062-0.172-0.103-0.252
				c-0.016-0.028-0.029-0.056-0.045-0.083c-0.059-0.095-0.123-0.185-0.199-0.265c-0.006-0.006-0.01-0.013-0.016-0.019
				c-0.084-0.088-0.182-0.162-0.285-0.228c-0.008-0.005-0.015-0.013-0.022-0.018l-8.581-5.152c-0.46-0.275-0.938-0.517-1.423-0.736
				V8.941c1.782-0.629,3.071-2.322,3.071-4.362C53.762,2.056,51.711,0,49.186,0h-9.274c-2.524,0-4.576,2.056-4.576,4.639
				c0,1.993,1.289,3.678,3.071,4.304V31.2c-0.486,0.22-0.964,0.46-1.424,0.736l-8.581,5.152c-0.009,0.006-0.016,0.014-0.024,0.02
				c-0.103,0.064-0.198,0.139-0.282,0.225c-0.007,0.008-0.013,0.017-0.02,0.024c-0.074,0.079-0.138,0.166-0.194,0.259
				c-0.017,0.028-0.031,0.057-0.046,0.085c-0.042,0.08-0.075,0.163-0.103,0.251c-0.009,0.031-0.021,0.061-0.028,0.093
				c-0.029,0.115-0.048,0.235-0.048,0.36v43.78c0,3.811,3.1,6.912,6.91,6.912H54.53c3.812,0,6.911-3.103,6.911-6.912v-43.78
				C61.441,38.28,61.422,38.16,61.395,38.044z M39.911,3.072h9.274c0.83,0,1.506,0.676,1.506,1.566c0,0.831-0.676,1.506-1.506,1.506
				h-9.274c-0.83,0-1.505-0.675-1.505-1.565C38.406,3.748,39.081,3.072,39.911,3.072z M47.62,9.218v20.979
				c-2.021-0.418-4.123-0.418-6.143,0V9.218H47.62z M38.563,34.57c3.614-2.166,8.356-2.166,11.971,0l3.829,2.299H34.735
				L38.563,34.57z M58.37,82.186c0,2.119-1.722,3.842-3.84,3.842H34.566c-2.117,0-3.839-1.723-3.839-3.842v-5.375H58.37V82.186z
				 M58.37,73.736H30.727V52.23H58.37V73.736z M58.37,49.158H30.727v-9.217H58.37V49.158z M35.335,61.447h18.428
				c0.849,0,1.535-0.688,1.535-1.536s-0.688-1.536-1.535-1.536H35.335c-0.85,0-1.536,0.688-1.536,1.536
				C33.799,60.761,34.485,61.447,35.335,61.447z M35.335,67.592h18.428c0.849,0,1.535-0.687,1.535-1.535
				c0-0.85-0.688-1.537-1.535-1.537H35.335c-0.85,0-1.536,0.688-1.536,1.537S34.485,67.592,35.335,67.592z"/>
		</g>
	</g>
</g>
<g>
</g>
<g>
</g>
<g>
</g>
<g>
</g>
<g>
</g>
<g>
</g>
<g>
</g>
<g>
</g>
<g>
</g>
<g>
</g>
<g>
</g>
<g>
</g>
<g>
</g>
<g>
</g>
<g>
</g>
</svg>
