<?xml version="1.0" encoding="iso-8859-1"?>
<!-- Generator: Adobe Illustrator 16.0.0, SVG Export Plug-In . SVG Version: 6.00 Build 0)  -->
<!DOCTYPE svg PUBLIC "-//W3C//DTD SVG 1.1//EN" "http://www.w3.org/Graphics/SVG/1.1/DTD/svg11.dtd">
<svg version="1.1" id="Capa_1" xmlns="http://www.w3.org/2000/svg" xmlns:xlink="http://www.w3.org/1999/xlink" x="0px" y="0px"
	 width="78.345px" height="78.346px" viewBox="0 0 78.345 78.346" style="enable-background:new 0 0 78.345 78.346;"
	 xml:space="preserve">
<g>
	<g id="_x31_4_1_">
		<g>
			<path d="M52.994,75.273H40.708V42.939c6.894-0.709,12.285-6.549,12.285-13.629V1.536C52.994,0.688,52.307,0,51.458,0H26.887
				c-0.848,0-1.535,0.688-1.535,1.536V29.31c0,7.08,5.392,12.92,12.285,13.629v32.334H25.352c-0.849,0-1.536,0.687-1.536,1.537
				c0,0.849,0.687,1.535,1.536,1.535h27.642c0.85,0,1.536-0.688,1.536-1.535C54.53,75.96,53.843,75.273,52.994,75.273z
				 M28.423,3.072h21.499v23.043H28.423V3.072z M28.423,29.311v-0.123h21.499v0.123c0,5.861-4.768,10.63-10.626,10.63H39.05
				C33.19,39.94,28.423,35.172,28.423,29.311z"/>
		</g>
	</g>
</g>
<g>
</g>
<g>
</g>
<g>
</g>
<g>
</g>
<g>
</g>
<g>
</g>
<g>
</g>
<g>
</g>
<g>
</g>
<g>
</g>
<g>
</g>
<g>
</g>
<g>
</g>
<g>
</g>
<g>
</g>
</svg>
