<?xml version="1.0" encoding="iso-8859-1"?>
<!-- Generator: Adobe Illustrator 16.0.0, SVG Export Plug-In . SVG Version: 6.00 Build 0)  -->
<!DOCTYPE svg PUBLIC "-//W3C//DTD SVG 1.1//EN" "http://www.w3.org/Graphics/SVG/1.1/DTD/svg11.dtd">
<svg version="1.1" id="Capa_1" xmlns="http://www.w3.org/2000/svg" xmlns:xlink="http://www.w3.org/1999/xlink" x="0px" y="0px"
	 width="92.504px" height="92.504px" viewBox="0 0 92.504 92.504" style="enable-background:new 0 0 92.504 92.504;"
	 xml:space="preserve">
<g>
	<g id="_x32_">
		<g>
			<path d="M58.571,50.578h-2.125c-0.799,0-1.448-0.648-1.448-1.448v-3.211c0-0.44,0.248-0.864,0.662-1.134
				c6.363-4.133,10.315-12.179,10.315-20.997C65.976,10.671,57.225,0,46.466,0C35.71,0,26.958,10.671,26.958,23.788
				c0,8.754,3.909,16.771,10.202,20.925c0.414,0.273,0.66,0.701,0.66,1.144v3.273c0,0.8-0.649,1.448-1.447,1.448h-2.333
				c-15.126,0-27.433,12.311-27.433,27.441v11.412c0,1.697,1.375,3.072,3.071,3.072h73.146c1.697,0,3.072-1.375,3.072-3.072v-11.52
				C85.896,62.84,73.639,50.578,58.571,50.578z M46.466,3.072c3.573,0,6.868,1.452,9.564,3.891
				c-2.946,6.099-9.17,10.004-16.087,10.004c-2.912,0-5.768-0.705-8.321-2.033C34.259,7.929,39.905,3.072,46.466,3.072z
				 M36.374,53.65c2.496,0,4.519-2.023,4.519-4.521v-3.273c0-1.504-0.785-2.879-2.04-3.708c-5.244-3.461-8.822-10.383-8.822-18.36
				c0-2.041,0.244-4.008,0.68-5.871c2.859,1.389,6.021,2.122,9.235,2.122c7.693,0,14.657-4.135,18.303-10.682
				c2.877,3.731,4.657,8.815,4.657,14.431c0,8.025-3.622,14.98-8.917,18.421c-1.266,0.822-2.061,2.2-2.061,3.71v3.211
				c0,2.497,2.022,4.521,4.52,4.521h2.125c4.205,0,8.16,1.072,11.607,2.957c-0.758,12.129-10.338,21.641-22.372,22.404
				c-0.027-0.104-0.063-0.205-0.093-0.31c2.045-6.009,7.723-10.222,14.203-10.222c0.85,0,1.537-0.687,1.537-1.535
				c0-0.85-0.688-1.536-1.537-1.536c-6.69,0-12.668,3.739-15.799,9.36c-3.132-5.621-9.108-9.36-15.8-9.36
				c-0.849,0-1.536,0.688-1.536,1.536c0,0.85,0.688,1.535,1.536,1.535c6.481,0,12.159,4.213,14.204,10.222
				c-0.028,0.1-0.062,0.196-0.089,0.297c-11.862-0.885-21.324-10.326-22.106-22.324c3.481-1.925,7.474-3.024,11.712-3.024H36.374
				L36.374,53.65z M19.414,58.566C21.12,71.966,32.496,82.16,46.251,82.16c13.819,0,25.184-10.223,26.85-23.674
				c5.902,4.425,9.722,11.479,9.722,19.426v5.208H70.822v-6.146c0-0.85-0.688-1.535-1.535-1.535s-1.535,0.687-1.535,1.535v12.291
				c0,0.057,0.01,0.11,0.017,0.166H24.735c0.006-0.056,0.017-0.109,0.017-0.166V76.975c0-0.85-0.687-1.535-1.535-1.535
				c-0.848,0-1.536,0.687-1.536,1.535v6.146H9.678V78.02C9.678,70.095,13.511,63.023,19.414,58.566z M9.678,86.191h12.002v3.074
				c0,0.057,0.011,0.11,0.017,0.166H9.678V86.191z M70.806,89.432c0.006-0.055,0.017-0.108,0.017-0.166v-3.072h12.002v3.238H70.806z
				"/>
		</g>
	</g>
</g>
<g>
</g>
<g>
</g>
<g>
</g>
<g>
</g>
<g>
</g>
<g>
</g>
<g>
</g>
<g>
</g>
<g>
</g>
<g>
</g>
<g>
</g>
<g>
</g>
<g>
</g>
<g>
</g>
<g>
</g>
</svg>
