<?xml version="1.0" encoding="iso-8859-1"?>
<!-- Generator: Adobe Illustrator 16.0.0, SVG Export Plug-In . SVG Version: 6.00 Build 0)  -->
<!DOCTYPE svg PUBLIC "-//W3C//DTD SVG 1.1//EN" "http://www.w3.org/Graphics/SVG/1.1/DTD/svg11.dtd">
<svg version="1.1" id="Capa_1" xmlns="http://www.w3.org/2000/svg" xmlns:xlink="http://www.w3.org/1999/xlink" x="0px" y="0px"
	 width="86.829px" height="86.829px" viewBox="0 0 86.829 86.829" style="enable-background:new 0 0 86.829 86.829;"
	 xml:space="preserve">
<g>
	<g id="_x36_">
		<g>
			<path d="M41.324,54.129c1.939,0,3.511-1.572,3.511-3.513c0-1.939-1.571-3.513-3.511-3.513c-1.94,0-3.512,1.572-3.512,3.513
				C37.812,52.557,39.384,54.129,41.324,54.129z M43.128,59.812c0,1.136,0.919,2.057,2.056,2.057c1.136,0,2.057-0.921,2.057-2.057
				c0-1.138-0.921-2.059-2.057-2.059C44.048,57.754,43.128,58.676,43.128,59.812z M49.733,47.719c1.377,0,2.493-1.117,2.493-2.494
				c0-1.376-1.116-2.493-2.493-2.493s-2.493,1.116-2.493,2.493C47.24,46.602,48.356,47.719,49.733,47.719z M68.085,14.154
				c-0.213-3.454-3.014-6.27-6.465-6.499c-0.159-0.011-0.317-0.016-0.476-0.016c-0.681,0-1.337,0.098-1.958,0.279
				c-0.125,0.037-0.252,0.055-0.377,0.055c-0.487,0-0.946-0.269-1.194-0.716c-1.354-2.437-3.952-4.086-6.937-4.086
				c-1.62,0-3.128,0.487-4.383,1.322c-0.226,0.15-0.479,0.223-0.729,0.223c-0.415,0-0.821-0.199-1.075-0.569
				C42.777,1.644,39.83,0,36.565,0c-5.255,0-9.586,4.262-9.586,9.52v0.045c0.235,0.495-0.272,0.86-0.774,0.86
				c-0.093,0-0.185-0.013-0.271-0.039c-0.508-0.151-1.025-0.234-1.574-0.234c-0.146,0-0.294,0.006-0.445,0.019
				c-2.328,0.183-4.311,1.734-4.95,3.981c-1.027,3.609,1.45,6.9,4.798,7.271c0,0,0.579,0.002,1.59,0.006l4.552,37.656
				c0.78,6.433,0.022,13.103-2.191,19.192l-0.255,0.721c-0.716,1.967-0.425,3.771,0.775,5.484c1.198,1.713,3.162,2.347,5.253,2.347
				h19.798c2.1,0,4.068-0.628,5.268-2.353c1.199-1.727,1.478-3.729,0.686-5.865c-2.293-6.163-3.09-12.67-2.304-19.194l4.556-37.883
				C65.313,21.345,68.328,18.078,68.085,14.154z M56.031,82.622c-0.635,0.912-1.635,1.135-2.746,1.135H33.487
				c-1.105,0-2.104-0.116-2.738-1.022c-0.464-0.664-0.661-1.332-0.589-2.049h26.451C56.676,81.359,56.485,81.969,56.031,82.622z
				 M53.884,58.648c-0.753,6.248-0.146,12.807,1.779,18.963H31.146c1.94-6.129,2.576-12.916,1.809-19.247l-2.854-23.766h26.646
				L53.884,58.648z M57.112,31.526H29.73L28.52,21.438c1.415,0.005,3.07,0.011,4.879,0.018V25.6c0,1.979,1.604,3.583,3.582,3.583
				h0.651c1.978,0,3.581-1.604,3.581-3.583v-4.125c6.928,0.024,13.491,0.051,17.086,0.065L57.112,31.526z M63.976,17.255
				c-0.742,0.79-1.747,1.225-2.827,1.225l-1.598-0.007l-18.326-0.069c-0.003,0-0.007-0.001-0.011-0.001
				c-0.812,0-1.592,0.322-2.168,0.896c-0.578,0.576-0.903,1.359-0.903,2.176V25.6c0,0.281-0.229,0.511-0.51,0.511h-0.651
				c-0.281,0-0.511-0.229-0.511-0.511v-4.144c0-1.693-1.368-3.067-3.061-3.073l-9.441-0.032c-0.704-0.115-1.33-0.518-1.733-1.118
				c-0.307-0.455-0.609-1.213-0.316-2.239c0.28-0.985,1.158-1.676,2.236-1.761c0.069-0.006,0.138-0.009,0.205-0.009
				c0.232,0,0.454,0.034,0.694,0.106c0.371,0.11,0.758,0.167,1.151,0.167c1.372,0,2.658-0.687,3.355-1.791
				c0.476-0.754,0.645-1.64,0.498-2.499c0.165-3.41,3.021-6.135,6.507-6.135c2.14,0,4.206,1.077,5.393,2.812
				c0.816,1.192,2.166,1.905,3.609,1.905c0.866,0,1.706-0.255,2.431-0.736c0.795-0.528,1.723-0.809,2.682-0.809
				c1.764,0,3.394,0.961,4.252,2.506c0.785,1.416,2.271,2.296,3.879,2.296c0.419,0,0.837-0.06,1.24-0.179
				c0.354-0.104,0.722-0.155,1.095-0.155c0.09,0,0.181,0.003,0.271,0.009c1.903,0.127,3.486,1.718,3.604,3.623
				C65.087,15.433,64.716,16.467,63.976,17.255z"/>
		</g>
	</g>
</g>
<g>
</g>
<g>
</g>
<g>
</g>
<g>
</g>
<g>
</g>
<g>
</g>
<g>
</g>
<g>
</g>
<g>
</g>
<g>
</g>
<g>
</g>
<g>
</g>
<g>
</g>
<g>
</g>
<g>
</g>
</svg>
