<?xml version="1.0" encoding="iso-8859-1"?>
<!-- Generator: Adobe Illustrator 16.0.0, SVG Export Plug-In . SVG Version: 6.00 Build 0)  -->
<!DOCTYPE svg PUBLIC "-//W3C//DTD SVG 1.1//EN" "http://www.w3.org/Graphics/SVG/1.1/DTD/svg11.dtd">
<svg version="1.1" id="Capa_1" xmlns="http://www.w3.org/2000/svg" xmlns:xlink="http://www.w3.org/1999/xlink" x="0px" y="0px"
	 width="85.258px" height="85.258px" viewBox="0 0 85.258 85.258" style="enable-background:new 0 0 85.258 85.258;"
	 xml:space="preserve">
<g>
	<g id="_x31_3_1_">
		<g>
			<path d="M48.771,28.338V2.305c0-0.85-0.688-2.305-1.536-2.305h-9.214c-0.85,0-1.536,1.455-1.536,2.305v25.991
				c-4.54,2.234-7.678,6.896-7.678,12.29v39.039c0,3.105,2.525,5.633,5.631,5.633h16.381c3.104,0,5.631-2.525,5.631-5.633V40.586
				C56.45,35.227,53.351,30.589,48.771,28.338z M39.557,3.072H45.7v3.072h-6.144V3.072z M39.557,9.217H45.7v18.034
				c-1.024-0.233-2.091-0.368-3.193-0.368c-1.013,0-1.998,0.119-2.949,0.328L39.557,9.217L39.557,9.217z M31.878,49.158h4.606
				v21.506h-4.606V49.158z M53.378,79.625c0,1.411-1.148,2.561-2.561,2.561H34.438c-1.411,0-2.56-1.148-2.56-2.561v-5.889h6.143
				c0.849,0,1.535,0.08,1.535-0.769V48.391c0-0.851-0.687-2.306-1.535-2.306h-6.143v-5.499c0-5.861,4.767-10.631,10.872-10.631
				c5.859,0,10.627,4.77,10.627,10.631V79.625z"/>
		</g>
	</g>
</g>
<g>
</g>
<g>
</g>
<g>
</g>
<g>
</g>
<g>
</g>
<g>
</g>
<g>
</g>
<g>
</g>
<g>
</g>
<g>
</g>
<g>
</g>
<g>
</g>
<g>
</g>
<g>
</g>
<g>
</g>
</svg>
