<?xml version="1.0" encoding="UTF-8" standalone="no"?>
<!-- Created with Inkscape (http://www.inkscape.org/) -->

<svg
   xmlns:dc="http://purl.org/dc/elements/1.1/"
   xmlns:cc="http://creativecommons.org/ns#"
   xmlns:rdf="http://www.w3.org/1999/02/22-rdf-syntax-ns#"
   xmlns:svg="http://www.w3.org/2000/svg"
   xmlns="http://www.w3.org/2000/svg"
   xmlns:sodipodi="http://sodipodi.sourceforge.net/DTD/sodipodi-0.dtd"
   xmlns:inkscape="http://www.inkscape.org/namespaces/inkscape"
   width="210mm"
   height="297mm"
   viewBox="0 0 210 297"
   version="1.1"
   id="svg8"
   inkscape:version="0.92.4 (5da689c313, 2019-01-14)"
   sodipodi:docname="drawing-1.svg">
  <defs
     id="defs2" />
  <sodipodi:namedview
     id="base"
     pagecolor="#ffffff"
     bordercolor="#666666"
     borderopacity="1.0"
     inkscape:pageopacity="0.0"
     inkscape:pageshadow="2"
     inkscape:zoom="0.49497475"
     inkscape:cx="7.6088969"
     inkscape:cy="185.15618"
     inkscape:document-units="mm"
     inkscape:current-layer="layer1"
     showgrid="false"
     inkscape:window-width="1850"
     inkscape:window-height="1016"
     inkscape:window-x="70"
     inkscape:window-y="27"
     inkscape:window-maximized="1" />
  <metadata
     id="metadata5">
    <rdf:RDF>
      <cc:Work
         rdf:about="">
        <dc:format>image/svg+xml</dc:format>
        <dc:type
           rdf:resource="http://purl.org/dc/dcmitype/StillImage" />
        <dc:title></dc:title>
      </cc:Work>
    </rdf:RDF>
  </metadata>
  <g
     inkscape:label="Layer 1"
     inkscape:groupmode="layer"
     id="layer1">
    <g
       id="g879">
      <circle
         style="opacity:1;fill:#ffffff;fill-opacity:1;stroke:#000000;stroke-width:1;stroke-miterlimit:4;stroke-dasharray:none;stroke-dashoffset:0;stroke-opacity:1"
         id="circle865"
         cx="152.20329"
         cy="73.590019"
         r="4.0090427" />
      <rect
         transform="matrix(0.94209318,-0.33535122,0,1,0,0)"
         style="opacity:1;fill:#ffffff;fill-opacity:1;stroke:#000000;stroke-width:1.03027475;stroke-miterlimit:4;stroke-dasharray:none;stroke-dashoffset:0;stroke-opacity:1"
         id="rect867"
         width="20.851772"
         height="7.2162771"
         x="157.27734"
         y="111.67471"
         ry="3.6081386" />
      <rect
         transform="matrix(0.94209318,-0.33535122,0,1,0,0)"
         style="opacity:1;fill:#ffffff;fill-opacity:1;stroke:#000000;stroke-width:1.03027475;stroke-miterlimit:4;stroke-dasharray:none;stroke-dashoffset:0;stroke-opacity:1"
         id="rect869"
         width="30.497486"
         height="6.2808337"
         x="157.24295"
         y="98.845787"
         ry="3.1404169" />
    </g>
    <g
       id="g889">
      <circle
         r="4.0090427"
         cy="69.8209"
         cx="54.363556"
         id="path845"
         style="opacity:1;fill:#ffffff;fill-opacity:1;stroke:#000000;stroke-width:1;stroke-miterlimit:4;stroke-dasharray:none;stroke-dashoffset:0;stroke-opacity:1" />
      <rect
         ry="3.6081386"
         y="53.651093"
         x="50.330185"
         height="7.2162771"
         width="19.644312"
         id="rect847"
         style="opacity:1;fill:#ffffff;fill-opacity:1;stroke:#000000;stroke-width:1;stroke-miterlimit:4;stroke-dasharray:none;stroke-dashoffset:0;stroke-opacity:1" />
      <rect
         ry="3.1404169"
         y="40.822155"
         x="50.297775"
         height="6.2808337"
         width="28.731474"
         id="rect849"
         style="opacity:1;fill:#ffffff;fill-opacity:1;stroke:#000000;stroke-width:1;stroke-miterlimit:4;stroke-dasharray:none;stroke-dashoffset:0;stroke-opacity:1" />
    </g>
    <g
       id="g884">
      <circle
         style="opacity:1;fill:#ffffff;fill-opacity:1;stroke:#000000;stroke-width:1;stroke-miterlimit:4;stroke-dasharray:none;stroke-dashoffset:0;stroke-opacity:1"
         id="circle853"
         cx="102.36654"
         cy="70.47171"
         r="4.0090427" />
      <rect
         transform="matrix(0.94209318,-0.33535122,0,1,0,0)"
         style="opacity:1;fill:#ffffff;fill-opacity:1;stroke:#000000;stroke-width:1.03027475;stroke-miterlimit:4;stroke-dasharray:none;stroke-dashoffset:0;stroke-opacity:1"
         id="rect855"
         width="20.851772"
         height="7.2162771"
         x="104.37733"
         y="90.816338"
         ry="3.6081386" />
      <rect
         transform="matrix(0.94209318,-0.33535122,0,1,0,0)"
         style="opacity:1;fill:#ffffff;fill-opacity:1;stroke:#000000;stroke-width:1.03027475;stroke-miterlimit:4;stroke-dasharray:none;stroke-dashoffset:0;stroke-opacity:1"
         id="rect857"
         width="30.497486"
         height="6.2808337"
         x="104.34293"
         y="77.987404"
         ry="3.1404169" />
    </g>
    <g
       id="g874">
      <circle
         r="4.0090427"
         cy="70.47171"
         cx="147.95107"
         id="circle859"
         style="opacity:1;fill:#ffffff;fill-opacity:1;stroke:#000000;stroke-width:1;stroke-miterlimit:4;stroke-dasharray:none;stroke-dashoffset:0;stroke-opacity:1" />
      <rect
         ry="3.6081386"
         y="107.04277"
         x="152.76375"
         height="7.2162771"
         width="20.851772"
         id="rect861"
         style="opacity:1;fill:#ffffff;fill-opacity:1;stroke:#000000;stroke-width:1.03027475;stroke-miterlimit:4;stroke-dasharray:none;stroke-dashoffset:0;stroke-opacity:1"
         transform="matrix(0.94209318,-0.33535122,0,1,0,0)" />
      <rect
         ry="3.1404169"
         y="94.213844"
         x="152.72935"
         height="6.2808337"
         width="30.497486"
         id="rect863"
         style="opacity:1;fill:#ffffff;fill-opacity:1;stroke:#000000;stroke-width:1.03027475;stroke-miterlimit:4;stroke-dasharray:none;stroke-dashoffset:0;stroke-opacity:1"
         transform="matrix(0.94209318,-0.33535122,0,1,0,0)" />
    </g>
    <path
       style="fill:#000000;stroke:#000000;stroke-width:0.26458332px;stroke-linecap:butt;stroke-linejoin:miter;stroke-opacity:1"
       d="m 144.29213,48.272296 4.65411,3.586521 26.25231,-9.089826 c 2.08976,-1.182828 2.57772,-4.937129 1.67043,-6.882189 -1.51988,-1.770658 -3.33383,-2.561081 -5.38813,-2.550354 1.04478,0.893286 1.47254,3.277691 -0.0668,5.813108 -9.09994,3.075244 -24.31996,9.693698 -27.12191,9.12274 z"
       id="path891"
       inkscape:connector-curvature="0"
       sodipodi:nodetypes="ccccccc" />
    <path
       style="fill:none;stroke:#000000;stroke-width:0.26458332px;stroke-linecap:butt;stroke-linejoin:miter;stroke-opacity:1"
       d="m 90.241815,133.4308 v -17.76488 c 0.283796,-4.20666 3.16044,-5.55453 6.898065,-5.95312 l 20.18832,0.083 c -0.83306,3.69678 -5.80353,12.91012 -14.04621,11.82322 -3.12505,6.58421 -7.650208,10.13486 -13.040175,11.81175 z"
       id="path893"
       inkscape:connector-curvature="0"
       sodipodi:nodetypes="cccccc" />
    <path
       style="fill:none;stroke:#000000;stroke-width:0.26458332px;stroke-linecap:butt;stroke-linejoin:miter;stroke-opacity:1"
       d="m 90.383557,108.01191 c 2.396646,-4.19923 4.433953,-3.74811 7.74851,-4.06325 h 18.095613 c 4.83349,-1.38149 7.8995,-8.839651 9.07143,-11.811757 H 104.03795 C 93.66686,93.346274 90.359208,103.62139 90.383557,108.01191 Z"
       id="path895"
       inkscape:connector-curvature="0"
       sodipodi:nodetypes="cccccc" />
    <path
       style="fill:none;stroke:#000000;stroke-width:0.26458332px;stroke-linecap:butt;stroke-linejoin:miter;stroke-opacity:1"
       d="m 36.749561,175.39236 8.018084,-12.02713 c 1.89716,-2.12189 2.967756,-4.75546 8.418991,-4.67721 l 20.446119,-0.33409 c -2.13358,3.53524 -5.10923,6.62939 -10.958052,8.21854 l -8.084903,0.20045 c -1.952915,2.66199 -4.217473,4.70994 -7.41673,7.01583 -4.811178,2.84334 -7.499631,2.02015 -10.423509,1.60361 z"
       id="path897"
       inkscape:connector-curvature="0"
       sodipodi:nodetypes="cccccccc" />
    <path
       style="fill:none;stroke:#000000;stroke-width:0.26458332px;stroke-linecap:butt;stroke-linejoin:miter;stroke-opacity:1"
       d="m 51.121279,153.84151 26.174852,1e-5 c 3.866129,0.26521 7.309837,-3.69379 10.677826,-8.40997 l -26.269344,0.18898 c -5.897314,1.0492 -7.532288,4.7999 -10.583334,8.22098 z"
       id="path899"
       inkscape:connector-curvature="0"
       sodipodi:nodetypes="ccccc" />
    <path
       style="fill:none;stroke:#000000;stroke-width:0.47600001;stroke-linecap:butt;stroke-linejoin:miter;stroke-miterlimit:4;stroke-dasharray:none;stroke-opacity:1"
       d="m 74.144028,235.9619 12.902298,-0.36869 16.798814,-30.84874 c 1.89182,-3.29222 4.30667,-5.5384 7.63583,-5.95594 l 19.59244,-0.11566 6.21665,-10.26906 -31.97408,0.11425 c -4.42689,-0.002 -7.917032,4.20804 -10.328395,8.7433 z"
       id="path912"
       inkscape:connector-curvature="0"
       sodipodi:nodetypes="ccccccccc" />
  </g>
</svg>
