<?xml version="1.0" encoding="UTF-8" standalone="no"?>
<!-- Created with Inkscape (http://www.inkscape.org/) -->

<svg
   xmlns:dc="http://purl.org/dc/elements/1.1/"
   xmlns:cc="http://creativecommons.org/ns#"
   xmlns:rdf="http://www.w3.org/1999/02/22-rdf-syntax-ns#"
   xmlns:svg="http://www.w3.org/2000/svg"
   xmlns="http://www.w3.org/2000/svg"
   xmlns:sodipodi="http://sodipodi.sourceforge.net/DTD/sodipodi-0.dtd"
   xmlns:inkscape="http://www.inkscape.org/namespaces/inkscape"
   width="297mm"
   height="210mm"
   viewBox="0 0 297 210"
   version="1.1"
   id="svg8"
   inkscape:version="0.92.4 (5da689c313, 2019-01-14)"
   sodipodi:docname="drawing-1.svg.2019_05_23_12_01_59.1.svg"
   inkscape:export-filename="/home/v/Documents/Fleximaids/drawing-1.png"
   inkscape:export-xdpi="96"
   inkscape:export-ydpi="96">
  <defs
     id="defs2" />
  <sodipodi:namedview
     id="base"
     pagecolor="#ffffff"
     bordercolor="#666666"
     borderopacity="1.0"
     inkscape:pageopacity="0.0"
     inkscape:pageshadow="2"
     inkscape:zoom="0.49497475"
     inkscape:cx="73.634959"
     inkscape:cy="181.51304"
     inkscape:document-units="mm"
     inkscape:current-layer="layer1"
     showgrid="false"
     inkscape:window-width="1850"
     inkscape:window-height="1016"
     inkscape:window-x="70"
     inkscape:window-y="27"
     inkscape:window-maximized="1"
     showguides="true"
     inkscape:guide-bbox="true" />
  <metadata
     id="metadata5">
    <rdf:RDF>
      <cc:Work
         rdf:about="">
        <dc:format>image/svg+xml</dc:format>
        <dc:type
           rdf:resource="http://purl.org/dc/dcmitype/StillImage" />
        <dc:title />
      </cc:Work>
    </rdf:RDF>
  </metadata>
  <g
     inkscape:label="Layer 1"
     inkscape:groupmode="layer"
     id="layer1"
     transform="translate(0,-87)">
    <rect
       y="85.857079"
       x="-1.0690781"
       height="211.14293"
       width="299.8764"
       id="rect911"
       style="opacity:1;fill:#ffffff;fill-opacity:1;stroke:none;stroke-width:1;stroke-miterlimit:4;stroke-dasharray:none;stroke-dashoffset:0;stroke-opacity:1" />
    <g
       id="g889"
       transform="matrix(1.184668,0,0,1.1804334,76.304053,88.75819)"
       style="fill:#000000;fill-opacity:1;stroke:none">
      <circle
         r="4.0090427"
         cy="69.8209"
         cx="54.363556"
         id="path845"
         style="opacity:1;fill:#000000;fill-opacity:1;stroke:none;stroke-width:1;stroke-miterlimit:4;stroke-dasharray:none;stroke-dashoffset:0;stroke-opacity:1" />
      <rect
         ry="3.6081386"
         y="53.651093"
         x="50.330185"
         height="7.2162771"
         width="19.644312"
         id="rect847"
         style="opacity:1;fill:#000000;fill-opacity:1;stroke:none;stroke-width:1;stroke-miterlimit:4;stroke-dasharray:none;stroke-dashoffset:0;stroke-opacity:1" />
      <rect
         ry="3.1404169"
         y="40.822155"
         x="50.297775"
         height="6.2808337"
         width="28.731474"
         id="rect849"
         style="opacity:1;fill:#000000;fill-opacity:1;stroke:none;stroke-width:1;stroke-miterlimit:4;stroke-dasharray:none;stroke-dashoffset:0;stroke-opacity:1" />
    </g>
    <circle
       r="4.9262357"
       cy="171.28381"
       cx="54.432835"
       id="circle853"
       style="opacity:1;fill:#000000;fill-opacity:1;stroke:none;stroke-width:1.22878098;stroke-miterlimit:4;stroke-dasharray:none;stroke-dashoffset:0;stroke-opacity:1" />
    <rect
       ry="4.5190945"
       y="163.19577"
       x="19.122013"
       height="9.0381889"
       width="24.031757"
       id="rect855"
       style="opacity:1;fill:#000000;fill-opacity:1;stroke:none;stroke-width:1.23782265;stroke-miterlimit:4;stroke-dasharray:none;stroke-dashoffset:0;stroke-opacity:1"
       transform="matrix(0.93389555,-0.35754594,0.19358121,0.98108425,0,0)" />
    <rect
       ry="3.9375076"
       y="148.32455"
       x="21.888733"
       height="7.8750153"
       width="35.083046"
       id="rect857"
       style="opacity:1;fill:#000000;fill-opacity:1;stroke:none;stroke-width:1.2373333;stroke-miterlimit:4;stroke-dasharray:none;stroke-dashoffset:0;stroke-opacity:1"
       transform="matrix(0.93363996,-0.35821283,0.19883858,0.98003225,0,0)" />
    <g
       id="g870"
       transform="matrix(1.228781,0,0,1.228781,-62.157583,95.198809)"
       style="fill:#000000;fill-opacity:1;stroke:none;stroke-opacity:1">
      <path
         sodipodi:nodetypes="cccccc"
         inkscape:connector-curvature="0"
         id="path893"
         d="m 90.241815,133.4308 v -17.76488 c 0.283796,-4.20666 3.16044,-5.55453 6.898065,-5.95312 l 20.18832,0.083 c -0.83306,3.69678 -5.80353,12.91012 -14.04621,11.82322 -3.12505,6.58421 -7.650208,10.13486 -13.040175,11.81175 z"
         style="fill:#000000;fill-opacity:1;stroke:none;stroke-width:0.26458332px;stroke-linecap:butt;stroke-linejoin:miter;stroke-opacity:1" />
      <path
         sodipodi:nodetypes="cccccc"
         inkscape:connector-curvature="0"
         id="path895"
         d="m 90.383557,108.01191 c 2.396646,-4.19923 4.433953,-3.74811 7.74851,-4.06325 h 18.095613 c 4.83349,-1.38149 7.8995,-8.839651 9.07143,-11.811757 H 104.03795 C 93.66686,93.346274 90.359208,103.62139 90.383557,108.01191 Z"
         style="fill:#000000;fill-opacity:1;stroke:none;stroke-width:0.26458332px;stroke-linecap:butt;stroke-linejoin:miter;stroke-opacity:1" />
    </g>
    <g
       id="g866"
       transform="matrix(1.228781,0,0,1.228781,147.70006,39.039723)"
       style="fill:#000000;fill-opacity:1;stroke:none;stroke-opacity:1">
      <path
         sodipodi:nodetypes="cccccccc"
         inkscape:connector-curvature="0"
         id="path897"
         d="m 36.749561,175.39236 8.018084,-12.02713 c 1.89716,-2.12189 2.967756,-4.75546 8.418991,-4.67721 l 20.446119,-0.33409 c -2.13358,3.53524 -5.10923,6.62939 -10.958052,8.21854 l -8.084903,0.20045 c -1.952915,2.66199 -4.217473,4.70994 -7.41673,7.01583 -4.811178,2.84334 -7.499631,2.02015 -10.423509,1.60361 z"
         style="fill:#000000;fill-opacity:1;stroke:none;stroke-width:0.26458332px;stroke-linecap:butt;stroke-linejoin:miter;stroke-opacity:1" />
      <path
         sodipodi:nodetypes="ccccc"
         inkscape:connector-curvature="0"
         id="path899"
         d="m 51.121279,153.84151 26.174852,1e-5 c 3.866129,0.26521 7.309837,-3.69379 10.677826,-8.40997 l -26.269344,0.18898 c -5.897314,1.0492 -7.532288,4.7999 -10.583334,8.22098 z"
         style="fill:#000000;fill-opacity:1;stroke:none;stroke-width:0.26458332px;stroke-linecap:butt;stroke-linejoin:miter;stroke-opacity:1" />
    </g>
    <path
       style="fill:#000000;fill-opacity:1;stroke:none;stroke-width:0.3993932;stroke-linecap:butt;stroke-linejoin:miter;stroke-miterlimit:4;stroke-dasharray:none;stroke-opacity:1"
       d="m 252.21163,137.90627 -23.63146,0.0845 c -3.71443,-0.001 -6.64302,3.53067 -8.66631,7.33603 l -17.48913,32.47208 10.82605,-0.30917 14.09538,-25.884 c 1.58735,-2.76237 3.61345,-4.64728 6.40682,-4.99763 l 13.53993,-0.0798 2.97144,-5.51752 c 0.57588,-1.0831 1.22754,-2.14088 1.94728,-3.10455 z"
       id="path912"
       inkscape:connector-curvature="0" />
    <path
       style="fill:#000000;fill-opacity:1;stroke:none;stroke-width:0.3993932;stroke-linecap:butt;stroke-linejoin:miter;stroke-miterlimit:4;stroke-dasharray:none;stroke-opacity:1"
       d="m 253.13216,150.27072 -15.13339,0.0542 c -3.71444,-0.001 -6.6426,3.53067 -8.66587,7.33603 l -10.66736,19.80584 h 10.73283 l 7.36638,-13.52693 c 1.58735,-2.76237 3.61345,-4.64728 6.40683,-4.99763 l 5.30723,-0.0312 z"
       id="path918"
       inkscape:connector-curvature="0" />
    <path
       style="fill:#000000;fill-opacity:1;stroke:none;stroke-width:0.3993932;stroke-linecap:butt;stroke-linejoin:miter;stroke-miterlimit:4;stroke-dasharray:none;stroke-opacity:1"
       d="m 253.46039,162.82986 -6.2646,0.0221 c -3.71444,-0.001 -6.6426,3.53066 -8.66587,7.33601 l -3.92623,7.28964 h 10.80784 l 0.55024,-1.01071 c 0.29375,-0.5112 0.60289,-0.99175 0.92876,-1.43868 z"
       id="path837"
       inkscape:connector-curvature="0" />
    <path
       style="fill:#000000;fill-opacity:1;stroke:none;stroke-width:0.16483645px;stroke-linecap:butt;stroke-linejoin:miter;stroke-opacity:1"
       d="m 125.58783,259.1527 c 5.57925,-3.30154 9.08241,-8.7329 10.66561,-17.36252 8.01814,0.91721 14.58882,-0.60843 18.88721,-12.54353 -11.25191,4.2686 -18.64943,-0.16573 -21.54648,0.11772 -8.15239,0.57434 -8.96091,7.28534 -9.18375,7.41763 -1.14208,3.76817 -1.54837,7.89308 0.94192,13.42239 2.4388,5.57148 1.10377,7.00391 0.23549,8.94828 z"
       id="path883"
       inkscape:connector-curvature="0"
       sodipodi:nodetypes="ccccccc" />
    <path
       style="fill:#000000;fill-opacity:1;stroke:none;stroke-width:0.16483645px;stroke-linecap:butt;stroke-linejoin:miter;stroke-opacity:1"
       d="m 124.52816,223.71285 c 8.87249,-2.49319 10.74486,-1.03761 13.77562,-0.23547 9.84138,3.03234 15.23959,1.76041 20.1336,0 9.15838,-4.7872 13.21422,-11.05143 16.48366,-17.54331 -5.22759,2.63752 -10.34833,5.43529 -16.48366,6.7112 -4.43301,0.8121 -8.10098,-3.43931 -14.04054,-3.03183 -12.15517,1.53872 -16.25098,8.21931 -19.86868,14.09941 z"
       id="path885"
       inkscape:connector-curvature="0"
       sodipodi:nodetypes="ccccccc" />
    <text
       xml:space="preserve"
       style="font-style:normal;font-weight:normal;font-size:10.58333302px;line-height:1.25;font-family:sans-serif;letter-spacing:0px;word-spacing:0px;fill:#000000;fill-opacity:1;stroke:none;stroke-width:0.26458332"
       x="57.730217"
       y="112.58404"
       id="text903"><tspan
         sodipodi:role="line"
         id="tspan901"
         x="57.730217"
         y="112.58404"
         style="stroke-width:0.26458332">A                         B                        C</tspan></text>
    <text
       id="text907"
       y="279.89478"
       x="55.59206"
       style="font-style:normal;font-weight:normal;font-size:10.58333302px;line-height:1.25;font-family:sans-serif;letter-spacing:0px;word-spacing:0px;fill:#000000;fill-opacity:1;stroke:none;stroke-width:0.26458332"
       xml:space="preserve"><tspan
         style="stroke-width:0.26458332"
         y="279.89478"
         x="55.59206"
         id="tspan905"
         sodipodi:role="line">D                         E                        F</tspan></text>
    <text
       xml:space="preserve"
       style="font-style:normal;font-weight:normal;font-size:10.58333302px;line-height:1.25;font-family:sans-serif;letter-spacing:0px;word-spacing:0px;fill:#000000;fill-opacity:1;stroke:none;stroke-width:0.26458332"
       x="-66.145836"
       y="300.0238"
       id="text915"><tspan
         sodipodi:role="line"
         id="tspan913"
         x="-66.145836"
         y="309.38757"
         style="stroke-width:0.26458332" /></text>
  </g>
</svg>
