<?xml version="1.0" encoding="UTF-8" standalone="no"?>
<!-- Created with Inkscape (http://www.inkscape.org/) -->

<svg
   xmlns:dc="http://purl.org/dc/elements/1.1/"
   xmlns:cc="http://creativecommons.org/ns#"
   xmlns:rdf="http://www.w3.org/1999/02/22-rdf-syntax-ns#"
   xmlns:svg="http://www.w3.org/2000/svg"
   xmlns="http://www.w3.org/2000/svg"
   xmlns:xlink="http://www.w3.org/1999/xlink"
   xmlns:sodipodi="http://sodipodi.sourceforge.net/DTD/sodipodi-0.dtd"
   xmlns:inkscape="http://www.inkscape.org/namespaces/inkscape"
   width="95.25mm"
   height="65.351997mm"
   viewBox="0 0 95.25 65.351997"
   version="1.1"
   id="svg2594"
   sodipodi:docname="thumbs.svg"
   inkscape:export-filename="/home/v/Documents/Nine99/html5up-multiverse/images/thumbs/02.jpg.png"
   inkscape:export-xdpi="95.300003"
   inkscape:export-ydpi="95.300003"
   inkscape:version="0.92.4 (5da689c313, 2019-01-14)">
  <defs
     id="defs2588">
    <linearGradient
       inkscape:collect="always"
       xlink:href="#linearGradient900"
       id="linearGradient1195"
       gradientUnits="userSpaceOnUse"
       gradientTransform="matrix(0.93270567,0,0,0.93270567,104.41187,5.9781531)"
       x1="131.10356"
       y1="109.5116"
       x2="130.80255"
       y2="98.895187" />
    <linearGradient
       inkscape:collect="always"
       id="linearGradient900">
      <stop
         style="stop-color:#9de300;stop-opacity:1"
         offset="0"
         id="stop896" />
      <stop
         style="stop-color:#00b300;stop-opacity:1"
         offset="1"
         id="stop898" />
    </linearGradient>
    <linearGradient
       inkscape:collect="always"
       xlink:href="#linearGradient900"
       id="linearGradient1197"
       gradientUnits="userSpaceOnUse"
       gradientTransform="matrix(0.93270567,0,0,0.93270567,104.41187,5.9781531)"
       x1="156.20277"
       y1="93.959969"
       x2="155.46335"
       y2="108.22672" />
  </defs>
  <sodipodi:namedview
     id="base"
     pagecolor="#ffffff"
     bordercolor="#666666"
     borderopacity="1.0"
     inkscape:pageopacity="0.0"
     inkscape:pageshadow="2"
     inkscape:zoom="1.4"
     inkscape:cx="71.565424"
     inkscape:cy="99.703708"
     inkscape:document-units="mm"
     inkscape:current-layer="layer1"
     showgrid="false"
     inkscape:window-width="1850"
     inkscape:window-height="1016"
     inkscape:window-x="70"
     inkscape:window-y="27"
     inkscape:window-maximized="1" />
  <metadata
     id="metadata2591">
    <rdf:RDF>
      <cc:Work
         rdf:about="">
        <dc:format>image/svg+xml</dc:format>
        <dc:type
           rdf:resource="http://purl.org/dc/dcmitype/StillImage" />
        <dc:title />
      </cc:Work>
    </rdf:RDF>
  </metadata>
  <g
     inkscape:label="Layer 1"
     inkscape:groupmode="layer"
     id="layer1"
     transform="translate(0,-231.648)">
    <rect
       style="opacity:1;fill:#ffffff;fill-opacity:1;stroke:none;stroke-width:0.76499999;stroke-miterlimit:4;stroke-dasharray:0.76499999, 1.52999997999999993;stroke-dashoffset:0;stroke-opacity:1"
       id="rect3201"
       width="95.816963"
       height="65.767853"
       x="-0.1889881"
       y="231.61012"
       ry="0.00525063" />
    <g
       transform="matrix(0.89850771,0,0,0.89850771,-176.93368,165.46855)"
       id="g1225">
      <text
         xml:space="preserve"
         style="font-style:normal;font-variant:normal;font-weight:bold;font-stretch:normal;font-size:15.31295776px;line-height:1.25;font-family:'Amatic SC';-inkscape-font-specification:'Amatic SC, Bold';font-variant-ligatures:normal;font-variant-caps:normal;font-variant-numeric:normal;font-feature-settings:normal;text-align:start;letter-spacing:0px;word-spacing:0px;writing-mode:lr-tb;text-anchor:start;fill:#000000;fill-opacity:1;stroke:#fff7ff;stroke-width:0;stroke-miterlimit:4;stroke-dasharray:none;stroke-opacity:1"
         x="213.34358"
         y="119.79597"
         id="text1086"><tspan
           sodipodi:role="line"
           id="tspan1084"
           x="213.34358"
           y="119.79597"
           style="font-style:normal;font-variant:normal;font-weight:bold;font-stretch:normal;font-size:15.31295776px;font-family:'Amatic SC';-inkscape-font-specification:'Amatic SC, Bold';font-variant-ligatures:normal;font-variant-caps:normal;font-variant-numeric:normal;font-feature-settings:normal;text-align:start;writing-mode:lr-tb;text-anchor:start;fill:#000000;stroke:#fff7ff;stroke-width:0;stroke-miterlimit:4;stroke-dasharray:none;stroke-opacity:1">lifestyle festival</tspan></text>
      <g
         transform="matrix(0.93270567,0,0,0.93270567,18.52873,5.9781531)"
         id="g1120">
        <path
           sodipodi:nodetypes="cccc"
           inkscape:connector-curvature="0"
           id="path1092"
           d="m 222.84997,82.637928 c -1.11669,-1.86987 -5.93077,-1.910122 -2.28831,2.293739 0.64751,0.710097 2.39303,1.91323 3.26025,5.176373 0.0539,-2.686261 0.46015,-5.555426 -0.97194,-7.470112 z"
           style="fill:#ffcc00;stroke:none;stroke-width:0.26458332px;stroke-linecap:butt;stroke-linejoin:miter;stroke-opacity:1" />
        <path
           style="fill:#ffcc00;stroke:none;stroke-width:0.2885285px;stroke-linecap:butt;stroke-linejoin:miter;stroke-opacity:1"
           d="m 229.33028,81.46418 c 0.0942,-2.587568 -3.90626,-5.772644 -3.17217,0.784238 0.15094,1.128622 0.94849,3.464493 -0.11956,7.273523 1.52083,-2.634002 3.43648,-5.219609 3.29173,-8.057761 z"
           id="path1094"
           inkscape:connector-curvature="0"
           sodipodi:nodetypes="cccc" />
        <path
           sodipodi:nodetypes="cccc"
           inkscape:connector-curvature="0"
           id="path1096"
           d="m 234.34595,85.57197 c 1.11854,-1.868767 -1.12483,-6.128406 -3.10367,-0.929926 -0.319,0.906505 -0.55254,3.013591 -3.01643,5.322142 2.39178,-1.224057 5.11141,-2.224394 6.1201,-4.392216 z"
           style="fill:#ffcc00;stroke:none;stroke-width:0.26458332px;stroke-linecap:butt;stroke-linejoin:miter;stroke-opacity:1" />
        <path
           style="fill:#ffcc00;stroke:none;stroke-width:0.23457915px;stroke-linecap:butt;stroke-linejoin:miter;stroke-opacity:1"
           d="m 216.64498,86.468398 c -1.72188,-0.369993 -3.98528,3.232508 0.41197,3.211155 0.75775,-0.02791 2.34299,-0.563941 4.8452,0.89694 -1.70296,-1.781375 -3.35986,-3.946795 -5.25717,-4.108095 z"
           id="path1098"
           inkscape:connector-curvature="0"
           sodipodi:nodetypes="cccc" />
      </g>
      <g
         id="g1202">
        <path
           inkscape:connector-curvature="0"
           id="path1189"
           d="m 229.18392,90.154982 c -11.24141,1.2613 -20.75838,22.431198 -10.442,23.036948 6.59717,-0.74808 11.27655,-5.921 13.69097,-11.72771 0.81263,-0.6667 1.40687,-1.17217 2.24418,-1.502761 -2.36066,3.332761 -6.46847,9.749911 2.28547,6.106361 0.48209,0.85136 1.91648,1.20238 3.91452,0.27009 -0.0353,0.2121 -0.0656,0.43091 -0.09,0.65763 -0.0988,1.65128 1.40284,6.89502 9.81439,4.67322 5.05156,-1.60464 9.71999,-3.93946 17.78223,1.13133 -1.60425,-2.74467 -8.19653,-6.58707 -12.36734,-5.49867 -13.79184,3.92001 -13.09794,-1.49523 -8.43097,-7.821122 0.46739,-0.123221 0.93905,-0.228271 1.41608,-0.311638 -0.15928,0.146424 -0.31617,0.291045 -0.47322,0.430487 -4.19201,5.387403 -2.24766,8.604663 0.90635,7.269143 l -0.0212,0.0536 c 0.0584,-0.0398 0.11316,-0.0789 0.16879,-0.11812 1.01319,-0.46926 2.14043,-1.40224 3.22449,-2.87395 0.47316,-0.27493 1.08619,-0.45731 2.05545,-0.5359 -0.12447,1.78178 0.56414,3.20203 2.36688,3.16543 3.31981,-0.62757 5.00706,-3.72984 5.28931,-6.698433 0.004,-0.0302 0.005,-0.05966 0.008,-0.08954 0.2597,-0.0084 0.50908,-0.01824 0.76302,-0.02883 -0.005,0.0238 -0.0114,0.04708 -0.0166,0.07109 -0.71246,3.058893 -0.0709,6.293573 3.02401,7.029053 2.95037,0.14356 4.19942,-3.89757 3.43768,-6.984156 0.45523,0.01426 0.91696,0.0237 1.36111,0.03313 -0.0175,0.04519 -0.0362,0.08933 -0.053,0.135156 -0.0223,-0.0194 -0.0449,-0.03826 -0.0672,-0.05767 l 0.0168,0.1976 c -0.85721,2.44014 -0.87865,5.59275 -0.22714,7.36638 1.60245,0.33876 1.93522,-1.66714 2.04441,-2.96878 0.11059,0.0887 0.22067,0.17655 0.3335,0.26818 0.451,0.35245 0.95005,0.64414 1.48212,0.88043 3.72442,1.65417 9.06059,0.60235 10.76685,-1.20311 -4.36691,0.8943 -7.49783,0.11923 -10.1186,-1.35703 2.6608,-0.70958 5.24367,-2.43651 2.92317,-4.909475 -1.31327,-1.015995 -2.44622,-1.463144 -3.4108,-1.492917 -0.96163,-0.02968 -1.75573,0.355792 -2.39423,1.005522 -2.7884,0.899134 -2.7311,-0.173238 -4.77288,-0.936854 -0.23449,-0.121758 -0.48682,-0.217102 -0.75797,-0.281152 -0.0301,-0.0038 -0.06,-0.0072 -0.0899,-0.0096 v 2.4e-4 c -0.78377,-0.03801 -1.59722,0.303567 -2.25377,0.944297 -1.35199,0.688835 -1.86648,0.565181 -2.40337,0.212244 -0.44014,-0.707597 -1.17443,-1.101658 -2.01369,-1.084753 v 2.4e-4 c -0.0305,0.0014 -0.0611,0.0037 -0.0924,0.0065 -2.16801,0.407215 -3.87057,2.496496 -4.66747,4.656428 l -0.54862,-0.025 c -0.11443,0.062 -0.29144,0.14745 -0.49002,0.24154 0.39566,-0.75042 0.75054,-1.5024 1.13924,-2.347898 0.85839,-2.00208 2.15974,-4.115188 4.4257,-6.286676 -0.96904,-0.08715 -4.25079,2.297939 -5.34022,3.768783 -0.24223,0.01949 -0.47259,0.04618 -0.69412,0.07803 -1.52319,0.120378 -2.95525,0.293291 -4.51908,0.613444 1.26735,-1.498494 2.68255,-2.994762 4.11932,-4.381509 -2.43135,0.913898 -5.0077,2.75342 -7.23072,5.169264 -0.98252,0.292058 -2.04138,0.641646 -3.22184,1.070591 0.44202,-0.684803 0.89154,-1.331182 1.31716,-1.824252 -0.41439,-0.158485 -0.83039,-0.25575 -1.29436,-0.254742 -0.46397,9.32e-4 -0.97577,0.1003 -1.58176,0.334694 -1.29354,1.995796 -2.3928,3.999051 -3.67777,5.532531 -5.32623,2.62993 0.17219,-3.656506 1.61607,-5.675869 -0.9674,-0.218776 -1.04924,-0.10246 -1.84128,-0.09268 -0.004,0.003 -0.0105,0.0065 -0.0151,0.0096 l -1.57408,0.01489 c -0.41341,0.22381 -1.48348,0.695784 -2.42929,1.137093 0.004,-0.01289 0.007,-0.02576 0.0111,-0.03865 1.37464,-4.738063 -0.72341,-7.951085 -4.11476,-8.150773 -0.0697,-0.0017 -0.14038,-0.002 -0.21224,-0.001 z m -0.42113,2.567345 c 4.72001,-0.11191 2.92171,8.355123 -4.21296,13.844173 -3.76451,2.8182 -9.39264,1.03678 -4.32533,-6.587992 3.38416,-4.83716 6.4619,-7.099313 8.30852,-7.244418 0.0782,-0.0062 0.15485,-0.01 0.22977,-0.01176 z m 24.84463,5.746934 c 0.0705,2.91e-4 0.12973,0.0036 0.16734,0.01152 -0.56784,1.570379 -2.39685,4.376809 -4.16685,5.258349 -2.85093,1.14616 0.41529,-4.399744 3.36422,-5.242983 0.11413,-0.0021 0.42406,-0.02777 0.63529,-0.02689 z m 6.19832,0.322931 c 0.0345,-0.001 0.0689,-1.88e-4 0.10328,0.0021 0.95668,0.04729 1.27319,2.621118 -0.55654,4.289548 -3.96065,2.72011 -1.71901,-4.231712 0.4533,-4.291949 z m 6.61296,0.03502 c 2.49053,0.0073 2.43654,7.533738 -1.07875,4.370948 -0.44537,-0.36609 -1.21154,-4.24823 1.07875,-4.370948 z m 8.68715,0.04393 c 0.95058,-0.0063 1.78914,0.376247 1.29122,1.143808 0.13347,0.41965 -2.75707,0.2014 -3.61368,1.99449 l 0.38584,-2.216332 c 0.0219,-0.07791 0.0563,-0.150755 0.10108,-0.21872 l 0.0785,-0.03554 -0.0172,-0.04561 c 0.34126,-0.410555 1.08668,-0.617908 1.7743,-0.622081 z m -31.33131,1.954388 c -1.03576,1.2023 -1.84444,2.28703 -2.36927,3.59975 -0.078,-0.0454 -0.20164,-0.11077 -0.2084,-0.12676 -0.0152,0.0403 -0.0315,0.0801 -0.0464,0.12052 -0.81314,-0.0535 -1.43053,0.0714 -0.11981,-2.11116 0.0808,-0.12401 0.1686,-0.26413 0.25594,-0.4036 0.82898,-0.36308 1.6563,-0.73019 2.48788,-1.07875 z"
           style="fill:url(#linearGradient1195);fill-opacity:1;stroke:none;stroke-width:1.47561324;stroke-linecap:butt;stroke-linejoin:miter;stroke-miterlimit:4;stroke-dasharray:none;stroke-opacity:1" />
        <path
           inkscape:connector-curvature="0"
           id="path1191"
           d="m 229.56568,90.797837 c -11.20589,1.257317 -20.69281,22.360343 -10.40902,22.964193 6.57634,-0.74571 11.24094,-5.90231 13.64774,-11.69069 0.81007,-0.66457 1.40243,-1.16844 2.23708,-1.498 -2.3532,3.32223 -6.44802,9.71912 2.27825,6.08708 0.48056,0.84865 1.91045,1.19857 3.90217,0.26924 -0.0352,0.21142 -0.0655,0.42955 -0.0897,0.65555 -0.0985,1.64605 1.39842,6.87326 9.78341,4.65847 5.0356,-1.59957 9.68927,-3.92704 17.72605,1.12776 -1.59918,-2.73603 -8.17064,-6.56628 -12.32828,-5.48131 -13.74827,3.90763 -13.05657,-1.49052 -8.40433,-7.79642 0.46591,-0.122835 0.93608,-0.22756 1.41161,-0.310665 -0.15878,0.145952 -0.31518,0.290135 -0.47174,0.429135 -4.17875,5.37038 -2.24056,8.57749 0.90351,7.24618 l -0.0211,0.0534 c 0.0582,-0.0397 0.11279,-0.0786 0.16825,-0.11776 1.00999,-0.46777 2.13367,-1.3978 3.21431,-2.86485 0.47166,-0.27407 1.08275,-0.45588 2.04896,-0.53421 -0.12408,1.77615 0.56235,3.1919 2.35939,3.15542 3.30933,-0.62557 4.99126,-3.71805 5.27261,-6.67727 0.004,-0.0301 0.005,-0.0596 0.008,-0.0892 0.25888,-0.008 0.50748,-0.0182 0.76062,-0.0287 -0.005,0.0237 -0.0114,0.0469 -0.0165,0.0708 -0.71021,3.04922 -0.0707,6.27369 3.01446,7.00685 2.94106,0.1431 4.18616,-3.88526 3.42683,-6.96209 0.4538,0.0143 0.91406,0.0236 1.35682,0.033 -0.0174,0.0451 -0.0361,0.089 -0.0529,0.13475 -0.0223,-0.0193 -0.0448,-0.0382 -0.067,-0.0575 l 0.0168,0.19697 c -0.85449,2.43244 -0.87586,5.57509 -0.22641,7.34312 1.59739,0.3377 1.9291,-1.66188 2.03796,-2.95941 0.11023,0.0884 0.21998,0.176 0.33243,0.26734 0.44957,0.35134 0.94705,0.64211 1.47744,0.87766 3.71266,1.64894 9.03198,0.60044 10.73285,-1.19933 -4.35313,0.89148 -7.47415,0.11887 -10.08664,-1.35273 2.65239,-0.70735 5.22711,-2.42881 2.91393,-4.893973 -1.30912,-1.012792 -2.43848,-1.458527 -3.40002,-1.488205 -0.9586,-0.02959 -1.75018,0.354667 -2.38668,1.002345 -2.77959,0.896289 -2.72248,-0.17269 -4.75779,-0.933895 -0.23376,-0.121372 -0.48528,-0.216416 -0.75558,-0.280264 -0.0301,-0.0038 -0.0598,-0.0072 -0.0895,-0.0095 v 2.4e-4 c -0.78131,-0.03789 -1.59217,0.302609 -2.24666,0.941315 -1.34771,0.686662 -1.86058,0.563399 -2.39578,0.211574 -0.43875,-0.705362 -1.17072,-1.098179 -2.00732,-1.081327 v 2.39e-4 c -0.0304,0.0014 -0.061,0.0036 -0.0922,0.0064 -2.16115,0.405929 -3.85834,2.488616 -4.65271,4.641701 l -0.54688,-0.0249 c -0.11408,0.0618 -0.29052,0.147 -0.48851,0.24078 0.39443,-0.74804 0.7482,-1.49766 1.13567,-2.340475 0.85568,-1.995752 2.1529,-4.102186 4.41171,-6.266816 -0.96598,-0.08688 -4.23737,2.290682 -5.32335,3.756879 -0.24147,0.01944 -0.47109,0.04604 -0.69192,0.07779 -1.51839,0.119999 -2.94592,0.292365 -4.50481,0.611507 1.26335,-1.49376 2.67409,-2.985304 4.10631,-4.36767 -2.42366,0.91101 -4.99188,2.744722 -7.20789,5.152939 -0.97942,0.291129 -2.03493,0.639622 -3.21167,1.067205 0.44064,-0.682633 0.88874,-1.326976 1.31301,-1.818488 -0.41306,-0.157984 -0.82777,-0.254942 -1.29028,-0.253938 -0.4625,9.34e-4 -0.97269,0.09999 -1.57675,0.333637 -1.28947,1.98949 -2.38525,3.98641 -3.66618,5.51507 -5.30938,2.62161 0.17167,-3.644966 1.61099,-5.657954 -0.96436,-0.218086 -1.04593,-0.102136 -1.83547,-0.09238 -0.004,0.0029 -0.0105,0.0065 -0.015,0.0095 l -1.5691,0.01484 c -0.41209,0.223104 -1.4788,0.693587 -2.42162,1.133499 0.003,-0.0129 0.007,-0.02569 0.011,-0.03848 1.3703,-4.723101 -0.72111,-7.925976 -4.10176,-8.125032 -0.0695,-0.0017 -0.13994,-0.002 -0.21158,-0.001 z m -0.4198,2.559236 c 4.7051,-0.111556 2.91249,8.328747 -4.19964,13.800437 -3.75263,2.80931 -9.36298,1.03351 -4.31167,-6.56718 3.37347,-4.821875 6.44147,-7.076884 8.28227,-7.221529 0.078,-0.0062 0.15436,-0.01 0.22904,-0.01172 z m 24.76617,5.728786 c 0.0702,2.83e-4 0.12932,0.0031 0.16681,0.01153 -0.56606,1.565411 -2.38929,4.362981 -4.15369,5.241731 -2.84193,1.14253 0.41398,-4.385843 3.35359,-5.226423 0.11378,-0.0021 0.42271,-0.02768 0.63329,-0.02684 z m 6.17874,0.321903 c 0.0344,-9.33e-4 0.0686,-1.78e-4 0.10296,0.0031 0.95367,0.04708 1.26917,2.612828 -0.55477,4.275998 -3.94815,2.71151 -1.7136,-4.218351 0.45186,-4.278399 z m 6.59208,0.03502 c 2.48266,0.0073 2.42883,7.509958 -1.07536,4.357138 -0.44396,-0.36491 -1.20769,-4.234798 1.07536,-4.357138 z m 8.65969,0.04383 c 0.9476,-0.0052 1.7835,0.375063 1.28717,1.140198 0.13302,0.41833 -2.74837,0.20075 -3.60228,1.98818 l 0.38462,-2.20932 c 0.0218,-0.0776 0.0562,-0.15029 0.10076,-0.21804 l 0.0782,-0.0354 -0.0173,-0.0455 c 0.3402,-0.409254 1.08327,-0.615968 1.7687,-0.62012 z m -31.23234,1.948208 c -1.03248,1.19851 -1.83861,2.27981 -2.36177,3.58839 -0.0777,-0.0453 -0.20101,-0.11042 -0.20776,-0.12638 -0.0151,0.0402 -0.0312,0.0798 -0.0461,0.12015 -0.81057,-0.0534 -1.42602,0.0712 -0.11944,-2.1045 0.0806,-0.12361 0.16808,-0.2633 0.25514,-0.40232 0.82636,-0.36193 1.65107,-0.72788 2.48001,-1.07534 z"
           style="fill:#ffcc00;stroke:#fff7ff;stroke-width:0.9726072;stroke-linecap:butt;stroke-linejoin:miter;stroke-miterlimit:4;stroke-dasharray:none;stroke-opacity:1" />
        <path
           inkscape:connector-curvature="0"
           style="fill:url(#linearGradient1197);fill-opacity:1;stroke:none;stroke-width:1.47561324;stroke-linecap:butt;stroke-linejoin:miter;stroke-miterlimit:4;stroke-dasharray:none;stroke-opacity:1"
           d="m 229.38368,90.723529 c -11.24141,1.2613 -20.75837,22.431191 -10.44201,23.036961 6.59717,-0.74808 11.27656,-5.921 13.69099,-11.72773 0.81263,-0.66668 1.40686,-1.17216 2.24416,-1.50276 -2.36065,3.33277 -6.46844,9.74991 2.28548,6.10636 0.48208,0.85135 1.91649,1.20237 3.91452,0.27011 -0.0353,0.21208 -0.0656,0.43089 -0.09,0.65762 -0.0988,1.65127 1.40285,6.89503 9.8144,4.67322 5.05157,-1.60462 9.71997,-3.93946 17.78221,1.13134 -1.60424,-2.74469 -8.19652,-6.58708 -12.36734,-5.49867 -13.79183,3.92001 -13.09794,-1.49524 -8.43096,-7.82113 0.46738,-0.123218 0.93904,-0.228268 1.41609,-0.311646 -0.15928,0.146414 -0.31618,0.291056 -0.47323,0.430486 -4.19199,5.38741 -2.24766,8.60468 0.90635,7.26915 l -0.0211,0.0536 c 0.0584,-0.0399 0.11314,-0.0789 0.16878,-0.11814 1.01319,-0.46926 2.14043,-1.40223 3.22449,-2.87395 0.47316,-0.27491 1.08619,-0.45731 2.05547,-0.53589 -0.12447,1.78178 0.56412,3.20201 2.36685,3.16543 3.31983,-0.62756 5.00708,-3.72983 5.28933,-6.69844 0.004,-0.0302 0.005,-0.0597 0.008,-0.0895 0.25969,-0.008 0.50908,-0.0181 0.76303,-0.0288 -0.005,0.0238 -0.0114,0.0471 -0.0165,0.0711 -0.71245,3.05889 -0.0709,6.29358 3.02401,7.02905 2.95037,0.14357 4.19943,-3.89756 3.43769,-6.98415 0.45523,0.0144 0.91695,0.0237 1.3611,0.0331 -0.0174,0.0452 -0.0362,0.0893 -0.0531,0.13518 -0.0223,-0.0194 -0.045,-0.0383 -0.0672,-0.0577 l 0.0168,0.19761 c -0.8572,2.44014 -0.87864,5.59275 -0.22713,7.36638 1.60245,0.33876 1.93522,-1.66714 2.04442,-2.96879 0.11058,0.0887 0.22068,0.17655 0.3335,0.26819 0.45098,0.35245 0.95004,0.64414 1.4821,0.88043 3.72442,1.65416 9.0606,0.60234 10.76687,-1.20312 -4.36692,0.89431 -7.49784,0.11924 -10.11861,-1.35703 2.6608,-0.70958 5.24367,-2.4365 2.92317,-4.909477 -1.31328,-1.015992 -2.44621,-1.46314 -3.4108,-1.492913 -0.96163,-0.02968 -1.75572,0.35579 -2.39423,1.00552 -2.7884,0.899132 -2.73111,-0.173237 -4.77287,-0.936852 -0.2345,-0.121758 -0.48683,-0.217103 -0.75799,-0.281153 -0.0301,-0.0038 -0.06,-0.0072 -0.0899,-0.0096 v 2.41e-4 c -0.78378,-0.03801 -1.59722,0.303567 -2.25378,0.944297 -1.35197,0.688837 -1.86647,0.565181 -2.40336,0.212244 -0.44014,-0.707597 -1.17443,-1.101659 -2.01368,-1.084754 v 2.4e-4 c -0.0305,0.0014 -0.0612,0.0036 -0.0925,0.0065 -2.168,0.407214 -3.87056,2.496504 -4.66746,4.656427 l -0.54863,-0.025 c -0.11442,0.062 -0.29142,0.14745 -0.49003,0.24153 0.39567,-0.75041 0.75056,-1.5024 1.13926,-2.3479 0.85839,-2.002077 2.15973,-4.115185 4.42569,-6.286674 -0.96904,-0.08715 -4.2508,2.29794 -5.34022,3.768784 -0.24224,0.01949 -0.47258,0.04619 -0.69411,0.07803 -1.5232,0.120379 -2.95524,0.293293 -4.51908,0.613446 1.26735,-1.498494 2.68255,-2.994762 4.11932,-4.381509 -2.43135,0.913897 -5.00769,2.753419 -7.23072,5.169269 -0.98253,0.292052 -2.04139,0.641646 -3.22186,1.070581 0.44204,-0.684792 0.89156,-1.331179 1.31716,-1.824248 -0.41437,-0.158484 -0.83037,-0.25575 -1.29435,-0.254742 -0.46397,9.32e-4 -0.97577,0.100301 -1.58174,0.334694 -1.29356,1.995792 -2.39283,3.999059 -3.6778,5.532539 -5.32621,2.62992 0.1722,-3.656518 1.61609,-5.675876 -0.96742,-0.218777 -1.04925,-0.102461 -1.8413,-0.09268 -0.004,0.003 -0.0105,0.0065 -0.0151,0.0096 l -1.57407,0.01489 c -0.41339,0.223811 -1.48349,0.695784 -2.42927,1.137089 0.004,-0.0129 0.007,-0.02579 0.0111,-0.03869 1.37465,-4.738063 -0.7234,-7.951084 -4.11475,-8.150772 -0.0697,-0.0017 -0.14038,-0.002 -0.21225,-9.33e-4 z m -0.42113,2.567344 c 4.72001,-0.111909 2.92172,8.355137 -4.21296,13.844157 -3.76452,2.81821 -9.39264,1.03679 -4.32533,-6.58799 3.38415,-4.837145 6.46189,-7.099297 8.30851,-7.244401 0.0782,-0.0062 0.15486,-0.01 0.22978,-0.01178 z m 24.84464,5.746933 c 0.0705,2.93e-4 0.12971,0.0031 0.16735,0.01153 -0.56786,1.570374 -2.39687,4.376804 -4.16687,5.258344 -2.85094,1.14615 0.41529,-4.39975 3.36422,-5.242983 0.11414,-0.0021 0.42405,-0.02779 0.6353,-0.02684 z m 6.19831,0.32293 c 0.0345,-9.33e-4 0.0689,-1.88e-4 0.10328,0.0031 0.95669,0.04729 1.2732,2.621114 -0.55654,4.289544 -3.96065,2.72011 -1.71901,-4.231708 0.4533,-4.291945 z m 6.61296,0.03512 c 2.49054,0.0073 2.43655,7.533754 -1.07875,4.370954 -0.44538,-0.36608 -1.21154,-4.248236 1.07875,-4.370954 z m 8.68714,0.04393 c 0.9506,-0.0052 1.78915,0.376237 1.29124,1.143804 0.13346,0.41965 -2.75707,0.20138 -3.61369,1.99448 l 0.38585,-2.21632 c 0.0219,-0.0779 0.0563,-0.15077 0.10107,-0.21873 l 0.0785,-0.0355 -0.0173,-0.0456 c 0.34127,-0.410557 1.0867,-0.617921 1.77431,-0.622094 z m -31.3313,1.954384 c -1.03575,1.20229 -1.84445,2.28703 -2.36926,3.59974 -0.078,-0.0454 -0.20165,-0.11076 -0.2084,-0.12676 -0.0152,0.0403 -0.0315,0.0801 -0.0464,0.12052 -0.81315,-0.0535 -1.43054,0.0713 -0.11982,-2.11116 0.0808,-0.124 0.16861,-0.26414 0.25595,-0.4036 0.82898,-0.36307 1.6563,-0.7302 2.48787,-1.07874 z"
           id="path1193" />
      </g>
    </g>
  </g>
</svg>
