<?xml version="1.0" encoding="UTF-8" standalone="no"?>
<!-- Created with Inkscape (http://www.inkscape.org/) -->

<svg
   xmlns:dc="http://purl.org/dc/elements/1.1/"
   xmlns:cc="http://creativecommons.org/ns#"
   xmlns:rdf="http://www.w3.org/1999/02/22-rdf-syntax-ns#"
   xmlns:svg="http://www.w3.org/2000/svg"
   xmlns="http://www.w3.org/2000/svg"
   xmlns:sodipodi="http://sodipodi.sourceforge.net/DTD/sodipodi-0.dtd"
   xmlns:inkscape="http://www.inkscape.org/namespaces/inkscape"
   width="297mm"
   height="210mm"
   viewBox="0 0 297 210"
   version="1.1"
   id="svg8"
   inkscape:version="0.92.4 (5da689c313, 2019-01-14)"
   sodipodi:docname="drawing.svg">
  <defs
     id="defs2" />
  <sodipodi:namedview
     id="base"
     pagecolor="#ffffff"
     bordercolor="#666666"
     borderopacity="1.0"
     inkscape:pageopacity="0.0"
     inkscape:pageshadow="2"
     inkscape:zoom="0.7"
     inkscape:cx="84.013476"
     inkscape:cy="419.7878"
     inkscape:document-units="mm"
     inkscape:current-layer="layer1"
     showgrid="false"
     inkscape:window-width="1850"
     inkscape:window-height="1016"
     inkscape:window-x="70"
     inkscape:window-y="27"
     inkscape:window-maximized="1" />
  <metadata
     id="metadata5">
    <rdf:RDF>
      <cc:Work
         rdf:about="">
        <dc:format>image/svg+xml</dc:format>
        <dc:type
           rdf:resource="http://purl.org/dc/dcmitype/StillImage" />
        <dc:title></dc:title>
      </cc:Work>
    </rdf:RDF>
  </metadata>
  <g
     inkscape:label="Layer 1"
     inkscape:groupmode="layer"
     id="layer1"
     transform="translate(0,-87)">
    <text
       xml:space="preserve"
       style="font-style:normal;font-weight:normal;font-size:10.58333302px;line-height:1.25;font-family:sans-serif;letter-spacing:0px;word-spacing:0px;fill:#000000;fill-opacity:1;stroke:none;stroke-width:0.26458332"
       x="52.916668"
       y="137.11607"
       id="text817"><tspan
         sodipodi:role="line"
         id="tspan815"
         x="52.916668"
         y="137.11607"
         style="stroke-width:0.26458332">Elite Sportsmanship Agency</tspan></text>
    <path
       style="font-style:normal;font-variant:normal;font-weight:normal;font-stretch:normal;font-size:22.92163658px;line-height:1.25;font-family:Audiowide;-inkscape-font-specification:'Audiowide, Normal';font-variant-ligatures:normal;font-variant-caps:normal;font-variant-numeric:normal;font-feature-settings:normal;text-align:start;letter-spacing:0px;word-spacing:0px;writing-mode:lr-tb;text-anchor:start;fill:#000000;fill-opacity:1;stroke:none;stroke-width:0.5730409;stroke-opacity:1"
       d="m 47.242467,188.05172 c -0.192342,0 -0.356777,-0.0404 -0.493072,-0.12144 -0.136272,-0.0811 -0.240251,-0.19467 -0.312472,-0.34055 -0.06535,-0.14588 -0.09842,-0.31605 -0.09854,-0.51056 -1.16e-4,-0.19451 0.03846,-0.40078 0.115603,-0.6196 l 4.020264,-11.40344 c 0.288582,-0.81856 0.656657,-1.51162 1.103963,-2.07894 0.451319,-0.55922 0.924992,-1.01696 1.421657,-1.37356 0.500677,-0.3485 0.998159,-0.59997 1.492088,-0.75396 0.493928,-0.15399 0.926437,-0.23099 1.297383,-0.23099 h 12.103875 c -1.418459,0.6246 -2.667666,1.55951 -3.553254,3.16104 H 54.69559 c -0.357206,0 -0.66697,0.10932 -0.929592,0.32815 -0.262617,0.21882 -0.467123,0.53493 -0.612842,0.94826 l -3.467334,9.83506 h 10.73681 l -1.11424,3.16053 z"
       id="path833"
       inkscape:connector-curvature="0"
       sodipodi:nodetypes="sccccsccssccscscccs" />
    <path
       style="font-style:normal;font-variant:normal;font-weight:normal;font-stretch:normal;font-size:22.92163658px;line-height:1.25;font-family:Audiowide;-inkscape-font-specification:'Audiowide, Normal';font-variant-ligatures:normal;font-variant-caps:normal;font-variant-numeric:normal;font-feature-settings:normal;text-align:start;letter-spacing:0px;word-spacing:0px;writing-mode:lr-tb;text-anchor:start;fill:#000000;fill-opacity:1;stroke:none;stroke-width:0.01059264;stroke-opacity:1;stroke-miterlimit:4;stroke-dasharray:none"
       d="m 71.606158,170.61867 c -0.432768,0 -0.93234,0.0932 -1.499509,0.27957 -0.564324,0.1783 -1.135786,0.47395 -1.714273,0.88728 -0.568765,0.40523 -1.113313,0.9362 -1.633262,1.59267 -0.510228,0.64837 -0.932142,1.44645 -1.266439,2.39468 -0.3343,0.94824 -0.476626,1.75062 -0.426417,2.40709 0.05707,0.65648 0.227237,1.18744 0.510276,1.59267 0.289904,0.40523 0.652904,0.70088 1.088654,0.88728 0.438602,0.17831 0.873806,0.26769 1.306574,0.26769 h 6.1619 c 0.247295,0 0.453415,0.0485 0.618349,0.14573 0.171779,0.0973 0.294937,0.23511 0.369466,0.41341 0.0814,0.1783 0.11704,0.38886 0.106886,0.632 -0.01016,0.24314 -0.06638,0.51077 -0.169248,0.80254 -0.211437,0.59974 -0.524556,1.07793 -0.938789,1.43453 -0.407363,0.3566 -0.868633,0.53485 -1.383835,0.53485 H 62.40172 l -1.114423,3.16105 h 10.334771 c 0.288512,0 0.608814,-0.0409 0.960249,-0.12195 0.358287,-0.081 0.725236,-0.20653 1.101232,-0.37673 0.375992,-0.17019 0.758959,-0.38884 1.148631,-0.65629 0.38967,-0.26745 0.761319,-0.59163 1.115434,-0.97255 0.354107,-0.38091 0.683668,-0.81872 0.988477,-1.31309 0.31454,-0.50249 0.581923,-1.06577 0.801931,-1.68982 0.220011,-0.62406 0.351932,-1.18356 0.395702,-1.67794 0.04377,-0.49438 0.01926,-0.93166 -0.07314,-1.31258 -0.08553,-0.38092 -0.225134,-0.7051 -0.419357,-0.97255 -0.191367,-0.27556 -0.417139,-0.50279 -0.67714,-0.68109 -0.253127,-0.17831 -0.526787,-0.30757 -0.821076,-0.38861 -0.291449,-0.0891 -0.580042,-0.13814 -0.865698,-0.14625 h -0.02066 -6.1619 c -0.508333,0 -0.845435,-0.17395 -1.011084,-0.52245 -0.155928,-0.3566 -0.126379,-0.83909 0.08792,-1.44694 0.211438,-0.59974 0.521908,-1.08171 0.932132,-1.44642 0.41709,-0.36471 0.879873,-0.54725 1.388206,-0.54725 l 10.121602,-0.0334 c 0.611976,-1.05572 0.610416,-2.75187 1.882639,-3.12712 z"
       id="path831"
       inkscape:connector-curvature="0"
       sodipodi:nodetypes="scccscccsscccccsccscccccssccccccscccsccs" />
    <path
       style="font-style:normal;font-variant:normal;font-weight:normal;font-stretch:normal;font-size:22.92163658px;line-height:1.25;font-family:Audiowide;-inkscape-font-specification:'Audiowide, Normal';font-variant-ligatures:normal;font-variant-caps:normal;font-variant-numeric:normal;font-feature-settings:normal;text-align:start;letter-spacing:0px;word-spacing:0px;writing-mode:lr-tb;text-anchor:start;fill:#000000;fill-opacity:1;stroke:none;stroke-width:0.01053156;stroke-opacity:1;stroke-miterlimit:4;stroke-dasharray:none"
       d="m 90.889178,170.61867 c 1.064752,0 1.972521,0.21188 2.722714,0.63649 0.750195,0.4246 1.320666,1.01759 1.711803,1.77868 0.39114,0.76109 0.585839,1.67029 0.583965,2.72779 -0.0019,1.05751 -0.224959,2.21529 -0.668391,3.47308 l -3.03775,8.61655 h -2.678907 l 2.426761,-6.80258 -9.384619,0.13364 -2.46017,6.66894 h -2.678907 l 5.520463,-15.65874 c 0.07626,-0.21632 0.182804,-0.42021 0.319284,-0.61248 0.136474,-0.19227 0.291795,-0.36049 0.46628,-0.50469 0.174489,-0.14421 0.358106,-0.25653 0.551212,-0.33663 0.193101,-0.0801 0.382397,-0.12005 0.56787,-0.12005 z m -1.210006,3.09078 h -4.709273 l -1.412399,4.08412 9.309696,-0.005 c 1.226069,-4.12986 -0.260704,-4.03785 -3.188023,-4.07863 z"
       id="path829"
       inkscape:connector-curvature="0"
       sodipodi:nodetypes="scccsccccccccccsscccccc" />
    <path
       style="font-style:normal;font-variant:normal;font-weight:normal;font-stretch:normal;font-size:22.92163658px;line-height:1.25;font-family:Audiowide;-inkscape-font-specification:'Audiowide, Normal';font-variant-ligatures:normal;font-variant-caps:normal;font-variant-numeric:normal;font-feature-settings:normal;text-align:start;letter-spacing:0px;word-spacing:0px;writing-mode:lr-tb;text-anchor:start;fill:#000000;fill-opacity:1;stroke:none;stroke-width:0.01198072;stroke-opacity:1;stroke-miterlimit:4;stroke-dasharray:none"
       d="m 50.737356,180.92812 1.122983,-3.18533 H 62.68212 l -1.122983,3.18533 z"
       id="text821"
       inkscape:connector-curvature="0" />
    <circle
       style="opacity:1;fill:#000000;fill-opacity:1;stroke:none;stroke-width:0.00403559;stroke-miterlimit:4;stroke-dasharray:none;stroke-dashoffset:0;stroke-opacity:1"
       id="path863"
       cx="44.723755"
       cy="178.64349"
       r="2.80633" />
    <circle
       r="2.80633"
       cy="170.89499"
       cx="98.963341"
       id="circle869"
       style="opacity:1;fill:#000000;fill-opacity:1;stroke:none;stroke-width:0.00403559;stroke-miterlimit:4;stroke-dasharray:none;stroke-dashoffset:0;stroke-opacity:1" />
  </g>
</svg>
