<?xml version="1.0" encoding="UTF-8" standalone="no"?>
<!-- Created with Inkscape (http://www.inkscape.org/) -->

<svg
   xmlns:dc="http://purl.org/dc/elements/1.1/"
   xmlns:cc="http://creativecommons.org/ns#"
   xmlns:rdf="http://www.w3.org/1999/02/22-rdf-syntax-ns#"
   xmlns:svg="http://www.w3.org/2000/svg"
   xmlns="http://www.w3.org/2000/svg"
   xmlns:xlink="http://www.w3.org/1999/xlink"
   xmlns:sodipodi="http://sodipodi.sourceforge.net/DTD/sodipodi-0.dtd"
   xmlns:inkscape="http://www.inkscape.org/namespaces/inkscape"
   width="297mm"
   height="210mm"
   viewBox="0 0 297 210"
   version="1.1"
   id="svg8"
   inkscape:version="0.92.4 (5da689c313, 2019-01-14)"
   sodipodi:docname="drawing.svg">
  <defs
     id="defs2" />
  <sodipodi:namedview
     id="base"
     pagecolor="#ffffff"
     bordercolor="#666666"
     borderopacity="1.0"
     inkscape:pageopacity="0.0"
     inkscape:pageshadow="2"
     inkscape:zoom="0.98994949"
     inkscape:cx="713.75935"
     inkscape:cy="357.21624"
     inkscape:document-units="mm"
     inkscape:current-layer="layer1"
     showgrid="false"
     inkscape:window-width="1850"
     inkscape:window-height="1016"
     inkscape:window-x="70"
     inkscape:window-y="27"
     inkscape:window-maximized="1" />
  <metadata
     id="metadata5">
    <rdf:RDF>
      <cc:Work
         rdf:about="">
        <dc:format>image/svg+xml</dc:format>
        <dc:type
           rdf:resource="http://purl.org/dc/dcmitype/StillImage" />
        <dc:title />
      </cc:Work>
    </rdf:RDF>
  </metadata>
  <g
     inkscape:label="Layer 1"
     inkscape:groupmode="layer"
     id="layer1"
     transform="translate(0,-87)">
    <text
       xml:space="preserve"
       style="font-style:normal;font-weight:normal;font-size:10.58333302px;line-height:1.25;font-family:sans-serif;letter-spacing:0px;word-spacing:0px;fill:#000000;fill-opacity:1;stroke:none;stroke-width:0.26458332"
       x="-129.64583"
       y="106.87798"
       id="text817"><tspan
         sodipodi:role="line"
         id="tspan815"
         x="-129.64583"
         y="106.87798"
         style="stroke-width:0.26458332">Elite Sportsmanship Agency</tspan></text>
    <path
       style="font-style:normal;font-variant:normal;font-weight:normal;font-stretch:normal;font-size:22.92163658px;line-height:1.25;font-family:Audiowide;-inkscape-font-specification:'Audiowide, Normal';font-variant-ligatures:normal;font-variant-caps:normal;font-variant-numeric:normal;font-feature-settings:normal;text-align:start;letter-spacing:0px;word-spacing:0px;writing-mode:lr-tb;text-anchor:start;fill:#000000;fill-opacity:1;stroke:none;stroke-width:0.5730409;stroke-opacity:1"
       d="m -126.77314,140.38057 c -0.37095,0 -0.80367,0.077 -1.2976,0.231 -0.49392,0.15399 -0.99122,0.40545 -1.4919,0.75396 -0.49666,0.3566 -0.97029,0.81434 -1.42161,1.37355 -0.44731,0.56733 -0.81523,1.26039 -1.10381,2.07895 l -4.02043,11.40344 c -0.0771,0.21882 -0.11587,0.42509 -0.11575,0.6196 1.2e-4,0.19451 0.0334,0.36468 0.0987,0.51056 0.0722,0.14588 0.17637,0.25945 0.31264,0.34055 0.1363,0.081 0.30065,0.12144 0.49299,0.12144 h 12.06593 l 1.11415,-3.16053 h -10.73682 l 1.39734,-3.96307 h 10.47584 l 1.12293,-3.18534 h -10.47585 l 0.94723,-2.68665 c 0.14572,-0.41333 0.35027,-0.72944 0.61289,-0.94827 0.26262,-0.21882 0.57193,-0.32814 0.92914,-0.32814 h 9.64437 c 0.88559,-1.60153 2.13481,-2.53645 3.55327,-3.16105 z"
       id="path833"
       inkscape:connector-curvature="0" />
    <path
       style="font-style:normal;font-variant:normal;font-weight:normal;font-stretch:normal;font-size:22.92163658px;line-height:1.25;font-family:Audiowide;-inkscape-font-specification:'Audiowide, Normal';font-variant-ligatures:normal;font-variant-caps:normal;font-variant-numeric:normal;font-feature-settings:normal;text-align:start;letter-spacing:0px;word-spacing:0px;writing-mode:lr-tb;text-anchor:start;fill:#000000;fill-opacity:1;stroke:none;stroke-width:0.01059264;stroke-miterlimit:4;stroke-dasharray:none;stroke-opacity:1"
       d="m -110.95634,140.38057 c -0.43277,0 -0.93234,0.0932 -1.49951,0.27957 -0.56433,0.1783 -1.13579,0.47395 -1.71427,0.88728 -0.56877,0.40523 -1.11332,0.9362 -1.63327,1.59267 -0.51022,0.64837 -0.93214,1.44645 -1.26644,2.39468 -0.3343,0.94824 -0.47662,1.75062 -0.42641,2.40709 0.0571,0.65648 0.22723,1.18744 0.51027,1.59267 0.28991,0.40523 0.65291,0.70088 1.08866,0.88728 0.4386,0.17831 0.8738,0.26769 1.30657,0.26769 h 6.1619 c 0.2473,0 0.45342,0.0485 0.61835,0.14573 0.17178,0.0973 0.29494,0.23511 0.36947,0.41341 0.0814,0.1783 0.11704,0.38886 0.10688,0.632 -0.0102,0.24314 -0.0664,0.51077 -0.16925,0.80254 -0.21143,0.59974 -0.52455,1.07793 -0.93878,1.43453 -0.40737,0.3566 -0.86864,0.53485 -1.38384,0.53485 h -10.33477 l -1.11442,3.16105 h 10.33477 c 0.28851,0 0.60881,-0.0409 0.96025,-0.12195 0.35828,-0.081 0.72523,-0.20653 1.10123,-0.37673 0.37599,-0.17019 0.75896,-0.38884 1.14863,-0.65629 0.38967,-0.26745 0.76132,-0.59163 1.11543,-0.97255 0.35411,-0.38091 0.68367,-0.81872 0.98848,-1.31309 0.31454,-0.50249 0.58192,-1.06577 0.80193,-1.68982 0.22001,-0.62406 0.35193,-1.18356 0.3957,-1.67794 0.0438,-0.49438 0.0193,-0.93166 -0.0731,-1.31258 -0.0855,-0.38092 -0.22513,-0.7051 -0.41935,-0.97255 -0.19137,-0.27556 -0.41714,-0.50279 -0.67714,-0.68109 -0.25313,-0.17831 -0.52679,-0.30757 -0.82108,-0.38861 -0.29145,-0.0891 -0.58004,-0.13814 -0.8657,-0.14625 h -0.0207 -6.1619 c -0.50833,0 -0.84543,-0.17395 -1.01108,-0.52245 -0.15593,-0.3566 -0.12638,-0.83909 0.0879,-1.44694 0.21144,-0.59974 0.52191,-1.08171 0.93213,-1.44642 0.41709,-0.36471 0.87987,-0.54725 1.38821,-0.54725 l 10.1216,-0.0334 c 0.61197,-1.05572 0.61041,-2.75187 1.88264,-3.12712 z"
       id="path831"
       inkscape:connector-curvature="0"
       sodipodi:nodetypes="scccscccsscccccsccscccccssccccccscccsccs" />
    <path
       style="font-style:normal;font-variant:normal;font-weight:normal;font-stretch:normal;font-size:22.92163658px;line-height:1.25;font-family:Audiowide;-inkscape-font-specification:'Audiowide, Normal';font-variant-ligatures:normal;font-variant-caps:normal;font-variant-numeric:normal;font-feature-settings:normal;text-align:start;letter-spacing:0px;word-spacing:0px;writing-mode:lr-tb;text-anchor:start;fill:#000000;fill-opacity:1;stroke:none;stroke-width:0.01053156;stroke-miterlimit:4;stroke-dasharray:none;stroke-opacity:1"
       d="m -91.673322,140.38057 c 1.064752,0 1.972521,0.21188 2.722714,0.63649 0.750195,0.4246 1.320666,1.01759 1.711803,1.77868 0.39114,0.76109 0.585839,1.67029 0.583965,2.72779 -0.0019,1.05751 -0.224959,2.21529 -0.668391,3.47308 l -3.03775,8.61655 h -2.678907 l 2.426761,-6.80258 -9.384619,0.13364 -2.460174,6.66894 h -2.6789 l 5.52046,-15.65874 c 0.07626,-0.21632 0.182804,-0.42021 0.319284,-0.61248 0.136474,-0.19227 0.291795,-0.36049 0.46628,-0.50469 0.174489,-0.14421 0.358106,-0.25653 0.551212,-0.33663 0.193101,-0.0801 0.382397,-0.12005 0.56787,-0.12005 z m -1.210006,3.09078 h -4.709273 l -1.412399,4.08412 9.309696,-0.005 c 1.226069,-4.12986 -0.260704,-4.03785 -3.188023,-4.07863 z"
       id="path829"
       inkscape:connector-curvature="0"
       sodipodi:nodetypes="scccsccccccccccsscccccc" />
    <circle
       style="opacity:1;fill:#000000;fill-opacity:1;stroke:none;stroke-width:0.00403559;stroke-miterlimit:4;stroke-dasharray:none;stroke-dashoffset:0;stroke-opacity:1"
       id="path863"
       cx="-137.83875"
       cy="148.2164"
       r="2.80633" />
    <circle
       r="2.80633"
       cy="140.65689"
       cx="-83.599159"
       id="circle869"
       style="opacity:1;fill:#000000;fill-opacity:1;stroke:none;stroke-width:0.00403559;stroke-miterlimit:4;stroke-dasharray:none;stroke-dashoffset:0;stroke-opacity:1" />
    <circle
       style="opacity:1;fill:#000000;fill-opacity:1;stroke:none;stroke-width:0.00220997;stroke-miterlimit:4;stroke-dasharray:none;stroke-dashoffset:0;stroke-opacity:1"
       id="circle873"
       cx="-86.302307"
       cy="154.03183"
       r="1.5367997" />
    <circle
       r="1.5367997"
       cy="137.91739"
       cx="-119.21282"
       id="circle875"
       style="opacity:1;fill:#000000;fill-opacity:1;stroke:none;stroke-width:0.00220997;stroke-miterlimit:4;stroke-dasharray:none;stroke-dashoffset:0;stroke-opacity:1" />
    <path
       style="font-style:normal;font-variant:normal;font-weight:normal;font-stretch:normal;font-size:10.58333302px;line-height:1.25;font-family:'Days One';-inkscape-font-specification:'Days One, Normal';font-variant-ligatures:normal;font-variant-caps:normal;font-variant-numeric:normal;font-feature-settings:normal;text-align:start;letter-spacing:0px;word-spacing:0px;writing-mode:lr-tb;text-anchor:start;fill:#000000;fill-opacity:1;stroke:none;stroke-width:0.26458332"
       d="m -141.14229,174.83273 c -1.20234,0 -2.04983,0.18776 -2.54248,0.56328 -0.49265,0.37207 -0.73897,0.90433 -0.73897,1.5968 0,0.37551 0.10163,0.7028 0.30489,0.98185 0.2067,0.27561 0.47542,0.49265 0.80615,0.65112 0.33073,0.15848 0.69246,0.29628 1.08521,0.41341 0.39618,0.11714 0.79409,0.21532 1.19372,0.29456 0.39963,0.0758 0.76481,0.15331 1.09554,0.23254 0.7407,0.17226 1.11104,0.40825 1.11104,0.70797 0,0.39619 -0.30317,0.59428 -0.9095,0.59428 l -1.80868,-0.0362 c -0.56499,0 -0.92845,-0.16881 -1.09037,-0.50643 -0.16192,-0.33762 -0.39791,-0.50643 -0.70796,-0.50643 h -0.61495 c -0.11369,0 -0.23083,0.0448 -0.35141,0.13436 -0.12057,0.0861 -0.18086,0.23082 -0.18086,0.43408 0,0.54432 0.28422,0.99908 0.85266,1.36426 0.56844,0.36173 1.20578,0.5426 1.91203,0.5426 l 1.56579,0.031 c 1.1989,0 2.04467,-0.18604 2.53732,-0.55811 0.49609,-0.37552 0.74414,-0.90951 0.74414,-1.60197 0,-0.50643 -0.19293,-0.92845 -0.57878,-1.26607 -0.3824,-0.34107 -0.84922,-0.58567 -1.40043,-0.73381 -0.55122,-0.14814 -1.10071,-0.27388 -1.64848,-0.37724 -0.54432,-0.10679 -1.00941,-0.2291 -1.39526,-0.3669 -0.38241,-0.1378 -0.57361,-0.31523 -0.57361,-0.53227 0,-0.39618 0.30317,-0.59427 0.9095,-0.59427 l 1.55546,0.031 c 0.565,0 0.92846,0.17053 1.09038,0.5116 0.16192,0.33762 0.3979,0.50643 0.70796,0.50643 h 0.61495 c 0.11025,0 0.22566,-0.0448 0.34624,-0.13436 0.12057,-0.0896 0.18086,-0.23599 0.18086,-0.43925 0,-0.54433 -0.28422,-0.99736 -0.85266,-1.35909 -0.56499,-0.36518 -1.20061,-0.54777 -1.90686,-0.54777 z"
       id="path841"
       inkscape:connector-curvature="0" />
    <path
       style="font-style:normal;font-variant:normal;font-weight:normal;font-stretch:normal;font-size:10.58333302px;line-height:1.25;font-family:'Days One';-inkscape-font-specification:'Days One, Normal';font-variant-ligatures:normal;font-variant-caps:normal;font-variant-numeric:normal;font-feature-settings:normal;text-align:start;letter-spacing:0px;word-spacing:0px;writing-mode:lr-tb;text-anchor:start;fill:#000000;fill-opacity:1;stroke:none;stroke-width:0.26458332"
       d="m -151.3192,174.87407 c -0.13436,0 -0.24977,0.0465 -0.34623,0.13953 -0.0965,0.093 -0.1447,0.2067 -0.1447,0.34106 v 6.43372 c 0,0.14124 0.0482,0.2601 0.1447,0.35656 0.0965,0.093 0.21187,0.13953 0.34623,0.13953 h 5.93245 c 0.13436,0 0.24977,-0.0465 0.34623,-0.13953 0.0965,-0.0965 0.1447,-0.21187 0.1447,-0.34623 v -0.49609 c 0,-0.13436 -0.0465,-0.24805 -0.13953,-0.34107 -0.093,-0.093 -0.20498,-0.13952 -0.3359,-0.13952 h -4.49068 v -1.52446 h 3.87573 c 0.13436,0 0.24805,-0.0465 0.34107,-0.13952 0.0965,-0.0965 0.14469,-0.21188 0.14469,-0.34624 v -0.48575 c 0,-0.13436 -0.0482,-0.24805 -0.14469,-0.34107 -0.093,-0.0965 -0.20671,-0.14469 -0.34107,-0.14469 h -3.87573 v -1.50379 h 4.50102 c 0.13436,0 0.24805,-0.0465 0.34106,-0.13953 0.0965,-0.0965 0.1447,-0.21187 0.1447,-0.34623 v -0.48576 c 0,-0.13435 -0.0482,-0.24976 -0.1447,-0.34623 -0.093,-0.0965 -0.2067,-0.14469 -0.34106,-0.14469 z"
       id="path839"
       inkscape:connector-curvature="0" />
    <path
       style="font-style:normal;font-variant:normal;font-weight:normal;font-stretch:normal;font-size:10.58333302px;line-height:1.25;font-family:'Days One';-inkscape-font-specification:'Days One, Normal';font-variant-ligatures:normal;font-variant-caps:normal;font-variant-numeric:normal;font-feature-settings:normal;text-align:start;letter-spacing:0px;word-spacing:0px;writing-mode:lr-tb;text-anchor:start;fill:#000000;fill-opacity:1;stroke:none;stroke-width:0.26458332"
       d="m -133.22029,174.87407 c 1.93614,0.003 3.07991,0.67524 3.43131,2.01538 l 1.29708,4.9196 c 0.0103,0.0448 0.0172,0.0965 0.0207,0.15503 0,0.0586 -0.0293,0.12746 -0.0879,0.2067 -0.0586,0.0758 -0.15503,0.11369 -0.28939,0.11369 h -1.01803 c -0.13435,0 -0.26182,-0.0448 -0.3824,-0.13436 -0.12058,-0.093 -0.19809,-0.21015 -0.23255,-0.3514 l -0.34623,-1.30225 h -3.67419 v 1.30225 c 0,0.14125 -0.0448,0.25838 -0.13436,0.3514 -0.093,0.0896 -0.21015,0.13436 -0.3514,0.13436 h -0.97152 c -0.13436,0 -0.24977,-0.0448 -0.34623,-0.13436 -0.0965,-0.093 -0.14469,-0.20671 -0.14469,-0.34106 v -6.45439 c 0,-0.12747 0.0431,-0.23943 0.12919,-0.3359 0.0827,-0.0965 0.18775,-0.14469 0.31522,-0.14469 z m 0.1912,1.46244 h -1.47278 v 2.69751 h 3.29179 l -0.45476,-1.65881 c -0.0861,-0.31695 -0.25149,-0.56844 -0.49609,-0.75448 -0.24805,-0.18948 -0.53743,-0.28422 -0.86816,-0.28422 z"
       id="path837"
       inkscape:connector-curvature="0" />
    <rect
       style="opacity:1;fill:#ffffff;fill-opacity:1;stroke:none;stroke-width:0.2;stroke-miterlimit:4;stroke-dasharray:none;stroke-dashoffset:0;stroke-opacity:1"
       id="rect844"
       width="4.3765388"
       height="1.1693041"
       x="-145.71272"
       y="179.66545"
       ry="0.00525063" />
    <rect
       ry="0.00525063"
       y="176.31091"
       x="-140.94077"
       height="1.1693041"
       width="4.3765388"
       id="rect846"
       style="opacity:1;fill:#ffffff;fill-opacity:1;stroke:none;stroke-width:0.2;stroke-miterlimit:4;stroke-dasharray:none;stroke-dashoffset:0;stroke-opacity:1" />
    <rect
       ry="0.0066007921"
       y="180.81805"
       x="-144.51091"
       height="1.4699824"
       width="3.053622"
       id="rect848"
       style="opacity:1;fill:#000000;fill-opacity:1;stroke:none;stroke-width:0.18731155;stroke-miterlimit:4;stroke-dasharray:none;stroke-dashoffset:0;stroke-opacity:1" />
    <rect
       style="opacity:1;fill:#000000;fill-opacity:1;stroke:none;stroke-width:0.2267004;stroke-miterlimit:4;stroke-dasharray:none;stroke-dashoffset:0;stroke-opacity:1"
       id="rect850"
       width="4.4729152"
       height="1.4699824"
       x="-141.3418"
       y="174.83366"
       ry="0.0066007921" />
    <text
       id="text854"
       y="130.97905"
       x="-107.34254"
       style="font-style:normal;font-variant:normal;font-weight:normal;font-stretch:normal;font-size:10.58333302px;line-height:1.25;font-family:'Baloo Bhai';-inkscape-font-specification:'Baloo Bhai, Normal';font-variant-ligatures:normal;font-variant-caps:normal;font-variant-numeric:normal;font-feature-settings:normal;text-align:start;letter-spacing:0px;word-spacing:0px;writing-mode:lr-tb;text-anchor:start;fill:#000000;fill-opacity:1;stroke:none;stroke-width:0.26458332"
       xml:space="preserve"><tspan
         style="font-style:normal;font-variant:normal;font-weight:normal;font-stretch:normal;font-size:10.58333302px;font-family:'Baloo Bhai';-inkscape-font-specification:'Baloo Bhai, Normal';font-variant-ligatures:normal;font-variant-caps:normal;font-variant-numeric:normal;font-feature-settings:normal;text-align:start;writing-mode:lr-tb;text-anchor:start;stroke-width:0.26458332"
         y="130.97905"
         x="-107.34254"
         id="tspan852"
         sodipodi:role="line">Elite Sportsmanship Agency</tspan></text>
    <text
       xml:space="preserve"
       style="font-style:normal;font-variant:normal;font-weight:normal;font-stretch:normal;font-size:10.58333302px;line-height:1.25;font-family:'Days One';-inkscape-font-specification:'Days One, Normal';font-variant-ligatures:normal;font-variant-caps:normal;font-variant-numeric:normal;font-feature-settings:normal;text-align:start;letter-spacing:0px;word-spacing:0px;writing-mode:lr-tb;text-anchor:start;fill:#000000;fill-opacity:1;stroke:none;stroke-width:0.26458332"
       x="-92.375443"
       y="170.53494"
       id="text858"><tspan
         sodipodi:role="line"
         id="tspan856"
         x="-92.375443"
         y="170.53494"
         style="font-style:normal;font-variant:normal;font-weight:normal;font-stretch:normal;font-size:10.58333302px;font-family:'Days One';-inkscape-font-specification:'Days One, Normal';font-variant-ligatures:normal;font-variant-caps:normal;font-variant-numeric:normal;font-feature-settings:normal;text-align:start;writing-mode:lr-tb;text-anchor:start;stroke-width:0.26458332">Elite Sportsmanship Agency</tspan></text>
    <text
       id="text862"
       y="187.73286"
       x="-94.26532"
       style="font-style:normal;font-variant:normal;font-weight:900;font-stretch:normal;font-size:10.58333302px;line-height:1.25;font-family:'Exo Black';-inkscape-font-specification:'Exo Black, Heavy';font-variant-ligatures:normal;font-variant-caps:normal;font-variant-numeric:normal;font-feature-settings:normal;text-align:start;letter-spacing:0px;word-spacing:0px;writing-mode:lr-tb;text-anchor:start;fill:#000000;fill-opacity:1;stroke:none;stroke-width:0.26458332"
       xml:space="preserve"><tspan
         style="font-style:normal;font-variant:normal;font-weight:900;font-stretch:normal;font-size:10.58333302px;font-family:'Exo Black';-inkscape-font-specification:'Exo Black, Heavy';font-variant-ligatures:normal;font-variant-caps:normal;font-variant-numeric:normal;font-feature-settings:normal;text-align:start;writing-mode:lr-tb;text-anchor:start;stroke-width:0.26458332"
         y="187.73286"
         x="-94.26532"
         id="tspan860"
         sodipodi:role="line">Elite Sportsmanship Agency</tspan></text>
    <text
       xml:space="preserve"
       style="font-style:normal;font-variant:normal;font-weight:normal;font-stretch:normal;font-size:10.58333302px;line-height:1.25;font-family:'Fugaz One';-inkscape-font-specification:'Fugaz One, Normal';font-variant-ligatures:normal;font-variant-caps:normal;font-variant-numeric:normal;font-feature-settings:normal;text-align:start;letter-spacing:0px;word-spacing:0px;writing-mode:lr-tb;text-anchor:start;fill:#000000;fill-opacity:1;stroke:none;stroke-width:0.26458332"
       x="-93.509369"
       y="205.49774"
       id="text866"><tspan
         sodipodi:role="line"
         id="tspan864"
         x="-93.509369"
         y="205.49774"
         style="font-style:normal;font-variant:normal;font-weight:normal;font-stretch:normal;font-size:10.58333302px;font-family:'Fugaz One';-inkscape-font-specification:'Fugaz One, Normal';font-variant-ligatures:normal;font-variant-caps:normal;font-variant-numeric:normal;font-feature-settings:normal;text-align:start;writing-mode:lr-tb;text-anchor:start;stroke-width:0.26458332">Elite Sportsmanship Agency</tspan></text>
    <text
       id="text870"
       y="226.07748"
       x="-120.50359"
       style="font-style:normal;font-variant:normal;font-weight:normal;font-stretch:normal;font-size:10.58333302px;line-height:1.25;font-family:'Leckerli One';-inkscape-font-specification:'Leckerli One, Normal';font-variant-ligatures:normal;font-variant-caps:normal;font-variant-numeric:normal;font-feature-settings:normal;text-align:start;letter-spacing:0px;word-spacing:0px;writing-mode:lr-tb;text-anchor:start;fill:#000000;fill-opacity:1;stroke:none;stroke-width:0.26458332"
       xml:space="preserve"><tspan
         style="font-style:normal;font-variant:normal;font-weight:normal;font-stretch:normal;font-size:10.58333302px;font-family:'Leckerli One';-inkscape-font-specification:'Leckerli One, Normal';font-variant-ligatures:normal;font-variant-caps:normal;font-variant-numeric:normal;font-feature-settings:normal;text-align:start;writing-mode:lr-tb;text-anchor:start;stroke-width:0.26458332"
         y="226.07748"
         x="-120.50359"
         id="tspan868"
         sodipodi:role="line">Elite Sportsmanship Agency</tspan></text>
    <text
       xml:space="preserve"
       style="font-style:normal;font-variant:normal;font-weight:normal;font-stretch:normal;font-size:10.58333302px;line-height:1.25;font-family:'Medula One';-inkscape-font-specification:'Medula One, Normal';font-variant-ligatures:normal;font-variant-caps:normal;font-variant-numeric:normal;font-feature-settings:normal;text-align:start;letter-spacing:0px;word-spacing:0px;writing-mode:lr-tb;text-anchor:start;fill:#000000;fill-opacity:1;stroke:none;stroke-width:0.26458332"
       x="-125.84898"
       y="244.2518"
       id="text874"><tspan
         sodipodi:role="line"
         id="tspan872"
         x="-125.84898"
         y="244.2518"
         style="font-style:normal;font-variant:normal;font-weight:normal;font-stretch:normal;font-size:10.58333302px;font-family:'Medula One';-inkscape-font-specification:'Medula One, Normal';font-variant-ligatures:normal;font-variant-caps:normal;font-variant-numeric:normal;font-feature-settings:normal;text-align:start;writing-mode:lr-tb;text-anchor:start;stroke-width:0.26458332">Elite Sportsmanship Agency</tspan></text>
    <text
       id="text878"
       y="256.5462"
       x="-126.65079"
       style="font-style:normal;font-variant:normal;font-weight:900;font-stretch:normal;font-size:10.58333302px;line-height:1.25;font-family:'Orbitron Black';-inkscape-font-specification:'Orbitron Black, Heavy';font-variant-ligatures:normal;font-variant-caps:normal;font-variant-numeric:normal;font-feature-settings:normal;text-align:start;letter-spacing:0px;word-spacing:0px;writing-mode:lr-tb;text-anchor:start;fill:#000000;fill-opacity:1;stroke:none;stroke-width:0.26458332"
       xml:space="preserve"><tspan
         style="font-style:normal;font-variant:normal;font-weight:900;font-stretch:normal;font-size:10.58333302px;font-family:'Orbitron Black';-inkscape-font-specification:'Orbitron Black, Heavy';font-variant-ligatures:normal;font-variant-caps:normal;font-variant-numeric:normal;font-feature-settings:normal;text-align:start;writing-mode:lr-tb;text-anchor:start;stroke-width:0.26458332"
         y="256.5462"
         x="-126.65079"
         id="tspan876"
         sodipodi:role="line">Elite Sportsmanship Agency</tspan></text>
    <text
       xml:space="preserve"
       style="font-style:normal;font-variant:normal;font-weight:800;font-stretch:normal;font-size:10.58333302px;line-height:1.25;font-family:'Raleway ExtraBold';-inkscape-font-specification:'Raleway ExtraBold, Ultra-Bold';font-variant-ligatures:normal;font-variant-caps:normal;font-variant-numeric:normal;font-feature-settings:normal;text-align:start;letter-spacing:0px;word-spacing:0px;writing-mode:lr-tb;text-anchor:start;fill:#000000;fill-opacity:1;stroke:none;stroke-width:0.26458332"
       x="-115.3115"
       y="284.51645"
       id="text882"><tspan
         sodipodi:role="line"
         id="tspan880"
         x="-115.3115"
         y="284.51645"
         style="font-style:normal;font-variant:normal;font-weight:800;font-stretch:normal;font-size:10.58333302px;font-family:'Raleway ExtraBold';-inkscape-font-specification:'Raleway ExtraBold, Ultra-Bold';font-variant-ligatures:normal;font-variant-caps:normal;font-variant-numeric:normal;font-feature-settings:normal;text-align:start;writing-mode:lr-tb;text-anchor:start;stroke-width:0.26458332">Elite Sportsmanship Agency</tspan></text>
    <text
       id="text886"
       y="301.90335"
       x="-110.01984"
       style="font-style:normal;font-variant:normal;font-weight:normal;font-stretch:normal;font-size:10.58333302px;line-height:1.25;font-family:Righteous;-inkscape-font-specification:'Righteous, Normal';font-variant-ligatures:normal;font-variant-caps:normal;font-variant-numeric:normal;font-feature-settings:normal;text-align:start;letter-spacing:0px;word-spacing:0px;writing-mode:lr-tb;text-anchor:start;fill:#000000;fill-opacity:1;stroke:none;stroke-width:0.26458332"
       xml:space="preserve"><tspan
         style="font-style:normal;font-variant:normal;font-weight:normal;font-stretch:normal;font-size:10.58333302px;font-family:Righteous;-inkscape-font-specification:'Righteous, Normal';font-variant-ligatures:normal;font-variant-caps:normal;font-variant-numeric:normal;font-feature-settings:normal;text-align:start;writing-mode:lr-tb;text-anchor:start;stroke-width:0.26458332"
         y="301.90335"
         x="-110.01984"
         id="tspan884"
         sodipodi:role="line">Elite Sportsmanship Agency</tspan></text>
    <text
       xml:space="preserve"
       style="font-style:normal;font-variant:normal;font-weight:normal;font-stretch:normal;font-size:10.58333302px;line-height:1.25;font-family:Yellowtail;-inkscape-font-specification:'Yellowtail, Normal';font-variant-ligatures:normal;font-variant-caps:normal;font-variant-numeric:normal;font-feature-settings:normal;text-align:start;letter-spacing:0px;word-spacing:0px;writing-mode:lr-tb;text-anchor:start;fill:#000000;fill-opacity:1;stroke:none;stroke-width:0.26458332"
       x="-107.374"
       y="314.75455"
       id="text890"><tspan
         sodipodi:role="line"
         id="tspan888"
         x="-107.374"
         y="314.75455"
         style="font-style:normal;font-variant:normal;font-weight:normal;font-stretch:normal;font-size:10.58333302px;font-family:Yellowtail;-inkscape-font-specification:'Yellowtail, Normal';font-variant-ligatures:normal;font-variant-caps:normal;font-variant-numeric:normal;font-feature-settings:normal;text-align:start;writing-mode:lr-tb;text-anchor:start;stroke-width:0.26458332">Elite Sportsmanship Agency</tspan></text>
    <text
       id="text894"
       y="332.14145"
       x="-108.12995"
       style="font-style:normal;font-variant:normal;font-weight:normal;font-stretch:normal;font-size:10.58333302px;line-height:1.25;font-family:Yellowtail;-inkscape-font-specification:'Yellowtail, Normal';font-variant-ligatures:normal;font-variant-caps:normal;font-variant-numeric:normal;font-feature-settings:normal;text-align:start;letter-spacing:0px;word-spacing:0px;writing-mode:lr-tb;text-anchor:start;fill:#000000;fill-opacity:1;stroke:none;stroke-width:0.26458332"
       xml:space="preserve"><tspan
         style="font-style:normal;font-variant:normal;font-weight:normal;font-stretch:normal;font-size:10.58333302px;font-family:Yellowtail;-inkscape-font-specification:'Yellowtail, Normal';font-variant-ligatures:normal;font-variant-caps:normal;font-variant-numeric:normal;font-feature-settings:normal;text-align:start;writing-mode:lr-tb;text-anchor:start;stroke-width:0.26458332"
         y="332.14145"
         x="-108.12995"
         id="tspan892"
         sodipodi:role="line">Elite Sportsmanship Agency</tspan></text>
    <text
       xml:space="preserve"
       style="font-style:normal;font-variant:normal;font-weight:normal;font-stretch:normal;font-size:27.65047073px;line-height:1.25;font-family:'Leckerli One';-inkscape-font-specification:'Leckerli One, Normal';font-variant-ligatures:normal;font-variant-caps:normal;font-variant-numeric:normal;font-feature-settings:normal;text-align:start;letter-spacing:0px;word-spacing:0px;writing-mode:lr-tb;text-anchor:start;fill:#000000;fill-opacity:1;stroke:none;stroke-width:0.69126177"
       x="192.60612"
       y="157.45309"
       id="text898"><tspan
         sodipodi:role="line"
         id="tspan896"
         x="192.60612"
         y="157.45309"
         style="font-style:normal;font-variant:normal;font-weight:normal;font-stretch:normal;font-size:27.65047073px;font-family:'Leckerli One';-inkscape-font-specification:'Leckerli One, Normal';font-variant-ligatures:normal;font-variant-caps:normal;font-variant-numeric:normal;font-feature-settings:normal;text-align:start;writing-mode:lr-tb;text-anchor:start;stroke-width:0.69126177">Elite</tspan></text>
    <text
       xml:space="preserve"
       style="font-style:normal;font-variant:normal;font-weight:normal;font-stretch:normal;font-size:12.69999981px;line-height:1.25;font-family:'Medula One';-inkscape-font-specification:'Medula One, Normal';font-variant-ligatures:normal;font-variant-caps:normal;font-variant-numeric:normal;font-feature-settings:normal;text-align:start;letter-spacing:0px;word-spacing:0px;writing-mode:lr-tb;text-anchor:start;fill:#000000;fill-opacity:1;stroke:none;stroke-width:0.07418402"
       id="text902"><textPath
         xlink:href="#path904"
         id="textPath906"><tspan
   style="font-style:normal;font-variant:normal;font-weight:normal;font-stretch:normal;font-size:12.69999981px;font-family:'Medula One';-inkscape-font-specification:'Medula One, Normal';font-variant-ligatures:normal;font-variant-caps:normal;font-variant-numeric:normal;font-feature-settings:normal;text-align:start;writing-mode:lr-tb;text-anchor:start;stroke-width:0.07418402"
   id="tspan900">  s  p  o  r  t  s  m  a  n  s  h  i  p</tspan></textPath></text>
    <path
       style="fill:none;stroke:none;stroke-width:0.69126177px;stroke-linecap:butt;stroke-linejoin:miter;stroke-opacity:1"
       d="m 186.94826,144.10343 c 7.05124,-36.59508 57.40343,-35.73754 63.6948,-0.98753"
       id="path904"
       inkscape:connector-curvature="0"
       sodipodi:nodetypes="cc" />
    <text
       xml:space="preserve"
       style="font-style:normal;font-weight:normal;font-size:27.65047073px;line-height:1.25;font-family:sans-serif;letter-spacing:0px;word-spacing:0px;fill:#000000;fill-opacity:1;stroke:none;stroke-width:0.69126177"
       x="188.18268"
       y="141.01746"
       id="text911"><tspan
         sodipodi:role="line"
         id="tspan909"
         x="188.18268"
         y="141.01746"
         style="stroke-width:0.69126177">  </tspan></text>
    <text
       xml:space="preserve"
       style="font-style:normal;font-variant:normal;font-weight:normal;font-stretch:normal;font-size:12.69999981px;line-height:1.25;font-family:'Medula One';-inkscape-font-specification:'Medula One, Normal';font-variant-ligatures:normal;font-variant-caps:normal;font-variant-numeric:normal;font-feature-settings:normal;text-align:start;letter-spacing:0px;word-spacing:0px;writing-mode:lr-tb;text-anchor:start;fill:#000000;fill-opacity:1;stroke:none;stroke-width:0.26458332"
       id="text915"><textPath
         xlink:href="#path917"
         id="textPath919"><tspan
   style="font-style:normal;font-variant:normal;font-weight:normal;font-stretch:normal;font-size:12.69999981px;font-family:'Medula One';-inkscape-font-specification:'Medula One, Normal';font-variant-ligatures:normal;font-variant-caps:normal;font-variant-numeric:normal;font-feature-settings:normal;text-align:start;writing-mode:lr-tb;text-anchor:start;stroke-width:0.26458332"
   id="tspan913">              a   g   e   n   c   y</tspan></textPath></text>
    <path
       style="fill:none;stroke:none;stroke-width:0.26458332px;stroke-linecap:butt;stroke-linejoin:miter;stroke-opacity:1"
       d="m 187.4828,158.26872 c 5.21025,30.50783 63.46462,32.0628 63.6948,-0.98753"
       id="path917"
       inkscape:connector-curvature="0"
       sodipodi:nodetypes="cc" />
  </g>
</svg>
