<?xml version="1.0" encoding="UTF-8" standalone="no"?>
<!-- Created with Inkscape (http://www.inkscape.org/) -->

<svg
   xmlns:dc="http://purl.org/dc/elements/1.1/"
   xmlns:cc="http://creativecommons.org/ns#"
   xmlns:rdf="http://www.w3.org/1999/02/22-rdf-syntax-ns#"
   xmlns:svg="http://www.w3.org/2000/svg"
   xmlns="http://www.w3.org/2000/svg"
   xmlns:sodipodi="http://sodipodi.sourceforge.net/DTD/sodipodi-0.dtd"
   xmlns:inkscape="http://www.inkscape.org/namespaces/inkscape"
   width="297mm"
   height="210mm"
   viewBox="0 0 297 210"
   version="1.1"
   id="svg8"
   inkscape:version="0.92.4 (5da689c313, 2019-01-14)"
   sodipodi:docname="logo_black.svg"
   inkscape:export-filename="/home/v/Documents/Elite-Sportsmanship-Agency/logo_white.png"
   inkscape:export-xdpi="95.300003"
   inkscape:export-ydpi="95.300003">
  <defs
     id="defs2" />
  <sodipodi:namedview
     id="base"
     pagecolor="#ffffff"
     bordercolor="#666666"
     borderopacity="1.0"
     inkscape:pageopacity="0.0"
     inkscape:pageshadow="2"
     inkscape:zoom="0.49497475"
     inkscape:cx="442.23864"
     inkscape:cy="158.76419"
     inkscape:document-units="mm"
     inkscape:current-layer="layer1"
     showgrid="false"
     inkscape:window-width="1850"
     inkscape:window-height="1016"
     inkscape:window-x="70"
     inkscape:window-y="27"
     inkscape:window-maximized="1" />
  <metadata
     id="metadata5">
    <rdf:RDF>
      <cc:Work
         rdf:about="">
        <dc:format>image/svg+xml</dc:format>
        <dc:type
           rdf:resource="http://purl.org/dc/dcmitype/StillImage" />
        <dc:title />
      </cc:Work>
    </rdf:RDF>
  </metadata>
  <g
     inkscape:label="Layer 1"
     inkscape:groupmode="layer"
     id="layer1"
     transform="translate(0,-87)">
    <rect
       style="opacity:1;fill:#ffffff;fill-opacity:1;stroke:none;stroke-width:0.57299995;stroke-miterlimit:4;stroke-dasharray:none;stroke-dashoffset:0;stroke-opacity:1"
       id="rect1593"
       width="298.6012"
       height="210.91072"
       x="0.3703379"
       y="87.844063"
       ry="0.00525063" />
    <g
       id="g845">
      <g
         style="fill:#000000"
         id="g1067"
         transform="matrix(2.0818319,0,0,2.0818319,-348.04859,-76.706463)">
        <g
           style="fill:#000000"
           id="g1041">
          <text
             id="text882"
             y="135.45422"
             x="208.76721"
             style="font-style:normal;font-variant:normal;font-weight:500;font-stretch:normal;font-size:5.29166651px;line-height:1.25;font-family:'Orbitron Medium';-inkscape-font-specification:'Orbitron Medium, Medium';font-variant-ligatures:normal;font-variant-caps:normal;font-variant-numeric:normal;font-feature-settings:normal;text-align:start;letter-spacing:0px;word-spacing:0px;writing-mode:lr-tb;text-anchor:start;fill:#000000;fill-opacity:1;stroke:none;stroke-width:0.16625445"
             xml:space="preserve"><tspan
               style="font-style:normal;font-variant:normal;font-weight:500;font-stretch:normal;font-size:5.29166651px;font-family:'Orbitron Medium';-inkscape-font-specification:'Orbitron Medium, Medium';font-variant-ligatures:normal;font-variant-caps:normal;font-variant-numeric:normal;font-feature-settings:normal;text-align:start;writing-mode:lr-tb;text-anchor:start;stroke-width:0.16625445;fill:#000000"
               y="135.45422"
               x="208.76721"
               id="tspan880"
               sodipodi:role="line">  agency</tspan></text>
          <g
             style="fill:#000000"
             transform="matrix(1.6213959,0,0,1.8600527,-120.23096,-139.16048)"
             id="g1098">
            <path
               style="font-style:normal;font-variant:normal;font-weight:normal;font-stretch:normal;font-size:10.58333302px;line-height:1.25;font-family:'Days One';-inkscape-font-specification:'Days One, Normal';font-variant-ligatures:normal;font-variant-caps:normal;font-variant-numeric:normal;font-feature-settings:normal;text-align:start;letter-spacing:0px;word-spacing:0px;writing-mode:lr-tb;text-anchor:start;fill:#000000;fill-opacity:1;stroke:none;stroke-width:0.26458332"
               d="m 244.84904,140.3282 c 1.93614,0.003 3.07991,0.67524 3.43131,2.01538 l 1.29708,4.9196 c 0.0103,0.0448 0.0172,0.0965 0.0207,0.15503 0,0.0586 -0.0293,0.12746 -0.0879,0.2067 -0.0586,0.0758 -0.15503,0.11369 -0.28939,0.11369 h -1.01803 c -0.13435,0 -0.26182,-0.0448 -0.3824,-0.13436 -0.12058,-0.093 -0.19809,-0.21015 -0.23255,-0.3514 l -0.34623,-1.30225 h -3.67419 v 1.30225 c 0,0.14125 -0.0448,0.25838 -0.13436,0.3514 -0.093,0.0896 -0.21015,0.13436 -0.3514,0.13436 h -0.97152 c -0.13436,0 -0.24977,-0.0448 -0.34623,-0.13436 -0.0965,-0.093 -0.14469,-0.20671 -0.14469,-0.34106 v -6.45439 c 0,-0.12747 0.0431,-0.23943 0.12919,-0.3359 0.0827,-0.0965 0.18775,-0.14469 0.31522,-0.14469 z m 0.1912,1.46244 h -1.47278 v 2.69751 h 3.29179 l -0.45476,-1.65881 c -0.0861,-0.31695 -0.25149,-0.56844 -0.49609,-0.75448 -0.24805,-0.18948 -0.53743,-0.28422 -0.86816,-0.28422 z"
               id="path837"
               inkscape:connector-curvature="0" />
            <path
               style="font-style:normal;font-variant:normal;font-weight:normal;font-stretch:normal;font-size:10.58333302px;line-height:1.25;font-family:'Days One';-inkscape-font-specification:'Days One, Normal';font-variant-ligatures:normal;font-variant-caps:normal;font-variant-numeric:normal;font-feature-settings:normal;text-align:start;letter-spacing:0px;word-spacing:0px;writing-mode:lr-tb;text-anchor:start;fill:#000000;fill-opacity:1;stroke:none;stroke-width:0.26458332"
               d="m 236.738,140.35754 c -0.0177,0 -0.0336,9.5e-4 -0.0512,0.001 h -0.14159 c -0.002,0 -0.002,0.002 -0.003,0.003 -1.09676,0.02 -1.88177,0.2048 -2.34663,0.55914 -0.49265,0.37207 -0.73897,0.90433 -0.73897,1.5968 0,0.37551 0.10163,0.70281 0.30489,0.98186 0.2067,0.27561 0.47542,0.49265 0.80615,0.65112 0.33073,0.15847 0.69246,0.29628 1.08521,0.41341 0.39618,0.11714 0.79409,0.21532 1.19372,0.29456 0.39963,0.0758 0.76481,0.15331 1.09554,0.23254 0.7407,0.17226 1.11105,0.40825 1.11105,0.70797 0,0.39619 -0.30318,0.59428 -0.90951,0.59428 l -1.67948,-0.0336 h -0.0413 v -0.0103 c 0,-0.004 -0.003,-0.006 -0.006,-0.006 h -3.04064 c -0.004,0 -0.007,0.003 -0.007,0.006 v 1.45676 c 0,0.004 0.003,0.007 0.007,0.007 h 2.56574 c 0.0703,0.004 0.14068,0.007 0.21239,0.007 l 1.56579,0.031 c 1.19891,0 2.04467,-0.18604 2.53732,-0.5581 0.49609,-0.37552 0.74414,-0.90951 0.74414,-1.60197 0,-0.50643 -0.19293,-0.92845 -0.57878,-1.26608 -0.3824,-0.34106 -0.84922,-0.58566 -1.40043,-0.7338 -0.55122,-0.14814 -1.10071,-0.27388 -1.64848,-0.37724 -0.54432,-0.10679 -1.00941,-0.2291 -1.39526,-0.3669 -0.38241,-0.1378 -0.57361,-0.31523 -0.57361,-0.53227 0,-0.39618 0.30318,-0.59428 0.9095,-0.59428 l 0.22686,0.005 c 0.001,0.002 0.002,0.004 0.004,0.004 h 0.20981 l 0.36276,0.007 h 3.61425 c -8.5e-4,-0.002 -0.002,-0.005 -0.003,-0.007 h 0.27596 c 0.004,0 0.007,-0.003 0.007,-0.007 v -1.45676 c 0,-0.004 -0.003,-0.007 -0.007,-0.007 h -4.223 z"
               id="path1057"
               inkscape:connector-curvature="0" />
            <path
               inkscape:connector-curvature="0"
               style="font-style:normal;font-variant:normal;font-weight:normal;font-stretch:normal;font-size:10.58333302px;line-height:1.25;font-family:'Days One';-inkscape-font-specification:'Days One, Normal';font-variant-ligatures:normal;font-variant-caps:normal;font-variant-numeric:normal;font-feature-settings:normal;text-align:start;letter-spacing:0px;word-spacing:0px;writing-mode:lr-tb;text-anchor:start;fill:#000000;fill-opacity:1;stroke:none;stroke-width:0.99999994"
               d="m 851.43359,224.3457 c 0.42639,1.42958 1.24356,2.61022 2.46289,3.53321 1.86199,1.40621 5.05853,2.10937 9.58985,2.10937 l 5.91797,-0.11719 c 0.27103,0 0.53703,-0.0122 0.80273,-0.0273 h 9.69727 c 0.0151,0 0.0254,-0.0103 0.0254,-0.0254 v -5.47266 h -11.54102 v 0.006 h -0.15625 l -6.34765,0.12696 c -0.55132,0 -1.03249,-0.0462 -1.45118,-0.13282 z"
               transform="matrix(0.26458333,0,0,0.26458333,0,87)"
               id="path1081" />
            <path
               id="path1086"
               d="m 225.27513,141.82706 c 0.11282,-0.37824 0.32903,-0.69062 0.65164,-0.93482 0.49266,-0.37206 1.33841,-0.55811 2.53732,-0.55811 l 1.56579,0.031 c 0.0717,0 0.14209,0.003 0.21239,0.007 h 2.56574 c 0.004,0 0.007,0.003 0.007,0.007 v 1.44797 h -3.05356 v -0.002 h -0.0413 l -1.67948,-0.0336 c -0.14587,0 -0.27318,0.0122 -0.38396,0.0351 z"
               style="font-style:normal;font-variant:normal;font-weight:normal;font-stretch:normal;font-size:10.58333302px;line-height:1.25;font-family:'Days One';-inkscape-font-specification:'Days One, Normal';font-variant-ligatures:normal;font-variant-caps:normal;font-variant-numeric:normal;font-feature-settings:normal;text-align:start;letter-spacing:0px;word-spacing:0px;writing-mode:lr-tb;text-anchor:start;fill:#000000;fill-opacity:1;stroke:none;stroke-width:0.26458332"
               inkscape:connector-curvature="0" />
            <rect
               style="opacity:1;fill:#000000;fill-opacity:1;stroke:none;stroke-width:0.55875593;stroke-miterlimit:4;stroke-dasharray:none;stroke-dashoffset:0;stroke-opacity:1"
               id="rect1088"
               width="2.2380822"
               height="4.5842252"
               x="225.26735"
               y="141.79753"
               ry="0.0053122235" />
            <rect
               ry="0.0063915234"
               y="-232.81711"
               x="143.27127"
               height="5.5156155"
               width="1.6367258"
               id="rect1090"
               style="opacity:1;fill:#000000;fill-opacity:1;stroke:none;stroke-width:0.52412647;stroke-miterlimit:4;stroke-dasharray:none;stroke-dashoffset:0;stroke-opacity:1"
               transform="rotate(90)" />
          </g>
          <rect
             ry="0.0063423454"
             y="121.25848"
             x="238.67169"
             height="16.30344"
             width="0.53453904"
             id="rect1100"
             style="opacity:1;fill:#000000;fill-opacity:1;stroke:none;stroke-width:0.62975818;stroke-miterlimit:4;stroke-dasharray:none;stroke-dashoffset:0;stroke-opacity:1" />
          <text
             id="text1104"
             y="124.98143"
             x="221.35712"
             style="font-style:normal;font-variant:normal;font-weight:500;font-stretch:normal;font-size:5.29166651px;line-height:1.25;font-family:'Orbitron Medium';-inkscape-font-specification:'Orbitron Medium, Medium';font-variant-ligatures:normal;font-variant-caps:normal;font-variant-numeric:normal;font-feature-settings:normal;text-align:start;letter-spacing:0px;word-spacing:0px;writing-mode:lr-tb;text-anchor:start;fill:#000000;fill-opacity:1;stroke:none;stroke-width:0.17267357"
             xml:space="preserve"><tspan
               style="font-style:normal;font-variant:normal;font-weight:500;font-stretch:normal;font-size:5.29166651px;font-family:'Orbitron Medium';-inkscape-font-specification:'Orbitron Medium, Medium';font-variant-ligatures:normal;font-variant-caps:normal;font-variant-numeric:normal;font-feature-settings:normal;text-align:start;writing-mode:lr-tb;text-anchor:start;stroke-width:0.17267357;fill:#000000"
               y="124.98143"
               x="221.35712"
               id="tspan1102"
               sodipodi:role="line">elite</tspan></text>
          <text
             id="text1108"
             y="130.13086"
             x="190.33238"
             style="font-style:normal;font-variant:normal;font-weight:500;font-stretch:normal;font-size:5.29166651px;line-height:1.25;font-family:'Orbitron Medium';-inkscape-font-specification:'Orbitron Medium, Medium';font-variant-ligatures:normal;font-variant-caps:normal;font-variant-numeric:normal;font-feature-settings:normal;text-align:start;letter-spacing:0px;word-spacing:0px;writing-mode:lr-tb;text-anchor:start;fill:#000000;fill-opacity:1;stroke:none;stroke-width:0.13701636"
             xml:space="preserve"><tspan
               style="font-style:normal;font-variant:normal;font-weight:500;font-stretch:normal;font-size:5.29166651px;font-family:'Orbitron Medium';-inkscape-font-specification:'Orbitron Medium, Medium';font-variant-ligatures:normal;font-variant-caps:normal;font-variant-numeric:normal;font-feature-settings:normal;text-align:start;writing-mode:lr-tb;text-anchor:start;stroke-width:0.13701636;fill:#000000"
               y="130.13086"
               x="190.33238"
               id="tspan1106"
               sodipodi:role="line">sportsmanship</tspan></text>
        </g>
      </g>
    </g>
  </g>
</svg>
