<?xml version="1.0" encoding="UTF-8" standalone="no"?>
<!-- Created with Inkscape (http://www.inkscape.org/) -->

<svg
   xmlns:dc="http://purl.org/dc/elements/1.1/"
   xmlns:cc="http://creativecommons.org/ns#"
   xmlns:rdf="http://www.w3.org/1999/02/22-rdf-syntax-ns#"
   xmlns:svg="http://www.w3.org/2000/svg"
   xmlns="http://www.w3.org/2000/svg"
   xmlns:xlink="http://www.w3.org/1999/xlink"
   xmlns:sodipodi="http://sodipodi.sourceforge.net/DTD/sodipodi-0.dtd"
   xmlns:inkscape="http://www.inkscape.org/namespaces/inkscape"
   width="297mm"
   height="210mm"
   viewBox="0 0 297 210"
   version="1.1"
   id="svg8"
   sodipodi:docname="drawing-3.svg"
   inkscape:version="0.92.4 (33fec40, 2019-01-16)"
   inkscape:export-filename="/home/v/Documents/Kago Brand Capital/logo-3.png"
   inkscape:export-xdpi="150"
   inkscape:export-ydpi="150">
  <defs
     id="defs2">
    <linearGradient
       inkscape:collect="always"
       id="linearGradient2265">
      <stop
         style="stop-color:#00e3ff;stop-opacity:1"
         offset="0"
         id="stop2261" />
      <stop
         style="stop-color:#0084ff;stop-opacity:1"
         offset="1"
         id="stop2263" />
    </linearGradient>
    <linearGradient
       id="linearGradient2233"
       inkscape:collect="always">
      <stop
         id="stop2229"
         offset="0"
         style="stop-color:#fff531;stop-opacity:1" />
      <stop
         id="stop2231"
         offset="1"
         style="stop-color:#ffb700;stop-opacity:1" />
    </linearGradient>
    <linearGradient
       inkscape:collect="always"
       id="linearGradient2143">
      <stop
         style="stop-color:#00f831;stop-opacity:1"
         offset="0"
         id="stop2139" />
      <stop
         style="stop-color:#007e00;stop-opacity:1"
         offset="1"
         id="stop2141" />
    </linearGradient>
    <radialGradient
       inkscape:collect="always"
       xlink:href="#linearGradient2265"
       id="radialGradient2147"
       cx="73.706062"
       cy="164.42914"
       fx="73.706062"
       fy="164.42914"
       r="25.341286"
       gradientUnits="userSpaceOnUse"
       gradientTransform="matrix(0.81957219,0,0,0.81957194,-13.787938,-9.490307)" />
    <radialGradient
       inkscape:collect="always"
       xlink:href="#linearGradient2265"
       id="radialGradient2159"
       gradientUnits="userSpaceOnUse"
       cx="68.863594"
       cy="168.57982"
       fx="68.863594"
       fy="168.57982"
       r="25.341286"
       gradientTransform="matrix(1.0299291,0,0,1.0299291,-25.562886,-47.500438)" />
    <radialGradient
       inkscape:collect="always"
       xlink:href="#linearGradient2143"
       id="radialGradient2192"
       gradientUnits="userSpaceOnUse"
       gradientTransform="matrix(1.0299291,0,0,1.0299291,92.743663,9.1959914)"
       cx="68.863594"
       cy="168.57982"
       fx="68.863594"
       fy="168.57982"
       r="25.341286" />
    <radialGradient
       inkscape:collect="always"
       xlink:href="#linearGradient2233"
       id="radialGradient2194"
       gradientUnits="userSpaceOnUse"
       gradientTransform="matrix(0.81957219,0,0,0.81957219,104.51861,47.206081)"
       cx="68.863594"
       cy="168.57982"
       fx="68.863594"
       fy="168.57982"
       r="25.341286" />
    <radialGradient
       inkscape:collect="always"
       xlink:href="#linearGradient2265"
       id="radialGradient2216"
       gradientUnits="userSpaceOnUse"
       gradientTransform="matrix(1.0299291,0,0,1.0299291,-25.562883,70.050162)"
       cx="68.863594"
       cy="168.57982"
       fx="68.863594"
       fy="168.57982"
       r="25.341286" />
    <radialGradient
       inkscape:collect="always"
       xlink:href="#linearGradient2233"
       id="radialGradient2218"
       gradientUnits="userSpaceOnUse"
       gradientTransform="matrix(0.81957219,0,0,0.81957219,-13.787935,108.06025)"
       cx="68.863594"
       cy="168.57982"
       fx="68.863594"
       fy="168.57982"
       r="25.341286" />
  </defs>
  <sodipodi:namedview
     id="base"
     pagecolor="#ffffff"
     bordercolor="#666666"
     borderopacity="1.0"
     inkscape:pageopacity="0.0"
     inkscape:pageshadow="2"
     inkscape:zoom="0.49497475"
     inkscape:cx="262.33572"
     inkscape:cy="535.55435"
     inkscape:document-units="mm"
     inkscape:current-layer="layer1"
     showgrid="false"
     inkscape:window-width="1853"
     inkscape:window-height="1025"
     inkscape:window-x="67"
     inkscape:window-y="27"
     inkscape:window-maximized="1" />
  <metadata
     id="metadata5">
    <rdf:RDF>
      <cc:Work
         rdf:about="">
        <dc:format>image/svg+xml</dc:format>
        <dc:type
           rdf:resource="http://purl.org/dc/dcmitype/StillImage" />
        <dc:title></dc:title>
      </cc:Work>
    </rdf:RDF>
  </metadata>
  <g
     inkscape:label="Layer 1"
     inkscape:groupmode="layer"
     id="layer1"
     transform="translate(0,-87)">
    <rect
       style="opacity:1;fill:#ffffff;fill-opacity:1;stroke:none;stroke-width:1.00202501;stroke-miterlimit:4;stroke-dasharray:none;stroke-opacity:1"
       id="rect2259"
       width="297.87186"
       height="210.60838"
       x="-0.13363479"
       y="86.926155" />
    <circle
       r="25.890257"
       cy="132.93739"
       cx="38.549191"
       id="circle2157"
       style="opacity:1;fill:url(#radialGradient2159);fill-opacity:1.0;stroke:none;stroke-width:0.41894221;stroke-miterlimit:4;stroke-dasharray:none;stroke-opacity:1" />
    <circle
       r="23.186071"
       cy="134.10519"
       cx="37.625633"
       id="circle2153"
       style="opacity:1;fill:#ffffff;fill-opacity:1;stroke:none;stroke-width:0.3751846;stroke-miterlimit:4;stroke-dasharray:none;stroke-opacity:1" />
    <circle
       style="opacity:1;fill:url(#radialGradient2147);fill-opacity:1;stroke:none;stroke-width:0.33337575;stroke-miterlimit:4;stroke-dasharray:none;stroke-opacity:1"
       id="path2131"
       cx="37.229614"
       cy="134.09412"
       r="20.602324" />
    <path
       style="opacity:1;fill:#ffffff;fill-opacity:1;stroke:none;stroke-width:0.39114487;stroke-miterlimit:4;stroke-dasharray:none;stroke-opacity:1"
       d="m 40.178446,112.72409 a 11.325307,24.791155 38.848974 0 1 -1.108082,13.2399 11.325307,24.791155 38.848974 0 1 -3.084903,5.97678 10.677018,18.329909 61.940655 0 0 2.534511,-1.19156 10.677018,18.329909 61.940655 0 0 11.909684,-14.80135 19.589258,19.589258 0 0 0 -10.25121,-3.22377 z m -1.443006,0.0239 a 19.589258,19.589258 0 0 0 -18.669509,19.54332 19.589258,19.589258 0 0 0 0.01292,0.36322 10.677018,18.329909 61.940655 0 0 9.932449,1.08484 9.45544,20.698008 38.848974 0 0 2.319647,-2.81285 9.45544,20.698008 38.848974 0 0 6.404479,-18.17853 z m 17.298861,8.81286 a 12.788457,21.954751 61.940655 0 1 -12.285639,11.22305 12.788457,21.954751 61.940655 0 1 -1.146485,0.56818 24.791155,11.325307 16.267894 0 1 8.869456,1.46807 24.791155,11.325307 16.267894 0 1 7.129317,2.39807 19.589258,19.589258 0 0 0 0.643578,-4.92691 19.589258,19.589258 0 0 0 -3.210227,-10.73046 z m -35.875994,12.47342 a 19.589258,19.589258 0 0 0 1.821184,6.61348 9.45544,20.698008 38.848974 0 0 5.167446,-3.98215 12.788457,21.954751 61.940655 0 1 -6.98863,-2.63133 z m 17.06075,2.20584 a 20.698008,9.45544 16.267894 0 0 -4.482226,0.39577 11.325307,24.791155 38.848974 0 1 -8.023939,8.28934 19.589258,19.589258 0 0 0 14.942234,6.95529 19.589258,19.589258 0 0 0 17.276028,-10.38603 20.698008,9.45544 16.267894 0 0 -9.965803,-3.93931 20.698008,9.45544 16.267894 0 0 -9.746294,-1.31506 z"
       id="path2080"
       inkscape:connector-curvature="0" />
    <text
       xml:space="preserve"
       style="font-style:normal;font-variant:normal;font-weight:normal;font-stretch:condensed;font-size:21.27747726px;line-height:1.25;font-family:'Barlow Condensed';-inkscape-font-specification:'Barlow Condensed, Condensed';font-variant-ligatures:normal;font-variant-caps:normal;font-variant-numeric:normal;font-feature-settings:normal;text-align:start;letter-spacing:0px;word-spacing:0px;writing-mode:lr-tb;text-anchor:start;fill:#333333;fill-opacity:1;stroke:none;stroke-width:0.53600949;"
       x="66.967972"
       y="133.88721"
       id="text2135"><tspan
         sodipodi:role="line"
         id="tspan2133"
         x="66.967972"
         y="133.88721"
         style="font-style:normal;font-variant:normal;font-weight:normal;font-stretch:condensed;font-size:21.27747726px;font-family:'Barlow Condensed';-inkscape-font-specification:'Barlow Condensed, Condensed';font-variant-ligatures:normal;font-variant-caps:normal;font-variant-numeric:normal;font-feature-settings:normal;text-align:start;writing-mode:lr-tb;text-anchor:start;stroke-width:0.53600949;fill:#333333;">KAGO BRAND</tspan><tspan
         sodipodi:role="line"
         x="66.967972"
         y="160.48405"
         style="font-style:normal;font-variant:normal;font-weight:normal;font-stretch:condensed;font-size:21.27747726px;font-family:'Barlow Condensed';-inkscape-font-specification:'Barlow Condensed, Condensed';font-variant-ligatures:normal;font-variant-caps:normal;font-variant-numeric:normal;font-feature-settings:normal;text-align:start;writing-mode:lr-tb;text-anchor:start;stroke-width:0.53600949;fill:#333333;"
         id="tspan2137" /></text>
    <text
       xml:space="preserve"
       style="font-style:normal;font-variant:normal;font-weight:normal;font-stretch:condensed;font-size:21.27747726px;line-height:1.25;font-family:'Barlow Condensed';-inkscape-font-specification:'Barlow Condensed, Condensed';font-variant-ligatures:normal;font-variant-caps:normal;font-variant-numeric:normal;font-feature-settings:normal;text-align:start;letter-spacing:0px;word-spacing:0px;writing-mode:lr-tb;text-anchor:start;fill:#333333;fill-opacity:1;stroke:none;stroke-width:0.22797295;"
       x="66.985428"
       y="152.28932"
       id="text2151"><tspan
         sodipodi:role="line"
         id="tspan2149"
         x="66.985428"
         y="152.28932"
         style="font-style:normal;font-variant:normal;font-weight:normal;font-stretch:condensed;font-size:21.27747726px;font-family:'Barlow Condensed';-inkscape-font-specification:'Barlow Condensed, Condensed';font-variant-ligatures:normal;font-variant-caps:normal;font-variant-numeric:normal;font-feature-settings:normal;text-align:start;writing-mode:lr-tb;text-anchor:start;stroke-width:0.22797295;fill:#333333;">CAPITAL</tspan></text>
    <circle
       style="opacity:1;fill:url(#radialGradient2192);fill-opacity:1;stroke:none;stroke-width:0.41894221;stroke-miterlimit:4;stroke-dasharray:none;stroke-opacity:1"
       id="circle2172"
       cx="156.85574"
       cy="189.63382"
       r="25.890257" />
    <circle
       style="opacity:1;fill:#ffffff;fill-opacity:1;stroke:none;stroke-width:0.3751846;stroke-miterlimit:4;stroke-dasharray:none;stroke-opacity:1"
       id="circle2174"
       cx="155.93219"
       cy="190.80164"
       r="23.186071" />
    <circle
       r="20.602324"
       cy="190.79054"
       cx="155.53616"
       id="circle2176"
       style="opacity:1;fill:url(#radialGradient2194);fill-opacity:1;stroke:none;stroke-width:0.33337575;stroke-miterlimit:4;stroke-dasharray:none;stroke-opacity:1" />
    <path
       inkscape:connector-curvature="0"
       id="path2178"
       d="m 158.48499,169.42052 a 11.325307,24.791155 38.848974 0 1 -1.10808,13.2399 11.325307,24.791155 38.848974 0 1 -3.0849,5.97678 10.677018,18.329909 61.940655 0 0 2.53451,-1.19156 10.677018,18.329909 61.940655 0 0 11.90968,-14.80135 19.589258,19.589258 0 0 0 -10.25121,-3.22377 z m -1.443,0.0239 a 19.589258,19.589258 0 0 0 -18.66951,19.54332 19.589258,19.589258 0 0 0 0.0129,0.36322 10.677018,18.329909 61.940655 0 0 9.93245,1.08484 9.45544,20.698008 38.848974 0 0 2.31965,-2.81285 9.45544,20.698008 38.848974 0 0 6.40448,-18.17853 z m 17.29886,8.81285 a 12.788457,21.954751 61.940655 0 1 -12.28564,11.22305 12.788457,21.954751 61.940655 0 1 -1.14648,0.56819 24.791155,11.325307 16.267894 0 1 8.86945,1.46807 24.791155,11.325307 16.267894 0 1 7.12932,2.39807 19.589258,19.589258 0 0 0 0.64358,-4.92691 19.589258,19.589258 0 0 0 -3.21023,-10.73047 z m -35.87599,12.47343 a 19.589258,19.589258 0 0 0 1.82118,6.61348 9.45544,20.698008 38.848974 0 0 5.16745,-3.98215 12.788457,21.954751 61.940655 0 1 -6.98863,-2.63133 z m 17.06075,2.20584 a 20.698008,9.45544 16.267894 0 0 -4.48223,0.39577 11.325307,24.791155 38.848974 0 1 -8.02394,8.28934 19.589258,19.589258 0 0 0 14.94224,6.95528 19.589258,19.589258 0 0 0 17.27602,-10.38602 20.698008,9.45544 16.267894 0 0 -9.9658,-3.93931 20.698008,9.45544 16.267894 0 0 -9.74629,-1.31506 z"
       style="opacity:1;fill:#ffffff;fill-opacity:1;stroke:none;stroke-width:0.39114487;stroke-miterlimit:4;stroke-dasharray:none;stroke-opacity:1" />
    <text
       id="text2184"
       y="190.58363"
       x="185.27452"
       style="font-style:normal;font-variant:normal;font-weight:normal;font-stretch:condensed;font-size:21.27747726px;line-height:1.25;font-family:'Barlow Condensed';-inkscape-font-specification:'Barlow Condensed, Condensed';font-variant-ligatures:normal;font-variant-caps:normal;font-variant-numeric:normal;font-feature-settings:normal;text-align:start;letter-spacing:0px;word-spacing:0px;writing-mode:lr-tb;text-anchor:start;fill:#4d4d4d;fill-opacity:1;stroke:none;stroke-width:0.53600949;"
       xml:space="preserve"><tspan
         style="font-style:normal;font-variant:normal;font-weight:normal;font-stretch:condensed;font-size:21.27747726px;font-family:'Barlow Condensed';-inkscape-font-specification:'Barlow Condensed, Condensed';font-variant-ligatures:normal;font-variant-caps:normal;font-variant-numeric:normal;font-feature-settings:normal;text-align:start;writing-mode:lr-tb;text-anchor:start;stroke-width:0.53600949;fill:#4d4d4d;"
         y="190.58363"
         x="185.27452"
         id="tspan2180"
         sodipodi:role="line">KAGO BRAND</tspan><tspan
         id="tspan2182"
         style="font-style:normal;font-variant:normal;font-weight:normal;font-stretch:condensed;font-size:21.27747726px;font-family:'Barlow Condensed';-inkscape-font-specification:'Barlow Condensed, Condensed';font-variant-ligatures:normal;font-variant-caps:normal;font-variant-numeric:normal;font-feature-settings:normal;text-align:start;writing-mode:lr-tb;text-anchor:start;stroke-width:0.53600949;fill:#4d4d4d;"
         y="217.18048"
         x="185.27452"
         sodipodi:role="line" /></text>
    <text
       id="text2188"
       y="208.98575"
       x="185.29198"
       style="font-style:normal;font-variant:normal;font-weight:normal;font-stretch:condensed;font-size:21.27747726px;line-height:1.25;font-family:'Barlow Condensed';-inkscape-font-specification:'Barlow Condensed, Condensed';font-variant-ligatures:normal;font-variant-caps:normal;font-variant-numeric:normal;font-feature-settings:normal;text-align:start;letter-spacing:0px;word-spacing:0px;writing-mode:lr-tb;text-anchor:start;fill:#ffb700;fill-opacity:1;stroke:none;stroke-width:0.22797295;"
       xml:space="preserve"><tspan
         style="font-style:normal;font-variant:normal;font-weight:normal;font-stretch:condensed;font-size:21.27747726px;font-family:'Barlow Condensed';-inkscape-font-specification:'Barlow Condensed, Condensed';font-variant-ligatures:normal;font-variant-caps:normal;font-variant-numeric:normal;font-feature-settings:normal;text-align:start;writing-mode:lr-tb;text-anchor:start;stroke-width:0.22797295;fill:#ffb700;fill-opacity:1;"
         y="208.98575"
         x="185.29198"
         id="tspan2186"
         sodipodi:role="line">CAPITAL</tspan></text>
    <circle
       r="25.890257"
       cy="250.48799"
       cx="38.549191"
       id="circle2196"
       style="opacity:1;fill:url(#radialGradient2216);fill-opacity:1.0;stroke:none;stroke-width:0.41894221;stroke-miterlimit:4;stroke-dasharray:none;stroke-opacity:1" />
    <circle
       r="23.186071"
       cy="251.65581"
       cx="37.625637"
       id="circle2198"
       style="opacity:1;fill:#ffffff;fill-opacity:1;stroke:none;stroke-width:0.3751846;stroke-miterlimit:4;stroke-dasharray:none;stroke-opacity:1" />
    <circle
       style="opacity:1;fill:url(#radialGradient2218);fill-opacity:1.0;stroke:none;stroke-width:0.33337575;stroke-miterlimit:4;stroke-dasharray:none;stroke-opacity:1"
       id="circle2200"
       cx="37.229618"
       cy="251.64471"
       r="20.602324" />
    <path
       style="opacity:1;fill:#ffffff;fill-opacity:1;stroke:none;stroke-width:0.39114487;stroke-miterlimit:4;stroke-dasharray:none;stroke-opacity:1"
       d="m 40.178449,230.27469 a 11.325307,24.791155 38.848974 0 1 -1.108082,13.2399 11.325307,24.791155 38.848974 0 1 -3.084903,5.97678 10.677018,18.329909 61.940655 0 0 2.534511,-1.19156 10.677018,18.329909 61.940655 0 0 11.909684,-14.80135 19.589258,19.589258 0 0 0 -10.25121,-3.22377 z m -1.443006,0.0239 a 19.589258,19.589258 0 0 0 -18.669509,19.54332 19.589258,19.589258 0 0 0 0.01293,0.36322 10.677018,18.329909 61.940655 0 0 9.932449,1.08484 9.45544,20.698008 38.848974 0 0 2.319647,-2.81285 9.45544,20.698008 38.848974 0 0 6.404479,-18.17853 z m 17.298861,8.81286 a 12.788457,21.954751 61.940655 0 1 -12.285639,11.22305 12.788457,21.954751 61.940655 0 1 -1.146485,0.56818 24.791155,11.325307 16.267894 0 1 8.869456,1.46807 24.791155,11.325307 16.267894 0 1 7.129317,2.39807 19.589258,19.589258 0 0 0 0.643578,-4.92691 19.589258,19.589258 0 0 0 -3.210227,-10.73046 z M 20.15831,251.58484 a 19.589258,19.589258 0 0 0 1.821184,6.61348 9.45544,20.698008 38.848974 0 0 5.167446,-3.98215 12.788457,21.954751 61.940655 0 1 -6.98863,-2.63133 z m 17.06075,2.20584 a 20.698008,9.45544 16.267894 0 0 -4.482226,0.39577 11.325307,24.791155 38.848974 0 1 -8.023939,8.28934 19.589258,19.589258 0 0 0 14.942234,6.95529 19.589258,19.589258 0 0 0 17.276028,-10.38603 20.698008,9.45544 16.267894 0 0 -9.965803,-3.93931 20.698008,9.45544 16.267894 0 0 -9.746294,-1.31506 z"
       id="path2202"
       inkscape:connector-curvature="0" />
    <text
       xml:space="preserve"
       style="font-style:normal;font-variant:normal;font-weight:normal;font-stretch:condensed;font-size:21.27747726px;line-height:1.25;font-family:'Barlow Condensed';-inkscape-font-specification:'Barlow Condensed, Condensed';font-variant-ligatures:normal;font-variant-caps:normal;font-variant-numeric:normal;font-feature-settings:normal;text-align:start;letter-spacing:0px;word-spacing:0px;writing-mode:lr-tb;text-anchor:start;fill:#666666;fill-opacity:1;stroke:none;stroke-width:0.53600949;"
       x="66.967972"
       y="251.43781"
       id="text2208"><tspan
         sodipodi:role="line"
         id="tspan2204"
         x="66.967972"
         y="251.43781"
         style="font-style:normal;font-variant:normal;font-weight:normal;font-stretch:condensed;font-size:21.27747726px;font-family:'Barlow Condensed';-inkscape-font-specification:'Barlow Condensed, Condensed';font-variant-ligatures:normal;font-variant-caps:normal;font-variant-numeric:normal;font-feature-settings:normal;text-align:start;writing-mode:lr-tb;text-anchor:start;stroke-width:0.53600949;fill:#666666;">KAGO BRAND</tspan><tspan
         sodipodi:role="line"
         x="66.967972"
         y="278.03464"
         style="font-style:normal;font-variant:normal;font-weight:normal;font-stretch:condensed;font-size:21.27747726px;font-family:'Barlow Condensed';-inkscape-font-specification:'Barlow Condensed, Condensed';font-variant-ligatures:normal;font-variant-caps:normal;font-variant-numeric:normal;font-feature-settings:normal;text-align:start;writing-mode:lr-tb;text-anchor:start;stroke-width:0.53600949;fill:#666666;"
         id="tspan2206" /></text>
    <text
       xml:space="preserve"
       style="font-style:normal;font-variant:normal;font-weight:normal;font-stretch:condensed;font-size:21.27747726px;line-height:1.25;font-family:'Barlow Condensed';-inkscape-font-specification:'Barlow Condensed, Condensed';font-variant-ligatures:normal;font-variant-caps:normal;font-variant-numeric:normal;font-feature-settings:normal;text-align:start;letter-spacing:0px;word-spacing:0px;writing-mode:lr-tb;text-anchor:start;fill:#0097ff;fill-opacity:1;stroke:none;stroke-width:0.22797295;"
       x="66.985428"
       y="269.83994"
       id="text2212"><tspan
         sodipodi:role="line"
         id="tspan2210"
         x="66.985428"
         y="269.83994"
         style="font-style:normal;font-variant:normal;font-weight:normal;font-stretch:condensed;font-size:21.27747726px;font-family:'Barlow Condensed';-inkscape-font-specification:'Barlow Condensed, Condensed';font-variant-ligatures:normal;font-variant-caps:normal;font-variant-numeric:normal;font-feature-settings:normal;text-align:start;writing-mode:lr-tb;text-anchor:start;stroke-width:0.22797295;fill:#0097ff;fill-opacity:1;">CAPITAL</tspan></text>
  </g>
</svg>
