<?xml version="1.0" encoding="UTF-8" standalone="no"?>
<!-- Created with Inkscape (http://www.inkscape.org/) -->

<svg
   xmlns:dc="http://purl.org/dc/elements/1.1/"
   xmlns:cc="http://creativecommons.org/ns#"
   xmlns:rdf="http://www.w3.org/1999/02/22-rdf-syntax-ns#"
   xmlns:svg="http://www.w3.org/2000/svg"
   xmlns="http://www.w3.org/2000/svg"
   xmlns:sodipodi="http://sodipodi.sourceforge.net/DTD/sodipodi-0.dtd"
   xmlns:inkscape="http://www.inkscape.org/namespaces/inkscape"
   width="297mm"
   height="210mm"
   viewBox="0 0 297 210"
   version="1.1"
   id="svg4144"
   inkscape:version="0.92.4 (5da689c313, 2019-01-14)"
   sodipodi:docname="drawing.svg">
  <defs
     id="defs4138" />
  <sodipodi:namedview
     id="base"
     pagecolor="#ffffff"
     bordercolor="#666666"
     borderopacity="1.0"
     inkscape:pageopacity="0.0"
     inkscape:pageshadow="2"
     inkscape:zoom="1.4"
     inkscape:cx="431.17839"
     inkscape:cy="400.91338"
     inkscape:document-units="mm"
     inkscape:current-layer="layer1"
     showgrid="false"
     inkscape:window-width="1850"
     inkscape:window-height="1016"
     inkscape:window-x="70"
     inkscape:window-y="27"
     inkscape:window-maximized="1" />
  <metadata
     id="metadata4141">
    <rdf:RDF>
      <cc:Work
         rdf:about="">
        <dc:format>image/svg+xml</dc:format>
        <dc:type
           rdf:resource="http://purl.org/dc/dcmitype/StillImage" />
        <dc:title />
      </cc:Work>
    </rdf:RDF>
  </metadata>
  <g
     inkscape:label="Layer 1"
     inkscape:groupmode="layer"
     id="layer1"
     transform="translate(0,-87)">
    <text
       xml:space="preserve"
       style="font-style:normal;font-weight:normal;font-size:10.58333333px;line-height:1.25;font-family:Yellowtail;letter-spacing:0px;word-spacing:0px;fill:#000000;fill-opacity:1;stroke:none;stroke-width:0.26458332;-inkscape-font-specification:'Yellowtail, Normal';font-stretch:normal;font-variant:normal;text-anchor:start;text-align:start;writing-mode:lr;font-variant-ligatures:normal;font-variant-caps:normal;font-variant-numeric:normal;font-feature-settings:normal;"
       x="22.584274"
       y="181.27229"
       id="text833"><tspan
         sodipodi:role="line"
         id="tspan831"
         x="22.584274"
         y="181.27229"
         style="stroke-width:0.26458332;-inkscape-font-specification:'Yellowtail, Normal';font-family:Yellowtail;font-weight:normal;font-style:normal;font-stretch:normal;font-variant:normal;font-size:10.58333333px;text-anchor:start;text-align:start;writing-mode:lr;font-variant-ligatures:normal;font-variant-caps:normal;font-variant-numeric:normal;font-feature-settings:normal;">L</tspan></text>
    <text
       id="text837"
       y="177.06731"
       x="36.238663"
       style="font-style:normal;font-variant:normal;font-weight:normal;font-stretch:normal;font-size:10.58333333px;line-height:1.25;font-family:Rochester;-inkscape-font-specification:'Rochester, Normal';font-variant-ligatures:normal;font-variant-caps:normal;font-variant-numeric:normal;font-feature-settings:normal;text-align:start;letter-spacing:0px;word-spacing:0px;writing-mode:lr;text-anchor:start;fill:#000000;fill-opacity:1;stroke:none;stroke-width:0.26458332;"
       xml:space="preserve"><tspan
         style="font-style:normal;font-variant:normal;font-weight:normal;font-stretch:normal;font-size:10.58333333px;font-family:Rochester;-inkscape-font-specification:'Rochester, Normal';font-variant-ligatures:normal;font-variant-caps:normal;font-variant-numeric:normal;font-feature-settings:normal;text-align:start;writing-mode:lr;text-anchor:start;stroke-width:0.26458332;"
         y="177.06731"
         x="36.238663"
         id="tspan835"
         sodipodi:role="line">L</tspan></text>
    <text
       xml:space="preserve"
       style="font-style:normal;font-variant:normal;font-weight:normal;font-stretch:normal;font-size:10.58333333px;line-height:1.25;font-family:'Petit Formal Script';-inkscape-font-specification:'Petit Formal Script, Normal';font-variant-ligatures:normal;font-variant-caps:normal;font-variant-numeric:normal;font-feature-settings:normal;text-align:start;letter-spacing:0px;word-spacing:0px;writing-mode:lr;text-anchor:start;fill:#000000;fill-opacity:1;stroke:none;stroke-width:0.26458332;"
       x="51.452206"
       y="178.29573"
       id="text841"><tspan
         sodipodi:role="line"
         id="tspan839"
         x="51.452206"
         y="178.29573"
         style="font-style:normal;font-variant:normal;font-weight:normal;font-stretch:normal;font-size:10.58333333px;font-family:'Petit Formal Script';-inkscape-font-specification:'Petit Formal Script, Normal';font-variant-ligatures:normal;font-variant-caps:normal;font-variant-numeric:normal;font-feature-settings:normal;text-align:start;writing-mode:lr;text-anchor:start;stroke-width:0.26458332;">L</tspan></text>
    <text
       id="text845"
       y="194.74715"
       x="86.674179"
       style="font-style:normal;font-variant:normal;font-weight:normal;font-stretch:normal;font-size:10.58333302px;line-height:1.25;font-family:Parisienne;-inkscape-font-specification:'Parisienne, Normal';font-variant-ligatures:normal;font-variant-caps:normal;font-variant-numeric:normal;font-feature-settings:normal;text-align:start;letter-spacing:0px;word-spacing:0px;writing-mode:lr-tb;text-anchor:start;fill:#000000;fill-opacity:1;stroke:none;stroke-width:0.26458332"
       xml:space="preserve"><tspan
         style="font-style:normal;font-variant:normal;font-weight:normal;font-stretch:normal;font-size:10.58333302px;font-family:Parisienne;-inkscape-font-specification:'Parisienne, Normal';font-variant-ligatures:normal;font-variant-caps:normal;font-variant-numeric:normal;font-feature-settings:normal;text-align:start;writing-mode:lr-tb;text-anchor:start;stroke-width:0.26458332"
         y="194.74715"
         x="86.674179"
         id="tspan843"
         sodipodi:role="line">L</tspan></text>
    <rect
       style="opacity:1;fill:#000000;fill-opacity:1;stroke:none;stroke-width:0.21779409;stroke-miterlimit:4;stroke-dasharray:none;stroke-opacity:1"
       id="rect963-5"
       width="29.056919"
       height="23.890781"
       x="133.80612"
       y="138.92439" />
    <rect
       y="139.47398"
       x="134.35141"
       height="22.832932"
       width="28.007681"
       id="rect980"
       style="opacity:1;fill:#ffffff;fill-opacity:1;stroke:none;stroke-width:0.20903814;stroke-miterlimit:4;stroke-dasharray:none;stroke-opacity:1" />
    <text
       id="text853"
       y="192.84781"
       x="49.373337"
       style="font-style:normal;font-variant:normal;font-weight:normal;font-stretch:normal;font-size:10.58333333px;line-height:1.25;font-family:'Alex Brush';-inkscape-font-specification:'Alex Brush, Normal';font-variant-ligatures:normal;font-variant-caps:normal;font-variant-numeric:normal;font-feature-settings:normal;text-align:start;letter-spacing:0px;word-spacing:0px;writing-mode:lr;text-anchor:start;fill:#000000;fill-opacity:1;stroke:none;stroke-width:0.26458332;"
       xml:space="preserve"><tspan
         style="font-style:normal;font-variant:normal;font-weight:normal;font-stretch:normal;font-size:10.58333333px;font-family:'Alex Brush';-inkscape-font-specification:'Alex Brush, Normal';font-variant-ligatures:normal;font-variant-caps:normal;font-variant-numeric:normal;font-feature-settings:normal;text-align:start;writing-mode:lr;text-anchor:start;stroke-width:0.26458332;"
         y="192.84781"
         x="49.373337"
         id="tspan851"
         sodipodi:role="line">L</tspan></text>
    <text
       id="text865"
       y="192.1391"
       x="16.347668"
       style="font-style:normal;font-variant:normal;font-weight:normal;font-stretch:normal;font-size:10.58333333px;line-height:1.25;font-family:'Grand Hotel';-inkscape-font-specification:'Grand Hotel, Normal';font-variant-ligatures:normal;font-variant-caps:normal;font-variant-numeric:normal;font-feature-settings:normal;text-align:start;letter-spacing:0px;word-spacing:0px;writing-mode:lr;text-anchor:start;fill:#000000;fill-opacity:1;stroke:none;stroke-width:0.26458332;"
       xml:space="preserve"><tspan
         style="font-style:normal;font-variant:normal;font-weight:normal;font-stretch:normal;font-size:10.58333333px;font-family:'Grand Hotel';-inkscape-font-specification:'Grand Hotel, Normal';font-variant-ligatures:normal;font-variant-caps:normal;font-variant-numeric:normal;font-feature-settings:normal;text-align:start;writing-mode:lr;text-anchor:start;stroke-width:0.26458332;"
         y="192.1391"
         x="16.347668"
         id="tspan863"
         sodipodi:role="line">L</tspan></text>
    <text
       xml:space="preserve"
       style="font-style:normal;font-variant:normal;font-weight:normal;font-stretch:normal;font-size:10.58333302px;line-height:1.25;font-family:Italianno;-inkscape-font-specification:'Italianno, Normal';font-variant-ligatures:normal;font-variant-caps:normal;font-variant-numeric:normal;font-feature-settings:normal;text-align:start;letter-spacing:0px;word-spacing:0px;writing-mode:lr-tb;text-anchor:start;fill:#000000;fill-opacity:1;stroke:none;stroke-width:0.26458332"
       x="72.004654"
       y="180.70532"
       id="text869"><tspan
         sodipodi:role="line"
         id="tspan867"
         x="72.004654"
         y="180.70532"
         style="font-style:normal;font-variant:normal;font-weight:normal;font-stretch:normal;font-size:10.58333302px;font-family:Italianno;-inkscape-font-specification:'Italianno, Normal';font-variant-ligatures:normal;font-variant-caps:normal;font-variant-numeric:normal;font-feature-settings:normal;text-align:start;writing-mode:lr-tb;text-anchor:start;stroke-width:0.26458332">L</tspan></text>
    <text
       id="text873"
       y="184.86305"
       x="6.6147809"
       style="font-style:normal;font-variant:normal;font-weight:normal;font-stretch:normal;font-size:10.58333333px;line-height:1.25;font-family:'Marck Script';-inkscape-font-specification:'Marck Script, Normal';font-variant-ligatures:normal;font-variant-caps:normal;font-variant-numeric:normal;font-feature-settings:normal;text-align:start;letter-spacing:0px;word-spacing:0px;writing-mode:lr;text-anchor:start;fill:#000000;fill-opacity:1;stroke:none;stroke-width:0.26458332;"
       xml:space="preserve"><tspan
         style="font-style:normal;font-variant:normal;font-weight:normal;font-stretch:normal;font-size:10.58333333px;font-family:'Marck Script';-inkscape-font-specification:'Marck Script, Normal';font-variant-ligatures:normal;font-variant-caps:normal;font-variant-numeric:normal;font-feature-settings:normal;text-align:start;writing-mode:lr;text-anchor:start;stroke-width:0.26458332;"
         y="184.86305"
         x="6.6147809"
         id="tspan871"
         sodipodi:role="line">L</tspan></text>
    <g
       id="g920">
      <ellipse
         style="opacity:1;fill:#000000;fill-opacity:1;stroke:#000000;stroke-width:0.08749193;stroke-miterlimit:4;stroke-dasharray:none;stroke-opacity:1"
         id="ellipse897"
         cx="48.337063"
         cy="148.47887"
         rx="8.8380899"
         ry="8.1157303" />
      <ellipse
         ry="7.4229946"
         rx="8.0836954"
         cy="147.7832"
         cx="49.094372"
         id="ellipse905"
         style="opacity:1;fill:#ffffff;fill-opacity:1;stroke:none;stroke-width:0.08002385;stroke-miterlimit:4;stroke-dasharray:none;stroke-opacity:1" />
      <g
         id="g903">
        <text
           xml:space="preserve"
           style="font-style:normal;font-variant:normal;font-weight:900;font-stretch:normal;font-size:10.58333302px;line-height:1.25;font-family:'Cinzel Decorative Black';-inkscape-font-specification:'Cinzel Decorative Black, Heavy';font-variant-ligatures:normal;font-variant-caps:normal;font-variant-numeric:normal;font-feature-settings:normal;text-align:start;letter-spacing:0px;word-spacing:0px;writing-mode:lr-tb;text-anchor:start;fill:#000000;fill-opacity:1;stroke:none;stroke-width:0.26458332"
           x="44.93351"
           y="150.44525"
           id="text861"><tspan
             sodipodi:role="line"
             id="tspan859"
             x="44.93351"
             y="150.44525"
             style="font-style:normal;font-variant:normal;font-weight:900;font-stretch:normal;font-size:10.58333302px;font-family:'Cinzel Decorative Black';-inkscape-font-specification:'Cinzel Decorative Black, Heavy';font-variant-ligatures:normal;font-variant-caps:normal;font-variant-numeric:normal;font-feature-settings:normal;text-align:start;writing-mode:lr-tb;text-anchor:start;stroke-width:0.26458332">L</tspan></text>
        <path
           style="font-style:normal;font-variant:normal;font-weight:900;font-stretch:normal;font-size:10.58333302px;line-height:1.25;font-family:'Cinzel Decorative Black';-inkscape-font-specification:'Cinzel Decorative Black, Heavy';font-variant-ligatures:normal;font-variant-caps:normal;font-variant-numeric:normal;font-feature-settings:normal;text-align:start;letter-spacing:0px;word-spacing:0px;writing-mode:lr-tb;text-anchor:start;fill:#000000;fill-opacity:1;stroke:none;stroke-width:0.26458332"
           d="m 41.676979,144.02373 v 0.10594 h 0.137459 c 0.119946,0 0.22937,0.0283 0.328147,0.0848 0.225777,0.12699 0.342276,0.32082 0.349332,0.58187 v 5.86321 c -0.0071,0.127 -0.03916,0.2397 -0.0956,0.33848 -0.134054,0.21872 -0.327877,0.32815 -0.581877,0.32815 h -0.137459 v 0.0274 a 13.021158,5.7451156 0 0 1 3.007053,-0.18604 c -0.01463,-0.064 -0.02274,-0.13387 -0.02274,-0.21136 v -6.15983 c 0.0071,-0.1905 0.07782,-0.34894 0.211873,-0.47594 0.134056,-0.127 0.303369,-0.19068 0.507979,-0.19068 h 0.09509 v -0.10594 z"
           id="text877"
           inkscape:connector-curvature="0" />
        <path
           style="font-style:normal;font-variant:normal;font-weight:900;font-stretch:normal;font-size:10.58333302px;line-height:1.25;font-family:'Cinzel Decorative Black';-inkscape-font-specification:'Cinzel Decorative Black, Heavy';font-variant-ligatures:normal;font-variant-caps:normal;font-variant-numeric:normal;font-feature-settings:normal;text-align:start;letter-spacing:0px;word-spacing:0px;writing-mode:lr-tb;text-anchor:start;fill:#000000;fill-opacity:1;stroke:none;stroke-width:0.27236429"
           d="m 40.92599,151.32618 -0.01252,0.36994 c 0.773549,-0.20991 3.960012,-0.32598 5.54191,0.90106 0.414295,0.32954 0.851035,0.66048 1.310757,0.99203 0.368407,0.26249 0.67861,0.46251 0.930172,0.60021 0.249993,0.14458 0.560746,0.30855 0.931844,0.49219 0.376832,0.19202 0.652234,0.30923 0.826081,0.35177 0.18117,0.044 0.308316,0.0738 0.381409,0.0886 0.723612,0.14699 1.293902,0.16147 1.710722,0.0441 0.671732,-0.19553 1.242803,-0.58798 1.71388,-1.17791 l -0.07121,-0.0906 c -0.418499,0.22533 -1.084593,0.24537 -1.998243,0.0598 -1.293732,-0.26281 -2.710743,-1.0919 -5.35217,-2.48733 -1.745572,-1.02478 -4.367037,-0.42154 -5.912636,-0.14386 z"
           id="text890"
           inkscape:connector-curvature="0"
           sodipodi:nodetypes="cccccccccccccc" />
      </g>
    </g>
    <text
       xml:space="preserve"
       style="font-style:normal;font-variant:normal;font-weight:normal;font-stretch:normal;font-size:10.58333302px;line-height:1.25;font-family:Rochester;-inkscape-font-specification:'Rochester, Normal';font-variant-ligatures:normal;font-variant-caps:normal;font-variant-numeric:normal;font-feature-settings:normal;text-align:start;letter-spacing:0px;word-spacing:0px;writing-mode:lr-tb;text-anchor:start;fill:#000000;fill-opacity:1;stroke:none;stroke-width:0.26458332"
       x="-42.093475"
       y="177.06731"
       id="text945"
       transform="scale(-1,1)"><tspan
         sodipodi:role="line"
         id="tspan943"
         x="-42.093475"
         y="177.06731"
         style="font-style:normal;font-variant:normal;font-weight:normal;font-stretch:normal;font-size:10.58333302px;font-family:Rochester;-inkscape-font-specification:'Rochester, Normal';font-variant-ligatures:normal;font-variant-caps:normal;font-variant-numeric:normal;font-feature-settings:normal;text-align:start;writing-mode:lr-tb;text-anchor:start;stroke-width:0.26458332">L</tspan></text>
    <text
       xml:space="preserve"
       style="font-style:normal;font-variant:normal;font-weight:normal;font-stretch:normal;font-size:10.58333302px;line-height:1.25;font-family:Parisienne;-inkscape-font-specification:'Parisienne, Normal';font-variant-ligatures:normal;font-variant-caps:normal;font-variant-numeric:normal;font-feature-settings:normal;text-align:start;letter-spacing:0px;word-spacing:0px;writing-mode:lr-tb;text-anchor:start;fill:#000000;fill-opacity:1;stroke:none;stroke-width:0.26458332"
       x="-101.81887"
       y="194.78055"
       id="text949"
       transform="scale(-1,1)"><tspan
         sodipodi:role="line"
         id="tspan947"
         x="-101.81887"
         y="194.78055"
         style="font-style:normal;font-variant:normal;font-weight:normal;font-stretch:normal;font-size:10.58333302px;font-family:Parisienne;-inkscape-font-specification:'Parisienne, Normal';font-variant-ligatures:normal;font-variant-caps:normal;font-variant-numeric:normal;font-feature-settings:normal;text-align:start;writing-mode:lr-tb;text-anchor:start;stroke-width:0.26458332">L</tspan></text>
    <text
       id="text953"
       y="182.14636"
       x="73.13858"
       style="font-style:normal;font-variant:normal;font-weight:normal;font-stretch:normal;font-size:10.58333302px;line-height:1.25;font-family:Italianno;-inkscape-font-specification:'Italianno, Normal';font-variant-ligatures:normal;font-variant-caps:normal;font-variant-numeric:normal;font-feature-settings:normal;text-align:start;letter-spacing:0px;word-spacing:0px;writing-mode:lr-tb;text-anchor:start;fill:#000000;fill-opacity:1;stroke:none;stroke-width:0.26458332"
       xml:space="preserve"><tspan
         style="font-style:normal;font-variant:normal;font-weight:normal;font-stretch:normal;font-size:10.58333302px;font-family:Italianno;-inkscape-font-specification:'Italianno, Normal';font-variant-ligatures:normal;font-variant-caps:normal;font-variant-numeric:normal;font-feature-settings:normal;text-align:start;writing-mode:lr-tb;text-anchor:start;stroke-width:0.26458332"
         y="182.14636"
         x="73.13858"
         id="tspan951"
         sodipodi:role="line">L</tspan></text>
    <text
       id="text957"
       y="180.70532"
       x="72.004654"
       style="font-style:normal;font-variant:normal;font-weight:normal;font-stretch:normal;font-size:10.58333302px;line-height:1.25;font-family:Italianno;-inkscape-font-specification:'Italianno, Normal';font-variant-ligatures:normal;font-variant-caps:normal;font-variant-numeric:normal;font-feature-settings:normal;text-align:start;letter-spacing:0px;word-spacing:0px;writing-mode:lr-tb;text-anchor:start;fill:#000000;fill-opacity:1;stroke:none;stroke-width:0.26458332"
       xml:space="preserve"><tspan
         style="font-style:normal;font-variant:normal;font-weight:normal;font-stretch:normal;font-size:10.58333302px;font-family:Italianno;-inkscape-font-specification:'Italianno, Normal';font-variant-ligatures:normal;font-variant-caps:normal;font-variant-numeric:normal;font-feature-settings:normal;text-align:start;writing-mode:lr-tb;text-anchor:start;stroke-width:0.26458332"
         y="180.70532"
         x="72.004654"
         id="tspan955"
         sodipodi:role="line">L</tspan></text>
    <text
       xml:space="preserve"
       style="font-style:normal;font-variant:normal;font-weight:normal;font-stretch:normal;font-size:10.58333302px;line-height:1.25;font-family:Italianno;-inkscape-font-specification:'Italianno, Normal';font-variant-ligatures:normal;font-variant-caps:normal;font-variant-numeric:normal;font-feature-settings:normal;text-align:start;letter-spacing:0px;word-spacing:0px;writing-mode:lr-tb;text-anchor:start;fill:#000000;fill-opacity:1;stroke:none;stroke-width:0.26458332"
       x="73.13858"
       y="182.14636"
       id="text961"><tspan
         sodipodi:role="line"
         id="tspan959"
         x="73.13858"
         y="182.14636"
         style="font-style:normal;font-variant:normal;font-weight:normal;font-stretch:normal;font-size:10.58333302px;font-family:Italianno;-inkscape-font-specification:'Italianno, Normal';font-variant-ligatures:normal;font-variant-caps:normal;font-variant-numeric:normal;font-feature-settings:normal;text-align:start;writing-mode:lr-tb;text-anchor:start;stroke-width:0.26458332">L</tspan></text>
    <rect
       style="opacity:1;fill:#ffffff;fill-opacity:1;stroke:none;stroke-width:0.12924369;stroke-miterlimit:4;stroke-dasharray:none;stroke-opacity:1"
       id="rect982"
       width="37.827148"
       height="6.4625335"
       x="128.2605"
       y="152.66736" />
    <g
       id="g1014">
      <path
         sodipodi:nodetypes="sccscccccscsccccccccssccssccccsccsscssscccssscc"
         inkscape:connector-curvature="0"
         id="path935"
         d="m 146.24915,143.62068 c -0.75463,0.0174 -1.46788,0.20693 -2.13867,0.56829 -0.6603,0.35062 -1.23127,0.79888 -1.71339,1.34455 -0.47164,0.53494 -0.95928,1.19637 -1.46237,1.98358 -0.50309,0.7872 -0.93741,1.54611 -1.30423,2.27776 -1.00618,1.95173 -1.92327,3.49811 -2.75126,4.6387 -1.24724,0.0498 -2.34789,0.18029 -3.30166,0.39092 -0.95377,0.2002 -1.68729,0.44197 -2.20085,0.72633 -0.52405,0.28459 -0.91221,0.57174 -1.16375,0.86052 -0.26203,0.28903 -0.39304,0.56948 -0.39304,0.84198 0,0.27249 0.10999,0.48994 0.33009,0.65256 0.20962,0.17332 0.49267,0.25577 0.84902,0.24754 2.32678,-0.0538 4.35503,-1.09041 6.08439,-3.11123 1.56166,-0.0151 15.86945,-0.18967 17.25294,-0.17967 0.41322,-0.58834 -0.93362,-0.36033 -2.03058,-0.41095 -0.10481,-0.0186 -10.70026,-0.0327 -11.3396,-0.018 l -2.57776,-0.0195 c -0.18866,-0.006 -0.45632,-0.004 -0.8022,0.003 0.7756,-1.02407 1.86574,-2.86801 3.27019,-5.53114 0.45068,-0.83841 0.93268,-1.65662 1.44625,-2.45455 1.1005,-1.6814 2.35319,-2.53765 3.75764,-2.57006 0.91185,-0.0211 1.36795,0.23533 1.36795,0.76985 v 0.063 c -0.89088,0.10428 -1.65594,0.41562 -2.29527,0.93347 -0.63934,0.50735 -0.95956,0.95469 -0.95956,1.34249 0,0.2725 0.17306,0.40516 0.51893,0.39718 0.62886,-0.0149 1.24187,-0.25914 1.83929,-0.73409 0.6079,-0.48568 1.00093,-1.0034 1.17911,-1.55253 l 0.18884,-0.004 0.56576,0.0184 c 0.0943,-0.001 0.14201,-0.0608 0.14201,-0.17599 0,-0.12582 -0.0315,-0.19863 -0.0944,-0.21814 -0.19914,-0.0373 -0.43527,-0.0529 -0.70777,-0.0466 v -0.0468 c 0,-0.68126 -0.51841,-1.01054 -1.55603,-0.98659 z m 1.06857,1.50066 c -0.18866,0.45502 -0.534,0.89808 -1.03709,1.32894 -0.50309,0.43085 -0.94381,0.65048 -1.32113,0.65918 -0.20961,0.004 -0.31396,-0.0768 -0.31396,-0.24454 0,-0.28298 0.25151,-0.61311 0.75459,-0.99155 0.51357,-0.38917 1.15248,-0.64004 1.91759,-0.75203 z m -10.92595,9.93681 c -1.49877,1.81635 -3.21244,2.74633 -5.14094,2.79084 -0.35635,0.009 -0.63453,-0.0475 -0.83367,-0.16884 -0.19914,-0.12122 -0.29862,-0.28706 -0.29862,-0.49669 0,-0.19913 0.12051,-0.41138 0.36157,-0.63704 0.93281,-0.89146 2.90363,-1.38741 5.91166,-1.48827 z"
         style="font-style:normal;font-variant:normal;font-weight:normal;font-stretch:normal;font-size:10.58333302px;line-height:1.25;font-family:'Mr De Haviland';-inkscape-font-specification:'Mr De Haviland, Normal';font-variant-ligatures:normal;font-variant-caps:normal;font-variant-numeric:normal;font-feature-settings:normal;text-align:start;letter-spacing:0px;word-spacing:0px;writing-mode:lr-tb;text-anchor:start;fill:#000000;fill-opacity:1;stroke:none;stroke-width:0.39303628" />
      <path
         style="font-style:normal;font-variant:normal;font-weight:normal;font-stretch:normal;font-size:10.58333302px;line-height:1.25;font-family:'Mr De Haviland';-inkscape-font-specification:'Mr De Haviland, Normal';font-variant-ligatures:normal;font-variant-caps:normal;font-variant-numeric:normal;font-feature-settings:normal;text-align:start;letter-spacing:0px;word-spacing:0px;writing-mode:lr-tb;text-anchor:start;fill:#000000;fill-opacity:1;stroke:none;stroke-width:0.39303628"
         d="m 156.06278,143.58959 c -0.75463,0.0174 -1.46789,0.20693 -2.13867,0.56829 -0.6603,0.35062 -1.23127,0.79888 -1.71339,1.34455 -0.47165,0.53492 -0.95929,1.19637 -1.46238,1.98358 -0.50308,0.78719 -0.9374,1.54611 -1.30423,2.27776 -1.00617,1.95173 -1.92327,3.49811 -2.75125,4.63868 -1.24724,0.0498 -2.3479,0.18031 -3.30166,0.39094 -0.95377,0.20019 -1.68729,0.44196 -2.20085,0.72633 -0.52405,0.28459 -0.91221,0.57172 -1.16376,0.86052 -0.26202,0.28903 -0.39303,0.56946 -0.39303,0.84196 0,0.2725 0.10998,0.48996 0.33008,0.65258 0.20962,0.17332 0.49267,0.25575 0.84902,0.24754 2.32678,-0.0536 4.35503,-1.09041 6.08439,-3.11123 1.56166,-0.0152 15.86946,-0.18968 17.25295,-0.17967 0.41322,-0.58834 -0.93363,-0.36035 -2.03058,-0.41096 -0.10482,-0.0186 -10.70026,-0.0327 -11.3396,-0.0178 l -2.57777,-0.0196 c -0.18865,-0.006 -0.45632,-0.004 -0.80219,0.003 0.77559,-1.02406 1.86573,-2.86802 3.27019,-5.53115 0.45068,-0.8384 0.93268,-1.65662 1.44624,-2.45455 1.10051,-1.68138 2.3532,-2.53765 3.75765,-2.57006 0.91184,-0.0211 1.36795,0.23533 1.36795,0.76985 v 0.063 c -0.89089,0.10428 -1.65594,0.41564 -2.29527,0.93346 -0.63934,0.50736 -0.95956,0.95472 -0.95956,1.34252 0,0.2725 0.17305,0.40515 0.51893,0.39717 0.62885,-0.0149 1.24187,-0.25916 1.83928,-0.7341 0.6079,-0.48566 1.00094,-1.0034 1.17911,-1.55253 l 0.18885,-0.004 0.56575,0.0184 c 0.0943,-10e-4 0.14201,-0.0608 0.14201,-0.17601 0,-0.12582 -0.0315,-0.19862 -0.0944,-0.21813 -0.19914,-0.0373 -0.43527,-0.0529 -0.70778,-0.0466 v -0.0468 c 0,-0.68126 -0.5184,-1.01054 -1.55602,-0.98659 z m 1.06857,1.50066 c -0.18866,0.45502 -0.53401,0.89808 -1.0371,1.32892 -0.50308,0.43087 -0.94381,0.65048 -1.32112,0.6592 -0.20962,0.004 -0.31397,-0.0768 -0.31397,-0.24455 0,-0.28299 0.25151,-0.6131 0.7546,-0.99156 0.51357,-0.38916 1.15248,-0.64002 1.91759,-0.75201 z m -10.92595,9.93679 c -1.49878,1.81637 -3.21245,2.74634 -5.14095,2.79084 -0.35635,0.009 -0.63452,-0.0475 -0.83366,-0.16882 -0.19914,-0.12122 -0.29862,-0.28706 -0.29862,-0.49669 0,-0.19913 0.1205,-0.4114 0.36156,-0.63704 0.93281,-0.89146 2.90363,-1.38741 5.91167,-1.48829 z"
         id="path939"
         inkscape:connector-curvature="0"
         sodipodi:nodetypes="sccscccccscsccccccccssccssccccsccsscssscccssscc" />
    </g>
  </g>
</svg>
