<?xml version="1.0" encoding="UTF-8" standalone="no"?>
<!-- Created with Inkscape (http://www.inkscape.org/) -->

<svg
   xmlns:dc="http://purl.org/dc/elements/1.1/"
   xmlns:cc="http://creativecommons.org/ns#"
   xmlns:rdf="http://www.w3.org/1999/02/22-rdf-syntax-ns#"
   xmlns:svg="http://www.w3.org/2000/svg"
   xmlns="http://www.w3.org/2000/svg"
   xmlns:sodipodi="http://sodipodi.sourceforge.net/DTD/sodipodi-0.dtd"
   xmlns:inkscape="http://www.inkscape.org/namespaces/inkscape"
   width="297mm"
   height="210mm"
   viewBox="0 0 297 210"
   version="1.1"
   id="svg8"
   inkscape:version="0.92.4 (33fec40, 2019-01-16)"
   sodipodi:docname="drawing.svg">
  <defs
     id="defs2">
    <clipPath
       id="clipPath873"
       clipPathUnits="userSpaceOnUse">
      <path
         inkscape:connector-curvature="0"
         id="path871"
         d="M 0,500 H 500 V 0 H 0 Z" />
    </clipPath>
    <clipPath
       id="clipPath1317"
       clipPathUnits="userSpaceOnUse">
      <path
         inkscape:connector-curvature="0"
         id="path1315"
         d="M 0,500 H 500 V 0 H 0 Z" />
    </clipPath>
  </defs>
  <sodipodi:namedview
     id="base"
     pagecolor="#ffffff"
     bordercolor="#666666"
     borderopacity="1.0"
     inkscape:pageopacity="0.0"
     inkscape:pageshadow="2"
     inkscape:zoom="3.959798"
     inkscape:cx="1077.9727"
     inkscape:cy="212.32988"
     inkscape:document-units="mm"
     inkscape:current-layer="layer1"
     showgrid="false"
     inkscape:window-width="1853"
     inkscape:window-height="1025"
     inkscape:window-x="67"
     inkscape:window-y="27"
     inkscape:window-maximized="1" />
  <metadata
     id="metadata5">
    <rdf:RDF>
      <cc:Work
         rdf:about="">
        <dc:format>image/svg+xml</dc:format>
        <dc:type
           rdf:resource="http://purl.org/dc/dcmitype/StillImage" />
        <dc:title></dc:title>
      </cc:Work>
    </rdf:RDF>
  </metadata>
  <g
     inkscape:label="Layer 1"
     inkscape:groupmode="layer"
     id="layer1"
     transform="translate(0,-87)">
    <path
       style="opacity:1;fill:none;fill-opacity:1;stroke:#d89f09;stroke-width:0.94758612;stroke-miterlimit:4;stroke-dasharray:none;stroke-opacity:1"
       id="path2680"
       r="20.973669"
       cy="171.58379"
       cx="208.53705" />
    <text
       xml:space="preserve"
       style="font-style:normal;font-variant:normal;font-weight:300;font-stretch:condensed;font-size:10.58333302px;line-height:1.25;font-family:'Barlow Condensed Light';-inkscape-font-specification:'Barlow Condensed Light, Light Condensed';font-variant-ligatures:normal;font-variant-caps:normal;font-variant-numeric:normal;font-feature-settings:normal;text-align:start;letter-spacing:0px;word-spacing:0px;writing-mode:lr-tb;text-anchor:start;fill:#000000;fill-opacity:1;stroke:none;stroke-width:0.26458332"
       id="text817"
       y="152.61911"
       x="184.78378"><tspan
         sodipodi:role="line"
         id="tspan815"
         x="184.78378"
         y="152.61911"
         style="font-style:normal;font-variant:normal;font-weight:300;font-stretch:condensed;font-size:10.58333302px;font-family:'Barlow Condensed Light';-inkscape-font-specification:'Barlow Condensed Light, Light Condensed';font-variant-ligatures:normal;font-variant-caps:normal;font-variant-numeric:normal;font-feature-settings:normal;text-align:start;writing-mode:lr-tb;text-anchor:start;stroke-width:0.26458332">KING</tspan></text>
    <text
       xml:space="preserve"
       style="font-style:normal;font-variant:normal;font-weight:300;font-stretch:condensed;font-size:10.58333302px;line-height:1.25;font-family:'Barlow Condensed Light';-inkscape-font-specification:'Barlow Condensed Light, Light Condensed';font-variant-ligatures:normal;font-variant-caps:normal;font-variant-numeric:normal;font-feature-settings:normal;text-align:start;letter-spacing:0px;word-spacing:0px;writing-mode:lr-tb;text-anchor:start;fill:#000000;fill-opacity:1;stroke:none;stroke-width:0.26458332"
       id="text821"
       y="152.67447"
       x="205.47377"><tspan
         sodipodi:role="line"
         id="tspan819"
         x="205.47377"
         y="152.67447"
         style="font-style:normal;font-variant:normal;font-weight:300;font-stretch:condensed;font-size:10.58333302px;font-family:'Barlow Condensed Light';-inkscape-font-specification:'Barlow Condensed Light, Light Condensed';font-variant-ligatures:normal;font-variant-caps:normal;font-variant-numeric:normal;font-feature-settings:normal;text-align:start;writing-mode:lr-tb;text-anchor:start;stroke-width:0.26458332">SONDIA</tspan></text>
    <text
       xml:space="preserve"
       style="font-style:normal;font-weight:normal;font-size:10.58333302px;line-height:1.25;font-family:sans-serif;letter-spacing:0px;word-spacing:0px;fill:#000000;fill-opacity:1;stroke:none;stroke-width:0.26458332"
       x="118.93494"
       y="227.77719"
       id="text825"><tspan
         sodipodi:role="line"
         id="tspan823"
         x="118.93494"
         y="227.77719"
         style="stroke-width:0.26458332">ALLSTARS</tspan></text>
    <text
       xml:space="preserve"
       style="font-style:normal;font-weight:normal;font-size:10.58333302px;line-height:1.25;font-family:sans-serif;letter-spacing:0px;word-spacing:0px;fill:#000000;fill-opacity:1;stroke:none;stroke-width:0.26458332"
       x="110.91685"
       y="243.27882"
       id="text829"><tspan
         sodipodi:role="line"
         id="tspan827"
         x="110.91685"
         y="243.27882"
         style="stroke-width:0.26458332">FC</tspan></text>
    <g
       id="g895"
       transform="matrix(0.53258825,0,0,-0.53258825,33.332419,156.91225)"
       style="fill:#000000;fill-opacity:1">
      <path
         d="M 0,0 H 66.098"
         style="fill:#000000;fill-opacity:1;stroke:#d89f09;stroke-width:2;stroke-linecap:round;stroke-linejoin:round;stroke-miterlimit:10;stroke-dasharray:none;stroke-opacity:1"
         id="path897"
         inkscape:connector-curvature="0" />
    </g>
    <g
       id="g2678"
       transform="translate(14.699824,-4.0090429)">
      <g
         style="stroke-width:0.80000001;stroke-miterlimit:4;stroke-dasharray:none"
         id="g2661">
        <g
           style="stroke-width:1.50209844;stroke-miterlimit:4;stroke-dasharray:none"
           id="g899"
           transform="matrix(0.53258825,0,0,-0.53258825,210.99065,145.46819)">
          <path
             d="m 0,0 h -66.098 c 3.077719,12.115479 1.177509,20.912339 -4.311,27.317 C -44.707226,24.735955 -22.537267,11.831141 0,0 Z"
             style="fill:none;stroke:#d89f09;stroke-width:1.50209844;stroke-linecap:round;stroke-linejoin:round;stroke-miterlimit:4;stroke-dasharray:none;stroke-opacity:1"
             id="path901"
             inkscape:connector-curvature="0"
             sodipodi:nodetypes="cccc" />
        </g>
        <g
           style="stroke-width:1.41263771;stroke-miterlimit:4;stroke-dasharray:none"
           id="g903"
           transform="matrix(0.60218063,0,0,-0.53258825,173.56222,130.91947)">
          <path
             d="M 0,0 C 22.032667,5.658907 44.065333,5.7052708 66.098,0"
             style="fill:none;stroke:#d89f09;stroke-width:1.41263771;stroke-linecap:round;stroke-linejoin:round;stroke-miterlimit:4;stroke-dasharray:none;stroke-opacity:1"
             id="path905"
             inkscape:connector-curvature="0"
             sodipodi:nodetypes="cc" />
        </g>
        <g
           style="stroke-width:1.50209844;stroke-miterlimit:4;stroke-dasharray:none"
           id="g907"
           transform="matrix(0.53258825,0,0,-0.53258825,175.78764,145.46819)">
          <path
             d="M 0,0 H 66.098 C 62.567915,12.83098 63.939173,21.985954 70.409,27.317 53.64062,24.005154 40.07734,23.464384 0,0 Z"
             style="fill:none;stroke:#d89f09;stroke-width:1.50209844;stroke-linecap:round;stroke-linejoin:round;stroke-miterlimit:4;stroke-dasharray:none;stroke-opacity:1"
             id="path909"
             inkscape:connector-curvature="0"
             sodipodi:nodetypes="cccc" />
        </g>
        <g
           style="stroke-width:1.50209844;stroke-miterlimit:4;stroke-dasharray:none"
           id="g911"
           transform="matrix(0.53258825,0,0,-0.53258825,210.99065,145.46819)">
          <path
             d="M 0,0 C -14.009364,15.477596 -29.351124,30.777539 -33.049,47.63 -38.717458,32.239504 -52.858715,16.078753 -66.098,0 Z"
             style="fill:none;stroke:#d89f09;stroke-width:1.50209844;stroke-linecap:round;stroke-linejoin:round;stroke-miterlimit:4;stroke-dasharray:none;stroke-opacity:1"
             id="path913"
             inkscape:connector-curvature="0"
             sodipodi:nodetypes="cccc" />
        </g>
        <g
           style="stroke-width:1.50209844;stroke-miterlimit:4;stroke-dasharray:none"
           id="g915"
           transform="matrix(0.53258825,0,0,-0.53258825,195.34938,118.14061)">
          <path
             d="m 0,0 c 0,-2.033 -1.648,-3.681 -3.681,-3.681 -2.032,0 -3.68,1.648 -3.68,3.681 0,2.033 1.648,3.681 3.68,3.681 C -1.648,3.681 0,2.033 0,0 Z"
             style="fill:none;stroke:#d89f09;stroke-width:1.50209844;stroke-linecap:round;stroke-linejoin:round;stroke-miterlimit:4;stroke-dasharray:none;stroke-opacity:1"
             id="path917"
             inkscape:connector-curvature="0" />
        </g>
        <g
           style="stroke-width:1.50209844;stroke-miterlimit:4;stroke-dasharray:none"
           id="g919"
           transform="matrix(0.53258825,0,0,-0.53258825,215.7619,129.33316)">
          <path
             d="m 0,0 c 0,-1.582 -1.283,-2.865 -2.865,-2.865 -1.582,0 -2.865,1.283 -2.865,2.865 0,1.582 1.283,2.865 2.865,2.865 C -1.283,2.865 0,1.582 0,0 Z"
             style="fill:none;stroke:#d89f09;stroke-width:1.50209844;stroke-linecap:round;stroke-linejoin:round;stroke-miterlimit:4;stroke-dasharray:none;stroke-opacity:1"
             id="path921"
             inkscape:connector-curvature="0" />
        </g>
        <g
           style="stroke-width:1.50209844;stroke-miterlimit:4;stroke-dasharray:none"
           id="g923"
           transform="matrix(0.53258825,0,0,-0.53258825,171.01638,129.33316)">
          <path
             d="M 0,0 C 0,-1.582 1.283,-2.865 2.865,-2.865 4.447,-2.865 5.73,-1.582 5.73,0 5.73,1.582 4.447,2.865 2.865,2.865 1.283,2.865 0,1.582 0,0 Z"
             style="fill:none;stroke:#d89f09;stroke-width:1.50209844;stroke-linecap:round;stroke-linejoin:round;stroke-miterlimit:4;stroke-dasharray:none;stroke-opacity:1"
             id="path925"
             inkscape:connector-curvature="0" />
        </g>
      </g>
    </g>
    <g
       id="g2645">
      <ellipse
         ry="17.594427"
         rx="18.026777"
         cy="172.04922"
         cx="208.46606"
         id="path2509"
         style="opacity:1;fill:none;fill-opacity:0.96862745;stroke:#d89f09;stroke-width:0.8;stroke-miterlimit:4;stroke-dasharray:none;stroke-opacity:1" />
      <g
         transform="matrix(2.1014478,0,0,2.1014478,-379.45333,-326.28647)"
         style="stroke:#d89f09;stroke-width:0.39340806;stroke-miterlimit:4;stroke-dasharray:none;stroke-opacity:1"
         id="g2558">
        <path
           style="fill:none;stroke:#d89f09;stroke-width:0.39340806;stroke-linecap:butt;stroke-linejoin:miter;stroke-miterlimit:4;stroke-dasharray:none;stroke-opacity:1"
           d="m 276.98311,229.36411 -0.20881,0.33409 c 1.58807,0.14928 2.09774,0.42482 2.99008,0.79345 1.23971,-0.63873 2.03286,-0.6225 2.96503,-0.81016 l -0.22553,-0.31738 c -1.71151,-0.64373 -3.54206,-0.69226 -5.52077,0 z"
           id="path2511"
           inkscape:connector-curvature="0"
           sodipodi:nodetypes="cccccc" />
        <path
           style="fill:none;stroke:#d89f09;stroke-width:0.39340806;stroke-linecap:butt;stroke-linejoin:miter;stroke-miterlimit:4;stroke-dasharray:none;stroke-opacity:1"
           d="m 279.76438,230.49165 -0.0835,3.39934 c -1.33771,0.71728 -2.42548,1.55119 -3.29075,2.48894 -0.87418,-0.45168 -1.68385,-0.92992 -3.07362,-1.1693 0.047,-1.19791 0.14546,-2.11803 0.35199,-3.02719 0.73653,-0.91933 1.53612,-1.86211 3.10583,-2.48524 1.20977,0.0869 2.15687,0.39272 2.99005,0.79345 z"
           id="path2513"
           inkscape:connector-curvature="0"
           sodipodi:nodetypes="ccccccc" />
        <path
           style="fill:none;stroke:#d89f09;stroke-width:0.39340806;stroke-linecap:butt;stroke-linejoin:miter;stroke-miterlimit:4;stroke-dasharray:none;stroke-opacity:1"
           d="m 279.76438,230.49165 -0.0835,3.39934 c 1.29934,0.54574 2.39091,1.40314 3.37603,2.42021 0.82974,-0.38593 1.00812,-0.87789 3.07107,-1.06306 -0.0762,-1.08948 -0.15727,-2.18866 -0.14174,-3.09468 -0.91606,-0.97359 -1.8194,-1.95841 -3.25683,-2.47197 -0.92555,0.0503 -1.91349,0.31892 -2.96503,0.81016 z"
           id="path2515"
           inkscape:connector-curvature="0"
           sodipodi:nodetypes="ccccccc" />
        <path
           style="fill:none;stroke:#d89f09;stroke-width:0.39340806;stroke-linecap:butt;stroke-linejoin:miter;stroke-miterlimit:4;stroke-dasharray:none;stroke-opacity:1"
           d="m 273.31651,235.21063 c -1.30967,1.22278 -1.336,1.72872 -1.67045,2.53906 l -0.3842,-0.50113 c 0.20839,-1.81959 0.64692,-3.52411 1.65373,-4.94449 l 0.7529,-0.12063 c -0.20532,0.87707 -0.32483,1.88285 -0.35198,3.02719 z"
           id="path2517"
           inkscape:connector-curvature="0"
           sodipodi:nodetypes="cccccc" />
        <path
           style="fill:none;stroke:#d89f09;stroke-width:0.39340806;stroke-linecap:butt;stroke-linejoin:miter;stroke-miterlimit:4;stroke-dasharray:none;stroke-opacity:1"
           d="m 286.12798,235.24814 c 0.82534,0.72105 1.26277,1.58064 1.65365,2.45685 l 0.40159,-0.57878 c -0.0472,-1.28225 -0.34469,-3.31182 -1.52371,-4.6302 -0.22442,-0.23271 -0.44885,-0.29574 -0.67327,-0.34255 -0.002,0.97055 0.0186,1.96824 0.14174,3.09468 z"
           id="path2519"
           inkscape:connector-curvature="0"
           sodipodi:nodetypes="cccccc" />
        <path
           style="fill:none;stroke:#d89f09;stroke-width:0.39340806;stroke-linecap:butt;stroke-linejoin:miter;stroke-miterlimit:4;stroke-dasharray:none;stroke-opacity:1"
           d="m 277.69439,240.23268 -1.93715,2.26788 -2.79937,-1.03944 c -0.44184,-1.0806 -1.01462,-1.85511 -1.31181,-3.71143 0.43522,-1.39353 1.05028,-1.97778 1.67045,-2.53906 1.08834,0.23026 2.11126,0.62407 3.07361,1.1693 0.35144,1.23796 0.6787,2.46249 1.30427,3.85275 z"
           id="path2523"
           inkscape:connector-curvature="0"
           sodipodi:nodetypes="ccccccc" />
        <path
           style="fill:none;stroke:#d89f09;stroke-width:0.39340806;stroke-linecap:butt;stroke-linejoin:miter;stroke-miterlimit:4;stroke-dasharray:none;stroke-opacity:1"
           d="m 272.85156,241.95722 0.10631,-0.4961 c 1.30517,0.48177 2.18634,0.80936 2.79937,1.03944 0.33919,0.55567 1.0248,1.41445 1.86626,2.4096 l -0.35435,0.21261 c -2.56806,-0.68349 -3.58762,-1.89235 -4.41759,-3.16555 z"
           id="path2525"
           inkscape:connector-curvature="0"
           sodipodi:nodetypes="cccccc" />
        <path
           style="fill:none;stroke:#d89f09;stroke-width:0.39340806;stroke-linecap:butt;stroke-linejoin:miter;stroke-miterlimit:4;stroke-dasharray:none;stroke-opacity:1"
           d="m 275.75724,242.50056 1.93715,-2.26788 c 0.51359,-0.0667 0.0751,0.11236 4.13411,-0.0236 l 1.91151,2.33476 c -0.64713,0.62861 -1.25321,1.46252 -1.83748,2.40542 -1.44948,-0.15185 -2.89166,-0.25993 -4.27903,-0.0391 -0.70446,-0.935 -1.31922,-1.72647 -1.86626,-2.4096 z"
           id="path2527"
           inkscape:connector-curvature="0"
           sodipodi:nodetypes="ccccccc" />
        <path
           style="fill:none;stroke:#d89f09;stroke-width:0.39340806;stroke-linecap:butt;stroke-linejoin:miter;stroke-miterlimit:4;stroke-dasharray:none;stroke-opacity:1"
           d="m 281.8285,240.20908 1.91151,2.33476 c 1.02563,-0.49404 1.96019,-0.76039 2.86044,-0.94097 l 1.18118,-3.89788 c -0.12049,-0.27557 -0.22668,-0.50706 -0.32261,-0.70416 -0.53019,-1.08936 -0.74685,-1.12828 -1.33104,-1.75269 -1.09197,-0.0212 -2.1049,0.39236 -3.07107,1.06306 -0.26058,1.59708 -0.71782,2.80083 -1.22841,3.89788 z"
           id="path2529"
           inkscape:connector-curvature="0"
           sodipodi:nodetypes="ccccsccc" />
        <path
           style="fill:none;stroke:#d89f09;stroke-width:0.39340806;stroke-linecap:butt;stroke-linejoin:miter;stroke-miterlimit:4;stroke-dasharray:none;stroke-opacity:1"
           d="m 281.90253,244.94926 c 0.44534,-0.66465 0.58399,-1.07767 1.83748,-2.40542 1.69995,-0.80565 2.05644,-0.72583 2.86044,-0.94097 l 0.0354,0.47247 c -0.91339,1.11528 -2.00925,2.19766 -4.26405,3.07105 z"
           id="path2531"
           inkscape:connector-curvature="0"
           sodipodi:nodetypes="cccccc" />
      </g>
    </g>
  </g>
</svg>
