<?xml version="1.0" encoding="iso-8859-1"?>
<!-- Generator: Adobe Illustrator 19.0.0, SVG Export Plug-In . SVG Version: 6.00 Build 0)  -->
<svg version="1.1" id="Capa_1" xmlns="http://www.w3.org/2000/svg" xmlns:xlink="http://www.w3.org/1999/xlink" x="0px" y="0px"
	 viewBox="0 0 512.001 512.001" style="enable-background:new 0 0 512.001 512.001;" xml:space="preserve">
<g>
	<g>
		<path d="M476.639,235.559c-4.325-3.468-10.644-2.776-14.111,1.55c-3.469,4.325-2.774,10.643,1.55,14.111
			c17.698,14.193,27.847,35.326,27.847,57.982c0,40.958-33.321,74.279-74.279,74.279c-37.552,0-68.664-28.016-73.583-64.241h73.583
			c3.931,0,7.499-2.294,9.131-5.87c1.632-3.576,1.027-7.774-1.548-10.744l-48.191-55.573c11.68-7.658,25.627-12.13,40.608-12.13
			c5.543,0,10.038-4.495,10.038-10.038s-4.495-10.038-10.038-10.038c-20.006,0-38.574,6.264-53.856,16.927l-47.521-54.8v-32.39
			h7.022c5.543,0,10.038-4.495,10.038-10.038c0-5.543-4.495-10.038-10.038-10.038h-54.197c-5.543,0-10.038,4.495-10.038,10.038
			c0,5.543,4.495,10.038,10.038,10.038h27.099v26.098H143.576l-20.659-55.688c-0.02-0.054-0.046-0.103-0.067-0.157
			c-0.076-0.195-0.159-0.385-0.246-0.574c-0.057-0.123-0.115-0.246-0.177-0.366c-0.082-0.16-0.171-0.315-0.261-0.47
			c-0.082-0.141-0.165-0.28-0.253-0.416c-0.08-0.123-0.167-0.244-0.252-0.363c-0.108-0.152-0.218-0.302-0.333-0.446
			c-0.08-0.1-0.166-0.196-0.25-0.293c-0.13-0.149-0.259-0.295-0.396-0.436c-0.09-0.092-0.185-0.18-0.278-0.268
			c-0.138-0.129-0.275-0.259-0.419-0.38c-0.112-0.095-0.23-0.184-0.346-0.274c-0.133-0.102-0.264-0.205-0.401-0.3
			c-0.143-0.099-0.29-0.191-0.439-0.283c-0.119-0.073-0.237-0.15-0.359-0.218c-0.171-0.096-0.346-0.184-0.523-0.271
			c-0.109-0.053-0.217-0.108-0.328-0.158c-0.186-0.083-0.375-0.156-0.566-0.228c-0.113-0.042-0.226-0.086-0.34-0.124
			c-0.182-0.061-0.367-0.113-0.554-0.164c-0.137-0.037-0.272-0.074-0.41-0.105c-0.164-0.037-0.329-0.066-0.495-0.095
			c-0.171-0.03-0.341-0.057-0.513-0.078c-0.14-0.017-0.281-0.029-0.423-0.04c-0.202-0.016-0.403-0.027-0.605-0.031
			c-0.06-0.001-0.117-0.009-0.178-0.009H61.31c-5.544,0-10.038,4.495-10.038,10.038c0,5.543,4.494,10.038,10.038,10.038h45.214
			l19.437,52.396l-11.84,36.017c-6.377-1.365-12.988-2.09-19.766-2.09C42.327,214.845,0,257.172,0,309.2
			s42.327,94.355,94.355,94.355s94.355-42.327,94.355-94.355c0-38.192-22.809-71.156-55.52-85.988l8.128-24.723l127.777,115.177
			v14.606h-5.476c-5.543,0-10.038,4.495-10.038,10.038c0,5.543,4.495,10.038,10.038,10.038h31.027
			c5.543,0,10.038-4.495,10.038-10.038c0-5.543-4.495-10.038-10.038-10.038h-5.476v-9.034h34.656
			c5.028,47.326,45.183,84.317,93.821,84.317c52.028,0,94.355-42.327,94.355-94.355C512,280.424,499.111,253.582,476.639,235.559z
			 M168.634,309.201c0,40.958-33.321,74.279-74.279,74.279c-40.958,0-74.279-33.321-74.279-74.279
			c0-40.958,33.321-74.279,74.279-74.279c4.592,0,9.081,0.441,13.445,1.242l-22.98,69.903c-1.732,5.267,1.134,10.939,6.401,12.671
			c1.041,0.342,2.097,0.505,3.137,0.505c4.218,0,8.145-2.681,9.534-6.906l22.98-69.903
			C151.575,254.513,168.634,279.899,168.634,309.201z M395.655,299.163h-51.591c2.01-14.809,8.396-28.239,17.816-38.949
			L395.655,299.163z M272.907,290.076l-110.186-99.32h131.135L272.907,290.076z M323.825,299.163h-32.317l20.376-96.605
			l36.747,42.376C335.067,259.49,326.039,278.323,323.825,299.163z"/>
	</g>
</g>
<g>
	<g>
		<path d="M445.964,220.367c-12.918,0-12.939,20.075,0,20.075C458.881,240.443,458.902,220.367,445.964,220.367z"/>
	</g>
</g>
<g>
</g>
<g>
</g>
<g>
</g>
<g>
</g>
<g>
</g>
<g>
</g>
<g>
</g>
<g>
</g>
<g>
</g>
<g>
</g>
<g>
</g>
<g>
</g>
<g>
</g>
<g>
</g>
<g>
</g>
</svg>
