<?xml version="1.0" encoding="UTF-8" standalone="no"?>
<!-- Created with Inkscape (http://www.inkscape.org/) -->

<svg
   xmlns:dc="http://purl.org/dc/elements/1.1/"
   xmlns:cc="http://creativecommons.org/ns#"
   xmlns:rdf="http://www.w3.org/1999/02/22-rdf-syntax-ns#"
   xmlns:svg="http://www.w3.org/2000/svg"
   xmlns="http://www.w3.org/2000/svg"
   xmlns:sodipodi="http://sodipodi.sourceforge.net/DTD/sodipodi-0.dtd"
   xmlns:inkscape="http://www.inkscape.org/namespaces/inkscape"
   width="297mm"
   height="210mm"
   viewBox="0 0 297 210"
   version="1.1"
   id="svg8"
   inkscape:version="0.92.4 (33fec40, 2019-01-16)"
   sodipodi:docname="drawin.svg">
  <defs
     id="defs2" />
  <sodipodi:namedview
     id="base"
     pagecolor="#ffffff"
     bordercolor="#666666"
     borderopacity="1.0"
     inkscape:pageopacity="0.0"
     inkscape:pageshadow="2"
     inkscape:zoom="0.49497475"
     inkscape:cx="690.14006"
     inkscape:cy="379.34971"
     inkscape:document-units="mm"
     inkscape:current-layer="layer1"
     showgrid="false"
     inkscape:window-width="1853"
     inkscape:window-height="1025"
     inkscape:window-x="67"
     inkscape:window-y="27"
     inkscape:window-maximized="1" />
  <metadata
     id="metadata5">
    <rdf:RDF>
      <cc:Work
         rdf:about="">
        <dc:format>image/svg+xml</dc:format>
        <dc:type
           rdf:resource="http://purl.org/dc/dcmitype/StillImage" />
        <dc:title></dc:title>
      </cc:Work>
    </rdf:RDF>
  </metadata>
  <g
     inkscape:label="Layer 1"
     inkscape:groupmode="layer"
     id="layer1"
     transform="translate(0,-87)">
    <g
       id="g4784"
       transform="translate(-120.58239,113.5155)">
      <path
         style="stroke-width:0.19900791"
         id="path10"
         d="m 121.98216,189.71143 c -7.59495,0 -11.35278,-3.1095 -15.33139,-6.40168 -0.88698,-0.73384 -1.78252,-1.47079 -2.71925,-2.18053 1.33164,-1.079 2.24816,-2.58555 2.59487,-4.2639 0.48353,-2.25517 -0.0793,-4.6075 -1.52987,-6.40013 -1.45058,-1.79263 -3.63345,-2.83275 -5.939922,-2.82964 h -3.837897 c -0.10961,0 -0.207559,-0.0692 -0.244873,-0.1718 -0.574481,-1.28811 -1.22903,-2.53968 -1.958985,-3.74617 4.780855,3.41267 11.334897,2.83664 15.446437,-1.35885 4.11153,-4.19549 4.55619,-10.75964 1.04712,-15.47054 -3.50907,-4.71089 -9.925517,-6.16535 -15.122269,-3.42744 -5.197525,2.73714 -7.626821,8.85197 -5.72614,14.40942 -0.02332,-0.0249 -0.04276,-0.0521 -0.06608,-0.0762 l -14.94192,-15.85766 c -2.94003,-3.13826 -7.540534,-4.08044 -11.477937,-2.35078 l -18.62512,8.11657 c -2.796994,1.21503 -4.602058,3.97782 -4.591175,7.02669 0.0062,2.57466 1.307545,4.97364 3.463204,6.38146 2.154884,1.40861 4.874916,1.63716 7.235027,0.60869 l 15.184459,-6.64111 7.909011,8.40031 -36.772155,16.05667 c -3.736063,-2.34456 -8.081587,-3.53083 -12.490079,-3.40879 -0.938292,0 -1.698564,0.76028 -1.698564,1.69857 0,0.93751 0.760272,1.69779 1.698564,1.69779 7.596505,0 11.354334,3.11027 15.332938,6.40245 4.26701,3.53239 8.680166,7.18372 17.499481,7.18372 8.819316,0 13.232472,-3.65133 17.499482,-7.18372 3.978605,-3.29218 7.736433,-6.40245 15.333716,-6.40245 7.597282,0 11.353557,3.11027 15.332167,6.40245 4.26701,3.53239 8.67783,7.18372 17.49715,7.18372 0.93829,0 1.69856,-0.76027 1.69856,-1.69856 0,-0.93752 -0.76027,-1.69857 -1.69856,-1.69857 z M 99.906271,145.55888 c 4.689119,0 8.490489,3.80137 8.490489,8.49049 0,4.6899 -3.80137,8.49126 -8.490489,8.49126 -4.689903,0 -8.491264,-3.80136 -8.491264,-8.49126 0.0054,-4.68679 3.803694,-8.48504 8.491264,-8.49049 z m -28.252906,37.75087 c -3.978604,3.29218 -7.736433,6.40168 -15.333715,6.40168 -7.596507,0 -11.355114,-3.1095 -15.333717,-6.40168 -0.593137,-0.4913 -1.190161,-0.98338 -1.799622,-1.46846 l 37.131302,-16.21603 c 0.506071,-0.22156 0.872992,-0.67476 0.984156,-1.21582 0.110388,-0.54105 -0.0482,-1.10231 -0.426778,-1.50499 L 67.296956,152.7325 c -0.990375,-1.0238 -2.510142,-1.32854 -3.81924,-0.76572 l -15.179797,6.63956 c -2.154882,0.93596 -4.661138,-0.0521 -5.597098,-2.20697 -0.230879,-0.52628 -0.34904,-1.09532 -0.346709,-1.67057 -0.0093,-1.69546 0.991153,-3.23311 2.545126,-3.91098 l 18.636003,-8.12123 c 2.621306,-1.15207 5.684164,-0.52473 7.640816,1.56486 l 14.941918,15.85688 c 2.391982,2.54746 4.331533,5.48361 5.734694,8.68328 0.569037,1.35496 1.896794,2.23417 3.366032,2.23029 h 3.837897 c 1.281892,-0.002 2.494592,0.57603 3.300732,1.57263 0.81547,0.99892 1.12642,2.31735 0.8419,3.57436 -0.28685,1.28034 -1.16762,2.3469 -2.37022,2.87163 -3.553375,-2.01962 -7.590283,-3.03021 -11.676164,-2.92449 -8.819317,0 -13.232473,3.65133 -17.499481,7.18372 z m 0,0"
         inkscape:connector-curvature="0" />
      <path
         style="stroke-width:0.19900791"
         id="path12"
         d="m 121.98216,203.29761 c -7.59495,0 -11.35278,-3.11027 -15.33139,-6.40246 -4.26701,-3.53239 -8.678608,-7.18372 -17.497924,-7.18372 -8.819317,0 -13.232473,3.65133 -17.499481,7.18372 -3.978604,3.29219 -7.736433,6.40246 -15.333717,6.40246 -7.596505,0 -11.355112,-3.11027 -15.333715,-6.40246 -4.26701,-3.53239 -8.679389,-7.18372 -17.498704,-7.18372 -0.938292,0 -1.698564,0.76105 -1.698564,1.69857 0,0.93829 0.760272,1.69856 1.698564,1.69856 7.596505,0 11.354334,3.11028 15.332938,6.40168 4.26701,3.53239 8.680166,7.18372 17.499481,7.18372 8.819316,0 13.232472,-3.65133 17.499482,-7.18372 3.978605,-3.2914 7.736433,-6.40168 15.333716,-6.40168 7.597282,0 11.353554,3.11028 15.332164,6.40168 4.26701,3.53239 8.67783,7.18372 17.49715,7.18372 0.93829,0 1.69856,-0.76027 1.69856,-1.69856 0,-0.93752 -0.76027,-1.69779 -1.69856,-1.69779 z m 0,0"
         inkscape:connector-curvature="0" />
      <path
         style="stroke-width:0.19900791"
         id="path14"
         d="m 121.98216,216.88301 c -7.59495,0 -11.35278,-3.11028 -15.33139,-6.40246 -4.26701,-3.53161 -8.678608,-7.18294 -17.497924,-7.18294 -8.819317,0 -13.232473,3.65133 -17.499481,7.18294 -3.978604,3.29218 -7.736433,6.40246 -15.333717,6.40246 -7.596505,0 -11.355112,-3.11028 -15.333715,-6.40246 -4.26701,-3.53161 -8.679389,-7.18294 -17.498704,-7.18294 -0.938292,0 -1.698564,0.76027 -1.698564,1.69779 0,0.93829 0.760272,1.69856 1.698564,1.69856 7.596505,0 11.354334,3.11028 15.332938,6.40246 4.26701,3.53161 8.680166,7.18294 17.499481,7.18294 8.819316,0 13.232472,-3.65133 17.499482,-7.18294 3.978605,-3.29218 7.736433,-6.40246 15.333716,-6.40246 7.597282,0 11.353554,3.11028 15.332164,6.40246 4.26701,3.53161 8.67783,7.18294 17.49715,7.18294 0.93829,0 1.69856,-0.76027 1.69856,-1.69778 0,-0.9383 -0.76027,-1.69857 -1.69856,-1.69857 z m 0,0"
         inkscape:connector-curvature="0" />
    </g>
    <g
       id="g118"
       transform="translate(-93.503773,-21.385275)">
      <ellipse
         style="fill:#000000;stroke-width:0.27546844"
         id="ellipse114"
         cx="204.75856"
         cy="164.71785"
         rx="39.332798"
         ry="35.112972" />
      <ellipse
         ry="33.170559"
         rx="37.156948"
         cy="162.77544"
         cx="202.58272"
         id="path112"
         style="fill:#cccccc;stroke-width:0.2602298" />
    </g>
    <ellipse
       id="path32"
       cx="187.19218"
       cy="4.7374473"
       rx="5.8609934"
       ry="7.2647262"
       style="stroke-width:0.19656654"
       transform="matrix(0.72226691,0.69161443,-0.69222698,0.72167985,0,0)" />
    <path
       style="fill:#000000;stroke:#000000;stroke-width:0.26458332px;stroke-linecap:butt;stroke-linejoin:miter;stroke-opacity:1"
       d="m 126.3208,143.67819 c -1.48767,-7.23021 -5.03349,-13.64062 -15.02685,-17.48284 -11.353633,-1.78344 -21.684503,2.40264 -25.202903,4.25851 17.468943,-0.12915 34.575963,0.1463 40.229753,13.22433 z"
       id="path34"
       inkscape:connector-curvature="0"
       sodipodi:nodetypes="cccc" />
    <path
       inkscape:connector-curvature="0"
       style="stroke-width:0.47590426"
       d="m 110.71838,136.32101 a 9.2780193,26.900179 75.718711 0 0 -18.579741,2.61379 c 3.051812,0.89867 6.813327,2.50023 11.566221,5.08341 5.16191,2.13119 9.89263,3.25296 14.34228,3.71708 a 9.2780193,26.900179 75.718711 0 0 -5.83272,-11.34917 9.2780193,26.900179 75.718711 0 0 -1.49604,-0.0651 z"
       id="path85" />
    <path
       inkscape:connector-curvature="0"
       style="fill:#000000;stroke:#000000;stroke-width:0.2555154px;stroke-linecap:butt;stroke-linejoin:miter;stroke-opacity:1"
       d="m 82.477507,139.01887 c -4.93523,-0.0674 -7.17413,2.53555 -9.8764,4.6793 3.72982,-0.0255 9.0276,1.50124 17.35191,6.02548 17.468693,12.36368 38.850803,2.97221 57.316403,-5.19968 -14.96198,2.38229 -28.31371,8.53303 -47.715953,0.52244 -8.11922,-4.41276 -13.36169,-5.97679 -17.07596,-6.02754 z"
       id="path40"
       sodipodi:nodetypes="cccccc" />
    <g
       id="g205"
       transform="matrix(-1.4354519,0,0,1.4354519,-96.172103,270.78085)">
      <g
         id="g145">
        <g
           id="g143">
          <path
             id="path135"
             d="m 28.921,45.546 c -4.358,-3.511 -7.972,-7.198 -9.964,-12.53 -0.068,-0.182 -0.15,-0.347 -0.243,-0.498 0.298,-0.365 0.509,-0.8 0.578,-1.311 -2.969,-0.413 -5.644,-1.12 -8.092,-2.646 0.396,1.096 0.276,2.18 0.864,3.256 0.028,0.051 0.063,0.092 0.093,0.139 -1.862,1.521 -3.464,3.346 -3.833,5.83 -0.458,3.074 0.94,5.935 2.401,8.547 1.591,2.846 5.957,0.297 4.364,-2.551 -0.839,-1.5 -1.776,-3.092 -1.83,-4.854 -0.032,-1.072 0.745,-1.986 1.592,-2.712 2.356,5.246 5.922,9.219 10.494,12.903 2.515,2.024 6.114,-1.528 3.576,-3.573 z"
             style="fill:#010002"
             inkscape:connector-curvature="0" />
          <circle
             id="circle137"
             r="4.3049998"
             cy="9.6829996"
             cx="14.161"
             style="fill:#010002" />
          <path
             id="path139"
             d="m 10.003,23.03 0.191,0.099 c 0.049,0.026 3.347,1.716 8.093,2.856 -0.709,-1.864 -1.015,-3.819 -0.79,-5.848 2.576,0.982 5.182,1.884 7.758,2.866 2.441,0.93 3.485,-2.979 1.077,-3.897 C 22.969,17.825 19.554,16.681 16.225,15.316 16.038,15.239 15.86,15.195 15.691,15.173 15.456,15.051 15.198,14.948 14.92,14.871 14.024,14.625 12.971,14.769 12.089,15.217 7.86,15.484 5.256,12.868 3.993,8.641 3.249,6.15 -0.654,7.212 0.095,9.716 c 1.61,5.392 5.075,8.83 9.963,9.425 -0.13,1.322 -0.152,2.617 -0.055,3.889 z"
             style="fill:#010002"
             inkscape:connector-curvature="0" />
          <path
             id="path141"
             d="m 51.729,24.939 3.17,-1.508 c 0,0 -5.289,-1.088 -24.289,2.813 C 18.672,29.619 8.912,22.799 8.912,22.799 l 0.711,4.132 c 12.908,9.285 28.517,-1.451 45.166,0.542 1.528,0.098 -3.06,-2.534 -3.06,-2.534 z"
             style="fill:#010002"
             inkscape:connector-curvature="0" />
        </g>
      </g>
      <g
         id="g147" />
      <g
         id="g149" />
      <g
         id="g151" />
      <g
         id="g153" />
      <g
         id="g155" />
      <g
         id="g157" />
      <g
         id="g159" />
      <g
         id="g161" />
      <g
         id="g163" />
      <g
         id="g165" />
      <g
         id="g167" />
      <g
         id="g169" />
      <g
         id="g171" />
      <g
         id="g173" />
      <g
         id="g175" />
    </g>
    <g
       id="g4757"
       transform="translate(-15.221931,-111.48324)">
      <g
         transform="translate(9.0904684,90.092991)"
         id="g124">
        <ellipse
           style="fill:#000000;stroke-width:0.27546844"
           id="ellipse120"
           cx="204.75856"
           cy="164.71785"
           rx="39.332798"
           ry="35.112972" />
        <ellipse
           ry="33.170559"
           rx="37.156948"
           cy="162.77544"
           cx="202.58272"
           id="ellipse122"
           style="fill:#cccccc;stroke-width:0.2602298" />
      </g>
    </g>
    <ellipse
       style="fill:#000000;stroke-width:0.23005781"
       id="path207"
       cx="234.08868"
       cy="99.484909"
       rx="4.7947097"
       ry="6.3066459"
       transform="matrix(0.99270422,0.120575,-0.29621045,0.9551227,0,0)" />
    <path
       style="fill:#000000;stroke:#000000;stroke-width:0.31234851px;stroke-linecap:butt;stroke-linejoin:miter;stroke-opacity:1"
       d="m 200.09881,133.86288 c -2.76772,-3.37765 -5.48412,-9.37174 -16.90878,-4.72334 -2.55965,1.1507 -8.4601,5.50922 -10.90348,11.16662 6.99387,-3.37984 10.77412,-8.49866 27.81226,-6.44328 z"
       id="path209"
       inkscape:connector-curvature="0"
       sodipodi:nodetypes="cccc" />
    <path
       style="fill:#000000;stroke:#000000;stroke-width:0.26458332px;stroke-linecap:butt;stroke-linejoin:miter;stroke-opacity:1"
       d="m 195.68303,128.86894 c -1.63349,1.37186 -1.87133,2.45952 -2.00643,3.52626 0.20867,3.69141 -0.63826,6.9211 -1.99491,9.92783 -0.33723,0.77413 -0.36631,0.93886 -3.08835,5.93739 2.33111,6.79423 10.61819,6.62403 12.84441,2.52451 2.53295,-4.80343 2.7861,-10.74745 2.25064,-17.08602 -1.28888,-2.15252 -3.51752,-3.93548 -8.00536,-4.82997 z"
       id="path213"
       inkscape:connector-curvature="0"
       sodipodi:nodetypes="ccccccc" />
    <path
       sodipodi:nodetypes="cccc"
       inkscape:connector-curvature="0"
       id="path215"
       d="m 222.67335,119.93172 c -0.46305,4.64219 0.44985,11.36574 -10.95044,15.48749 -2.60994,0.83506 -9.49706,1.37992 -14.31535,-1.51124 7.2516,-2.09103 12.85141,-0.55796 25.26579,-13.97625 z"
       style="fill:#000000;stroke:#000000;stroke-width:0.31100869px;stroke-linecap:butt;stroke-linejoin:miter;stroke-opacity:1" />
    <path
       inkscape:connector-curvature="0"
       style="fill:#000000;stroke:#000000;stroke-width:0.2796329px;stroke-linecap:butt;stroke-linejoin:miter;stroke-opacity:1"
       d="m 190.07871,149.50562 c -1.84927,6.87691 -8.64132,14.32812 -14.67042,19.69492 a 14.33936,5.2926381 0 0 1 2.93264,2.14716 c 6.44574,-3.43191 14.39052,-9.1904 22.17642,-19.24689 z"
       id="path217" />
    <path
       style="fill:#000000;stroke:#000000;stroke-width:0.2721526px;stroke-linecap:butt;stroke-linejoin:miter;stroke-opacity:1"
       d="m 189.03594,147.72534 c -3.63607,3.5808 9.76748,7.11843 12.38294,18.08409 0.57693,2.21727 -1.97545,5.82891 -6.01409,10.10282 11.47821,-6.83194 11.83606,-10.32458 11.44925,-13.45867 -2.85295,-11.61082 -8.73574,-12.81878 -11.55368,-13.09713 z"
       id="path219"
       inkscape:connector-curvature="0"
       sodipodi:nodetypes="cccccc" />
    <path
       style="fill:#ffffff;fill-opacity:1;stroke:none;stroke-width:0.30342707px;stroke-linecap:butt;stroke-linejoin:miter;stroke-opacity:1"
       d="m 204.2176,139.00899 -0.50714,5.51792 c -3.39333,-0.91594 -7.57641,-1.42724 -13.05356,-1.27553 -15.19729,0.1607 -18.76855,3.95793 -27.80359,6.04613 13.27145,-8.17847 26.96449,-12.48166 41.36429,-10.28852 z"
       id="path221"
       inkscape:connector-curvature="0"
       sodipodi:nodetypes="ccccc" />
    <path
       sodipodi:nodetypes="ccccc"
       inkscape:connector-curvature="0"
       id="path4731"
       d="m 204.30463,137.92192 -0.34928,3.30296 c -3.23595,-0.25931 -7.21034,-0.21385 -12.39475,0.33094 -14.39118,1.35779 -17.68369,3.89851 -26.19216,5.88332 12.37653,-5.93587 25.24446,-9.61665 38.93619,-9.51722 z"
       style="fill:#000000;fill-opacity:1;stroke:none;stroke-width:0.22741354px;stroke-linecap:butt;stroke-linejoin:miter;stroke-opacity:1" />
    <g
       id="g4765"
       transform="translate(163.98932,-23.35463)">
      <g
         id="g4763"
         transform="translate(9.0904684,90.092991)">
        <ellipse
           ry="35.112972"
           rx="39.332798"
           cy="164.71785"
           cx="204.75856"
           id="ellipse4759"
           style="fill:#000000;stroke-width:0.27546844" />
        <ellipse
           style="fill:#cccccc;stroke-width:0.2602298"
           id="ellipse4761"
           cx="202.58272"
           cy="162.77544"
           rx="37.156948"
           ry="33.170559" />
      </g>
    </g>
    <path
       style="fill:#000000;stroke:#000000;stroke-width:0.99999994px;stroke-linecap:butt;stroke-linejoin:miter;stroke-opacity:1"
       d="M 459.83984 175.60547 C 464.66524 199.05746 475.23775 220.22064 502.00781 234.93164 A 85.838467 45.989436 0 0 1 533.35938 222.03516 C 499.64329 216.8531 472.33501 204.50859 459.83984 175.60547 z "
       transform="matrix(0.26458333,0,0,0.26458333,0,87)"
       id="path4793" />
  </g>
</svg>
