<svg height="512pt" viewBox="0 -51 512 512" width="512pt" xmlns="http://www.w3.org/2000/svg"><path d="m503.464844 256.183594c-38.164063 0-57.046875-15.625-77.039063-32.167969-4.457031-3.6875-8.957031-7.390625-13.664062-10.957031 6.691406-5.421875 11.296875-12.992188 13.039062-21.425782 2.429688-11.332031-.398437-23.152343-7.6875-32.160156-7.289062-9.007812-18.257812-14.234375-29.847656-14.21875h-19.285156c-.550781 0-1.042969-.347656-1.230469-.863281-2.886719-6.472656-6.175781-12.761719-9.84375-18.824219 24.023438 17.148438 56.957031 14.253906 77.617188-6.828125 20.660156-21.082031 22.894531-54.066406 5.261718-77.738281-17.632812-23.671875-49.875-30.980469-75.988281-17.222656-26.117187 13.753906-38.324219 44.480468-28.773437 72.40625-.117188-.125-.214844-.261719-.332032-.382813l-75.082031-79.683593c-14.773437-15.769532-37.890625-20.503907-57.675781-11.8125l-93.589844 40.785156c-14.054688 6.105468-23.125 19.988281-23.070312 35.308594.03125 12.9375 6.570312 24.992187 17.402343 32.066406 10.828125 7.078125 24.496094 8.226562 36.355469 3.058594l76.300781-33.371094 39.742188 42.210937-184.777344 80.683594c-18.773437-11.78125-40.609375-17.742187-62.761719-17.128906-4.714844 0-8.535156 3.820312-8.535156 8.535156 0 4.710937 3.820312 8.53125 8.535156 8.53125 38.171875 0 57.054688 15.628906 77.046875 32.171875 21.441407 17.75 43.617188 36.097656 87.933594 36.097656s66.492187-18.347656 87.933594-36.097656c19.992187-16.542969 38.875-32.171875 77.050781-32.171875s57.050781 15.628906 77.042969 32.171875c21.441406 17.75 43.605469 36.097656 87.921875 36.097656 4.714844 0 8.535156-3.820312 8.535156-8.535156 0-4.710938-3.820312-8.535156-8.535156-8.535156zm-110.929688-221.863282c23.5625 0 42.664063 19.101563 42.664063 42.664063 0 23.566406-19.101563 42.667969-42.664063 42.667969-23.566406 0-42.667968-19.101563-42.667968-42.667969.027343-23.550781 19.113281-42.636719 42.667968-42.664063zm-141.96875 189.695313c-19.992187 16.542969-38.875 32.167969-77.050781 32.167969-38.171875 0-57.058594-15.625-77.050781-32.167969-2.980469-2.46875-5.980469-4.941406-9.042969-7.378906l186.582031-81.484375c2.542969-1.113282 4.386719-3.390625 4.945313-6.109375.554687-2.71875-.242188-5.539063-2.144531-7.5625l-48.128907-51.113281c-4.976562-5.144532-12.613281-6.675782-19.191406-3.847657l-76.277344 33.363281c-10.828125 4.703126-23.421875-.261718-28.125-11.089843-1.160156-2.644531-1.753906-5.503907-1.742187-8.394531-.046875-8.519532 4.980468-16.246094 12.789062-19.652344l93.644532-40.808594c13.171874-5.789062 28.5625-2.636719 38.394531 7.863281l75.082031 79.679688c12.019531 12.800781 21.765625 27.554687 28.816406 43.632812 2.859375 6.808594 9.53125 11.226563 16.914063 11.207031h19.285156c6.441406-.011718 12.535156 2.894532 16.585937 7.902344 4.097657 5.019532 5.660157 11.644532 4.230469 17.960938-1.441406 6.433594-5.867187 11.792968-11.910156 14.429687-17.855469-10.148437-38.140625-15.226562-58.671875-14.695312-44.316406 0-66.492188 18.347656-87.933594 36.097656zm0 0"/><path d="m503.464844 324.453125c-38.164063 0-57.046875-15.628906-77.039063-32.171875-21.441406-17.75-43.609375-36.097656-87.925781-36.097656s-66.492188 18.347656-87.933594 36.097656c-19.992187 16.542969-38.875 32.171875-77.050781 32.171875-38.171875 0-57.058594-15.628906-77.050781-32.171875-21.441406-17.75-43.613282-36.097656-87.929688-36.097656-4.714844 0-8.535156 3.824218-8.535156 8.535156 0 4.714844 3.820312 8.535156 8.535156 8.535156 38.171875 0 57.054688 15.628906 77.046875 32.167969 21.441407 17.75 43.617188 36.097656 87.933594 36.097656s66.492187-18.347656 87.933594-36.097656c19.992187-16.539063 38.875-32.167969 77.050781-32.167969s57.050781 15.628906 77.042969 32.167969c21.441406 17.75 43.605469 36.097656 87.921875 36.097656 4.714844 0 8.535156-3.820312 8.535156-8.535156 0-4.710937-3.820312-8.53125-8.535156-8.53125zm0 0"/><path d="m503.464844 392.71875c-38.164063 0-57.046875-15.628906-77.039063-32.171875-21.441406-17.746094-43.609375-36.09375-87.925781-36.09375s-66.492188 18.347656-87.933594 36.09375c-19.992187 16.542969-38.875 32.171875-77.050781 32.171875-38.171875 0-57.058594-15.628906-77.050781-32.171875-21.441406-17.746094-43.613282-36.09375-87.929688-36.09375-4.714844 0-8.535156 3.820313-8.535156 8.53125 0 4.714844 3.820312 8.535156 8.535156 8.535156 38.171875 0 57.054688 15.628907 77.046875 32.171875 21.441407 17.746094 43.617188 36.09375 87.933594 36.09375s66.492187-18.347656 87.933594-36.09375c19.992187-16.542968 38.875-32.171875 77.050781-32.171875s57.050781 15.628907 77.042969 32.171875c21.441406 17.746094 43.605469 36.09375 87.921875 36.09375 4.714844 0 8.535156-3.820312 8.535156-8.53125 0-4.714844-3.820312-8.535156-8.535156-8.535156zm0 0"/></svg>