<?xml version="1.0" encoding="UTF-8" standalone="no"?>
<!-- Created with Inkscape (http://www.inkscape.org/) -->

<svg
   xmlns:dc="http://purl.org/dc/elements/1.1/"
   xmlns:cc="http://creativecommons.org/ns#"
   xmlns:rdf="http://www.w3.org/1999/02/22-rdf-syntax-ns#"
   xmlns:svg="http://www.w3.org/2000/svg"
   xmlns="http://www.w3.org/2000/svg"
   xmlns:sodipodi="http://sodipodi.sourceforge.net/DTD/sodipodi-0.dtd"
   xmlns:inkscape="http://www.inkscape.org/namespaces/inkscape"
   width="297mm"
   height="210mm"
   viewBox="0 0 297 210"
   version="1.1"
   id="svg8"
   inkscape:version="0.92.4 (33fec40, 2019-01-16)"
   sodipodi:docname="drawing-2.svg">
  <defs
     id="defs2" />
  <sodipodi:namedview
     id="base"
     pagecolor="#ffffff"
     bordercolor="#666666"
     borderopacity="1.0"
     inkscape:pageopacity="0.0"
     inkscape:pageshadow="2"
     inkscape:zoom="0.98994949"
     inkscape:cx="539.94876"
     inkscape:cy="232.55632"
     inkscape:document-units="mm"
     inkscape:current-layer="layer1"
     showgrid="false"
     inkscape:window-width="1853"
     inkscape:window-height="1025"
     inkscape:window-x="67"
     inkscape:window-y="27"
     inkscape:window-maximized="1" />
  <metadata
     id="metadata5">
    <rdf:RDF>
      <cc:Work
         rdf:about="">
        <dc:format>image/svg+xml</dc:format>
        <dc:type
           rdf:resource="http://purl.org/dc/dcmitype/StillImage" />
        <dc:title></dc:title>
      </cc:Work>
    </rdf:RDF>
  </metadata>
  <g
     inkscape:label="Layer 1"
     inkscape:groupmode="layer"
     id="layer1"
     transform="translate(0,-87)">
    <path
       style="fill:none;stroke:#4d4d4d;stroke-width:1.64261925;stroke-linecap:square;stroke-linejoin:miter;stroke-miterlimit:0.30000001;stroke-dasharray:none;stroke-dashoffset:0;stroke-opacity:1;paint-order:stroke markers fill"
       d="m 222.6024,176.78636 c -4.40278,0.36852 -17.93229,2.55389 -16.20528,14.15617 2.76931,12.85036 35.72963,5.14236 42.78552,-0.11904"
       id="path2379"
       inkscape:connector-curvature="0"
       sodipodi:nodetypes="ccc" />
    <path
       style="fill:none;stroke:#fc0000;stroke-width:1.66066861;stroke-linecap:square;stroke-linejoin:miter;stroke-miterlimit:0.30000001;stroke-dasharray:3.32133732, 6.64267464;stroke-dashoffset:0;stroke-opacity:1;paint-order:stroke markers fill"
       d="m 217.57832,173.9303 c -12.39724,3.05898 -20.12414,10.26226 -18.25624,21.33492 2.69996,14.745 52.36346,5.79421 64.79844,-2.47647"
       id="path1651"
       inkscape:connector-curvature="0"
       sodipodi:nodetypes="ccc" />
    <path
       sodipodi:nodetypes="ccc"
       inkscape:connector-curvature="0"
       id="path2375"
       d="m 225.67659,170.25543 c -20.31932,-1.39683 -34.27613,9.74755 -33.40593,23.37612 2.44583,28.49004 71.05058,13.62587 91.67396,-1.06953"
       style="fill:none;stroke:#4d4d4d;stroke-width:2.09899998;stroke-linecap:square;stroke-linejoin:miter;stroke-miterlimit:0.30000001;stroke-dasharray:none;stroke-dashoffset:0;stroke-opacity:1;paint-order:stroke markers fill" />
    <path
       style="fill:#4d4d4d;stroke:none;stroke-width:0.6337111px;stroke-linecap:butt;stroke-linejoin:miter;stroke-opacity:1"
       d="m 101.35156,418.86914 c 0.65111,3.65466 2.17286,7.31547 4.69141,10.96094 -2.00491,-3.73542 -3.55482,-7.38943 -4.69141,-10.96094 z"
       transform="matrix(0.26458333,0,0,0.26458333,0,87)"
       id="path2390" />
    <path
       style="fill:#4d4d4d;stroke:none;stroke-width:0.16766939px;stroke-linecap:butt;stroke-linejoin:miter;stroke-opacity:1"
       d="m 113.29162,199.48815 c -6.22983,0.28161 -13.734338,0.14831 -24.519557,0.39863 -11.692249,8.71901 -44.217951,11.28543 -55.817728,7.70718 17.632514,7.4639 59.466643,5.00298 80.337285,-8.10581 z"
       id="path1610"
       inkscape:connector-curvature="0"
       sodipodi:nodetypes="cccc" />
    <path
       style="font-style:normal;font-variant:normal;font-weight:normal;font-stretch:normal;font-size:22.29957008px;line-height:1.25;font-family:'Days One';-inkscape-font-specification:'Days One, Normal';font-variant-ligatures:normal;font-variant-caps:normal;font-variant-numeric:normal;font-feature-settings:normal;text-align:start;letter-spacing:0px;word-spacing:0px;writing-mode:lr-tb;text-anchor:start;fill:#4d4d4d;fill-opacity:1;stroke:none;stroke-width:2.10704613"
       d="M 271.41797 319.34961 C 260.58095 319.34961 251.46264 321.80391 244.06445 326.71484 C 236.66628 331.62581 231.04057 339.41744 227.18555 350.08984 C 223.33053 360.76225 223.32367 368.56745 227.16406 373.50586 C 231.01445 378.41683 238.3583 380.87305 249.19531 380.87305 C 260.05977 380.87305 269.17612 378.41683 276.54688 373.50586 C 283.95496 368.56745 289.58639 360.76225 293.44141 350.08984 C 297.29643 339.41744 297.29944 331.62581 293.44922 326.71484 C 289.62627 321.80391 282.28242 319.34961 271.41797 319.34961 z M 267.4043 330.46094 C 273.60471 330.46094 277.49633 332.10617 279.07812 335.39844 C 280.65988 338.69071 280.27071 343.60123 277.91211 350.13086 C 275.56342 356.63308 272.4094 361.53003 268.44922 364.82227 C 264.49892 368.0871 259.42307 369.7207 253.22266 369.7207 C 247.04967 369.7207 243.15429 368.0871 241.53516 364.82227 C 239.95339 361.53003 240.33685 356.63308 242.68555 350.13086 C 245.04414 343.60123 248.20388 338.69071 252.16406 335.39844 C 256.15171 332.10617 261.23132 330.46094 267.4043 330.46094 z "
       transform="matrix(0.26458333,0,0,0.26458333,0,87)"
       id="path2424" />
    <path
       style="font-style:normal;font-variant:normal;font-weight:normal;font-stretch:normal;font-size:22.29957008px;line-height:1.25;font-family:'Days One';-inkscape-font-specification:'Days One, Normal';font-variant-ligatures:normal;font-variant-caps:normal;font-variant-numeric:normal;font-feature-settings:normal;text-align:start;letter-spacing:0px;word-spacing:0px;writing-mode:lr-tb;text-anchor:start;fill:#4d4d4d;fill-opacity:1;stroke:none;stroke-width:2.10704613"
       d="M 342.77734 319.34961 C 331.94033 319.34961 322.82395 321.80391 315.42578 326.71484 C 308.02758 331.62581 302.39994 339.41744 298.54492 350.08984 C 294.6899 360.76225 294.68303 368.56745 298.52344 373.50586 C 302.3738 378.41683 309.71767 380.87305 320.55469 380.87305 C 331.41917 380.87305 340.53552 378.41683 347.90625 373.50586 C 355.31436 368.56745 360.94771 360.76225 364.80273 350.08984 C 368.65775 339.41744 368.65879 331.62581 364.80859 326.71484 C 360.98567 321.80391 353.64183 319.34961 342.77734 319.34961 z M 338.76367 330.46094 C 344.96411 330.46094 348.85573 332.10617 350.4375 335.39844 C 352.01928 338.69071 351.63008 343.60123 349.27148 350.13086 C 346.92279 356.63308 343.7688 361.53003 339.80859 364.82227 C 335.85832 368.0871 330.78247 369.7207 324.58203 369.7207 C 318.40905 369.7207 314.51364 368.0871 312.89453 364.82227 C 311.31274 361.53003 311.69623 356.63308 314.04492 350.13086 C 316.40352 343.60123 319.56323 338.69071 323.52344 335.39844 C 327.51105 332.10617 332.5907 330.46094 338.76367 330.46094 z "
       transform="matrix(0.26458333,0,0,0.26458333,0,87)"
       id="path2422" />
    <path
       inkscape:connector-curvature="0"
       id="path2420"
       d="m 101.9359,171.79947 c -0.2831,0 -0.56458,0.10524 -0.84387,0.31575 -0.2793,0.21051 -0.4698,0.4569 -0.57206,0.74 l -4.888596,13.53458 c -0.102261,0.2831 -0.09001,0.53002 0.03721,0.74052 0.129836,0.20325 0.3365,0.30489 0.619601,0.30489 h 2.046904 c 0.283099,0 0.556456,-0.0945 0.820621,-0.28319 0.274036,-0.19599 0.462556,-0.43571 0.564816,-0.71881 l 1.911514,-5.29167 h 2.34095 c 0.65331,0 1.14403,0.18891 1.47226,0.56637 0.33085,0.37021 0.59096,0.92512 0.78083,1.66553 l 0.81907,3.03806 c 0.0792,0.2831 0.24544,0.52642 0.49868,0.72967 0.25586,0.196 0.52563,0.29404 0.80874,0.29404 h 2.49338 c 0.37747,0 0.62361,-0.15964 0.73898,-0.47904 0.0551,-0.15244 0.0592,-0.33415 0.0119,-0.54467 l -1.15703,-4.33358 c -0.17234,-0.58798 -0.4221,-1.13263 -0.74931,-1.6335 -0.31994,-0.50087 -0.70121,-0.80167 -1.1436,-0.9033 0.74266,-0.16695 1.39792,-0.45391 1.96577,-0.86041 0.57512,-0.40651 1.14642,-0.92189 1.71308,-1.54616 l 3.90829,-4.27933 c 0.2073,-0.23228 0.34121,-0.43197 0.40152,-0.59893 0.11013,-0.30487 -0.009,-0.45682 -0.3576,-0.45682 h -2.51512 c -0.66319,0.007 -1.31331,0.35889 -1.94975,1.05575 l -2.77296,3.0055 c -0.7161,0.77672 -1.38044,1.33932 -1.99264,1.68776 -0.60495,0.34842 -1.22673,0.52245 -1.86552,0.52245 h -2.34094 l 1.8836,-5.21571 c 0.10226,-0.2831 0.09,-0.52949 -0.0372,-0.74 -0.11996,-0.21051 -0.32152,-0.31575 -0.60462,-0.31575 z"
       style="font-style:normal;font-variant:normal;font-weight:normal;font-stretch:normal;font-size:22.29957008px;line-height:1.25;font-family:'Days One';-inkscape-font-specification:'Days One, Normal';font-variant-ligatures:normal;font-variant-caps:normal;font-variant-numeric:normal;font-feature-settings:normal;text-align:start;letter-spacing:0px;word-spacing:0px;writing-mode:lr-tb;text-anchor:start;fill:#4d4d4d;fill-opacity:1;stroke:none;stroke-width:0.55748928" />
    <path
       inkscape:connector-curvature="0"
       id="path2418"
       d="m 48.76343,171.82117 c -0.283098,0 -0.56307,0.10164 -0.839739,0.30489 -0.276667,0.20325 -0.468691,0.45325 -0.576194,0.75086 l -4.896342,13.55628 c -0.102259,0.2831 -0.08749,0.52282 0.04496,0.71882 0.13508,0.18873 0.344252,0.28319 0.627353,0.28319 h 12.554273 c 0.283099,0 0.558483,-0.0981 0.825272,-0.29404 0.276665,-0.20326 0.46618,-0.44658 0.568439,-0.72967 l 0.369488,-1.02371 c 0.102259,-0.28311 0.08849,-0.52591 -0.04134,-0.72916 -0.122576,-0.20326 -0.325649,-0.30489 -0.608748,-0.30489 H 47.30719 l 4.145484,-11.47682 c 0.1075,-0.29761 0.09624,-0.54761 -0.03359,-0.75086 -0.122573,-0.20325 -0.32513,-0.30489 -0.608229,-0.30489 z"
       style="font-style:normal;font-variant:normal;font-weight:normal;font-stretch:normal;font-size:22.29957008px;line-height:1.25;font-family:'Days One';-inkscape-font-specification:'Days One, Normal';font-variant-ligatures:normal;font-variant-caps:normal;font-variant-numeric:normal;font-feature-settings:normal;text-align:start;letter-spacing:0px;word-spacing:0px;writing-mode:lr-tb;text-anchor:start;fill:#4d4d4d;fill-opacity:1;stroke:none;stroke-width:0.55748928" />
    <path
       inkscape:connector-curvature="0"
       id="path2416"
       d="m 118.51525,171.82117 c -0.37747,0 -0.62914,0.17402 -0.755,0.52245 -0.0577,0.1597 -0.0579,0.33012 0,0.5116 l 2.56212,9.00513 -1.65209,4.57285 c -0.10227,0.2831 -0.087,0.52282 0.0455,0.71882 0.13508,0.18873 0.34374,0.28319 0.62683,0.28319 h 2.04743 c 0.2831,0 0.55645,-0.0945 0.82062,-0.28319 0.27404,-0.196 0.46256,-0.43572 0.56482,-0.71882 l 1.65158,-4.57285 9.078,-9.00513 c 0.1817,-0.18148 0.30146,-0.3519 0.35915,-0.5116 0.12586,-0.34843 0.004,-0.52245 -0.36639,-0.52245 h -2.07997 c -0.81301,0 -1.56893,0.34444 -2.26808,1.03405 l -5.47977,5.43377 -1.56528,-5.43377 c -0.1937,-0.68961 -0.70057,-1.03405 -1.52084,-1.03405 z"
       style="font-style:normal;font-variant:normal;font-weight:normal;font-stretch:normal;font-size:22.29957008px;line-height:1.25;font-family:'Days One';-inkscape-font-specification:'Days One, Normal';font-variant-ligatures:normal;font-variant-caps:normal;font-variant-numeric:normal;font-feature-settings:normal;text-align:start;letter-spacing:0px;word-spacing:0px;writing-mode:lr-tb;text-anchor:start;fill:#4d4d4d;fill-opacity:1;stroke:none;stroke-width:0.55748928" />
    <text
       xml:space="preserve"
       style="font-style:normal;font-variant:normal;font-weight:normal;font-stretch:normal;font-size:10.58333302px;line-height:1.25;font-family:'Days One';-inkscape-font-specification:'Days One, Normal';font-variant-ligatures:normal;font-variant-caps:normal;font-variant-numeric:normal;font-feature-settings:normal;text-align:start;letter-spacing:0px;word-spacing:0px;writing-mode:lr-tb;text-anchor:start;fill:#ff0000;fill-opacity:1;stroke:none;stroke-width:0.26458332"
       x="125.00697"
       y="196.71301"
       id="text1629"
       transform="skewX(-19.08316)"><tspan
         sodipodi:role="line"
         id="tspan1627"
         x="125.00697"
         y="196.71301"
         style="font-style:normal;font-variant:normal;font-weight:normal;font-stretch:normal;font-size:10.58333302px;font-family:'Days One';-inkscape-font-specification:'Days One, Normal';font-variant-ligatures:normal;font-variant-caps:normal;font-variant-numeric:normal;font-feature-settings:normal;text-align:start;writing-mode:lr-tb;text-anchor:start;fill:#ff0000;stroke-width:0.26458332">LOGISTICS</tspan></text>
    <path
       sodipodi:nodetypes="ccccc"
       inkscape:connector-curvature="0"
       id="path1631"
       d="m 48.506415,164.40051 c -6.685097,1.86392 -33.974334,21.91308 -19.585258,38.34639 7.08163,7.45902 37.299048,2.28738 50.349144,-2.98119 -9.379435,1.51077 -29.944562,2.85883 -37.008955,-4.22757 -7.517673,-7.85933 -6.106742,-22.62947 6.245069,-31.13763 z"
       style="fill:#ff0000;stroke:none;stroke-width:0.10613645px;stroke-linecap:butt;stroke-linejoin:miter;stroke-opacity:1" />
    <text
       xml:space="preserve"
       style="font-style:normal;font-variant:normal;font-weight:normal;font-stretch:normal;font-size:25.65359116px;line-height:1.25;font-family:'Squada One';-inkscape-font-specification:'Squada One, Normal';font-variant-ligatures:normal;font-variant-caps:normal;font-variant-numeric:normal;font-feature-settings:normal;text-align:start;letter-spacing:0px;word-spacing:0px;writing-mode:lr-tb;text-anchor:start;fill:#4d4d4d;fill-opacity:1;stroke:none;stroke-width:0.64133865"
       x="284.96335"
       y="185.79582"
       id="text1625-9"
       transform="skewX(-19.860421)"><tspan
         sodipodi:role="line"
         id="tspan1623-8"
         x="284.96335"
         y="185.79582"
         style="font-style:normal;font-variant:normal;font-weight:normal;font-stretch:normal;font-size:25.65359116px;font-family:'Squada One';-inkscape-font-specification:'Squada One, Normal';font-variant-ligatures:normal;font-variant-caps:normal;font-variant-numeric:normal;font-feature-settings:normal;text-align:start;writing-mode:lr-tb;text-anchor:start;fill:#4d4d4d;stroke-width:0.64133865">LOOKY</tspan></text>
    <rect
       style="opacity:1;fill:#ffffff;fill-opacity:1;stroke:none;stroke-width:0.53125364;stroke-miterlimit:4;stroke-dasharray:none;stroke-opacity:1"
       id="rect1649"
       width="72.540237"
       height="9.8122072"
       x="305.59082"
       y="194.59932"
       transform="matrix(1,0,-0.34053058,0.94023344,0,0)" />
    <text
       xml:space="preserve"
       style="font-style:normal;font-variant:normal;font-weight:normal;font-stretch:normal;font-size:9.41670609px;line-height:1.25;font-family:'Days One';-inkscape-font-specification:'Days One, Normal';font-variant-ligatures:normal;font-variant-caps:normal;font-variant-numeric:normal;font-feature-settings:normal;text-align:start;letter-spacing:0px;word-spacing:0px;writing-mode:lr-tb;text-anchor:start;fill:#ff0000;fill-opacity:1;stroke:none;stroke-width:0.23541763"
       x="304.95654"
       y="190.78162"
       id="text1629-9"
       transform="skewX(-19.083159)"><tspan
         sodipodi:role="line"
         id="tspan1627-7"
         x="304.95654"
         y="190.78162"
         style="font-style:normal;font-variant:normal;font-weight:normal;font-stretch:normal;font-size:9.41670609px;font-family:'Days One';-inkscape-font-specification:'Days One, Normal';font-variant-ligatures:normal;font-variant-caps:normal;font-variant-numeric:normal;font-feature-settings:normal;text-align:start;writing-mode:lr-tb;text-anchor:start;fill:#ff0000;stroke-width:0.23541763">LOGISTICS</tspan></text>
  </g>
</svg>
