<?xml version="1.0" encoding="UTF-8" standalone="no"?>
<!-- Created with Inkscape (http://www.inkscape.org/) -->

<svg
   xmlns:dc="http://purl.org/dc/elements/1.1/"
   xmlns:cc="http://creativecommons.org/ns#"
   xmlns:rdf="http://www.w3.org/1999/02/22-rdf-syntax-ns#"
   xmlns:svg="http://www.w3.org/2000/svg"
   xmlns="http://www.w3.org/2000/svg"
   xmlns:sodipodi="http://sodipodi.sourceforge.net/DTD/sodipodi-0.dtd"
   xmlns:inkscape="http://www.inkscape.org/namespaces/inkscape"
   width="297mm"
   height="210mm"
   viewBox="0 0 297 210"
   version="1.1"
   id="svg8"
   inkscape:version="0.92.4 (5da689c313, 2019-01-14)"
   sodipodi:docname="drawing.svg">
  <defs
     id="defs2" />
  <sodipodi:namedview
     id="base"
     pagecolor="#ffffff"
     bordercolor="#666666"
     borderopacity="1.0"
     inkscape:pageopacity="0.0"
     inkscape:pageshadow="2"
     inkscape:zoom="1.4"
     inkscape:cx="413.13788"
     inkscape:cy="628.78053"
     inkscape:document-units="mm"
     inkscape:current-layer="layer1"
     showgrid="false"
     inkscape:window-width="1850"
     inkscape:window-height="1016"
     inkscape:window-x="70"
     inkscape:window-y="27"
     inkscape:window-maximized="1" />
  <metadata
     id="metadata5">
    <rdf:RDF>
      <cc:Work
         rdf:about="">
        <dc:format>image/svg+xml</dc:format>
        <dc:type
           rdf:resource="http://purl.org/dc/dcmitype/StillImage" />
        <dc:title></dc:title>
      </cc:Work>
    </rdf:RDF>
  </metadata>
  <g
     inkscape:label="Layer 1"
     inkscape:groupmode="layer"
     id="layer1"
     transform="translate(0,-87)">
    <path
       style="font-style:normal;font-variant:normal;font-weight:normal;font-stretch:normal;font-size:13.34608078px;line-height:1.25;font-family:Audiowide;-inkscape-font-specification:'Audiowide, Normal';font-variant-ligatures:normal;font-variant-caps:normal;font-variant-numeric:normal;font-feature-settings:normal;text-align:start;letter-spacing:0px;word-spacing:0px;writing-mode:lr-tb;text-anchor:start;fill:#000000;fill-opacity:1;stroke:#000000;stroke-width:1.23399997;stroke-miterlimit:4;stroke-dasharray:none;stroke-opacity:1"
       d="m 102.7988,155.31676 c -0.56044,0 -1.11486,0.098 -1.66347,0.29352 -0.5486,0.1955 -1.05946,0.46687 -1.532727,0.81442 -0.471699,0.34321 -0.894897,0.75594 -1.269174,1.23817 -0.368359,0.47789 -0.654572,0.99947 -0.858862,1.56425 l -0.645956,1.78542 c -0.205862,0.56912 -0.297556,1.09256 -0.274918,1.57044 0.02698,0.47789 0.151268,0.89062 0.373105,1.23817 0.221837,0.34755 0.53644,0.61892 0.94361,0.81442 0.408744,0.19116 0.893228,0.28681 1.453658,0.28681 h 2.293924 c 0.56043,0 1.11199,-0.0957 1.65468,-0.28681 0.5486,-0.1955 1.05945,-0.46687 1.53272,-0.81442 0.47327,-0.34755 0.8941,-0.76028 1.26246,-1.23817 0.36836,-0.47788 0.65558,-1.00132 0.86144,-1.57044 l 0.64596,-1.78542 c 0.20429,-0.56478 0.29497,-1.08636 0.27233,-1.56425 -0.0211,-0.48223 -0.14297,-0.89496 -0.36638,-1.23817 -0.22184,-0.34755 -0.53645,-0.61892 -0.94361,-0.81442 -0.40283,-0.1955 -0.88445,-0.29352 -1.44488,-0.29352 z m -0.61289,1.69447 h 2.29392 c 0.32583,0 0.60347,0.0542 0.83354,0.16278 0.23598,0.10427 0.41441,0.25409 0.53485,0.44959 0.12636,0.19115 0.19214,0.42393 0.19741,0.69763 0.0112,0.26935 -0.0438,0.57136 -0.16485,0.90589 l -0.64596,1.78542 c -0.121,0.33452 -0.28486,0.63838 -0.49247,0.91209 -0.2017,0.26935 -0.43607,0.50213 -0.70229,0.69763 -0.26464,0.19115 -0.55311,0.34097 -0.86609,0.44958 -0.30707,0.10427 -0.62584,0.15606 -0.95602,0.15606 h -2.281 c -0.330177,0 -0.613062,-0.0518 -0.849046,-0.15606 -0.230063,-0.10861 -0.408496,-0.25843 -0.53485,-0.44958 -0.124783,-0.1955 -0.192426,-0.42828 -0.203605,-0.69763 -0.0053,-0.27371 0.05263,-0.57757 0.173633,-0.91209 l 0.645438,-1.78542 c 0.121004,-0.33453 0.282511,-0.63654 0.484208,-0.90589 0.207612,-0.2737 0.443842,-0.50648 0.708482,-0.69763 0.26622,-0.1955 0.55284,-0.34532 0.8599,-0.44959 0.31299,-0.10861 0.63463,-0.16278 0.9648,-0.16278 z"
       id="path854"
       inkscape:connector-curvature="0" />
    <path
       style="font-style:normal;font-variant:normal;font-weight:normal;font-stretch:normal;font-size:13.34608078px;line-height:1.25;font-family:Audiowide;-inkscape-font-specification:'Audiowide, Normal';font-variant-ligatures:normal;font-variant-caps:normal;font-variant-numeric:normal;font-feature-settings:normal;text-align:start;letter-spacing:0px;word-spacing:0px;writing-mode:lr-tb;text-anchor:start;fill:#000000;fill-opacity:1;stroke:#000000;stroke-width:1.23399997;stroke-miterlimit:4;stroke-dasharray:none;stroke-opacity:1"
       d="m 89.924225,155.4475 c -0.234598,0 -0.506497,0.0433 -0.81597,0.13023 -0.307901,0.0825 -0.615392,0.2173 -0.921909,0.40411 -0.30217,0.1868 -0.588632,0.43227 -0.859377,0.73638 -0.266404,0.30411 -0.477957,0.67299 -0.635103,1.10743 l -2.519744,6.9665 h 1.693953 l 2.520259,-6.9665 c 0.08015,-0.22156 0.19994,-0.39068 0.359669,-0.50798 0.159729,-0.1173 0.352349,-0.17622 0.578261,-0.17622 h 3.818887 c 0.221565,0 0.403503,0.0373 0.546219,0.11111 0.14429,0.0695 0.252285,0.16702 0.324011,0.293 0.07607,0.12599 0.116877,0.27819 0.121957,0.45631 0.0051,0.17812 -0.02016,0.37365 -0.07545,0.58652 l -0.278019,0.76895 c -0.07857,0.21722 -0.183891,0.41275 -0.316259,0.58653 -0.130797,0.16943 -0.281146,0.31502 -0.451136,0.43666 -0.169989,0.12165 -0.357402,0.21915 -0.56224,0.29301 -0.198919,0.0695 -0.410045,0.11285 -0.633552,0.13022 h -3.831807 l -0.612884,1.69447 H 91.2058 c 0.208534,0 0.438513,-0.0241 0.690399,-0.0718 0.25623,-0.0478 0.518546,-0.12362 0.786516,-0.22789 0.272312,-0.10427 0.544409,-0.23902 0.817004,-0.40411 0.272592,-0.16509 0.531114,-0.36247 0.775145,-0.59273 0.249949,-0.2346 0.477583,-0.50411 0.683162,-0.80822 0.205581,-0.30411 0.378455,-0.64946 0.518316,-1.03611 l 0.278019,-0.76895 c 0.07543,-0.20853 0.13191,-0.42995 0.168981,-0.66456 0.03864,-0.23894 0.04496,-0.47357 0.01963,-0.70383 -0.01942,-0.2346 -0.07314,-0.4584 -0.161229,-0.67127 -0.08374,-0.21288 -0.213704,-0.39995 -0.390157,-0.56069 -0.17054,-0.16509 -0.390372,-0.2951 -0.659908,-0.39068 -0.267967,-0.0999 -0.593341,-0.14986 -0.975651,-0.14986 z"
       id="path848"
       inkscape:connector-curvature="0" />
    <path
       style="font-style:normal;font-variant:normal;font-weight:normal;font-stretch:normal;font-size:13.34608078px;line-height:1.25;font-family:Audiowide;-inkscape-font-specification:'Audiowide, Normal';font-variant-ligatures:normal;font-variant-caps:normal;font-variant-numeric:normal;font-feature-settings:normal;text-align:start;letter-spacing:0px;word-spacing:0px;writing-mode:lr-tb;text-anchor:start;fill:#000000;fill-opacity:1;stroke:#000000;stroke-width:1.23399997;stroke-miterlimit:4;stroke-dasharray:none;stroke-opacity:1"
       d="m 121.94165,155.4475 -0.61288,1.69395 h 3.74086 l -2.76728,7.6507 h 1.69396 l 2.76779,-7.6507 h 3.73362 l 0.61288,-1.69395 z"
       id="path844"
       inkscape:connector-curvature="0" />
    <path
       style="font-style:normal;font-variant:normal;font-weight:normal;font-stretch:normal;font-size:13.34608078px;line-height:1.25;font-family:Audiowide;-inkscape-font-specification:'Audiowide, Normal';font-variant-ligatures:normal;font-variant-caps:normal;font-variant-numeric:normal;font-feature-settings:normal;text-align:start;letter-spacing:0px;word-spacing:0px;writing-mode:lr-tb;text-anchor:start;fill:#000000;fill-opacity:1;stroke:#000000;stroke-width:1.23399997;stroke-miterlimit:4;stroke-dasharray:none;stroke-opacity:1"
       d="m 135.79031,155.4475 c -0.27369,0 -0.58722,0.0499 -0.94051,0.14986 -0.35171,0.0956 -0.70448,0.25386 -1.05833,0.47543 -0.34793,0.21722 -0.67675,0.50179 -0.9865,0.85369 -0.30384,0.34755 -0.54788,0.77535 -0.73174,1.28364 -0.18386,0.5083 -0.25031,0.93847 -0.19947,1.29036 0.0552,0.3519 0.17819,0.63648 0.36897,0.8537 0.19512,0.21722 0.43317,0.37602 0.71417,0.47594 0.28257,0.0956 0.56036,0.14314 0.83405,0.14314 h 3.89692 c 0.1564,0 0.2882,0.0264 0.39533,0.0785 0.11147,0.0521 0.19366,0.1256 0.24598,0.22118 0.0567,0.0956 0.0851,0.20866 0.0858,0.33899 5.3e-4,0.13033 -0.0271,0.27355 -0.0837,0.42995 -0.11629,0.32149 -0.3003,0.57779 -0.55191,0.76895 -0.24727,0.19115 -0.53406,0.2868 -0.8599,0.2868 h -6.53603 l -0.61288,1.69447 h 6.53603 c 0.18247,0 0.38368,-0.0217 0.60358,-0.0651 0.22425,-0.0434 0.45291,-0.11082 0.68575,-0.20206 0.23284,-0.0912 0.46878,-0.20855 0.70745,-0.35191 0.23867,-0.14337 0.4646,-0.31723 0.67748,-0.52142 0.21288,-0.20419 0.40812,-0.43882 0.58652,-0.70383 0.18432,-0.26936 0.33737,-0.57137 0.45837,-0.90589 0.12101,-0.33452 0.18771,-0.63416 0.20103,-0.89917 0.0133,-0.26501 -0.0147,-0.49964 -0.0842,-0.70383 -0.0652,-0.20419 -0.16291,-0.37805 -0.29352,-0.52142 -0.12903,-0.14771 -0.27842,-0.26926 -0.44803,-0.36483 -0.16527,-0.0956 -0.34225,-0.16482 -0.53072,-0.20826 -0.1869,-0.0478 -0.37049,-0.0742 -0.55139,-0.0786 h -0.0129 -3.89692 c -0.32149,0 -0.53985,-0.0933 -0.65474,-0.28008 -0.10897,-0.19116 -0.10442,-0.44983 0.0134,-0.77567 0.11629,-0.32149 0.29842,-0.57965 0.54726,-0.77514 0.25318,-0.1955 0.54099,-0.29353 0.86247,-0.29353 h 5.76708 l 0.61289,-1.69395 z"
       id="path842"
       inkscape:connector-curvature="0" />
    <ellipse
       style="fill:#cccccc;stroke:none;stroke-width:1.23399997;stroke-miterlimit:4;stroke-dasharray:none;stroke-opacity:1"
       id="path863"
       cx="119.0621"
       cy="156.75832"
       rx="10.690781"
       ry="12.428033" />
    <path
       style="font-style:normal;font-variant:normal;font-weight:normal;font-stretch:normal;font-size:13.34608078px;line-height:1.25;font-family:Audiowide;-inkscape-font-specification:'Audiowide, Normal';font-variant-ligatures:normal;font-variant-caps:normal;font-variant-numeric:normal;font-feature-settings:normal;text-align:start;letter-spacing:0px;word-spacing:0px;writing-mode:lr-tb;text-anchor:start;fill:#000000;fill-opacity:1;stroke:#000000;stroke-width:1.23399997;stroke-miterlimit:4;stroke-dasharray:none;stroke-opacity:1"
       d="m 113.31004,155.4475 c -0.2346,0 -0.50649,0.0433 -0.81597,0.13023 -0.3079,0.0825 -0.61487,0.2173 -0.92139,0.40411 -0.30217,0.1868 -0.58863,0.43227 -0.85938,0.73638 -0.2664,0.30411 -0.47847,0.67299 -0.63562,1.10743 l -2.51974,6.9665 h 1.69447 l 2.51974,-6.9665 c 0.0802,-0.22156 0.19994,-0.39068 0.35967,-0.50798 0.15973,-0.1173 0.35287,-0.17622 0.57877,-0.17622 h 3.81838 c 0.22156,0 0.40402,0.0373 0.54673,0.11111 0.14429,0.0695 0.25229,0.16702 0.32401,0.293 0.0761,0.12599 0.11636,0.27819 0.12145,0.45631 0.005,0.17812 -0.0197,0.37365 -0.0749,0.58652 l -0.27853,0.76895 c -0.0786,0.21722 -0.18389,0.41275 -0.31626,0.58653 -0.1308,0.16943 -0.28115,0.31502 -0.45114,0.43666 -0.16999,0.12165 -0.3574,0.21915 -0.56224,0.29301 -0.19892,0.0695 -0.41004,0.11285 -0.63355,0.13022 h -3.83181 l -0.61288,1.69447 h 3.83181 c 0.20853,0 0.43851,-0.0241 0.69039,-0.0718 0.25623,-0.0478 0.51855,-0.12362 0.78652,-0.22789 0.27231,-0.10427 0.54493,-0.23902 0.81752,-0.40411 0.2726,-0.16509 0.5306,-0.36247 0.77463,-0.59273 0.24995,-0.2346 0.47758,-0.50411 0.68316,-0.80822 0.20558,-0.30411 0.37846,-0.64946 0.51832,-1.03611 l 0.27802,-0.76895 c 0.0754,-0.20853 0.13191,-0.42995 0.16898,-0.66456 0.0386,-0.23894 0.0455,-0.47357 0.0202,-0.70383 -0.0194,-0.2346 -0.0731,-0.4584 -0.16123,-0.67127 -0.0837,-0.21288 -0.21422,-0.39995 -0.39067,-0.56069 -0.17054,-0.16509 -0.39037,-0.2951 -0.65991,-0.39068 -0.26797,-0.0999 -0.59334,-0.14986 -0.97565,-0.14986 z"
       id="path846"
       inkscape:connector-curvature="0" />
    <rect
       style="fill:#000000;stroke:none;stroke-width:1.76320708;stroke-miterlimit:4;stroke-dasharray:none;stroke-opacity:1"
       id="rect857"
       width="3.0192971"
       height="6.7246108"
       x="88.121384"
       y="175.16635"
       transform="matrix(0.99237314,-0.12327026,0.14266237,0.98977141,0,0)" />
    <path
       style="font-style:normal;font-variant:normal;font-weight:normal;font-stretch:normal;font-size:13.34608078px;line-height:1.25;font-family:Audiowide;-inkscape-font-specification:'Audiowide, Normal';font-variant-ligatures:normal;font-variant-caps:normal;font-variant-numeric:normal;font-feature-settings:normal;text-align:start;letter-spacing:0px;word-spacing:0px;writing-mode:lr-tb;text-anchor:start;fill:#000000;fill-opacity:1;stroke:#000000;stroke-width:4.66393709;stroke-miterlimit:4;stroke-dasharray:none;stroke-opacity:1"
       d="m 240.18945,258.69922 c -1.10013,0 -2.1362,0.13883 -3.10742,0.41797 -0.97122,0.27914 -1.87915,0.65663 -2.72461,1.13281 -0.8231,0.45976 -1.58336,0.99403 -2.2793,1.60156 -0.69593,0.60754 -1.31248,1.24671 -1.85156,1.91992 -0.53313,0.6568 -0.99925,1.3299 -1.39648,2.01954 -0.37488,0.67321 -0.669,1.30536 -0.88281,1.89648 l -6.27149,17.33984 c -0.39794,1.10014 -0.61857,2.0938 -0.66016,2.98047 -0.0356,0.87026 0.0553,1.64124 0.27149,2.31446 0.2386,0.65679 0.57642,1.22499 1.01172,1.70117 0.44123,0.45975 0.93644,0.83725 1.48633,1.13281 0.5663,0.29556 1.15953,0.51628 1.77929,0.66406 0.64212,0.13136 1.2585,0.19727 1.84961,0.19727 h 23.10156 c 0.45976,0 0.91763,-0.0819 1.3711,-0.2461 0.45347,-0.16419 0.86989,-0.38687 1.25,-0.66601 0.40247,-0.29556 0.75771,-0.63913 1.06445,-1.0332 0.30675,-0.39408 0.54268,-0.8215 0.70899,-1.28125 l 5.2207,-14.4336 c 0.16036,-0.44333 0.22681,-0.85281 0.19922,-1.23047 -0.0217,-0.39407 -0.12776,-0.7396 -0.31641,-1.03515 -0.17223,-0.29556 -0.42508,-0.52526 -0.75976,-0.68946 -0.32875,-0.18061 -0.72189,-0.27148 -1.18164,-0.27148 h -20.22266 l -2.33399,6.45312 h 17.04493 l -2.9043,8.0293 h -19.92578 c -0.821,0 -1.38225,-0.22072 -1.68164,-0.66406 -0.27704,-0.45976 -0.26572,-1.10088 0.0312,-1.92188 l 6.2539,-17.28906 c 0.31479,-0.87025 0.77326,-1.52737 1.37696,-1.9707 0.6037,-0.44334 1.32469,-0.66602 2.16211,-0.66602 h 26.0332 l 2.31641,-6.40234 z"
       transform="matrix(0.26458333,0,0,0.26458333,0,87)"
       id="path852" />
    <path
       style="font-style:normal;font-variant:normal;font-weight:normal;font-stretch:normal;font-size:13.34608078px;line-height:1.25;font-family:Audiowide;-inkscape-font-specification:'Audiowide, Normal';font-variant-ligatures:normal;font-variant-caps:normal;font-variant-numeric:normal;font-feature-settings:normal;text-align:start;letter-spacing:0px;word-spacing:0px;writing-mode:lr-tb;text-anchor:start;fill:#000000;fill-opacity:1;stroke:#000000;stroke-width:4.66393709;stroke-miterlimit:4;stroke-dasharray:none;stroke-opacity:1"
       d="m 298.61133,258.69922 c -1.03445,0 -2.21943,0.18875 -3.55469,0.5664 -1.32932,0.36124 -2.66264,0.95947 -4,1.79688 -1.315,0.82099 -2.55779,1.89655 -3.72852,3.22656 -1.14836,1.31359 -2.07071,2.93044 -2.76562,4.85156 -0.69491,1.92113 -0.94603,3.54695 -0.75391,4.87696 0.20855,1.33001 0.67347,2.40557 1.39453,3.22656 0.73749,0.82099 1.63718,1.42117 2.69922,1.79883 1.06799,0.36124 2.11985,0.54101 3.1543,0.54101 h 14.72852 c 0.59111,0 1.08923,0.0998 1.49414,0.29688 0.42132,0.19704 0.73,0.4747 0.92773,0.83594 0.21415,0.36123 0.32374,0.78865 0.32617,1.28125 0.002,0.49259 -0.10454,1.03388 -0.31836,1.625 -0.43951,1.21507 -1.13497,2.18377 -2.08593,2.90625 -0.93455,0.72247 -2.01656,1.08398 -3.24805,1.08398 h -24.70313 l -2.3164,6.4043 h 24.70312 c 0.68964,0 1.45012,-0.0819 2.28125,-0.2461 0.84755,-0.16419 1.71176,-0.41885 2.5918,-0.76367 0.88004,-0.34482 1.76982,-0.78822 2.67188,-1.33008 0.90205,-0.54185 1.75595,-1.19896 2.56054,-1.9707 0.80459,-0.77173 1.54447,-1.65854 2.21875,-2.66015 0.69664,-1.01804 1.27314,-2.1595 1.73047,-3.42383 0.45733,-1.26433 0.71139,-2.39683 0.76172,-3.39844 0.0503,-1.00161 -0.0557,-1.88842 -0.31836,-2.66016 -0.24629,-0.77173 -0.61574,-1.42884 -1.10938,-1.9707 -0.48769,-0.55828 -1.05229,-1.01767 -1.69335,-1.37891 -0.62465,-0.36123 -1.29352,-0.62291 -2.00586,-0.78711 -0.7064,-0.18061 -1.40225,-0.28045 -2.08594,-0.29687 h -0.0488 -14.72852 c -1.21507,0 -2.04036,-0.35254 -2.4746,-1.05859 -0.41189,-0.72248 -0.39468,-1.70015 0.0508,-2.93165 0.43951,-1.21507 1.12982,-2.19079 2.07031,-2.92968 0.95691,-0.7389 2.04274,-1.10938 3.25781,-1.10938 h 21.79688 l 2.3164,-6.40234 z"
       transform="matrix(0.26458333,0,0,0.26458333,0,87)"
       id="path850" />
  </g>
</svg>
